<?xml version="1.0" encoding="UTF-8" standalone="no"?>
<!-- Created with Inkscape (http://www.inkscape.org/) -->

<svg
   width="443.77161mm"
   height="451.68057mm"
   viewBox="0 0 443.77161 451.68057"
   version="1.1"
   id="svg5"
   inkscape:version="1.1.2 (0a00cf5339, 2022-02-04, custom)"
   sodipodi:docname="Arceaux-10mm.svg"
   xmlns:inkscape="http://www.inkscape.org/namespaces/inkscape"
   xmlns:sodipodi="http://sodipodi.sourceforge.net/DTD/sodipodi-0.dtd"
   xmlns:xlink="http://www.w3.org/1999/xlink"
   xmlns="http://www.w3.org/2000/svg"
   xmlns:svg="http://www.w3.org/2000/svg">
  <sodipodi:namedview
     id="namedview7"
     pagecolor="#ffffff"
     bordercolor="#666666"
     borderopacity="1.0"
     inkscape:pageshadow="2"
     inkscape:pageopacity="0.0"
     inkscape:pagecheckerboard="0"
     inkscape:document-units="mm"
     showgrid="false"
     inkscape:zoom="0.56630544"
     inkscape:cx="1360.5732"
     inkscape:cy="1172.5121"
     inkscape:window-width="2560"
     inkscape:window-height="1387"
     inkscape:window-x="-8"
     inkscape:window-y="-8"
     inkscape:window-maximized="1"
     inkscape:current-layer="layer1"
     showguides="true"
     inkscape:guide-bbox="true"
     inkscape:snap-object-midpoints="false"
     inkscape:snap-center="false">
    <inkscape:grid
       type="xygrid"
       id="grid1179"
       spacingx="10"
       spacingy="10"
       originx="31.570397" />
    <sodipodi:guide
       position="396.29565,231.86019"
       orientation="0,-1"
       id="guide5572" />
    <sodipodi:guide
       position="221.48962,280.94459"
       orientation="1,0"
       id="guide5574" />
  </sodipodi:namedview>
  <defs
     id="defs2" />
  <g
     inkscape:label="Calque 1"
     inkscape:groupmode="layer"
     id="layer1"
     transform="translate(39.085381,-435.71136)">
    <circle
       style="fill:#00ff00;stroke:#00ff00;stroke-width:0.264583"
       id="circle26"
       cx="182.24873"
       cy="655.71155"
       r="150" />
    <circle
       style="fill:none;stroke:#ff0000;stroke-width:0.264583"
       id="circle46"
       cx="182.24873"
       cy="655.71155"
       r="169.86771" />
    <path
       id="circle66"
       style="fill:none;stroke:#ff0000;stroke-width:0.999999"
       d="M 737.93359,1611.0156 C 634.06601,1608.4256 530.63389,1625.337 433,1660.873 225.89754,1736.252 57.221654,1890.8148 -35.920919,2090.5594 -129.06349,2290.3039 -151.1811,2532.2835 -63.664062,2725.9707 0,2910.2363 113.38583,3023.6221 114.69141,3286.0586 c 0,17.0834 13.75253,30.8379 30.83593,30.8379 H 1288.9043 c 17.0834,0 30.8379,-13.7545 30.8379,-30.8379 3.0925,-262.4365 116.4783,-375.8223 180.1818,-565.1577 87.4776,-188.6174 65.5795,-378.1558 -1.8263,-563.3638 -116.8923,-321.1604 -418.4987,-538.001 -760.16411,-546.5215 z"
       transform="matrix(0.26458333,0,0,0.26458333,-7.5149834,9.6641086)"
       sodipodi:nodetypes="scsccsscccs" />
    <path
       id="circle252"
       style="fill:#cccccc;stroke:#800080;stroke-width:0.999999"
       d="M 465.94922,1751.4043 A 736.50785,736.50785 0 0 0 -19.291016,2441.7539 736.50785,736.50785 0 0 0 301.33008,3046.668 l 10.67578,-15.5196 A 717.61021,717.61021 0 0 1 -0.39257812,2441.7539 717.61021,717.61021 0 0 1 472.39648,1769.1191 Z m 502.53516,0 -6.44727,17.7148 a 717.61021,717.61021 0 0 1 472.79099,672.6348 717.61021,717.61021 0 0 1 -310.8398,590.2031 l 9.8164,14.2793 a 736.50785,736.50785 0 0 0 319.9199,-604.4824 736.50785,736.50785 0 0 0 -485.24022,-690.3496 z"
       transform="matrix(0.26458333,0,0,0.26458333,-7.5149834,9.6641086)" />
    <path
       style="fill:#00ffff;stroke:#000000;stroke-width:0.264583px;stroke-linecap:butt;stroke-linejoin:miter;stroke-opacity:1"
       d="M 478.20787,931.94392 660.92314,429.93785 H 478.20787 l 182.71527,502.00607 -182.71527,-2e-5"
       id="path911" />
    <text
       xml:space="preserve"
       style="font-style:normal;font-weight:normal;font-size:10.5833px;line-height:1.25;font-family:sans-serif;fill:#000000;fill-opacity:1;stroke:none;stroke-width:0.264583"
       x="-171.50555"
       y="518.45538"
       id="text1769"><tspan
         sodipodi:role="line"
         id="tspan1767"
         style="stroke-width:0.264583"
         x="-171.50555"
         y="518.45538">Avant la découpe il faut</tspan><tspan
         sodipodi:role="line"
         style="stroke-width:0.264583"
         x="-171.50555"
         y="531.68451"
         id="tspan1771">mesurer la largeur de la </tspan><tspan
         sodipodi:role="line"
         style="stroke-width:0.264583"
         x="-171.50555"
         y="544.91364"
         id="tspan1773">fente</tspan></text>
    <rect
       style="fill:none;fill-rule:evenodd;stroke:#ff0000;stroke-width:0.264583;stroke-linecap:round;stroke-linejoin:round"
       id="rect2349"
       width="9.7354174"
       height="122.40891"
       x="177.38103"
       y="809.05975"
       ry="0" />
    <rect
       style="fill:#00ff00;fill-rule:evenodd;stroke:#ff0000;stroke-width:0.264583;stroke-linecap:round;stroke-linejoin:round"
       id="rect228"
       width="154.31354"
       height="20.396151"
       x="22.995583"
       y="866.86334"
       ry="0" />
    <path
       id="path4662"
       style="fill:none;fill-rule:evenodd;stroke:#ff0000;stroke-width:0.264583;stroke-linecap:round;stroke-linejoin:round"
       d="m -168.10572,723.62937 a 51.220877,89.152388 0 0 0 -50.89354,80.46432 h 2.99982 v 19.7352 h 14.73554 v -19.7352 h 1.79162 c 0.51896,-8.29082 1.81224,-16.52588 4.05608,-24.53129 2.33733,-8.09049 5.42088,-16.08183 10.06967,-23.17121 2.77263,-4.09228 5.92951,-8.07053 10.15494,-10.74713 2.08399,-1.30038 4.53871,-2.24986 6.9882,-2.40401 0.80009,-0.0229 1.57615,0.07 2.3673,0.26149 3.98537,1.12239 7.38164,3.78008 10.19628,6.76757 5.80956,6.34447 9.65496,14.24516 12.58372,22.27511 3.60264,10.16622 5.59104,20.81091 6.25595,31.54947 h 1.8526 v 19.7352 h 14.73554 v -19.7352 h 2.99981 a 51.220877,89.152388 0 0 0 -50.89353,-80.46432 z" />
    <rect
       style="fill:#00ff00;fill-rule:evenodd;stroke:#ff0000;stroke-width:0.264583;stroke-linecap:round;stroke-linejoin:round"
       id="rect4826"
       width="154.31354"
       height="20.396151"
       x="187.10544"
       y="866.86334"
       ry="0" />
    <use
       x="0"
       y="0"
       xlink:href="#path4662"
       id="use4828"
       transform="rotate(180,-147.16869,785.95271)"
       width="100%"
       height="100%" />
    <use
       x="0"
       y="0"
       xlink:href="#path4662"
       id="use5394"
       transform="translate(-13.875422,123.65395)"
       width="100%"
       height="100%" />
    <use
       x="0"
       y="0"
       xlink:href="#path4662"
       id="use5396"
       transform="matrix(1,0,0,-1,26.429368,1699.4271)"
       width="100%"
       height="100%" />
    <path
       style="fill:none;stroke:#000000;stroke-width:0.264583px;stroke-linecap:butt;stroke-linejoin:miter;stroke-opacity:1"
       d="M 182.40424,655.53174 341.57459,887.07975 H 23.151202 L 182.55986,655.35198"
       id="path5718" />
    <use
       x="0"
       y="0"
       xlink:href="#path4662"
       id="use6258"
       transform="translate(34.13852,-103.85212)"
       width="100%"
       height="100%" />
    <use
       x="0"
       y="0"
       xlink:href="#path4662"
       id="use6260"
       transform="rotate(180,-130.5896,735.85295)"
       width="100%"
       height="100%" />
    <rect
       style="fill:#00ff00;fill-rule:evenodd;stroke:#ff0000;stroke-width:0.264583;stroke-linecap:round;stroke-linejoin:round"
       id="rect176"
       width="156.048"
       height="5.7354169"
       x="492.59915"
       y="954.54755"
       ry="2.8677084"
       inkscape:transform-center-x="-75.736652"
       inkscape:transform-center-y="-0.082591768" />
    <use
       x="0"
       y="0"
       xlink:href="#rect176"
       inkscape:transform-center-x="-45.181715"
       inkscape:transform-center-y="60.783711"
       id="use525"
       transform="rotate(53.438344,536.05735,683.50907)"
       width="100%"
       height="100%"
       style="fill:#cccccc" />
    <use
       x="0"
       y="0"
       xlink:href="#rect176"
       inkscape:transform-center-x="45.219735"
       inkscape:transform-center-y="60.755432"
       id="use607"
       transform="rotate(126.72247,320.5889,779.77249)"
       width="100%"
       height="100%"
       style="fill:#cccccc" />
  </g>
</svg>
