<?xml version="1.0" encoding="UTF-8" standalone="no"?>
<!-- Created with Inkscape (http://www.inkscape.org/) -->

<svg
   width="657.99115mm"
   height="354.48141mm"
   viewBox="0 0 657.99115 354.48141"
   version="1.1"
   id="svg2928"
   inkscape:version="1.1.2 (0a00cf5339, 2022-02-04, custom)"
   sodipodi:docname="Arceaux_Support-10mm.svg"
   xmlns:inkscape="http://www.inkscape.org/namespaces/inkscape"
   xmlns:sodipodi="http://sodipodi.sourceforge.net/DTD/sodipodi-0.dtd"
   xmlns:xlink="http://www.w3.org/1999/xlink"
   xmlns="http://www.w3.org/2000/svg"
   xmlns:svg="http://www.w3.org/2000/svg">
  <sodipodi:namedview
     id="namedview2930"
     pagecolor="#ffffff"
     bordercolor="#cccccc"
     borderopacity="1"
     inkscape:pageshadow="0"
     inkscape:pageopacity="1"
     inkscape:pagecheckerboard="0"
     inkscape:document-units="mm"
     showgrid="false"
     inkscape:zoom="0.5"
     inkscape:cx="1929"
     inkscape:cy="1281"
     inkscape:window-width="3840"
     inkscape:window-height="2081"
     inkscape:window-x="-9"
     inkscape:window-y="-9"
     inkscape:window-maximized="1"
     inkscape:current-layer="layer1"
     showguides="true"
     inkscape:guide-bbox="true">
    <sodipodi:guide
       position="188.86869,160.33641"
       orientation="0,-1"
       id="guide694" />
    <sodipodi:guide
       position="159.9746,162.32728"
       orientation="1,0"
       id="guide696" />
  </sodipodi:namedview>
  <defs
     id="defs2925" />
  <g
     inkscape:label="Calque 1"
     inkscape:groupmode="layer"
     id="layer1"
     transform="translate(79.429312,78.648191)">
    <path
       id="path1812"
       style="fill:none;stroke:#ff0000;stroke-width:0.264583;stroke-linecap:round;stroke-linejoin:round;stroke-miterlimit:4;stroke-dasharray:none"
       d="M 75.25633,-44.204548 C 36.40268,-43.043265 -1.90306,-27.193507 -29.928974,-0.208256 -55.253445,23.90351 -72.418051,56.52388 -77.546739,91.14223 c -0.977345,6.36069 -1.537497,12.78139 -1.732196,19.2133 H 75.25633 Z m 9.73533,0.02275 V 110.35553 H 239.53829 C 238.72573,83.86556 231.23932,57.59042 217.81248,34.72965 204.5182,11.968552 185.4868,-7.416617 162.92901,-21.066921 140.8702,-34.479523 115.51946,-42.432686 89.74485,-43.967349 c -1.58315,-0.09753 -3.16798,-0.163539 -4.75319,-0.214445 z M -79.297021,120.09085 c 0.643614,21.05123 5.426008,41.97935 14.196551,61.13838 12.046993,26.50445 31.453463,49.65036 55.600221,65.94533 24.155499,16.41615 52.883499,26.06524 82.073029,27.37094 0.894,0.0426 1.78898,0.0533 2.68355,0.0806 V 120.09085 Z m 164.288681,0 v 154.53786 c 25.13133,-0.77976 50.08144,-7.49782 72.08138,-19.69596 25.34716,-13.94494 46.81305,-34.8969 61.20918,-60.00099 13.09611,-22.6932 20.50855,-48.64901 21.2752,-74.84091 z" />
    <g
       id="g416"
       transform="translate(-146.77223,-131.81142)"
       style="fill:none;stroke:#ff0000">
      <g
         id="g780"
         inkscape:transform-center-x="-57.290987"
         inkscape:transform-center-y="56.907874"
         transform="rotate(45,227.31521,247.30556)">
        <rect
           style="fill:none;fill-rule:evenodd;stroke:#ff0000;stroke-width:0.264583;stroke-linecap:round;stroke-linejoin:round"
           id="rect3015"
           width="14.735541"
           height="9.7354136"
           x="260.17227"
           y="242.16695" />
        <rect
           style="fill:none;fill-rule:evenodd;stroke:#ff0000;stroke-width:0.264583;stroke-linecap:round;stroke-linejoin:round"
           id="rect412"
           width="14.735541"
           height="9.7354136"
           x="341.22418"
           y="242.16695" />
      </g>
      <g
         id="g798"
         inkscape:transform-center-x="56.907873"
         inkscape:transform-center-y="57.290994"
         transform="rotate(135,227.31521,247.30556)">
        <rect
           style="fill:none;fill-rule:evenodd;stroke:#ff0000;stroke-width:0.264583;stroke-linecap:round;stroke-linejoin:round"
           id="rect794"
           width="14.735541"
           height="9.7354136"
           x="260.17227"
           y="242.16695" />
        <rect
           style="fill:none;fill-rule:evenodd;stroke:#ff0000;stroke-width:0.264583;stroke-linecap:round;stroke-linejoin:round"
           id="rect796"
           width="14.735541"
           height="9.7354136"
           x="341.22418"
           y="242.16695" />
      </g>
      <g
         id="g804"
         inkscape:transform-center-x="57.290993"
         inkscape:transform-center-y="-56.907866"
         transform="rotate(-135,227.31521,247.30556)">
        <rect
           style="fill:none;fill-rule:evenodd;stroke:#ff0000;stroke-width:0.264583;stroke-linecap:round;stroke-linejoin:round"
           id="rect800"
           width="14.735541"
           height="9.7354136"
           x="260.17227"
           y="242.16695" />
        <rect
           style="fill:none;fill-rule:evenodd;stroke:#ff0000;stroke-width:0.264583;stroke-linecap:round;stroke-linejoin:round"
           id="rect802"
           width="14.735541"
           height="9.7354136"
           x="341.22418"
           y="242.16695" />
      </g>
      <g
         id="g810"
         inkscape:transform-center-x="-56.907864"
         inkscape:transform-center-y="-57.290993"
         transform="rotate(-45,227.3152,247.30556)">
        <rect
           style="fill:none;fill-rule:evenodd;stroke:#ff0000;stroke-width:0.264583;stroke-linecap:round;stroke-linejoin:round"
           id="rect806"
           width="14.735541"
           height="9.7354136"
           x="260.17227"
           y="242.16695" />
        <rect
           style="fill:none;fill-rule:evenodd;stroke:#ff0000;stroke-width:0.264583;stroke-linecap:round;stroke-linejoin:round"
           id="rect808"
           width="14.735541"
           height="9.7354136"
           x="341.22418"
           y="242.16695" />
      </g>
    </g>
    <g
       id="g998"
       transform="rotate(180,333.37576,122.02437)">
      <path
         id="path992"
         style="fill:none;stroke:#ff0000;stroke-width:0.264583px;stroke-linecap:butt;stroke-linejoin:miter;stroke-opacity:1"
         d="m 361.39306,242.56488 c 0,25 -14.99958,49.99955 -14.9996,74.99955 h 19.99982 v 5.00021 h 29.9997 v -5.00021 h 40.00016 v 5.00021 h 30.00023 v -5.00021 h 19.9998 c 0,-25 -15.0001,-49.99955 -15.0001,-74.99955 z m 10.00042,9.9999 h 89.99969 c 0,20 5.0002,25.00014 5.0002,40.00015 H 366.39328 c 0,-15.00001 5.00023,-20.00015 5.0002,-40.00015 z"
         sodipodi:nodetypes="cccccccccccccccccc" />
      <rect
         style="fill:none;fill-rule:evenodd;stroke:#ff0000;stroke-width:0.264583;stroke-linecap:round;stroke-linejoin:round"
         id="rect994"
         width="9.7353401"
         height="4.73562"
         x="351.87012"
         y="307.56451" />
      <rect
         style="fill:none;fill-rule:evenodd;stroke:#ff0000;stroke-width:0.264583;stroke-linecap:round;stroke-linejoin:round"
         id="rect996"
         width="9.7353096"
         height="4.73562"
         x="471.87003"
         y="307.56451" />
    </g>
    <use
       x="0"
       y="0"
       xlink:href="#path1812"
       id="use854"
       transform="translate(338.87212,1.072211)"
       width="100%"
       height="100%" />
    <use
       x="0"
       y="0"
       xlink:href="#g416"
       id="use856"
       transform="translate(338.87212,1.072211)"
       width="100%"
       height="100%" />
  </g>
</svg>
