<?xml version="1.0" encoding="UTF-8" standalone="no"?>
<!-- Created with Inkscape (http://www.inkscape.org/) -->

<svg
   width="903.77161mm"
   height="459.24237mm"
   viewBox="0 0 903.77161 459.24237"
   version="1.1"
   id="svg5"
   inkscape:version="1.1.2 (0a00cf5339, 2022-02-04, custom)"
   sodipodi:docname="Arceaux-10mm.svg"
   xmlns:inkscape="http://www.inkscape.org/namespaces/inkscape"
   xmlns:sodipodi="http://sodipodi.sourceforge.net/DTD/sodipodi-0.dtd"
   xmlns:xlink="http://www.w3.org/1999/xlink"
   xmlns="http://www.w3.org/2000/svg"
   xmlns:svg="http://www.w3.org/2000/svg">
  <sodipodi:namedview
     id="namedview7"
     pagecolor="#ffffff"
     bordercolor="#666666"
     borderopacity="1.0"
     inkscape:pageshadow="2"
     inkscape:pageopacity="0.0"
     inkscape:pagecheckerboard="0"
     inkscape:document-units="mm"
     showgrid="false"
     inkscape:zoom="0.78077776"
     inkscape:cx="2276.5761"
     inkscape:cy="949.69406"
     inkscape:window-width="3840"
     inkscape:window-height="2081"
     inkscape:window-x="-9"
     inkscape:window-y="-9"
     inkscape:window-maximized="1"
     inkscape:current-layer="layer1"
     showguides="true"
     inkscape:guide-bbox="true"
     inkscape:snap-object-midpoints="false"
     inkscape:snap-center="false">
    <inkscape:grid
       type="xygrid"
       id="grid1179"
       spacingx="10"
       spacingy="10"
       originx="31.570399"
       originy="3.9999929" />
    <sodipodi:guide
       position="396.29566,235.422"
       orientation="0,-1"
       id="guide5572" />
    <sodipodi:guide
       position="221.48962,284.5064"
       orientation="1,0"
       id="guide5574" />
  </sodipodi:namedview>
  <defs
     id="defs2" />
  <g
     inkscape:label="Calque 1"
     inkscape:groupmode="layer"
     id="layer1"
     transform="translate(39.085381,-431.71137)">
    <circle
       style="fill:#00ff00;stroke:#00ff00;stroke-width:0.264583"
       id="circle26"
       cx="182.24873"
       cy="655.71155"
       r="150" />
    <circle
       style="fill:none;stroke:#ff0000;stroke-width:0.264583"
       id="circle46"
       cx="182.24873"
       cy="655.71155"
       r="169.86771" />
    <path
       id="circle66"
       style="fill:none;stroke:#ff0000;stroke-width:0.999999"
       d="M 737.93359,1611.0156 C 634.06601,1608.4256 530.63389,1625.337 433,1660.873 225.89754,1736.252 57.221654,1890.8148 -35.920919,2090.5594 -129.06349,2290.3039 -151.1811,2532.2835 -63.664062,2725.9707 0,2910.2363 151.18111,2978.2678 152.48669,3240.7043 c 0,17.0834 13.75253,76.1922 30.83593,76.1922 H 1251.109 c 17.0834,0 30.8379,-59.1088 30.8379,-76.1922 3.0925,-262.4365 154.2736,-330.468 217.9771,-519.8034 87.4776,-188.6174 65.5795,-378.1558 -1.8263,-563.3638 -116.8923,-321.1604 -418.4987,-538.001 -760.16411,-546.5215 z"
       transform="matrix(0.26458333,0,0,0.26458333,-7.5149834,9.6641086)"
       sodipodi:nodetypes="scsccsscccs" />
    <rect
       style="fill:#00ff00;fill-rule:evenodd;stroke:#00ff00;stroke-width:0.264583;stroke-linecap:round;stroke-linejoin:round"
       id="rect228"
       width="154.31354"
       height="20.396151"
       x="22.995583"
       y="866.86346"
       ry="0" />
    <path
       id="path4662"
       style="fill:none;fill-rule:evenodd;stroke:#ff0000;stroke-width:0.264583;stroke-linecap:round;stroke-linejoin:round"
       d="M 83.25304,620.37605 A 51.220877,89.152388 0 0 0 32.3595,700.84037 h 2.99982 v 19.7352 h 14.73554 v -19.7352 h 1.79162 c 0.51896,-8.29082 1.81224,-16.52588 4.05608,-24.53129 2.33733,-8.09049 5.42088,-16.08183 10.06967,-23.17121 2.77263,-4.09228 5.92951,-8.07053 10.15494,-10.74713 2.08399,-1.30038 4.53871,-2.24986 6.9882,-2.40401 0.80009,-0.0229 1.57615,0.07 2.3673,0.26149 3.98537,1.12239 7.38164,3.78008 10.19628,6.76757 5.80956,6.34447 9.65496,14.24516 12.58372,22.27511 3.60264,10.16622 5.59104,20.81091 6.25595,31.54947 h 1.8526 v 19.7352 h 14.73554 v -19.7352 h 2.99981 A 51.220877,89.152388 0 0 0 83.25304,620.37605 Z" />
    <rect
       style="fill:#00ff00;fill-rule:evenodd;stroke:#00ff00;stroke-width:0.264583;stroke-linecap:round;stroke-linejoin:round"
       id="rect4826"
       width="154.314"
       height="20.396151"
       x="187.10544"
       y="866.86346"
       ry="0" />
    <use
       x="0"
       y="0"
       xlink:href="#path4662"
       id="use4828"
       transform="rotate(180,104.19007,682.69939)"
       width="100%"
       height="100%" />
    <use
       x="0"
       y="0"
       xlink:href="#path4662"
       id="use5394"
       transform="translate(153.38561,14.794115)"
       width="100%"
       height="100%" />
    <use
       x="0"
       y="0"
       xlink:href="#path4662"
       id="use5396"
       transform="matrix(1,0,0,-1,193.6904,1384.0606)"
       width="100%"
       height="100%" />
    <path
       style="fill:none;stroke:#00ff00;stroke-width:0.264583px;stroke-linecap:butt;stroke-linejoin:miter;stroke-opacity:1"
       d="M 182.40424,655.53174 341.57459,887.07975 H 23.151202 L 182.55986,655.35198"
       id="path5718" />
    <circle
       style="fill:none;stroke:#ff0000;stroke-width:0.264583;stroke-linecap:round;stroke-miterlimit:4;stroke-dasharray:none"
       id="path3619"
       cx="292.98282"
       cy="816.15344"
       r="6" />
    <path
       style="color:#000000;fill:none;stroke:#ff0000;stroke-linecap:round;-inkscape-stroke:none"
       d="M 836.53906,85.039062 C 638.57029,85.039079 448.6999,163.68681 308.71484,303.67187 168.72978,443.65694 90.082047,633.52732 90.082031,831.49609 v 0.002 c 0.04046,245.77331 121.080139,475.80231 323.619139,615.02341 a 9.4488192,9.4488192 0 0 0 13.13867,-2.4356 9.4488192,9.4488192 0 0 0 -2.43554,-13.1386 C 226.97668,1295.2396 109.02055,1071.0669 108.98047,831.49609 108.98048,638.53202 185.63192,453.48136 322.07812,317.03516 458.52433,180.58895 643.57499,103.93752 836.53906,103.9375 c 192.96414,1e-5 378.01474,76.65144 514.46094,213.09766 136.4462,136.4462 213.0977,321.49686 213.0977,514.46093 -0.052,239.27951 -117.7349,463.21251 -314.7754,598.96871 a 9.4488192,9.4488192 0 0 0 -2.42,13.1426 9.4488192,9.4488192 0 0 0 13.1426,2.4199 c 202.142,-139.271 322.899,-369.0546 322.9512,-614.52925 v -0.002 c 0,-197.96877 -78.6477,-387.83915 -218.6328,-527.82422 C 1224.3782,163.68681 1034.5079,85.039071 836.53906,85.039062 Z"
       id="path4085"
       transform="matrix(0.26458333,0,0,0.26458333,-39.085381,435.71136)" />
    <rect
       style="opacity:1;vector-effect:none;fill:#00ff00;fill-opacity:1;fill-rule:evenodd;stroke:#00ff00;stroke-width:0.264583;stroke-linecap:butt;stroke-linejoin:miter;stroke-miterlimit:4;stroke-dasharray:none;stroke-dashoffset:0;stroke-opacity:1"
       id="rect4939"
       width="7.5388665"
       height="10.142679"
       x="333.88058"
       y="856.72076" />
    <rect
       style="opacity:1;vector-effect:none;fill:#00ff00;fill-opacity:1;fill-rule:evenodd;stroke:#00ff00;stroke-width:0.264583;stroke-linecap:butt;stroke-linejoin:miter;stroke-miterlimit:4;stroke-dasharray:none;stroke-dashoffset:0;stroke-opacity:1"
       id="rect5021"
       width="7.5388665"
       height="10.142679"
       x="22.995583"
       y="856.72076" />
    <circle
       style="fill:none;stroke:#ff0000;stroke-width:0.264583"
       id="circle1133"
       cx="629.24872"
       cy="655.71155"
       r="169.86771" />
    <path
       id="path1135"
       style="fill:none;stroke:#ff0000;stroke-width:0.264583"
       d="m 634.72994,435.91198 c -27.48163,-0.68527 -54.84804,3.7892 -80.68034,13.19144 -54.79586,19.94402 -99.42469,60.83876 -124.06866,113.68786 -24.64397,52.84906 -30.49592,116.87283 -7.34037,168.11923 16.84445,48.75361 56.84445,66.75361 57.18988,136.18993 0,4.51999 3.63869,20.15919 8.15868,20.15919 H 770.5076 c 4.51998,0 8.1592,-15.6392 8.1592,-20.15919 0.81822,-69.43632 40.81822,-87.43632 57.6731,-137.53131 23.14512,-49.90502 17.35125,-100.05372 -0.48321,-149.05667 C 804.92894,495.53877 725.12892,438.16636 634.72994,435.91198 Z"
       sodipodi:nodetypes="scsccsscccs" />
    <circle
       style="fill:none;stroke:#ff0000;stroke-width:0.264583;stroke-linecap:round;stroke-miterlimit:4;stroke-dasharray:none"
       id="circle1137"
       cx="739.98279"
       cy="816.15344"
       r="6" />
    <path
       style="color:#000000;fill:none;stroke:#ff0000;stroke-width:0.264583;stroke-linecap:round;-inkscape-stroke:none"
       d="m 629.24872,853.04414 c -52.37924,0 -102.61578,-20.80888 -139.65349,-57.84659 -37.03771,-37.03772 -57.84659,-87.27426 -57.8466,-139.65349 v -5.3e-4 c 0.0107,-65.02753 32.03579,-125.88937 85.62423,-162.72496 a 2.5,2.5 0 0 1 3.47628,0.64442 2.5,2.5 0 0 1 -0.64441,3.47626 c -52.23606,35.906 -83.44528,95.21836 -83.45588,158.60481 0,51.05507 20.28069,100.01639 56.38208,136.11778 36.10139,36.10139 85.06271,56.38208 136.11779,56.38209 51.05509,0 100.0164,-20.28069 136.11779,-56.38209 36.10139,-36.10139 56.3821,-85.06271 56.3821,-136.11778 -0.0138,-63.30937 -31.15069,-122.55831 -83.28433,-158.47714 a 2.5,2.5 0 0 1 -0.64029,-3.47731 2.5,2.5 0 0 1 3.47731,-0.64027 c 53.48341,36.84879 85.4337,97.6457 85.44751,162.5942 v 5.3e-4 c 0,52.37923 -20.80887,102.61577 -57.8466,139.65349 -37.03772,37.0377 -87.27424,57.84658 -139.65349,57.84658 z"
       id="path1139" />
  </g>
</svg>
