<?xml version="1.0" encoding="UTF-8" standalone="no"?>
<!-- Created with Inkscape (http://www.inkscape.org/) -->

<svg
   width="613.00006mm"
   height="451.36371mm"
   viewBox="0 0 613.00007 451.36373"
   version="1.1"
   id="svg2256"
   inkscape:version="1.1 (c68e22c387, 2021-05-23)"
   sodipodi:docname="Assiette-5mm.svg"
   xmlns:inkscape="http://www.inkscape.org/namespaces/inkscape"
   xmlns:sodipodi="http://sodipodi.sourceforge.net/DTD/sodipodi-0.dtd"
   xmlns="http://www.w3.org/2000/svg"
   xmlns:svg="http://www.w3.org/2000/svg">
  <sodipodi:namedview
     id="namedview2258"
     pagecolor="#ffffff"
     bordercolor="#666666"
     borderopacity="1.0"
     inkscape:pageshadow="2"
     inkscape:pageopacity="0.0"
     inkscape:pagecheckerboard="0"
     inkscape:document-units="mm"
     showgrid="false"
     inkscape:zoom="0.2002192"
     inkscape:cx="504.44713"
     inkscape:cy="1580.7675"
     inkscape:window-width="1920"
     inkscape:window-height="1013"
     inkscape:window-x="-9"
     inkscape:window-y="-9"
     inkscape:window-maximized="1"
     inkscape:current-layer="layer1"
     lock-margins="true"
     fit-margin-top="10"
     fit-margin-left="10"
     fit-margin-right="10"
     fit-margin-bottom="10">
    <inkscape:grid
       type="xygrid"
       id="grid831"
       spacingx="5.0000002"
       spacingy="5.0000002"
       empspacing="10"
       originx="21.155528"
       originy="-9.5125264e-06" />
  </sodipodi:namedview>
  <defs
     id="defs2253">
    <rect
       x="1180.4584"
       y="480.30618"
       width="45.911621"
       height="53.857863"
       id="rect18691" />
    <rect
       x="1128.3664"
       y="448.52122"
       width="56.50661"
       height="32.667884"
       id="rect17673" />
    <rect
       x="951.78321"
       y="468.82828"
       width="316.08385"
       height="82.111167"
       id="rect15727" />
    <rect
       x="946.46265"
       y="343.37365"
       width="307.16334"
       height="99.890518"
       id="rect13049" />
    <rect
       x="801.6214"
       y="434.52375"
       width="96.144623"
       height="72.420625"
       id="rect11286" />
    <rect
       x="1274.8527"
       y="595.59721"
       width="83.658308"
       height="68.674731"
       id="rect8134" />
    <rect
       x="1060.0881"
       y="604.33763"
       width="78.663783"
       height="56.188416"
       id="rect7248" />
    <rect
       x="860.30708"
       y="586.85679"
       width="133.60357"
       height="121.11725"
       id="rect4822" />
    <rect
       x="194.78651"
       y="159.82483"
       width="299.67155"
       height="137.34946"
       id="rect2404" />
  </defs>
  <g
     inkscape:label="Calque 1"
     inkscape:groupmode="layer"
     id="layer1"
     transform="translate(-259.893,-37.8971)">
    <ellipse
       style="fill:none;fill-rule:evenodd;stroke:#ff0000;stroke-width:0.264583;stroke-linecap:round;stroke-linejoin:round"
       id="ellipse518"
       cx="416.39331"
       cy="373.26077"
       rx="146.36771"
       ry="105.86771" />
    <rect
       style="fill:none;fill-rule:evenodd;stroke:#ff0000;stroke-width:0.264583;stroke-linecap:round;stroke-linejoin:round"
       id="rect544"
       width="29.99968"
       height="11"
       x="366.39328"
       y="322.56464" />
    <rect
       style="fill:none;fill-rule:evenodd;stroke:#ff0000;stroke-width:0.264583;stroke-linecap:round;stroke-linejoin:round"
       id="rect626"
       width="30.00021"
       height="11"
       x="436.39307"
       y="322.56464" />
    <circle
       style="fill:none;stroke:#ff0000;stroke-width:0.264583"
       id="circle635"
       cx="476.73767"
       cy="327.3931"
       r="5" />
    <g
       id="g654"
       transform="translate(5.2e-6,241.28313)">
      <ellipse
         style="fill:none;stroke:#ff0000;stroke-width:0.264583"
         id="ellipse1174"
         cx="496.46124"
         cy="131.97766"
         rx="15"
         ry="14.999999" />
      <ellipse
         style="fill:none;stroke:#ff0000;stroke-width:0.264583"
         id="ellipse648"
         cx="337.46124"
         cy="131.97766"
         rx="15"
         ry="14.999999" />
    </g>
    <g
       id="g2600"
       transform="translate(7.2146551)">
      <ellipse
         style="fill:none;fill-rule:evenodd;stroke:#ff0000;stroke-width:0.264583;stroke-linecap:round;stroke-linejoin:round"
         id="ellipse2317"
         cx="709.17865"
         cy="373.26077"
         rx="146.36771"
         ry="105.86771" />
      <g
         id="g2331"
         transform="translate(292.78531,241.28313)">
        <ellipse
           style="fill:none;stroke:#ff0000;stroke-width:0.264583"
           id="ellipse2327"
           cx="496.46124"
           cy="131.97766"
           rx="15"
           ry="14.999999" />
        <ellipse
           style="fill:none;stroke:#ff0000;stroke-width:0.264583"
           id="ellipse2329"
           cx="337.46124"
           cy="131.97766"
           rx="15"
           ry="14.999999" />
      </g>
    </g>
    <path
       id="path2602"
       style="fill:none;fill-rule:evenodd;stroke:#ff0000;stroke-width:0.264583;stroke-linecap:round;stroke-linejoin:round"
       d="M 567.06738,79.744593 A 146.3677,105.8677 0 0 0 420.69959,185.61254 146.3677,105.8677 0 0 0 567.06738,291.47998 146.3677,105.8677 0 0 0 713.43518,185.61254 146.3677,105.8677 0 0 0 567.06738,79.744593 Z m -0.924,18.819523 c 3.2635,-0.01133 6.5275,0.07064 9.7875,0.21549 21.7544,1.043781 43.4595,5.733714 63.2897,14.851804 14.0924,6.52029 27.3137,15.35349 37.6572,27.02832 8.1056,9.07458 14.2925,20.0345 16.9281,31.96963 2.5571,11.23651 1.6108,23.16722 -2.3399,33.96743 -4.6448,12.74511 -13.177,23.78907 -23.351,32.63625 -13.546,11.69109 -29.8301,19.89683 -46.823,25.28528 -25.8048,8.04823 -53.4077,10.06304 -80.15893,6.34483 -20.10061,-2.85046 -39.91602,-8.89715 -57.52102,-19.13733 -13.39054,-7.77659 -25.57537,-18.1125 -33.9969,-31.22032 -7.9479,-12.09273 -11.9694,-26.90718 -10.36217,-41.35509 1.45098,-13.40018 7.54693,-26.01719 16.12718,-36.3027 10.23943,-12.28988 23.62967,-21.6394 37.99459,-28.50213 21.67318,-10.21627 45.61409,-15.156907 69.50535,-15.738056 1.0875,-0.02574 2.1755,-0.03963 3.2633,-0.04341 z" />
    <circle
       style="fill:none;stroke:#ff0000;stroke-width:0.264583"
       id="circle3631"
       cx="356.73779"
       cy="327.3931"
       r="5" />
    <path
       id="rect869"
       style="opacity:1;vector-effect:none;fill:none;fill-opacity:1;fill-rule:evenodd;stroke:#ff0000;stroke-width:0.264583;stroke-linecap:butt;stroke-linejoin:miter;stroke-miterlimit:4;stroke-dasharray:none;stroke-dashoffset:0;stroke-opacity:1"
       d="m 415.81605,258.18136 c -1.07496,0 -1.94009,0.86548 -1.94045,1.94045 l -0.0413,123.42498 c -2.30218,1.34507 -4.96535,4.14229 -5.44417,7.47448 h -62.46796 -2.16059 -0.14986 c -0.98451,0 -1.77716,0.79264 -1.77716,1.77716 v 0.14986 2.29597 28.84993 c 0,1.06767 0.85933,1.92701 1.92702,1.92701 h 2.16059 c 1.06769,0 1.92701,-0.85934 1.92701,-1.92701 v -27.07278 h 65.80115 v 27.07278 c 0,1.06767 0.85984,1.92701 1.92753,1.92701 h 2.14509 c 1.06769,0 1.92753,-0.85934 1.92753,-1.92701 v -27.07278 h 66.16909 v 27.07278 c 0,1.06767 0.85984,1.92701 1.92753,1.92701 h 2.16008 c 1.06769,0 1.92701,-0.85934 1.92701,-1.92701 v -28.84993 -2.29597 -0.14986 c 0,-0.0169 -0.009,-0.0308 -0.01,-0.0476 -1.2e-4,0 -2.6e-4,-0.003 -5.3e-4,-0.004 -0.0127,-0.12346 -0.0371,-0.24331 -0.0718,-0.35865 -0.15589,-0.64489 -0.64163,-1.13045 -1.28674,-1.28569 -0.11435,-0.0343 -0.23318,-0.0586 -0.35553,-0.0713 -0.0184,0 -0.0337,-0.0103 -0.0522,-0.0103 h -0.15037 -2.16008 -62.46848 c -0.47882,-3.33219 -3.14199,-6.12941 -5.44417,-7.47448 l 0.0413,-123.4246 c 3.6e-4,-1.07497 -0.86549,-1.94045 -1.94045,-1.94045 z"
       sodipodi:nodetypes="ssccccssccssssccssssccssssccssscccsccccsss" />
    <text
       xml:space="preserve"
       transform="matrix(0.26458333,0,0,0.26458333,259.893,37.8971)"
       id="text17671"
       style="font-style:normal;font-variant:normal;font-weight:normal;font-stretch:normal;font-size:32px;line-height:1.25;font-family:sans-serif;-inkscape-font-specification:sans-serif;letter-spacing:0px;word-spacing:0px;white-space:pre;shape-inside:url(#rect17673);fill:#000000;fill-opacity:1;stroke:none"><tspan
         x="1128.3672"
         y="509.50195"
         id="tspan997">J</tspan></text>
    <g
       id="g933">
      <path
         style="fill:none;stroke:#ff0000;stroke-width:0.264583"
         d="m 639.04029,221.741 a 4.8997893,4.900049 0 0 0 -4.9,4.89975 4.8997893,4.900049 0 0 0 4.9,4.90025 4.8997893,4.900049 0 0 0 4.9,-4.90025 4.8997893,4.900049 0 0 0 -4.9,-4.89975 z"
         id="path883" />
      <path
         style="fill:none;stroke:#ff0000;stroke-width:0.264583"
         d="m 567.22477,221.741 a 4.9000441,4.900049 0 0 0 -4.90025,4.89975 4.9000441,4.900049 0 0 0 4.90025,4.90025 4.9000441,4.900049 0 0 0 4.89975,-4.90025 4.9000441,4.900049 0 0 0 -4.89975,-4.89975 z"
         id="path881" />
      <path
         style="fill:none;stroke:#ff0000;stroke-width:0.264583"
         d="m 495.4085,221.741 a 4.9000441,4.900049 0 0 0 -4.89975,4.89975 4.9000441,4.900049 0 0 0 4.89975,4.90025 4.9000441,4.900049 0 0 0 4.90025,-4.90025 4.9000441,4.900049 0 0 0 -4.90025,-4.89975 z"
         id="path1808" />
      <ellipse
         style="fill:none;fill-rule:evenodd;stroke:#ff0000;stroke-width:0.264582;stroke-linecap:round;stroke-linejoin:round"
         id="path141"
         cx="567.06738"
         cy="185.61229"
         rx="125.21217"
         ry="84.097733" />
      <g
         inkscape:label="Hershey Text"
         style="fill:none;stroke:#000000;stroke-width:1;stroke-linecap:round;stroke-linejoin:round;stroke-miterlimit:4;stroke-dasharray:none"
         transform="matrix(0.264583,0,0,0.264583,289.26175,78.37835)"
         id="g14093">
        <g
           transform="translate(946.463,371.686)"
           id="g14091"
           style="stroke-width:1;stroke-miterlimit:4;stroke-dasharray:none">
          <path
             d="M 220,662 V 0 m 0,662 h 284 l 94,-32 32,-32 32,-62 V 441 L 630,378 598,346 504,315 H 220"
             style="stroke-width:31.25;stroke-miterlimit:4;stroke-dasharray:none"
             transform="scale(0.032,-0.032)"
             id="path14065" />
          <path
             d="M 220,662 V 0 m 0,315 95,95 63,31 h 94 l 64,-31 31,-95 V 0"
             style="stroke-width:31.25;stroke-miterlimit:4;stroke-dasharray:none"
             transform="matrix(0.032,0,0,-0.032,21.184,0)"
             id="path14067" />
          <path
             d="M 346,441 284,410 220,346 189,252 V 189 L 220,94.5 284,31.5 346,0 h 95 l 63,31.5 63,63 31,94.5 v 63 l -31,94 -63,64 -63,31 h -95"
             style="stroke-width:31.25;stroke-miterlimit:4;stroke-dasharray:none"
             transform="matrix(0.032,0,0,-0.032,40.32,0)"
             id="path14069" />
          <path
             d="M 252,662 V 126 L 284,31.5 346,0 h 64 M 158,441 h 220"
             style="stroke-width:31.25;stroke-miterlimit:4;stroke-dasharray:none"
             transform="matrix(0.032,0,0,-0.032,59.456,0)"
             id="path14071" />
          <path
             d="M 346,441 284,410 220,346 189,252 V 189 L 220,94.5 284,31.5 346,0 h 95 l 63,31.5 63,63 31,94.5 v 63 l -31,94 -63,64 -63,31 h -95"
             style="stroke-width:31.25;stroke-miterlimit:4;stroke-dasharray:none"
             transform="matrix(0.032,0,0,-0.032,71.552,0)"
             id="path14073" />
          <path
             d="M 567,662 V 0 m 0,346 -63,64 -63,31 H 346 L 284,410 220,346 189,252 V 189 L 220,94.5 284,31.5 346,0 h 95 l 63,31.5 63,63"
             style="stroke-width:31.25;stroke-miterlimit:4;stroke-dasharray:none"
             transform="matrix(0.032,0,0,-0.032,102.784,0)"
             id="path14075" />
          <path
             d="m 189,252 h 378 v 63 l -31,63 -32,32 -63,31 H 346 L 284,410 220,346 189,252 V 189 L 220,94.5 284,31.5 346,0 h 95 l 63,31.5 63,63"
             style="stroke-width:31.25;stroke-miterlimit:4;stroke-dasharray:none"
             transform="matrix(0.032,0,0,-0.032,121.92,0)"
             id="path14077" />
          <path
             d="m 567,346 -63,64 -63,31 H 346 L 284,410 220,346 189,252 V 189 L 220,94.5 284,31.5 346,0 h 95 l 63,31.5 63,63"
             style="stroke-width:31.25;stroke-miterlimit:4;stroke-dasharray:none"
             transform="matrix(0.032,0,0,-0.032,152.16,0)"
             id="path14079" />
          <path
             d="m 189,252 h 378 v 63 l -31,63 -32,32 -63,31 H 346 L 284,410 220,346 189,252 V 189 L 220,94.5 284,31.5 346,0 h 95 l 63,31.5 63,63"
             style="stroke-width:31.25;stroke-miterlimit:4;stroke-dasharray:none"
             transform="matrix(0.032,0,0,-0.032,170.304,0)"
             id="path14081" />
          <path
             d="m 567,346 -63,64 -63,31 H 346 L 284,410 220,346 189,252 V 189 L 220,94.5 284,31.5 346,0 h 95 l 63,31.5 63,63"
             style="stroke-width:31.25;stroke-miterlimit:4;stroke-dasharray:none"
             transform="matrix(0.032,0,0,-0.032,200.544,0)"
             id="path14083" />
          <path
             d="M 346,441 284,410 220,346 189,252 V 189 L 220,94.5 284,31.5 346,0 h 95 l 63,31.5 63,63 31,94.5 v 63 l -31,94 -63,64 -63,31 H 346 M 290,621 397,721 504,621"
             style="stroke-width:31.25;stroke-miterlimit:4;stroke-dasharray:none"
             transform="matrix(0.032,0,0,-0.032,218.688,0)"
             id="path14085" />
          <path
             d="M 252,662 V 126 L 284,31.5 346,0 h 64 M 158,441 h 220"
             style="stroke-width:31.25;stroke-miterlimit:4;stroke-dasharray:none"
             transform="matrix(0.032,0,0,-0.032,237.824,0)"
             id="path14087" />
          <path
             d="m 189,252 h 378 v 63 l -31,63 -32,32 -63,31 H 346 L 284,410 220,346 189,252 V 189 L 220,94.5 284,31.5 346,0 h 95 l 63,31.5 63,63 M 517,806 391,636"
             style="stroke-width:31.25;stroke-miterlimit:4;stroke-dasharray:none"
             transform="matrix(0.032,0,0,-0.032,249.92,0)"
             id="path14089" />
        </g>
      </g>
      <g
         inkscape:label="Hershey Text"
         style="fill:none;stroke:#000000;stroke-width:1;stroke-linecap:round;stroke-linejoin:round;stroke-miterlimit:4;stroke-dasharray:none"
         transform="matrix(0.264583,0,0,0.264583,322.07008,80.192778)"
         id="g19653">
        <g
           transform="translate(1180.46,508.619)"
           id="g19651"
           style="stroke-width:1;stroke-miterlimit:4;stroke-dasharray:none">
          <path
             d="M 472,662 V 158 L 441,63 410,31.5 346,0 H 284 L 220,31.5 189,63 158,158 v 62"
             style="stroke-width:31.25;stroke-miterlimit:4;stroke-dasharray:none"
             transform="scale(0.032,-0.032)"
             id="path19649" />
        </g>
      </g>
      <g
         inkscape:label="Hershey Text"
         style="fill:none;stroke:#000000;stroke-width:1;stroke-linecap:round;stroke-linejoin:round;stroke-miterlimit:4;stroke-dasharray:none"
         transform="matrix(0.264583,0,0,0.264583,236.0805,82.831729)"
         id="g19839">
        <g
           transform="translate(951.783,497.141)"
           id="g19837"
           style="stroke-width:1;stroke-miterlimit:4;stroke-dasharray:none">
          <path
             d="M 220,662 V 0 m 0,662 h 284 l 94,-32 32,-32 32,-62 V 472 L 630,410 598,378 504,346 H 220 M 441,346 662,0"
             style="stroke-width:31.25;stroke-miterlimit:4;stroke-dasharray:none"
             transform="scale(0.032,-0.032)"
             id="path19831" />
          <path
             d="M 724,788 158,-220"
             style="stroke-width:31.25;stroke-miterlimit:4;stroke-dasharray:none"
             transform="matrix(0.032,0,0,-0.032,21.184,0)"
             id="path19833" />
          <path
             d="M 472,662 V 158 L 441,63 410,31.5 346,0 H 284 L 220,31.5 189,63 158,158 v 62"
             style="stroke-width:31.25;stroke-miterlimit:4;stroke-dasharray:none"
             transform="matrix(0.032,0,0,-0.032,43.36,0)"
             id="path19835" />
        </g>
      </g>
      <g
         inkscape:label="Hershey Text"
         style="fill:none;stroke:#000000;stroke-width:0.264583;stroke-linecap:round;stroke-linejoin:round;stroke-miterlimit:4;stroke-dasharray:none"
         id="g20028"
         transform="translate(72.945911,32.499724)">
        <g
           transform="translate(488.592,182.265)"
           id="g20026"
           style="stroke-width:0.264583;stroke-miterlimit:4;stroke-dasharray:none">
          <path
             d="M 126,662 378,0 M 630,662 378,0"
             style="stroke-width:31.25;stroke-miterlimit:4;stroke-dasharray:none"
             transform="scale(0.00846667,-0.00846667)"
             id="path20024" />
        </g>
      </g>
    </g>
  </g>
</svg>
