<?xml version="1.0" encoding="UTF-8" standalone="no"?>
<!-- Created with Inkscape (http://www.inkscape.org/) -->

<svg
   width="613.00006mm"
   height="451.36371mm"
   viewBox="0 0 613.00007 451.36373"
   version="1.1"
   id="svg2256"
   inkscape:version="1.1.2 (0a00cf5339, 2022-02-04, custom)"
   sodipodi:docname="Assiette-5mm.svg"
   xmlns:inkscape="http://www.inkscape.org/namespaces/inkscape"
   xmlns:sodipodi="http://sodipodi.sourceforge.net/DTD/sodipodi-0.dtd"
   xmlns="http://www.w3.org/2000/svg"
   xmlns:svg="http://www.w3.org/2000/svg">
  <sodipodi:namedview
     id="namedview2258"
     pagecolor="#ffffff"
     bordercolor="#666666"
     borderopacity="1.0"
     inkscape:pageshadow="2"
     inkscape:pageopacity="0.0"
     inkscape:pagecheckerboard="0"
     inkscape:document-units="mm"
     showgrid="false"
     inkscape:zoom="0.80087681"
     inkscape:cx="1440.9207"
     inkscape:cy="1023.2535"
     inkscape:window-width="3840"
     inkscape:window-height="2081"
     inkscape:window-x="-9"
     inkscape:window-y="-9"
     inkscape:window-maximized="1"
     inkscape:current-layer="layer1"
     lock-margins="true"
     fit-margin-top="10"
     fit-margin-left="10"
     fit-margin-right="10"
     fit-margin-bottom="10">
    <inkscape:grid
       type="xygrid"
       id="grid831"
       spacingx="5.0000002"
       spacingy="5.0000002"
       empspacing="10"
       originx="21.155528"
       originy="-9.5125264e-06" />
  </sodipodi:namedview>
  <defs
     id="defs2253" />
  <g
     inkscape:label="Calque 1"
     inkscape:groupmode="layer"
     id="layer1"
     transform="translate(-259.89331,-37.897062)">
    <ellipse
       style="fill:none;fill-rule:evenodd;stroke:#ff0000;stroke-width:0.264583;stroke-linecap:round;stroke-linejoin:round"
       id="ellipse518"
       cx="416.39331"
       cy="373.26077"
       rx="146.36771"
       ry="105.86771" />
    <rect
       style="fill:none;fill-rule:evenodd;stroke:#ff0000;stroke-width:0.264583;stroke-linecap:round;stroke-linejoin:round"
       id="rect544"
       width="29.99968"
       height="11"
       x="366.39328"
       y="322.56464" />
    <rect
       style="fill:none;fill-rule:evenodd;stroke:#ff0000;stroke-width:0.264583;stroke-linecap:round;stroke-linejoin:round"
       id="rect626"
       width="30.00021"
       height="11"
       x="436.39307"
       y="322.56464" />
    <circle
       style="fill:none;stroke:#ff0000;stroke-width:0.264583"
       id="circle635"
       cx="476.73767"
       cy="327.3931"
       r="5" />
    <g
       id="g654"
       transform="translate(5.2e-6,241.28313)">
      <ellipse
         style="fill:none;stroke:#ff0000;stroke-width:0.264583"
         id="ellipse1174"
         cx="496.46124"
         cy="131.97766"
         rx="15"
         ry="14.999999" />
      <ellipse
         style="fill:none;stroke:#ff0000;stroke-width:0.264583"
         id="ellipse648"
         cx="337.46124"
         cy="131.97766"
         rx="15"
         ry="14.999999" />
    </g>
    <rect
       style="fill:#00ff00;fill-rule:evenodd;stroke:#ff0000;stroke-width:0.264583;stroke-linecap:round;stroke-linejoin:round"
       id="rect37"
       width="209.73541"
       height="148.23541"
       x="-521.26099"
       y="-228.01474"
       transform="scale(-1)" />
    <circle
       style="fill:none;stroke:#ff0000;stroke-width:0.264583"
       id="path1808"
       cx="344.83444"
       cy="195.02567"
       r="5" />
    <circle
       style="fill:none;stroke:#ff0000;stroke-width:0.264583"
       id="path1808-4"
       cx="416.65042"
       cy="195.02567"
       r="5" />
    <circle
       style="fill:none;stroke:#ff0000;stroke-width:0.264583"
       id="path1808-45"
       cx="488.4664"
       cy="195.02567"
       r="5" />
    <ellipse
       style="fill:none;fill-rule:evenodd;stroke:#ff0000;stroke-width:0.264582;stroke-linecap:round;stroke-linejoin:round"
       id="path141"
       cx="416.39331"
       cy="153.89705"
       rx="125.21217"
       ry="84.097733" />
    <g
       id="g2600"
       transform="translate(7.2146551)">
      <ellipse
         style="fill:none;fill-rule:evenodd;stroke:#ff0000;stroke-width:0.264583;stroke-linecap:round;stroke-linejoin:round"
         id="ellipse2317"
         cx="709.17865"
         cy="373.26077"
         rx="146.36771"
         ry="105.86771" />
      <g
         id="g2331"
         transform="translate(292.78531,241.28313)">
        <ellipse
           style="fill:none;stroke:#ff0000;stroke-width:0.264583"
           id="ellipse2327"
           cx="496.46124"
           cy="131.97766"
           rx="15"
           ry="14.999999" />
        <ellipse
           style="fill:none;stroke:#ff0000;stroke-width:0.264583"
           id="ellipse2329"
           cx="337.46124"
           cy="131.97766"
           rx="15"
           ry="14.999999" />
      </g>
    </g>
    <path
       id="path2602"
       style="fill:none;fill-rule:evenodd;stroke:#ff0000;stroke-width:0.264583;stroke-linecap:round;stroke-linejoin:round"
       d="M 716.3933,48.029353 A 146.3677,105.8677 0 0 0 570.02551,153.8973 146.3677,105.8677 0 0 0 716.3933,259.76474 146.3677,105.8677 0 0 0 862.7611,153.8973 146.3677,105.8677 0 0 0 716.3933,48.029353 Z m -0.924,18.819523 c 3.2635,-0.01133 6.5275,0.07064 9.7875,0.21549 21.7544,1.043781 43.4595,5.733717 63.2897,14.851806 14.0924,6.520291 27.3137,15.353485 37.6572,27.028318 8.1056,9.07458 14.2925,20.0345 16.9281,31.96963 2.5571,11.23651 1.6108,23.16722 -2.3399,33.96743 -4.6448,12.74511 -13.177,23.78907 -23.351,32.63625 -13.546,11.69109 -29.8301,19.89683 -46.823,25.28528 -25.8048,8.04823 -53.4077,10.06304 -80.15893,6.34483 -20.10061,-2.85046 -39.91602,-8.89715 -57.52102,-19.13733 -13.39054,-7.77659 -25.57537,-18.1125 -33.9969,-31.22032 -7.9479,-12.09273 -11.9694,-26.90718 -10.36217,-41.35509 1.45098,-13.40018 7.54693,-26.01719 16.12718,-36.3027 10.23943,-12.289881 23.62967,-21.639399 37.99459,-28.502129 21.67318,-10.216269 45.61409,-15.156908 69.50535,-15.738057 1.0875,-0.02574 2.1755,-0.03963 3.2633,-0.04341 z" />
    <circle
       style="fill:none;stroke:#ff0000;stroke-width:0.264583"
       id="circle3631"
       cx="356.73779"
       cy="327.3931"
       r="5" />
    <path
       id="rect869"
       style="opacity:1;vector-effect:none;fill:none;fill-opacity:1;fill-rule:evenodd;stroke:#ff0000;stroke-width:0.999999;stroke-linecap:butt;stroke-linejoin:miter;stroke-miterlimit:4;stroke-dasharray:none;stroke-dashoffset:0;stroke-opacity:1"
       d="m 589.1582,832.78711 c -4.06285,0 -7.33398,3.27113 -7.33398,7.33398 v 560.75981 c -8.70116,5.0837 -18.76669,15.6559 -20.57641,28.25 h -236.09937 -8.16602 -0.5664 c -3.72096,0 -6.7168,2.9958 -6.7168,6.7168 v 0.5664 8.6777 109.0391 c 0,4.0353 3.24784,7.2832 7.2832,7.2832 h 8.16602 c 4.03536,0 7.2832,-3.2479 7.2832,-7.2832 v -102.3223 h 248.69727 v 102.3223 c 0,4.0353 3.24979,7.2832 7.28515,7.2832 h 8.10742 c 4.03537,0 7.28516,-3.2479 7.28516,-7.2832 v -102.3223 h 250.08789 v 102.3223 c 0,4.0353 3.24979,7.2832 7.28516,7.2832 h 8.16406 c 4.03537,0 7.2832,-3.2479 7.2832,-7.2832 v -109.0391 -8.6777 -0.5664 c 0,-0.064 -0.0353,-0.1163 -0.0371,-0.1797 -4.6e-4,-0 -0.001,-0.01 -0.002,-0.014 -0.048,-0.4666 -0.14023,-0.9196 -0.27148,-1.3555 -0.58921,-2.4374 -2.42508,-4.2726 -4.86329,-4.8593 -0.43218,-0.1298 -0.88129,-0.2216 -1.34374,-0.2696 -0.0695,-0 -0.12724,-0.039 -0.19727,-0.039 h -0.56836 -8.16406 -236.10133 c -1.80972,-12.5941 -11.87525,-23.1663 -20.57641,-28.25 V 840.12109 c 0,-4.06285 -3.27113,-7.33398 -7.33398,-7.33398 z"
       transform="matrix(0.26458333,0,0,0.26458333,259.89331,37.897062)"
       sodipodi:nodetypes="ssccccssccssssccssssccssssccssscccsccccsss" />
  </g>
</svg>
