<?xml version="1.0" encoding="UTF-8" standalone="no"?>
<svg
   height="404.129mm"
   viewBox="0 0 937.4 404.12899"
   width="937.40002mm"
   version="1.1"
   id="svg55"
   sodipodi:docname="Boite_Fond.svg"
   inkscape:version="1.1.2 (0a00cf5339, 2022-02-04, custom)"
   xmlns:inkscape="http://www.inkscape.org/namespaces/inkscape"
   xmlns:sodipodi="http://sodipodi.sourceforge.net/DTD/sodipodi-0.dtd"
   xmlns="http://www.w3.org/2000/svg"
   xmlns:svg="http://www.w3.org/2000/svg"
   xmlns:rdf="http://www.w3.org/1999/02/22-rdf-syntax-ns#"
   xmlns:cc="http://creativecommons.org/ns#"
   xmlns:dc="http://purl.org/dc/elements/1.1/">
  <defs
     id="defs59" />
  <sodipodi:namedview
     id="namedview57"
     pagecolor="#ffffff"
     bordercolor="#cccccc"
     borderopacity="1"
     inkscape:pageshadow="0"
     inkscape:pageopacity="1"
     inkscape:pagecheckerboard="0"
     inkscape:document-units="mm"
     showgrid="false"
     inkscape:zoom="0.52274215"
     inkscape:cx="2053.5937"
     inkscape:cy="700.15399"
     inkscape:window-width="2560"
     inkscape:window-height="1387"
     inkscape:window-x="-8"
     inkscape:window-y="-8"
     inkscape:window-maximized="1"
     inkscape:current-layer="svg55" />
  <!--
RegularBox - Box with regular polygon as base


For short side walls that don't fit a connecting finger reduce *surroundingspaces* and *finger* in the Finger Joint Settings.

The lids needs to be glued. For the bayonet lid all outside rings attach to the bottom, all inside rings to the top.



Created with Boxes.py (https://festi.info/boxes.py)
Creation date: 2022-02-22 16:13:56
Command line (remove spaces between dashes): boxes RegularBox - -FingerJoint_angle=90.0 - -FingerJoint_style=rectangular - -FingerJoint_surroundingspaces=1 - -FingerJoint_edge_width=1.0 - -FingerJoint_extra_length=0.0 - -FingerJoint_finger=2.0 - -FingerJoint_play=0.0 - -FingerJoint_space=2.0 - -FingerJoint_width=1.0 - -h=80 - -outside=0 - -outside=1 - -radius=185 - -n=6 - -top=hole - -alignment_pins=1.0 - -thickness=5 - -format=svg - -tabs=0.0 - -debug=0 - -labels=0 - -labels=1 - -reference=100 - -burn=0.2
Url: http://www.festi.info/RegularBox?FingerJoint_angle=90.0&FingerJoint_style=rectangular&FingerJoint_surroundingspaces=1&FingerJoint_edge_width=1.0&FingerJoint_extra_length=0.0&FingerJoint_finger=2.0&FingerJoint_play=0.0&FingerJoint_space=2.0&FingerJoint_width=1.0&h=80&outside=0&outside=1&radius=185&n=6&top=hole&alignment_pins=1.0&thickness=5&format=svg&tabs=0.0&debug=0&labels=0&labels=1&reference=100&burn=0.2&render=1
SettingsUrl: http://www.festi.info/RegularBox?FingerJoint_angle=90.0&FingerJoint_style=rectangular&FingerJoint_surroundingspaces=1&FingerJoint_edge_width=1.0&FingerJoint_extra_length=0.0&FingerJoint_finger=2.0&FingerJoint_play=0.0&FingerJoint_space=2.0&FingerJoint_width=1.0&h=80&outside=0&outside=1&radius=185&n=6&top=hole&alignment_pins=1.0&thickness=5&format=svg&tabs=0.0&debug=0&labels=0&labels=1&reference=100&burn=0.2
-->
  <title
     id="title2">RegularBox</title>
  <metadata
     id="metadata4">
    <rdf:RDF>
      <cc:Work>
        <dc:title>Box - RegularBox</dc:title>
        <dc:date>2022-02-22 16:13:56</dc:date>
        <dc:source>http://www.festi.info/RegularBox?FingerJoint_angle=90.0&amp;FingerJoint_style=rectangular&amp;FingerJoint_surroundingspaces=1&amp;FingerJoint_edge_width=1.0&amp;FingerJoint_extra_length=0.0&amp;FingerJoint_finger=2.0&amp;FingerJoint_play=0.0&amp;FingerJoint_space=2.0&amp;FingerJoint_width=1.0&amp;h=80&amp;outside=0&amp;outside=1&amp;radius=185&amp;n=6&amp;top=hole&amp;alignment_pins=1.0&amp;thickness=5&amp;format=svg&amp;tabs=0.0&amp;debug=0&amp;labels=0&amp;labels=1&amp;reference=100&amp;burn=0.2&amp;render=1</dc:source>
        <dc:description>Box with regular polygon as base

For short side walls that don't fit a connecting finger reduce *surroundingspaces* and *finger* in the Finger Joint Settings.

The lids needs to be glued. For the bayonet lid all outside rings attach to the bottom, all inside rings to the top.


Created with Boxes.py (https://festi.info/boxes.py)
Command line: boxes RegularBox --FingerJoint_angle=90.0 --FingerJoint_style=rectangular --FingerJoint_surroundingspaces=1 --FingerJoint_edge_width=1.0 --FingerJoint_extra_length=0.0 --FingerJoint_finger=2.0 --FingerJoint_play=0.0 --FingerJoint_space=2.0 --FingerJoint_width=1.0 --h=80 --outside=0 --outside=1 --radius=185 --n=6 --top=hole --alignment_pins=1.0 --thickness=5 --format=svg --tabs=0.0 --debug=0 --labels=0 --labels=1 --reference=100 --burn=0.2
Url: http://www.festi.info/RegularBox?FingerJoint_angle=90.0&amp;FingerJoint_style=rectangular&amp;FingerJoint_surroundingspaces=1&amp;FingerJoint_edge_width=1.0&amp;FingerJoint_extra_length=0.0&amp;FingerJoint_finger=2.0&amp;FingerJoint_play=0.0&amp;FingerJoint_space=2.0&amp;FingerJoint_width=1.0&amp;h=80&amp;outside=0&amp;outside=1&amp;radius=185&amp;n=6&amp;top=hole&amp;alignment_pins=1.0&amp;thickness=5&amp;format=svg&amp;tabs=0.0&amp;debug=0&amp;labels=0&amp;labels=1&amp;reference=100&amp;burn=0.2&amp;render=1
SettingsUrl: http://www.festi.info/RegularBox?FingerJoint_angle=90.0&amp;FingerJoint_style=rectangular&amp;FingerJoint_surroundingspaces=1&amp;FingerJoint_edge_width=1.0&amp;FingerJoint_extra_length=0.0&amp;FingerJoint_finger=2.0&amp;FingerJoint_play=0.0&amp;FingerJoint_space=2.0&amp;FingerJoint_width=1.0&amp;h=80&amp;outside=0&amp;outside=1&amp;radius=185&amp;n=6&amp;top=hole&amp;alignment_pins=1.0&amp;thickness=5&amp;format=svg&amp;tabs=0.0&amp;debug=0&amp;labels=0&amp;labels=1&amp;reference=100&amp;burn=0.2
</dc:description>
      </cc:Work>
    </rdf:RDF>
  </metadata>
  <g
     id="p-1"
     style="fill:none;stroke:#ff0000;stroke-linecap:round;stroke-linejoin:round"
     transform="translate(-9.8,-9.8)">
    <text
       alignment-baseline="hanging"
       font-size="4px"
       style="font-style:normal;font-weight:normal;font-family:sans-serif;fill:#ff0000;stroke:#ff0000"
       text-anchor="middle"
       transform="translate(195.2,251.515)"
       id="text13" />
    <path
       d="M 105.587,413.729 H 120.2 c 0.11,0 0.2,-0.089 0.2,-0.2 v -4.8 c 0,-0.2 -0.2,0 0,0 h 9.6 c 0.2,0 0,-0.2 0,0 v 4.8 c 0,0.111 0.09,0.2 0.2,0.2 h 10 c 0.11,0 0.2,-0.089 0.2,-0.2 v -4.8 c 0,-0.2 -0.2,0 0,0 h 9.6 c 0.2,0 0,-0.2 0,0 v 4.8 c 0,0.111 0.09,0.2 0.2,0.2 h 10 c 0.11,0 0.2,-0.089 0.2,-0.2 v -4.8 c 0,-0.2 -0.2,0 0,0 h 9.6 c 0.2,0 0,-0.2 0,0 v 4.8 c 0,0.111 0.09,0.2 0.2,0.2 h 10 c 0.11,0 0.2,-0.089 0.2,-0.2 v -4.8 c 0,-0.2 -0.2,0 0,0 h 9.6 c 0.2,0 0,-0.2 0,0 v 4.8 c 0,0.111 0.09,0.2 0.2,0.2 h 10 c 0.11,0 0.2,-0.089 0.2,-0.2 v -4.8 c 0,-0.2 -0.2,0 0,0 h 9.6 c 0.2,0 0,-0.2 0,0 v 4.8 c 0,0.111 0.09,0.2 0.2,0.2 h 10 c 0.11,0 0.2,-0.089 0.2,-0.2 v -4.8 c 0,-0.2 -0.2,0 0,0 h 9.6 c 0.2,0 0,-0.2 0,0 v 4.8 c 0,0.111 0.09,0.2 0.2,0.2 h 10 c 0.11,0 0.2,-0.089 0.2,-0.2 v -4.8 c 0,-0.2 -0.2,0 0,0 h 9.6 c 0.2,0 0,-0.2 0,0 v 4.8 c 0,0.111 0.09,0.2 0.2,0.2 h 10 c 0.11,0 0.2,-0.089 0.2,-0.2 v -4.8 c 0,-0.2 -0.2,0 0,0 h 9.6 c 0.2,0 0,-0.2 0,0 v 4.8 c 0,0.111 0.09,0.2 0.2,0.2 h 14.613 2.887 c 0.071,0 0.137,-0.038 0.173,-0.1 l 1.444,-2.5 7.306,-12.655 c 0.055,-0.096 0.023,-0.218 -0.073,-0.273 l -4.157,-2.4 c -0.173,-0.1 -0.1,0.173 0,0 l 4.8,-8.314 c 0.1,-0.173 -0.173,-0.1 0,0 l 4.157,2.4 c 0.096,0.055 0.218,0.022 0.273,-0.073 l 5,-8.661 c 0.055,-0.095 0.023,-0.218 -0.073,-0.273 l -4.157,-2.4 c -0.173,-0.1 -0.1,0.173 0,0 l 4.8,-8.314 c 0.1,-0.173 -0.173,-0.1 0,0 l 4.157,2.4 c 0.096,0.056 0.218,0.023 0.273,-0.073 l 5,-8.66 c 0.055,-0.096 0.023,-0.218 -0.073,-0.273 l -4.157,-2.4 c -0.173,-0.1 -0.1,0.173 0,0 l 4.8,-8.314 c 0.1,-0.173 -0.173,-0.1 0,0 l 4.157,2.4 c 0.096,0.055 0.218,0.022 0.273,-0.073 l 5,-8.661 c 0.055,-0.095 0.023,-0.218 -0.073,-0.273 l -4.157,-2.4 c -0.173,-0.1 -0.1,0.173 0,0 l 4.8,-8.314 c 0.1,-0.173 -0.173,-0.1 0,0 l 4.157,2.4 c 0.096,0.056 0.218,0.023 0.273,-0.073 l 5,-8.66 c 0.055,-0.096 0.023,-0.218 -0.073,-0.273 l -4.157,-2.4 c -0.173,-0.1 -0.1,0.173 0,0 l 4.8,-8.314 c 0.1,-0.173 -0.173,-0.1 0,0 l 4.157,2.4 c 0.096,0.055 0.218,0.022 0.273,-0.073 l 5,-8.661 c 0.055,-0.095 0.023,-0.218 -0.073,-0.273 l -4.157,-2.4 c -0.173,-0.1 -0.1,0.173 0,0 l 4.8,-8.314 c 0.1,-0.173 -0.173,-0.1 0,0 l 4.157,2.4 c 0.096,0.056 0.218,0.023 0.273,-0.073 l 5,-8.66 c 0.055,-0.096 0.023,-0.218 -0.073,-0.273 l -4.157,-2.4 c -0.173,-0.1 -0.1,0.173 0,0 l 4.8,-8.314 c 0.1,-0.173 -0.173,-0.1 0,0 l 4.157,2.4 c 0.096,0.055 0.218,0.022 0.273,-0.073 l 5,-8.661 c 0.055,-0.095 0.023,-0.218 -0.073,-0.273 l -4.157,-2.4 c -0.173,-0.1 -0.1,0.173 0,0 l 4.8,-8.314 c 0.1,-0.173 -0.173,-0.1 0,0 l 4.157,2.4 c 0.096,0.056 0.218,0.023 0.273,-0.073 l 7.307,-12.655 1.443,-2.5 c 0.036,-0.062 0.036,-0.138 0,-0.2 l -1.443,-2.5 -7.307,-12.656 c -0.055,-0.095 -0.177,-0.128 -0.273,-0.073 l -4.157,2.4 c -0.173,0.1 0.1,0.173 0,0 l -4.8,-8.314 c -0.1,-0.173 -0.173,0.1 0,0 l 4.157,-2.4 c 0.096,-0.055 0.128,-0.177 0.073,-0.273 l -5,-8.66 c -0.055,-0.096 -0.177,-0.129 -0.273,-0.073 l -4.157,2.4 c -0.173,0.1 0.1,0.173 0,0 l -4.8,-8.314 c -0.1,-0.174 -0.173,0.1 0,0 l 4.157,-2.4 c 0.096,-0.056 0.128,-0.178 0.073,-0.274 l -5,-8.66 c -0.055,-0.095 -0.177,-0.128 -0.273,-0.073 l -4.157,2.4 c -0.173,0.1 0.1,0.173 0,0 l -4.8,-8.314 c -0.1,-0.173 -0.173,0.1 0,0 l 4.157,-2.4 c 0.096,-0.055 0.128,-0.177 0.073,-0.273 l -5,-8.66 c -0.055,-0.096 -0.177,-0.129 -0.273,-0.073 l -4.157,2.4 c -0.173,0.1 0.1,0.173 0,0 l -4.8,-8.314 c -0.1,-0.174 -0.173,0.1 0,0 l 4.157,-2.4 c 0.096,-0.056 0.128,-0.178 0.073,-0.274 l -5,-8.66 c -0.055,-0.095 -0.177,-0.128 -0.273,-0.073 l -4.157,2.4 c -0.173,0.1 0.1,0.173 0,0 l -4.8,-8.314 c -0.1,-0.173 -0.173,0.1 0,0 l 4.157,-2.4 c 0.096,-0.055 0.128,-0.177 0.073,-0.273 l -5,-8.66 c -0.055,-0.096 -0.177,-0.129 -0.273,-0.073 l -4.157,2.4 c -0.173,0.1 0.1,0.173 0,0 l -4.8,-8.314 c -0.1,-0.174 -0.173,0.1 0,0 l 4.157,-2.4 c 0.096,-0.056 0.128,-0.178 0.073,-0.274 l -5,-8.66 c -0.055,-0.095 -0.177,-0.128 -0.273,-0.073 l -4.157,2.4 c -0.173,0.1 0.1,0.173 0,0 l -4.8,-8.314 c -0.1,-0.173 -0.173,0.1 0,0 l 4.157,-2.4 c 0.096,-0.055 0.128,-0.177 0.073,-0.273 l -5,-8.66 c -0.055,-0.096 -0.177,-0.129 -0.273,-0.074 l -4.157,2.4 c -0.173,0.1 0.1,0.174 0,0 l -4.8,-8.313 c -0.1,-0.174 -0.173,0.1 0,0 l 4.157,-2.4 c 0.096,-0.056 0.128,-0.178 0.073,-0.274 L 289.317,95.5 287.873,93 c -0.036,-0.062 -0.102,-0.1 -0.173,-0.1 H 284.813 270.2 c -0.11,0 -0.2,0.09 -0.2,0.2 v 4.8 c 0,0.2 0.2,0 0,0 h -9.6 c -0.2,0 0,0.2 0,0 v -4.8 c 0,-0.11 -0.09,-0.2 -0.2,-0.2 h -10 c -0.11,0 -0.2,0.09 -0.2,0.2 v 4.8 c 0,0.2 0.2,0 0,0 h -9.6 c -0.2,0 0,0.2 0,0 v -4.8 c 0,-0.11 -0.09,-0.2 -0.2,-0.2 h -10 c -0.11,0 -0.2,0.09 -0.2,0.2 v 4.8 c 0,0.2 0.2,0 0,0 h -9.6 c -0.2,0 0,0.2 0,0 v -4.8 c 0,-0.11 -0.09,-0.2 -0.2,-0.2 h -10 c -0.11,0 -0.2,0.09 -0.2,0.2 v 4.8 c 0,0.2 0.2,0 0,0 h -9.6 c -0.2,0 0,0.2 0,0 v -4.8 c 0,-0.11 -0.09,-0.2 -0.2,-0.2 h -10 c -0.11,0 -0.2,0.09 -0.2,0.2 v 4.8 c 0,0.2 0.2,0 0,0 h -9.6 c -0.2,0 0,0.2 0,0 v -4.8 c 0,-0.11 -0.09,-0.2 -0.2,-0.2 h -10 c -0.11,0 -0.2,0.09 -0.2,0.2 v 4.8 c 0,0.2 0.2,0 0,0 h -9.6 c -0.2,0 0,0.2 0,0 v -4.8 c 0,-0.11 -0.09,-0.2 -0.2,-0.2 h -10 c -0.11,0 -0.2,0.09 -0.2,0.2 v 4.8 c 0,0.2 0.2,0 0,0 h -9.6 c -0.2,0 0,0.2 0,0 v -4.8 c 0,-0.11 -0.09,-0.2 -0.2,-0.2 h -10 c -0.11,0 -0.2,0.09 -0.2,0.2 v 4.8 c 0,0.2 0.2,0 0,0 h -9.6 c -0.2,0 0,0.2 0,0 v -4.8 c 0,-0.11 -0.09,-0.2 -0.2,-0.2 H 105.587 102.7 c -0.071,0 -0.137,0.038 -0.173,0.1 l -1.444,2.5 -7.306,12.655 c -0.055,0.096 -0.023,0.218 0.073,0.274 l 4.157,2.4 c 0.173,0.1 0.1,-0.174 0,0 l -4.8,8.313 c -0.1,0.174 0.173,0.1 0,0 l -4.157,-2.4 c -0.096,-0.055 -0.218,-0.022 -0.273,0.074 l -5,8.66 c -0.055,0.096 -0.023,0.218 0.073,0.273 l 4.157,2.4 c 0.173,0.1 0.1,-0.173 0,0 l -4.8,8.314 c -0.1,0.173 0.173,0.1 0,0 l -4.157,-2.4 c -0.096,-0.055 -0.218,-0.022 -0.273,0.073 l -5,8.66 c -0.055,0.096 -0.023,0.218 0.073,0.274 l 4.157,2.4 c 0.173,0.1 0.1,-0.174 0,0 l -4.8,8.314 c -0.1,0.173 0.173,0.1 0,0 l -4.157,-2.4 c -0.096,-0.056 -0.218,-0.023 -0.273,0.073 l -5,8.66 c -0.055,0.096 -0.023,0.218 0.073,0.273 l 4.157,2.4 c 0.173,0.1 0.1,-0.173 0,0 l -4.8,8.314 c -0.1,0.173 0.173,0.1 0,0 l -4.157,-2.4 c -0.096,-0.055 -0.218,-0.022 -0.273,0.073 l -5,8.66 c -0.055,0.096 -0.023,0.218 0.073,0.274 l 4.157,2.4 c 0.173,0.1 0.1,-0.174 0,0 l -4.8,8.314 c -0.1,0.173 0.173,0.1 0,0 l -4.157,-2.4 c -0.096,-0.056 -0.218,-0.023 -0.273,0.073 l -5,8.66 c -0.055,0.096 -0.023,0.218 0.073,0.273 l 4.157,2.4 c 0.173,0.1 0.1,-0.173 0,0 l -4.8,8.314 c -0.1,0.173 0.173,0.1 0,0 l -4.157,-2.4 c -0.096,-0.055 -0.218,-0.022 -0.273,0.073 l -5,8.66 c -0.055,0.096 -0.023,0.218 0.073,0.274 l 4.157,2.4 c 0.173,0.1 0.1,-0.174 0,0 l -4.8,8.314 c -0.1,0.173 0.173,0.1 0,0 l -4.157,-2.4 c -0.096,-0.056 -0.218,-0.023 -0.273,0.073 l -5,8.66 c -0.055,0.096 -0.023,0.218 0.073,0.273 l 4.157,2.4 c 0.173,0.1 0.1,-0.173 0,0 l -4.8,8.314 c -0.1,0.173 0.173,0.1 0,0 l -4.157,-2.4 c -0.096,-0.055 -0.218,-0.022 -0.273,0.073 l -7.307,12.656 -1.443,2.5 c -0.036,0.062 -0.036,0.138 0,0.2 l 1.443,2.5 7.307,12.655 c 0.055,0.096 0.177,0.129 0.273,0.073 l 4.157,-2.4 c 0.173,-0.1 -0.1,-0.173 0,0 l 4.8,8.314 c 0.1,0.173 0.173,-0.1 0,0 l -4.157,2.4 c -0.096,0.055 -0.128,0.178 -0.073,0.273 l 5,8.661 c 0.055,0.095 0.177,0.128 0.273,0.073 l 4.157,-2.4 c 0.173,-0.1 -0.1,-0.173 0,0 l 4.8,8.314 c 0.1,0.173 0.173,-0.1 0,0 l -4.157,2.4 c -0.096,0.055 -0.128,0.177 -0.073,0.273 l 5,8.66 c 0.055,0.096 0.177,0.129 0.273,0.073 l 4.157,-2.4 c 0.173,-0.1 -0.1,-0.173 0,0 l 4.8,8.314 c 0.1,0.173 0.173,-0.1 0,0 l -4.157,2.4 c -0.096,0.055 -0.128,0.178 -0.073,0.273 l 5,8.661 c 0.055,0.095 0.177,0.128 0.273,0.073 l 4.157,-2.4 c 0.173,-0.1 -0.1,-0.173 0,0 l 4.8,8.314 c 0.1,0.173 0.173,-0.1 0,0 l -4.157,2.4 c -0.096,0.055 -0.128,0.177 -0.073,0.273 l 5,8.66 c 0.055,0.096 0.177,0.129 0.273,0.073 l 4.157,-2.4 c 0.173,-0.1 -0.1,-0.173 0,0 l 4.8,8.314 c 0.1,0.173 0.173,-0.1 0,0 l -4.157,2.4 c -0.096,0.055 -0.128,0.178 -0.073,0.273 l 5,8.661 c 0.055,0.095 0.177,0.128 0.273,0.073 l 4.157,-2.4 c 0.173,-0.1 -0.1,-0.173 0,0 l 4.8,8.314 c 0.1,0.173 0.173,-0.1 0,0 l -4.157,2.4 c -0.096,0.055 -0.128,0.177 -0.073,0.273 l 5,8.66 c 0.055,0.096 0.177,0.129 0.273,0.073 l 4.157,-2.4 c 0.173,-0.1 -0.1,-0.173 0,0 l 4.8,8.314 c 0.1,0.173 0.173,-0.1 0,0 l -4.157,2.4 c -0.096,0.055 -0.128,0.178 -0.073,0.273 l 5,8.661 c 0.055,0.095 0.177,0.128 0.273,0.073 l 4.157,-2.4 c 0.173,-0.1 -0.1,-0.173 0,0 l 4.8,8.314 c 0.1,0.173 0.173,-0.1 0,0 l -4.157,2.4 c -0.096,0.055 -0.128,0.177 -0.073,0.273 l 7.306,12.655 1.444,2.5 c 0.036,0.062 0.102,0.1 0.173,0.1 h 2.887"
       stroke="rgb(0,0,0)"
       stroke-width="0.4"
       id="path15"
       style="stroke:#ff0000" />
  </g>
  <g
     id="p-2"
     style="fill:none;stroke:#ff0000;stroke-linecap:round;stroke-linejoin:round"
     transform="translate(-9.8,-9.8)">
    <path
       d="m 718.115,253.315 c 0,28.758 -8.267,56.911 -23.815,81.104 -15.548,24.193 -37.722,43.407 -63.882,55.354 -26.159,11.947 -55.202,16.122 -83.667,12.029 -28.466,-4.092 -55.156,-16.281 -76.89,-35.114 -21.734,-18.833 -37.597,-43.516 -45.699,-71.109 -8.102,-27.594 -8.102,-56.935 0,-84.528 8.102,-27.594 23.965,-52.277 45.699,-71.11 21.734,-18.833 48.424,-31.021 76.89,-35.114 28.465,-4.093 57.508,0.083 83.667,12.03 26.16,11.946 48.334,31.16 63.882,55.354 15.548,24.193 23.815,52.345 23.815,81.104 z"
       stroke="rgb(0,0,255)"
       stroke-width="0.4"
       id="path18"
       style="stroke:#ff0000" />
    <text
       alignment-baseline="hanging"
       font-size="4px"
       style="font-style:normal;font-weight:normal;font-family:sans-serif;fill:#ff0000;stroke:#ff0000"
       text-anchor="middle"
       transform="translate(568.1,251.515)"
       id="text20" />
    <path
       d="M 478.487,413.729 H 493.1 c 0.11,0 0.2,-0.089 0.2,-0.2 v -4.8 c 0,-0.2 -0.2,0 0,0 h 9.6 c 0.2,0 0,-0.2 0,0 v 4.8 c 0,0.111 0.09,0.2 0.2,0.2 h 10 c 0.11,0 0.2,-0.089 0.2,-0.2 v -4.8 c 0,-0.2 -0.2,0 0,0 h 9.6 c 0.2,0 0,-0.2 0,0 v 4.8 c 0,0.111 0.09,0.2 0.2,0.2 h 10 c 0.11,0 0.2,-0.089 0.2,-0.2 v -4.8 c 0,-0.2 -0.2,0 0,0 h 9.6 c 0.2,0 0,-0.2 0,0 v 4.8 c 0,0.111 0.09,0.2 0.2,0.2 h 10 c 0.11,0 0.2,-0.089 0.2,-0.2 v -4.8 c 0,-0.2 -0.2,0 0,0 h 9.6 c 0.2,0 0,-0.2 0,0 v 4.8 c 0,0.111 0.09,0.2 0.2,0.2 h 10 c 0.11,0 0.2,-0.089 0.2,-0.2 v -4.8 c 0,-0.2 -0.2,0 0,0 h 9.6 c 0.2,0 0,-0.2 0,0 v 4.8 c 0,0.111 0.09,0.2 0.2,0.2 h 10 c 0.11,0 0.2,-0.089 0.2,-0.2 v -4.8 c 0,-0.2 -0.2,0 0,0 h 9.6 c 0.2,0 0,-0.2 0,0 v 4.8 c 0,0.111 0.09,0.2 0.2,0.2 h 10 c 0.11,0 0.2,-0.089 0.2,-0.2 v -4.8 c 0,-0.2 -0.2,0 0,0 h 9.6 c 0.2,0 0,-0.2 0,0 v 4.8 c 0,0.111 0.09,0.2 0.2,0.2 h 10 c 0.11,0 0.2,-0.089 0.2,-0.2 v -4.8 c 0,-0.2 -0.2,0 0,0 h 9.6 c 0.2,0 0,-0.2 0,0 v 4.8 c 0,0.111 0.09,0.2 0.2,0.2 h 14.613 2.887 c 0.071,0 0.137,-0.038 0.173,-0.1 l 1.444,-2.5 7.306,-12.655 c 0.055,-0.096 0.023,-0.218 -0.073,-0.273 l -4.157,-2.4 c -0.173,-0.1 -0.1,0.173 0,0 l 4.8,-8.314 c 0.1,-0.173 -0.173,-0.1 0,0 l 4.157,2.4 c 0.096,0.055 0.218,0.022 0.273,-0.073 l 5,-8.661 c 0.055,-0.095 0.023,-0.218 -0.073,-0.273 l -4.157,-2.4 c -0.173,-0.1 -0.1,0.173 0,0 l 4.8,-8.314 c 0.1,-0.173 -0.173,-0.1 0,0 l 4.157,2.4 c 0.096,0.056 0.218,0.023 0.273,-0.073 l 5,-8.66 c 0.055,-0.096 0.023,-0.218 -0.073,-0.273 l -4.157,-2.4 c -0.173,-0.1 -0.1,0.173 0,0 l 4.8,-8.314 c 0.1,-0.173 -0.173,-0.1 0,0 l 4.157,2.4 c 0.096,0.055 0.218,0.022 0.273,-0.073 l 5,-8.661 c 0.055,-0.095 0.023,-0.218 -0.073,-0.273 l -4.157,-2.4 c -0.173,-0.1 -0.1,0.173 0,0 l 4.8,-8.314 c 0.1,-0.173 -0.173,-0.1 0,0 l 4.157,2.4 c 0.096,0.056 0.218,0.023 0.273,-0.073 l 5,-8.66 c 0.055,-0.096 0.023,-0.218 -0.073,-0.273 l -4.157,-2.4 c -0.173,-0.1 -0.1,0.173 0,0 l 4.8,-8.314 c 0.1,-0.173 -0.173,-0.1 0,0 l 4.157,2.4 c 0.096,0.055 0.218,0.022 0.273,-0.073 l 5,-8.661 c 0.055,-0.095 0.023,-0.218 -0.073,-0.273 l -4.157,-2.4 c -0.173,-0.1 -0.1,0.173 0,0 l 4.8,-8.314 c 0.1,-0.173 -0.173,-0.1 0,0 l 4.157,2.4 c 0.096,0.056 0.218,0.023 0.273,-0.073 l 5,-8.66 c 0.055,-0.096 0.023,-0.218 -0.073,-0.273 l -4.157,-2.4 c -0.173,-0.1 -0.1,0.173 0,0 l 4.8,-8.314 c 0.1,-0.173 -0.173,-0.1 0,0 l 4.157,2.4 c 0.096,0.055 0.218,0.022 0.273,-0.073 l 5,-8.661 c 0.055,-0.095 0.023,-0.218 -0.073,-0.273 l -4.157,-2.4 c -0.173,-0.1 -0.1,0.173 0,0 l 4.8,-8.314 c 0.1,-0.173 -0.173,-0.1 0,0 l 4.157,2.4 c 0.096,0.056 0.218,0.023 0.273,-0.073 l 7.307,-12.655 1.443,-2.5 c 0.036,-0.062 0.036,-0.138 0,-0.2 l -1.443,-2.5 -7.307,-12.656 c -0.055,-0.095 -0.177,-0.128 -0.273,-0.073 l -4.157,2.4 c -0.173,0.1 0.1,0.173 0,0 l -4.8,-8.314 c -0.1,-0.173 -0.173,0.1 0,0 l 4.157,-2.4 c 0.096,-0.055 0.128,-0.177 0.073,-0.273 l -5,-8.66 c -0.055,-0.096 -0.177,-0.129 -0.273,-0.073 l -4.157,2.4 c -0.173,0.1 0.1,0.173 0,0 l -4.8,-8.314 c -0.1,-0.174 -0.173,0.1 0,0 l 4.157,-2.4 c 0.096,-0.056 0.128,-0.178 0.073,-0.274 l -5,-8.66 c -0.055,-0.095 -0.177,-0.128 -0.273,-0.073 l -4.157,2.4 c -0.173,0.1 0.1,0.173 0,0 l -4.8,-8.314 c -0.1,-0.173 -0.173,0.1 0,0 l 4.157,-2.4 c 0.096,-0.055 0.128,-0.177 0.073,-0.273 l -5,-8.66 c -0.055,-0.096 -0.177,-0.129 -0.273,-0.073 l -4.157,2.4 c -0.173,0.1 0.1,0.173 0,0 l -4.8,-8.314 c -0.1,-0.174 -0.173,0.1 0,0 l 4.157,-2.4 c 0.096,-0.056 0.128,-0.178 0.073,-0.274 l -5,-8.66 c -0.055,-0.095 -0.177,-0.128 -0.273,-0.073 l -4.157,2.4 c -0.173,0.1 0.1,0.173 0,0 l -4.8,-8.314 c -0.1,-0.173 -0.173,0.1 0,0 l 4.157,-2.4 c 0.096,-0.055 0.128,-0.177 0.073,-0.273 l -5,-8.66 c -0.055,-0.096 -0.177,-0.129 -0.273,-0.073 l -4.157,2.4 c -0.173,0.1 0.1,0.173 0,0 l -4.8,-8.314 c -0.1,-0.174 -0.173,0.1 0,0 l 4.157,-2.4 c 0.096,-0.056 0.128,-0.178 0.073,-0.274 l -5,-8.66 c -0.055,-0.095 -0.177,-0.128 -0.273,-0.073 l -4.157,2.4 c -0.173,0.1 0.1,0.173 0,0 l -4.8,-8.314 c -0.1,-0.173 -0.173,0.1 0,0 l 4.157,-2.4 c 0.096,-0.055 0.128,-0.177 0.073,-0.273 l -5,-8.66 c -0.055,-0.096 -0.177,-0.129 -0.273,-0.074 l -4.157,2.4 c -0.173,0.1 0.1,0.174 0,0 l -4.8,-8.313 c -0.1,-0.174 -0.173,0.1 0,0 l 4.157,-2.4 c 0.096,-0.056 0.128,-0.178 0.073,-0.274 L 662.217,95.5 660.773,93 c -0.036,-0.062 -0.102,-0.1 -0.173,-0.1 H 657.713 643.1 c -0.11,0 -0.2,0.09 -0.2,0.2 v 4.8 c 0,0.2 0.2,0 0,0 h -9.6 c -0.2,0 0,0.2 0,0 v -4.8 c 0,-0.11 -0.09,-0.2 -0.2,-0.2 h -10 c -0.11,0 -0.2,0.09 -0.2,0.2 v 4.8 c 0,0.2 0.2,0 0,0 h -9.6 c -0.2,0 0,0.2 0,0 v -4.8 c 0,-0.11 -0.09,-0.2 -0.2,-0.2 h -10 c -0.11,0 -0.2,0.09 -0.2,0.2 v 4.8 c 0,0.2 0.2,0 0,0 h -9.6 c -0.2,0 0,0.2 0,0 v -4.8 c 0,-0.11 -0.09,-0.2 -0.2,-0.2 h -10 c -0.11,0 -0.2,0.09 -0.2,0.2 v 4.8 c 0,0.2 0.2,0 0,0 h -9.6 c -0.2,0 0,0.2 0,0 v -4.8 c 0,-0.11 -0.09,-0.2 -0.2,-0.2 h -10 c -0.11,0 -0.2,0.09 -0.2,0.2 v 4.8 c 0,0.2 0.2,0 0,0 h -9.6 c -0.2,0 0,0.2 0,0 v -4.8 c 0,-0.11 -0.09,-0.2 -0.2,-0.2 h -10 c -0.11,0 -0.2,0.09 -0.2,0.2 v 4.8 c 0,0.2 0.2,0 0,0 h -9.6 c -0.2,0 0,0.2 0,0 v -4.8 c 0,-0.11 -0.09,-0.2 -0.2,-0.2 h -10 c -0.11,0 -0.2,0.09 -0.2,0.2 v 4.8 c 0,0.2 0.2,0 0,0 h -9.6 c -0.2,0 0,0.2 0,0 v -4.8 c 0,-0.11 -0.09,-0.2 -0.2,-0.2 h -10 c -0.11,0 -0.2,0.09 -0.2,0.2 v 4.8 c 0,0.2 0.2,0 0,0 h -9.6 c -0.2,0 0,0.2 0,0 v -4.8 c 0,-0.11 -0.09,-0.2 -0.2,-0.2 H 478.487 475.6 c -0.071,0 -0.137,0.038 -0.173,0.1 l -1.444,2.5 -7.306,12.655 c -0.055,0.096 -0.023,0.218 0.073,0.274 l 4.157,2.4 c 0.173,0.1 0.1,-0.174 0,0 l -4.8,8.313 c -0.1,0.174 0.173,0.1 0,0 l -4.157,-2.4 c -0.096,-0.055 -0.218,-0.022 -0.273,0.074 l -5,8.66 c -0.055,0.096 -0.023,0.218 0.073,0.273 l 4.157,2.4 c 0.173,0.1 0.1,-0.173 0,0 l -4.8,8.314 c -0.1,0.173 0.173,0.1 0,0 l -4.157,-2.4 c -0.096,-0.055 -0.218,-0.022 -0.273,0.073 l -5,8.66 c -0.055,0.096 -0.023,0.218 0.073,0.274 l 4.157,2.4 c 0.173,0.1 0.1,-0.174 0,0 l -4.8,8.314 c -0.1,0.173 0.173,0.1 0,0 l -4.157,-2.4 c -0.096,-0.056 -0.218,-0.023 -0.273,0.073 l -5,8.66 c -0.055,0.096 -0.023,0.218 0.073,0.273 l 4.157,2.4 c 0.173,0.1 0.1,-0.173 0,0 l -4.8,8.314 c -0.1,0.173 0.173,0.1 0,0 l -4.157,-2.4 c -0.096,-0.055 -0.218,-0.022 -0.273,0.073 l -5,8.66 c -0.055,0.096 -0.023,0.218 0.073,0.274 l 4.157,2.4 c 0.173,0.1 0.1,-0.174 0,0 l -4.8,8.314 c -0.1,0.173 0.173,0.1 0,0 l -4.157,-2.4 c -0.096,-0.056 -0.218,-0.023 -0.273,0.073 l -5,8.66 c -0.055,0.096 -0.023,0.218 0.073,0.273 l 4.157,2.4 c 0.173,0.1 0.1,-0.173 0,0 l -4.8,8.314 c -0.1,0.173 0.173,0.1 0,0 l -4.157,-2.4 c -0.096,-0.055 -0.218,-0.022 -0.273,0.073 l -5,8.66 c -0.055,0.096 -0.023,0.218 0.073,0.274 l 4.157,2.4 c 0.173,0.1 0.1,-0.174 0,0 l -4.8,8.314 c -0.1,0.173 0.173,0.1 0,0 l -4.157,-2.4 c -0.096,-0.056 -0.218,-0.023 -0.273,0.073 l -5,8.66 c -0.055,0.096 -0.023,0.218 0.073,0.273 l 4.157,2.4 c 0.173,0.1 0.1,-0.173 0,0 l -4.8,8.314 c -0.1,0.173 0.173,0.1 0,0 l -4.157,-2.4 c -0.096,-0.055 -0.218,-0.022 -0.273,0.073 l -7.307,12.656 -1.443,2.5 c -0.036,0.062 -0.036,0.138 0,0.2 l 1.443,2.5 7.307,12.655 c 0.055,0.096 0.177,0.129 0.273,0.073 l 4.157,-2.4 c 0.173,-0.1 -0.1,-0.173 0,0 l 4.8,8.314 c 0.1,0.173 0.173,-0.1 0,0 l -4.157,2.4 c -0.096,0.055 -0.128,0.178 -0.073,0.273 l 5,8.661 c 0.055,0.095 0.177,0.128 0.273,0.073 l 4.157,-2.4 c 0.173,-0.1 -0.1,-0.173 0,0 l 4.8,8.314 c 0.1,0.173 0.173,-0.1 0,0 l -4.157,2.4 c -0.096,0.055 -0.128,0.177 -0.073,0.273 l 5,8.66 c 0.055,0.096 0.177,0.129 0.273,0.073 l 4.157,-2.4 c 0.173,-0.1 -0.1,-0.173 0,0 l 4.8,8.314 c 0.1,0.173 0.173,-0.1 0,0 l -4.157,2.4 c -0.096,0.055 -0.128,0.178 -0.073,0.273 l 5,8.661 c 0.055,0.095 0.177,0.128 0.273,0.073 l 4.157,-2.4 c 0.173,-0.1 -0.1,-0.173 0,0 l 4.8,8.314 c 0.1,0.173 0.173,-0.1 0,0 l -4.157,2.4 c -0.096,0.055 -0.128,0.177 -0.073,0.273 l 5,8.66 c 0.055,0.096 0.177,0.129 0.273,0.073 l 4.157,-2.4 c 0.173,-0.1 -0.1,-0.173 0,0 l 4.8,8.314 c 0.1,0.173 0.173,-0.1 0,0 l -4.157,2.4 c -0.096,0.055 -0.128,0.178 -0.073,0.273 l 5,8.661 c 0.055,0.095 0.177,0.128 0.273,0.073 l 4.157,-2.4 c 0.173,-0.1 -0.1,-0.173 0,0 l 4.8,8.314 c 0.1,0.173 0.173,-0.1 0,0 l -4.157,2.4 c -0.096,0.055 -0.128,0.177 -0.073,0.273 l 5,8.66 c 0.055,0.096 0.177,0.129 0.273,0.073 l 4.157,-2.4 c 0.173,-0.1 -0.1,-0.173 0,0 l 4.8,8.314 c 0.1,0.173 0.173,-0.1 0,0 l -4.157,2.4 c -0.096,0.055 -0.128,0.178 -0.073,0.273 l 5,8.661 c 0.055,0.095 0.177,0.128 0.273,0.073 l 4.157,-2.4 c 0.173,-0.1 -0.1,-0.173 0,0 l 4.8,8.314 c 0.1,0.173 0.173,-0.1 0,0 l -4.157,2.4 c -0.096,0.055 -0.128,0.177 -0.073,0.273 l 7.306,12.655 1.444,2.5 c 0.036,0.062 0.102,0.1 0.173,0.1 h 2.887"
       stroke="rgb(0,0,0)"
       stroke-width="0.4"
       id="path22"
       style="stroke:#ff0000" />
  </g>
  <g
     id="p-3"
     style="fill:none;stroke:#ff0000;stroke-linecap:round;stroke-linejoin:round"
     transform="translate(-9.8,-9.8)">
    <text
       alignment-baseline="hanging"
       font-size="4px"
       style="font-style:normal;font-weight:normal;font-family:sans-serif;fill:#ff0000;stroke:#ff0000"
       text-anchor="middle"
       transform="translate(102.7,48.4)"
       id="text25" />
    <path
       d="M 13.087,85.4 H 27.5 c 0.2,0 0,-0.2 0,0 v 4.8 c 0,0.11 0.09,0.2 0.2,0.2 h 10 c 0.11,0 0.2,-0.09 0.2,-0.2 v -4.8 c 0,-0.2 -0.2,0 0,0 h 9.6 c 0.2,0 0,-0.2 0,0 v 4.8 c 0,0.11 0.09,0.2 0.2,0.2 h 10 c 0.11,0 0.2,-0.09 0.2,-0.2 v -4.8 c 0,-0.2 -0.2,0 0,0 h 9.6 c 0.2,0 0,-0.2 0,0 v 4.8 c 0,0.11 0.09,0.2 0.2,0.2 h 10 c 0.11,0 0.2,-0.09 0.2,-0.2 v -4.8 c 0,-0.2 -0.2,0 0,0 h 9.6 c 0.2,0 0,-0.2 0,0 v 4.8 c 0,0.11 0.09,0.2 0.2,0.2 h 10 c 0.11,0 0.2,-0.09 0.2,-0.2 v -4.8 c 0,-0.2 -0.2,0 0,0 h 9.6 c 0.2,0 0,-0.2 0,0 v 4.8 c 0,0.11 0.09,0.2 0.2,0.2 h 10 c 0.11,0 0.2,-0.09 0.2,-0.2 v -4.8 c 0,-0.2 -0.2,0 0,0 h 9.6 c 0.2,0 0,-0.2 0,0 v 4.8 c 0,0.11 0.09,0.2 0.2,0.2 h 10 c 0.11,0 0.2,-0.09 0.2,-0.2 v -4.8 c 0,-0.2 -0.2,0 0,0 h 9.6 c 0.2,0 0,-0.2 0,0 v 4.8 c 0,0.11 0.09,0.2 0.2,0.2 h 10 c 0.11,0 0.2,-0.09 0.2,-0.2 v -4.8 c 0,-0.2 -0.2,0 0,0 h 9.6 c 0.2,0 0,-0.2 0,0 v 4.8 c 0,0.11 0.09,0.2 0.2,0.2 h 10 c 0.11,0 0.2,-0.09 0.2,-0.2 v -4.8 c 0,-0.2 -0.2,0 0,0 h 14.413 2.887 c 0.11,0 0.2,-0.09 0.2,-0.2 v -10 c 0,-0.11 -0.09,-0.2 -0.2,-0.2 h -4.13 c -0.2,0 0,0.2 0,0 v -9.6 c 0,-0.2 -0.2,0 0,0 h 4.13 c 0.11,0 0.2,-0.09 0.2,-0.2 v -10 c 0,-0.11 -0.09,-0.2 -0.2,-0.2 h -4.13 c -0.2,0 0,0.2 0,0 v -9.6 c 0,-0.2 -0.2,0 0,0 h 4.13 c 0.11,0 0.2,-0.09 0.2,-0.2 v -10 c 0,-0.11 -0.09,-0.2 -0.2,-0.2 h -4.13 c -0.2,0 0,0.2 0,0 v -9.6 c 0,-0.2 -0.2,0 0,0 h 4.13 c 0.11,0 0.2,-0.09 0.2,-0.2 v -10 c 0,-0.11 -0.09,-0.2 -0.2,-0.2 H 192.313 177.9 c -0.2,0 0,0.2 0,0 v -4.8 c 0,-0.11 -0.09,-0.2 -0.2,-0.2 h -10 c -0.11,0 -0.2,0.09 -0.2,0.2 V 15 c 0,0.2 0.2,0 0,0 h -9.6 c -0.2,0 0,0.2 0,0 v -4.8 c 0,-0.11 -0.09,-0.2 -0.2,-0.2 h -10 c -0.11,0 -0.2,0.09 -0.2,0.2 V 15 c 0,0.2 0.2,0 0,0 h -9.6 c -0.2,0 0,0.2 0,0 v -4.8 c 0,-0.11 -0.09,-0.2 -0.2,-0.2 h -10 c -0.11,0 -0.2,0.09 -0.2,0.2 V 15 c 0,0.2 0.2,0 0,0 h -9.6 c -0.2,0 0,0.2 0,0 v -4.8 c 0,-0.11 -0.09,-0.2 -0.2,-0.2 h -10 c -0.11,0 -0.2,0.09 -0.2,0.2 V 15 c 0,0.2 0.2,0 0,0 h -9.6 c -0.2,0 0,0.2 0,0 V 10.2 C 97.9,10.09 97.81,10 97.7,10 h -10 c -0.11,0 -0.2,0.09 -0.2,0.2 V 15 c 0,0.2 0.2,0 0,0 h -9.6 c -0.2,0 0,0.2 0,0 V 10.2 C 77.9,10.09 77.81,10 77.7,10 h -10 c -0.11,0 -0.2,0.09 -0.2,0.2 V 15 c 0,0.2 0.2,0 0,0 h -9.6 c -0.2,0 0,0.2 0,0 V 10.2 C 57.9,10.09 57.81,10 57.7,10 h -10 c -0.11,0 -0.2,0.09 -0.2,0.2 V 15 c 0,0.2 0.2,0 0,0 h -9.6 c -0.2,0 0,0.2 0,0 V 10.2 C 37.9,10.09 37.81,10 37.7,10 h -10 c -0.11,0 -0.2,0.09 -0.2,0.2 V 15 c 0,0.2 0.2,0 0,0 H 13.087 10.2 C 10.09,15 10,15.09 10,15.2 v 10 c 0,0.11 0.09,0.2 0.2,0.2 h 4.13 c 0.2,0 0,-0.2 0,0 V 35 c 0,0.2 0.2,0 0,0 H 10.2 C 10.09,35 10,35.09 10,35.2 v 10 c 0,0.11 0.09,0.2 0.2,0.2 h 4.13 c 0.2,0 0,-0.2 0,0 V 55 c 0,0.2 0.2,0 0,0 H 10.2 C 10.09,55 10,55.09 10,55.2 v 10 c 0,0.11 0.09,0.2 0.2,0.2 h 4.13 c 0.2,0 0,-0.2 0,0 V 75 c 0,0.2 0.2,0 0,0 H 10.2 C 10.09,75 10,75.09 10,75.2 v 10 c 0,0.11 0.09,0.2 0.2,0.2 h 2.887"
       stroke="rgb(0,0,0)"
       stroke-width="0.4"
       id="path27"
       style="stroke:#ff0000" />
  </g>
  <g
     id="p-4"
     style="fill:none;stroke:#ff0000;stroke-linecap:round;stroke-linejoin:round"
     transform="translate(-9.8,-9.8)">
    <text
       alignment-baseline="hanging"
       font-size="4px"
       style="font-style:normal;font-weight:normal;font-family:sans-serif;fill:#ff0000;stroke:#ff0000"
       text-anchor="middle"
       transform="translate(290.6,48.4)"
       id="text30" />
    <path
       d="M 200.987,85.4 H 215.4 c 0.2,0 0,-0.2 0,0 v 4.8 c 0,0.11 0.09,0.2 0.2,0.2 h 10 c 0.11,0 0.2,-0.09 0.2,-0.2 v -4.8 c 0,-0.2 -0.2,0 0,0 h 9.6 c 0.2,0 0,-0.2 0,0 v 4.8 c 0,0.11 0.09,0.2 0.2,0.2 h 10 c 0.11,0 0.2,-0.09 0.2,-0.2 v -4.8 c 0,-0.2 -0.2,0 0,0 h 9.6 c 0.2,0 0,-0.2 0,0 v 4.8 c 0,0.11 0.09,0.2 0.2,0.2 h 10 c 0.11,0 0.2,-0.09 0.2,-0.2 v -4.8 c 0,-0.2 -0.2,0 0,0 h 9.6 c 0.2,0 0,-0.2 0,0 v 4.8 c 0,0.11 0.09,0.2 0.2,0.2 h 10 c 0.11,0 0.2,-0.09 0.2,-0.2 v -4.8 c 0,-0.2 -0.2,0 0,0 h 9.6 c 0.2,0 0,-0.2 0,0 v 4.8 c 0,0.11 0.09,0.2 0.2,0.2 h 10 c 0.11,0 0.2,-0.09 0.2,-0.2 v -4.8 c 0,-0.2 -0.2,0 0,0 h 9.6 c 0.2,0 0,-0.2 0,0 v 4.8 c 0,0.11 0.09,0.2 0.2,0.2 h 10 c 0.11,0 0.2,-0.09 0.2,-0.2 v -4.8 c 0,-0.2 -0.2,0 0,0 h 9.6 c 0.2,0 0,-0.2 0,0 v 4.8 c 0,0.11 0.09,0.2 0.2,0.2 h 10 c 0.11,0 0.2,-0.09 0.2,-0.2 v -4.8 c 0,-0.2 -0.2,0 0,0 h 9.6 c 0.2,0 0,-0.2 0,0 v 4.8 c 0,0.11 0.09,0.2 0.2,0.2 h 10 c 0.11,0 0.2,-0.09 0.2,-0.2 v -4.8 c 0,-0.2 -0.2,0 0,0 h 14.413 -1.443 c 0.11,0 0.2,-0.09 0.2,-0.2 v -9.8 c 0,-0.2 -0.2,0 0,0 h 4.13 c 0.11,0 0.2,-0.09 0.2,-0.2 v -10 c 0,-0.11 -0.09,-0.2 -0.2,-0.2 h -4.13 c -0.2,0 0,0.2 0,0 v -9.6 c 0,-0.2 -0.2,0 0,0 h 4.13 c 0.11,0 0.2,-0.09 0.2,-0.2 v -10 c 0,-0.11 -0.09,-0.2 -0.2,-0.2 h -4.13 c -0.2,0 0,0.2 0,0 v -9.6 c 0,-0.2 -0.2,0 0,0 h 4.13 c 0.11,0 0.2,-0.09 0.2,-0.2 v -10 c 0,-0.11 -0.09,-0.2 -0.2,-0.2 h -4.13 c -0.2,0 0,0.2 0,0 v -9.8 c 0,-0.11 -0.09,-0.2 -0.2,-0.2 h 1.443 -14.413 c -0.2,0 0,0.2 0,0 v -4.8 c 0,-0.11 -0.09,-0.2 -0.2,-0.2 h -10 c -0.11,0 -0.2,0.09 -0.2,0.2 V 15 c 0,0.2 0.2,0 0,0 h -9.6 c -0.2,0 0,0.2 0,0 v -4.8 c 0,-0.11 -0.09,-0.2 -0.2,-0.2 h -10 c -0.11,0 -0.2,0.09 -0.2,0.2 V 15 c 0,0.2 0.2,0 0,0 h -9.6 c -0.2,0 0,0.2 0,0 v -4.8 c 0,-0.11 -0.09,-0.2 -0.2,-0.2 h -10 c -0.11,0 -0.2,0.09 -0.2,0.2 V 15 c 0,0.2 0.2,0 0,0 h -9.6 c -0.2,0 0,0.2 0,0 v -4.8 c 0,-0.11 -0.09,-0.2 -0.2,-0.2 h -10 c -0.11,0 -0.2,0.09 -0.2,0.2 V 15 c 0,0.2 0.2,0 0,0 h -9.6 c -0.2,0 0,0.2 0,0 v -4.8 c 0,-0.11 -0.09,-0.2 -0.2,-0.2 h -10 c -0.11,0 -0.2,0.09 -0.2,0.2 V 15 c 0,0.2 0.2,0 0,0 h -9.6 c -0.2,0 0,0.2 0,0 v -4.8 c 0,-0.11 -0.09,-0.2 -0.2,-0.2 h -10 c -0.11,0 -0.2,0.09 -0.2,0.2 V 15 c 0,0.2 0.2,0 0,0 h -9.6 c -0.2,0 0,0.2 0,0 v -4.8 c 0,-0.11 -0.09,-0.2 -0.2,-0.2 h -10 c -0.11,0 -0.2,0.09 -0.2,0.2 V 15 c 0,0.2 0.2,0 0,0 h -9.6 c -0.2,0 0,0.2 0,0 v -4.8 c 0,-0.11 -0.09,-0.2 -0.2,-0.2 h -10 c -0.11,0 -0.2,0.09 -0.2,0.2 V 15 c 0,0.2 0.2,0 0,0 h -14.413 1.443 c -0.11,0 -0.2,0.09 -0.2,0.2 V 25 c 0,0.2 0.2,0 0,0 h -4.13 c -0.11,0 -0.2,0.09 -0.2,0.2 v 10 c 0,0.11 0.09,0.2 0.2,0.2 h 4.13 c 0.2,0 0,-0.2 0,0 V 45 c 0,0.2 0.2,0 0,0 h -4.13 c -0.11,0 -0.2,0.09 -0.2,0.2 v 10 c 0,0.11 0.09,0.2 0.2,0.2 h 4.13 c 0.2,0 0,-0.2 0,0 V 65 c 0,0.2 0.2,0 0,0 h -4.13 c -0.11,0 -0.2,0.09 -0.2,0.2 v 10 c 0,0.11 0.09,0.2 0.2,0.2 h 4.13 c 0.2,0 0,-0.2 0,0 v 9.8 c 0,0.11 0.09,0.2 0.2,0.2 h -1.443"
       stroke="rgb(0,0,0)"
       stroke-width="0.4"
       id="path32"
       style="stroke:#ff0000" />
  </g>
  <g
     id="p-5"
     style="fill:none;stroke:#ff0000;stroke-linecap:round;stroke-linejoin:round"
     transform="translate(-9.8,-9.8)">
    <text
       alignment-baseline="hanging"
       font-size="4px"
       style="font-style:normal;font-weight:normal;font-family:sans-serif;fill:#ff0000;stroke:#ff0000"
       text-anchor="middle"
       transform="translate(478.5,48.4)"
       id="text35" />
    <path
       d="M 388.887,85.4 H 403.3 c 0.2,0 0,-0.2 0,0 v 4.8 c 0,0.11 0.09,0.2 0.2,0.2 h 10 c 0.11,0 0.2,-0.09 0.2,-0.2 v -4.8 c 0,-0.2 -0.2,0 0,0 h 9.6 c 0.2,0 0,-0.2 0,0 v 4.8 c 0,0.11 0.09,0.2 0.2,0.2 h 10 c 0.11,0 0.2,-0.09 0.2,-0.2 v -4.8 c 0,-0.2 -0.2,0 0,0 h 9.6 c 0.2,0 0,-0.2 0,0 v 4.8 c 0,0.11 0.09,0.2 0.2,0.2 h 10 c 0.11,0 0.2,-0.09 0.2,-0.2 v -4.8 c 0,-0.2 -0.2,0 0,0 h 9.6 c 0.2,0 0,-0.2 0,0 v 4.8 c 0,0.11 0.09,0.2 0.2,0.2 h 10 c 0.11,0 0.2,-0.09 0.2,-0.2 v -4.8 c 0,-0.2 -0.2,0 0,0 h 9.6 c 0.2,0 0,-0.2 0,0 v 4.8 c 0,0.11 0.09,0.2 0.2,0.2 h 10 c 0.11,0 0.2,-0.09 0.2,-0.2 v -4.8 c 0,-0.2 -0.2,0 0,0 h 9.6 c 0.2,0 0,-0.2 0,0 v 4.8 c 0,0.11 0.09,0.2 0.2,0.2 h 10 c 0.11,0 0.2,-0.09 0.2,-0.2 v -4.8 c 0,-0.2 -0.2,0 0,0 h 9.6 c 0.2,0 0,-0.2 0,0 v 4.8 c 0,0.11 0.09,0.2 0.2,0.2 h 10 c 0.11,0 0.2,-0.09 0.2,-0.2 v -4.8 c 0,-0.2 -0.2,0 0,0 h 9.6 c 0.2,0 0,-0.2 0,0 v 4.8 c 0,0.11 0.09,0.2 0.2,0.2 h 10 c 0.11,0 0.2,-0.09 0.2,-0.2 v -4.8 c 0,-0.2 -0.2,0 0,0 H 568.113 571 c 0.11,0 0.2,-0.09 0.2,-0.2 v -10 c 0,-0.11 -0.09,-0.2 -0.2,-0.2 h -4.13 c -0.2,0 0,0.2 0,0 v -9.6 c 0,-0.2 -0.2,0 0,0 H 571 c 0.11,0 0.2,-0.09 0.2,-0.2 v -10 c 0,-0.11 -0.09,-0.2 -0.2,-0.2 h -4.13 c -0.2,0 0,0.2 0,0 v -9.6 c 0,-0.2 -0.2,0 0,0 H 571 c 0.11,0 0.2,-0.09 0.2,-0.2 v -10 c 0,-0.11 -0.09,-0.2 -0.2,-0.2 h -4.13 c -0.2,0 0,0.2 0,0 v -9.6 c 0,-0.2 -0.2,0 0,0 H 571 c 0.11,0 0.2,-0.09 0.2,-0.2 v -10 C 571.2,15.09 571.11,15 571,15 H 568.113 553.7 c -0.2,0 0,0.2 0,0 v -4.8 c 0,-0.11 -0.09,-0.2 -0.2,-0.2 h -10 c -0.11,0 -0.2,0.09 -0.2,0.2 V 15 c 0,0.2 0.2,0 0,0 h -9.6 c -0.2,0 0,0.2 0,0 v -4.8 c 0,-0.11 -0.09,-0.2 -0.2,-0.2 h -10 c -0.11,0 -0.2,0.09 -0.2,0.2 V 15 c 0,0.2 0.2,0 0,0 h -9.6 c -0.2,0 0,0.2 0,0 v -4.8 c 0,-0.11 -0.09,-0.2 -0.2,-0.2 h -10 c -0.11,0 -0.2,0.09 -0.2,0.2 V 15 c 0,0.2 0.2,0 0,0 h -9.6 c -0.2,0 0,0.2 0,0 v -4.8 c 0,-0.11 -0.09,-0.2 -0.2,-0.2 h -10 c -0.11,0 -0.2,0.09 -0.2,0.2 V 15 c 0,0.2 0.2,0 0,0 h -9.6 c -0.2,0 0,0.2 0,0 v -4.8 c 0,-0.11 -0.09,-0.2 -0.2,-0.2 h -10 c -0.11,0 -0.2,0.09 -0.2,0.2 V 15 c 0,0.2 0.2,0 0,0 h -9.6 c -0.2,0 0,0.2 0,0 v -4.8 c 0,-0.11 -0.09,-0.2 -0.2,-0.2 h -10 c -0.11,0 -0.2,0.09 -0.2,0.2 V 15 c 0,0.2 0.2,0 0,0 h -9.6 c -0.2,0 0,0.2 0,0 v -4.8 c 0,-0.11 -0.09,-0.2 -0.2,-0.2 h -10 c -0.11,0 -0.2,0.09 -0.2,0.2 V 15 c 0,0.2 0.2,0 0,0 h -9.6 c -0.2,0 0,0.2 0,0 v -4.8 c 0,-0.11 -0.09,-0.2 -0.2,-0.2 h -10 c -0.11,0 -0.2,0.09 -0.2,0.2 V 15 c 0,0.2 0.2,0 0,0 H 388.887 386 c -0.11,0 -0.2,0.09 -0.2,0.2 v 10 c 0,0.11 0.09,0.2 0.2,0.2 h 4.13 c 0.2,0 0,-0.2 0,0 V 35 c 0,0.2 0.2,0 0,0 H 386 c -0.11,0 -0.2,0.09 -0.2,0.2 v 10 c 0,0.11 0.09,0.2 0.2,0.2 h 4.13 c 0.2,0 0,-0.2 0,0 V 55 c 0,0.2 0.2,0 0,0 H 386 c -0.11,0 -0.2,0.09 -0.2,0.2 v 10 c 0,0.11 0.09,0.2 0.2,0.2 h 4.13 c 0.2,0 0,-0.2 0,0 V 75 c 0,0.2 0.2,0 0,0 H 386 c -0.11,0 -0.2,0.09 -0.2,0.2 v 10 c 0,0.11 0.09,0.2 0.2,0.2 h 2.887"
       stroke="rgb(0,0,0)"
       stroke-width="0.4"
       id="path37"
       style="stroke:#ff0000" />
  </g>
  <g
     id="p-6"
     style="fill:none;stroke:#ff0000;stroke-linecap:round;stroke-linejoin:round"
     transform="translate(-9.8,-9.8)">
    <text
       alignment-baseline="hanging"
       font-size="4px"
       style="font-style:normal;font-weight:normal;font-family:sans-serif;fill:#ff0000;stroke:#ff0000"
       text-anchor="middle"
       transform="translate(666.4,48.4)"
       id="text40" />
    <path
       d="M 576.787,85.4 H 591.2 c 0.2,0 0,-0.2 0,0 v 4.8 c 0,0.11 0.09,0.2 0.2,0.2 h 10 c 0.11,0 0.2,-0.09 0.2,-0.2 v -4.8 c 0,-0.2 -0.2,0 0,0 h 9.6 c 0.2,0 0,-0.2 0,0 v 4.8 c 0,0.11 0.09,0.2 0.2,0.2 h 10 c 0.11,0 0.2,-0.09 0.2,-0.2 v -4.8 c 0,-0.2 -0.2,0 0,0 h 9.6 c 0.2,0 0,-0.2 0,0 v 4.8 c 0,0.11 0.09,0.2 0.2,0.2 h 10 c 0.11,0 0.2,-0.09 0.2,-0.2 v -4.8 c 0,-0.2 -0.2,0 0,0 h 9.6 c 0.2,0 0,-0.2 0,0 v 4.8 c 0,0.11 0.09,0.2 0.2,0.2 h 10 c 0.11,0 0.2,-0.09 0.2,-0.2 v -4.8 c 0,-0.2 -0.2,0 0,0 h 9.6 c 0.2,0 0,-0.2 0,0 v 4.8 c 0,0.11 0.09,0.2 0.2,0.2 h 10 c 0.11,0 0.2,-0.09 0.2,-0.2 v -4.8 c 0,-0.2 -0.2,0 0,0 h 9.6 c 0.2,0 0,-0.2 0,0 v 4.8 c 0,0.11 0.09,0.2 0.2,0.2 h 10 c 0.11,0 0.2,-0.09 0.2,-0.2 v -4.8 c 0,-0.2 -0.2,0 0,0 h 9.6 c 0.2,0 0,-0.2 0,0 v 4.8 c 0,0.11 0.09,0.2 0.2,0.2 h 10 c 0.11,0 0.2,-0.09 0.2,-0.2 v -4.8 c 0,-0.2 -0.2,0 0,0 h 9.6 c 0.2,0 0,-0.2 0,0 v 4.8 c 0,0.11 0.09,0.2 0.2,0.2 h 10 c 0.11,0 0.2,-0.09 0.2,-0.2 v -4.8 c 0,-0.2 -0.2,0 0,0 h 14.413 -1.443 c 0.11,0 0.2,-0.09 0.2,-0.2 v -9.8 c 0,-0.2 -0.2,0 0,0 h 4.13 c 0.11,0 0.2,-0.09 0.2,-0.2 v -10 c 0,-0.11 -0.09,-0.2 -0.2,-0.2 h -4.13 c -0.2,0 0,0.2 0,0 v -9.6 c 0,-0.2 -0.2,0 0,0 h 4.13 c 0.11,0 0.2,-0.09 0.2,-0.2 v -10 c 0,-0.11 -0.09,-0.2 -0.2,-0.2 h -4.13 c -0.2,0 0,0.2 0,0 v -9.6 c 0,-0.2 -0.2,0 0,0 h 4.13 c 0.11,0 0.2,-0.09 0.2,-0.2 v -10 c 0,-0.11 -0.09,-0.2 -0.2,-0.2 h -4.13 c -0.2,0 0,0.2 0,0 v -9.8 c 0,-0.11 -0.09,-0.2 -0.2,-0.2 h 1.443 -14.413 c -0.2,0 0,0.2 0,0 v -4.8 c 0,-0.11 -0.09,-0.2 -0.2,-0.2 h -10 c -0.11,0 -0.2,0.09 -0.2,0.2 V 15 c 0,0.2 0.2,0 0,0 h -9.6 c -0.2,0 0,0.2 0,0 v -4.8 c 0,-0.11 -0.09,-0.2 -0.2,-0.2 h -10 c -0.11,0 -0.2,0.09 -0.2,0.2 V 15 c 0,0.2 0.2,0 0,0 h -9.6 c -0.2,0 0,0.2 0,0 v -4.8 c 0,-0.11 -0.09,-0.2 -0.2,-0.2 h -10 c -0.11,0 -0.2,0.09 -0.2,0.2 V 15 c 0,0.2 0.2,0 0,0 h -9.6 c -0.2,0 0,0.2 0,0 v -4.8 c 0,-0.11 -0.09,-0.2 -0.2,-0.2 h -10 c -0.11,0 -0.2,0.09 -0.2,0.2 V 15 c 0,0.2 0.2,0 0,0 h -9.6 c -0.2,0 0,0.2 0,0 v -4.8 c 0,-0.11 -0.09,-0.2 -0.2,-0.2 h -10 c -0.11,0 -0.2,0.09 -0.2,0.2 V 15 c 0,0.2 0.2,0 0,0 h -9.6 c -0.2,0 0,0.2 0,0 v -4.8 c 0,-0.11 -0.09,-0.2 -0.2,-0.2 h -10 c -0.11,0 -0.2,0.09 -0.2,0.2 V 15 c 0,0.2 0.2,0 0,0 h -9.6 c -0.2,0 0,0.2 0,0 v -4.8 c 0,-0.11 -0.09,-0.2 -0.2,-0.2 h -10 c -0.11,0 -0.2,0.09 -0.2,0.2 V 15 c 0,0.2 0.2,0 0,0 h -9.6 c -0.2,0 0,0.2 0,0 v -4.8 c 0,-0.11 -0.09,-0.2 -0.2,-0.2 h -10 c -0.11,0 -0.2,0.09 -0.2,0.2 V 15 c 0,0.2 0.2,0 0,0 h -14.413 1.443 c -0.11,0 -0.2,0.09 -0.2,0.2 V 25 c 0,0.2 0.2,0 0,0 h -4.13 c -0.11,0 -0.2,0.09 -0.2,0.2 v 10 c 0,0.11 0.09,0.2 0.2,0.2 h 4.13 c 0.2,0 0,-0.2 0,0 V 45 c 0,0.2 0.2,0 0,0 h -4.13 c -0.11,0 -0.2,0.09 -0.2,0.2 v 10 c 0,0.11 0.09,0.2 0.2,0.2 h 4.13 c 0.2,0 0,-0.2 0,0 V 65 c 0,0.2 0.2,0 0,0 h -4.13 c -0.11,0 -0.2,0.09 -0.2,0.2 v 10 c 0,0.11 0.09,0.2 0.2,0.2 h 4.13 c 0.2,0 0,-0.2 0,0 v 9.8 c 0,0.11 0.09,0.2 0.2,0.2 h -1.443"
       stroke="rgb(0,0,0)"
       stroke-width="0.4"
       id="path42"
       style="stroke:#ff0000" />
  </g>
  <g
     id="p-7"
     style="fill:none;stroke:#ff0000;stroke-linecap:round;stroke-linejoin:round"
     transform="translate(-9.8,-9.8)">
    <text
       alignment-baseline="hanging"
       font-size="4px"
       style="font-style:normal;font-weight:normal;font-family:sans-serif;fill:#ff0000;stroke:#ff0000"
       text-anchor="middle"
       transform="translate(854.3,48.4)"
       id="text45" />
    <path
       d="M 764.687,85.4 H 779.1 c 0.2,0 0,-0.2 0,0 v 4.8 c 0,0.11 0.09,0.2 0.2,0.2 h 10 c 0.11,0 0.2,-0.09 0.2,-0.2 v -4.8 c 0,-0.2 -0.2,0 0,0 h 9.6 c 0.2,0 0,-0.2 0,0 v 4.8 c 0,0.11 0.09,0.2 0.2,0.2 h 10 c 0.11,0 0.2,-0.09 0.2,-0.2 v -4.8 c 0,-0.2 -0.2,0 0,0 h 9.6 c 0.2,0 0,-0.2 0,0 v 4.8 c 0,0.11 0.09,0.2 0.2,0.2 h 10 c 0.11,0 0.2,-0.09 0.2,-0.2 v -4.8 c 0,-0.2 -0.2,0 0,0 h 9.6 c 0.2,0 0,-0.2 0,0 v 4.8 c 0,0.11 0.09,0.2 0.2,0.2 h 10 c 0.11,0 0.2,-0.09 0.2,-0.2 v -4.8 c 0,-0.2 -0.2,0 0,0 h 9.6 c 0.2,0 0,-0.2 0,0 v 4.8 c 0,0.11 0.09,0.2 0.2,0.2 h 10 c 0.11,0 0.2,-0.09 0.2,-0.2 v -4.8 c 0,-0.2 -0.2,0 0,0 h 9.6 c 0.2,0 0,-0.2 0,0 v 4.8 c 0,0.11 0.09,0.2 0.2,0.2 h 10 c 0.11,0 0.2,-0.09 0.2,-0.2 v -4.8 c 0,-0.2 -0.2,0 0,0 h 9.6 c 0.2,0 0,-0.2 0,0 v 4.8 c 0,0.11 0.09,0.2 0.2,0.2 h 10 c 0.11,0 0.2,-0.09 0.2,-0.2 v -4.8 c 0,-0.2 -0.2,0 0,0 h 9.6 c 0.2,0 0,-0.2 0,0 v 4.8 c 0,0.11 0.09,0.2 0.2,0.2 h 10 c 0.11,0 0.2,-0.09 0.2,-0.2 v -4.8 c 0,-0.2 -0.2,0 0,0 h 14.413 2.887 c 0.11,0 0.2,-0.09 0.2,-0.2 v -10 c 0,-0.11 -0.09,-0.2 -0.2,-0.2 h -4.13 c -0.2,0 0,0.2 0,0 v -9.6 c 0,-0.2 -0.2,0 0,0 h 4.13 c 0.11,0 0.2,-0.09 0.2,-0.2 v -10 c 0,-0.11 -0.09,-0.2 -0.2,-0.2 h -4.13 c -0.2,0 0,0.2 0,0 v -9.6 c 0,-0.2 -0.2,0 0,0 h 4.13 c 0.11,0 0.2,-0.09 0.2,-0.2 v -10 c 0,-0.11 -0.09,-0.2 -0.2,-0.2 h -4.13 c -0.2,0 0,0.2 0,0 v -9.6 c 0,-0.2 -0.2,0 0,0 h 4.13 c 0.11,0 0.2,-0.09 0.2,-0.2 v -10 C 947,15.09 946.91,15 946.8,15 H 943.913 929.5 c -0.2,0 0,0.2 0,0 v -4.8 c 0,-0.11 -0.09,-0.2 -0.2,-0.2 h -10 c -0.11,0 -0.2,0.09 -0.2,0.2 V 15 c 0,0.2 0.2,0 0,0 h -9.6 c -0.2,0 0,0.2 0,0 v -4.8 c 0,-0.11 -0.09,-0.2 -0.2,-0.2 h -10 c -0.11,0 -0.2,0.09 -0.2,0.2 V 15 c 0,0.2 0.2,0 0,0 h -9.6 c -0.2,0 0,0.2 0,0 v -4.8 c 0,-0.11 -0.09,-0.2 -0.2,-0.2 h -10 c -0.11,0 -0.2,0.09 -0.2,0.2 V 15 c 0,0.2 0.2,0 0,0 h -9.6 c -0.2,0 0,0.2 0,0 v -4.8 c 0,-0.11 -0.09,-0.2 -0.2,-0.2 h -10 c -0.11,0 -0.2,0.09 -0.2,0.2 V 15 c 0,0.2 0.2,0 0,0 h -9.6 c -0.2,0 0,0.2 0,0 v -4.8 c 0,-0.11 -0.09,-0.2 -0.2,-0.2 h -10 c -0.11,0 -0.2,0.09 -0.2,0.2 V 15 c 0,0.2 0.2,0 0,0 h -9.6 c -0.2,0 0,0.2 0,0 v -4.8 c 0,-0.11 -0.09,-0.2 -0.2,-0.2 h -10 c -0.11,0 -0.2,0.09 -0.2,0.2 V 15 c 0,0.2 0.2,0 0,0 h -9.6 c -0.2,0 0,0.2 0,0 v -4.8 c 0,-0.11 -0.09,-0.2 -0.2,-0.2 h -10 c -0.11,0 -0.2,0.09 -0.2,0.2 V 15 c 0,0.2 0.2,0 0,0 h -9.6 c -0.2,0 0,0.2 0,0 v -4.8 c 0,-0.11 -0.09,-0.2 -0.2,-0.2 h -10 c -0.11,0 -0.2,0.09 -0.2,0.2 V 15 c 0,0.2 0.2,0 0,0 H 764.687 761.8 c -0.11,0 -0.2,0.09 -0.2,0.2 v 10 c 0,0.11 0.09,0.2 0.2,0.2 h 4.13 c 0.2,0 0,-0.2 0,0 V 35 c 0,0.2 0.2,0 0,0 h -4.13 c -0.11,0 -0.2,0.09 -0.2,0.2 v 10 c 0,0.11 0.09,0.2 0.2,0.2 h 4.13 c 0.2,0 0,-0.2 0,0 V 55 c 0,0.2 0.2,0 0,0 h -4.13 c -0.11,0 -0.2,0.09 -0.2,0.2 v 10 c 0,0.11 0.09,0.2 0.2,0.2 h 4.13 c 0.2,0 0,-0.2 0,0 V 75 c 0,0.2 0.2,0 0,0 h -4.13 c -0.11,0 -0.2,0.09 -0.2,0.2 v 10 c 0,0.11 0.09,0.2 0.2,0.2 h 2.887"
       stroke="rgb(0,0,0)"
       stroke-width="0.4"
       id="path47"
       style="stroke:#ff0000" />
  </g>
  <g
     id="p-8"
     style="fill:none;stroke:#ff0000;stroke-linecap:round;stroke-linejoin:round"
     transform="translate(-218.33175,87.379843)">
    <text
       alignment-baseline="hanging"
       font-size="4px"
       style="font-style:normal;font-weight:normal;font-family:sans-serif;fill:#ff0000;stroke:#ff0000"
       text-anchor="middle"
       transform="translate(1042.2,48.4)"
       id="text50" />
    <path
       d="M 952.587,85.4 H 967 c 0.2,0 0,-0.2 0,0 v 4.8 c 0,0.11 0.09,0.2 0.2,0.2 h 10 c 0.11,0 0.2,-0.09 0.2,-0.2 v -4.8 c 0,-0.2 -0.2,0 0,0 h 9.6 c 0.2,0 0,-0.2 0,0 v 4.8 c 0,0.11 0.09,0.2 0.2,0.2 h 10 c 0.11,0 0.2,-0.09 0.2,-0.2 v -4.8 c 0,-0.2 -0.2,0 0,0 h 9.6 c 0.2,0 0,-0.2 0,0 v 4.8 c 0,0.11 0.09,0.2 0.2,0.2 h 10 c 0.11,0 0.2,-0.09 0.2,-0.2 v -4.8 c 0,-0.2 -0.2,0 0,0 h 9.6 c 0.2,0 0,-0.2 0,0 v 4.8 c 0,0.11 0.09,0.2 0.2,0.2 h 10 c 0.11,0 0.2,-0.09 0.2,-0.2 v -4.8 c 0,-0.2 -0.2,0 0,0 h 9.6 c 0.2,0 0,-0.2 0,0 v 4.8 c 0,0.11 0.09,0.2 0.2,0.2 h 10 c 0.11,0 0.2,-0.09 0.2,-0.2 v -4.8 c 0,-0.2 -0.2,0 0,0 h 9.6 c 0.2,0 0,-0.2 0,0 v 4.8 c 0,0.11 0.09,0.2 0.2,0.2 h 10 c 0.11,0 0.2,-0.09 0.2,-0.2 v -4.8 c 0,-0.2 -0.2,0 0,0 h 9.6 c 0.2,0 0,-0.2 0,0 v 4.8 c 0,0.11 0.09,0.2 0.2,0.2 h 10 c 0.11,0 0.2,-0.09 0.2,-0.2 v -4.8 c 0,-0.2 -0.2,0 0,0 h 9.6 c 0.2,0 0,-0.2 0,0 v 4.8 c 0,0.11 0.09,0.2 0.2,0.2 h 10 c 0.11,0 0.2,-0.09 0.2,-0.2 v -4.8 c 0,-0.2 -0.2,0 0,0 h 14.413 -1.443 c 0.11,0 0.2,-0.09 0.2,-0.2 v -9.8 c 0,-0.2 -0.2,0 0,0 h 4.13 c 0.11,0 0.2,-0.09 0.2,-0.2 v -10 c 0,-0.11 -0.09,-0.2 -0.2,-0.2 h -4.13 c -0.2,0 0,0.2 0,0 v -9.6 c 0,-0.2 -0.2,0 0,0 h 4.13 c 0.11,0 0.2,-0.09 0.2,-0.2 v -10 c 0,-0.11 -0.09,-0.2 -0.2,-0.2 h -4.13 c -0.2,0 0,0.2 0,0 v -9.6 c 0,-0.2 -0.2,0 0,0 h 4.13 c 0.11,0 0.2,-0.09 0.2,-0.2 v -10 c 0,-0.11 -0.09,-0.2 -0.2,-0.2 h -4.13 c -0.2,0 0,0.2 0,0 v -9.8 c 0,-0.11 -0.09,-0.2 -0.2,-0.2 h 1.443 -14.413 c -0.2,0 0,0.2 0,0 v -4.8 c 0,-0.11 -0.09,-0.2 -0.2,-0.2 h -10 c -0.11,0 -0.2,0.09 -0.2,0.2 V 15 c 0,0.2 0.2,0 0,0 h -9.6 c -0.2,0 0,0.2 0,0 v -4.8 c 0,-0.11 -0.09,-0.2 -0.2,-0.2 h -10 c -0.11,0 -0.2,0.09 -0.2,0.2 V 15 c 0,0.2 0.2,0 0,0 h -9.6 c -0.2,0 0,0.2 0,0 v -4.8 c 0,-0.11 -0.09,-0.2 -0.2,-0.2 h -10 c -0.11,0 -0.2,0.09 -0.2,0.2 V 15 c 0,0.2 0.2,0 0,0 h -9.6 c -0.2,0 0,0.2 0,0 v -4.8 c 0,-0.11 -0.09,-0.2 -0.2,-0.2 h -10 c -0.11,0 -0.2,0.09 -0.2,0.2 V 15 c 0,0.2 0.2,0 0,0 h -9.6 c -0.2,0 0,0.2 0,0 v -4.8 c 0,-0.11 -0.09,-0.2 -0.2,-0.2 h -10 c -0.11,0 -0.2,0.09 -0.2,0.2 V 15 c 0,0.2 0.2,0 0,0 h -9.6 c -0.2,0 0,0.2 0,0 v -4.8 c 0,-0.11 -0.09,-0.2 -0.2,-0.2 h -10 c -0.11,0 -0.2,0.09 -0.2,0.2 V 15 c 0,0.2 0.2,0 0,0 h -9.6 c -0.2,0 0,0.2 0,0 v -4.8 c 0,-0.11 -0.09,-0.2 -0.2,-0.2 h -10 c -0.11,0 -0.2,0.09 -0.2,0.2 V 15 c 0,0.2 0.2,0 0,0 h -9.6 c -0.2,0 0,0.2 0,0 v -4.8 c 0,-0.11 -0.09,-0.2 -0.2,-0.2 h -10 c -0.11,0 -0.2,0.09 -0.2,0.2 V 15 c 0,0.2 0.2,0 0,0 h -14.413 1.443 c -0.11,0 -0.2,0.09 -0.2,0.2 V 25 c 0,0.2 0.2,0 0,0 h -4.13 c -0.11,0 -0.2,0.09 -0.2,0.2 v 10 c 0,0.11 0.09,0.2 0.2,0.2 h 4.13 c 0.2,0 0,-0.2 0,0 V 45 c 0,0.2 0.2,0 0,0 h -4.13 c -0.11,0 -0.2,0.09 -0.2,0.2 v 10 c 0,0.11 0.09,0.2 0.2,0.2 h 4.13 c 0.2,0 0,-0.2 0,0 V 65 c 0,0.2 0.2,0 0,0 h -4.13 c -0.11,0 -0.2,0.09 -0.2,0.2 v 10 c 0,0.11 0.09,0.2 0.2,0.2 h 4.13 c 0.2,0 0,-0.2 0,0 v 9.8 c 0,0.11 0.09,0.2 0.2,0.2 h -1.443"
       stroke="rgb(0,0,0)"
       stroke-width="0.4"
       id="path52"
       style="stroke:#ff0000" />
  </g>
  <circle
     style="fill:#00ff00;fill-rule:evenodd;stroke:#ff0000;stroke-width:0.264583;stroke-linecap:round;stroke-linejoin:round"
     id="path277"
     cx="-361.74475"
     cy="-652.53973"
     r="4.8677087"
     transform="rotate(150)" />
  <circle
     style="fill:#00ff00;fill-rule:evenodd;stroke:#ff0000;stroke-width:0.264583;stroke-linecap:round;stroke-linejoin:round"
     id="circle806"
     cx="-361.74475"
     cy="-327.53976"
     r="4.8677087"
     transform="rotate(150)" />
  <circle
     style="fill:#00ff00;fill-rule:evenodd;stroke:#ff0000;stroke-width:0.264583;stroke-linecap:round;stroke-linejoin:round"
     id="circle468"
     cx="-605.25922"
     cy="-94.239731"
     r="4.8677087"
     transform="rotate(-150)" />
  <circle
     style="fill:#00ff00;fill-rule:evenodd;stroke:#ff0000;stroke-width:0.264583;stroke-linecap:round;stroke-linejoin:round"
     id="circle472"
     cx="-605.25922"
     cy="230.76024"
     r="4.8677087"
     transform="rotate(-150)" />
  <circle
     style="fill:#00ff00;fill-rule:evenodd;stroke:#ff0000;stroke-width:0.264583;stroke-linecap:round;stroke-linejoin:round"
     id="circle476"
     cx="-243.5145"
     cy="395.80002"
     r="4.8677087"
     transform="rotate(-90)" />
  <circle
     style="fill:#00ff00;fill-rule:evenodd;stroke:#ff0000;stroke-width:0.264583;stroke-linecap:round;stroke-linejoin:round"
     id="circle480"
     cx="-243.5145"
     cy="720.79999"
     r="4.8677087"
     transform="rotate(-90)" />
</svg>
