<?xml version="1.0" encoding="UTF-8" standalone="no"?>
<svg
   height="403.52899mm"
   viewBox="0 0 743.09989 403.52899"
   width="743.09985mm"
   version="1.1"
   id="svg55"
   sodipodi:docname="RegularBox.svg"
   inkscape:version="1.1.2 (0a00cf5339, 2022-02-04, custom)"
   xmlns:inkscape="http://www.inkscape.org/namespaces/inkscape"
   xmlns:sodipodi="http://sodipodi.sourceforge.net/DTD/sodipodi-0.dtd"
   xmlns="http://www.w3.org/2000/svg"
   xmlns:svg="http://www.w3.org/2000/svg"
   xmlns:rdf="http://www.w3.org/1999/02/22-rdf-syntax-ns#"
   xmlns:cc="http://creativecommons.org/ns#"
   xmlns:dc="http://purl.org/dc/elements/1.1/">
  <defs
     id="defs59" />
  <sodipodi:namedview
     id="namedview57"
     pagecolor="#ffffff"
     bordercolor="#666666"
     borderopacity="1.0"
     inkscape:pageshadow="2"
     inkscape:pageopacity="0.0"
     inkscape:pagecheckerboard="0"
     inkscape:document-units="mm"
     showgrid="false"
     inkscape:zoom="0.60009548"
     inkscape:cx="2221.3132"
     inkscape:cy="1403.9433"
     inkscape:window-width="3840"
     inkscape:window-height="2081"
     inkscape:window-x="-9"
     inkscape:window-y="-9"
     inkscape:window-maximized="1"
     inkscape:current-layer="svg55" />
  <!--
RegularBox - Box with regular polygon as base


For short side walls that don't fit a connecting finger reduce *surroundingspaces* and *finger* in the Finger Joint Settings.

The lids needs to be glued. For the bayonet lid all outside rings attach to the bottom, all inside rings to the top.



Created with Boxes.py (https://festi.info/boxes.py)
Creation date: 2022-02-23 13:26:21
Command line (remove spaces between dashes): boxes RegularBox - -FingerJoint_angle=90.0 - -FingerJoint_style=rectangular - -FingerJoint_surroundingspaces=1 - -FingerJoint_edge_width=1.0 - -FingerJoint_extra_length=0.0 - -FingerJoint_finger=2.0 - -FingerJoint_play=0.2 - -FingerJoint_space=2.0 - -FingerJoint_width=1.0 - -h=80 - -outside=0 - -outside=1 - -radius=185 - -n=6 - -top=hole - -alignment_pins=1.0 - -thickness=5 - -format=svg - -tabs=0.0 - -debug=0 - -labels=0 - -labels=1 - -reference=100 - -burn=0.1
Url: http://www.festi.info/RegularBox?FingerJoint_angle=90.0&FingerJoint_style=rectangular&FingerJoint_surroundingspaces=1&FingerJoint_edge_width=1.0&FingerJoint_extra_length=0.0&FingerJoint_finger=2.0&FingerJoint_play=0.2&FingerJoint_space=2.0&FingerJoint_width=1.0&h=80&outside=0&outside=1&radius=185&n=6&top=hole&alignment_pins=1.0&thickness=5&format=svg&tabs=0.0&debug=0&labels=0&labels=1&reference=100&burn=0.1&render=1
SettingsUrl: http://www.festi.info/RegularBox?FingerJoint_angle=90.0&FingerJoint_style=rectangular&FingerJoint_surroundingspaces=1&FingerJoint_edge_width=1.0&FingerJoint_extra_length=0.0&FingerJoint_finger=2.0&FingerJoint_play=0.2&FingerJoint_space=2.0&FingerJoint_width=1.0&h=80&outside=0&outside=1&radius=185&n=6&top=hole&alignment_pins=1.0&thickness=5&format=svg&tabs=0.0&debug=0&labels=0&labels=1&reference=100&burn=0.1
-->
  <title
     id="title2">RegularBox</title>
  <metadata
     id="metadata4">
    <rdf:RDF>
      <cc:Work>
        <dc:title>Box - RegularBox</dc:title>
        <dc:date>2022-02-23 13:26:21</dc:date>
        <dc:source>http://www.festi.info/RegularBox?FingerJoint_angle=90.0&amp;FingerJoint_style=rectangular&amp;FingerJoint_surroundingspaces=1&amp;FingerJoint_edge_width=1.0&amp;FingerJoint_extra_length=0.0&amp;FingerJoint_finger=2.0&amp;FingerJoint_play=0.2&amp;FingerJoint_space=2.0&amp;FingerJoint_width=1.0&amp;h=80&amp;outside=0&amp;outside=1&amp;radius=185&amp;n=6&amp;top=hole&amp;alignment_pins=1.0&amp;thickness=5&amp;format=svg&amp;tabs=0.0&amp;debug=0&amp;labels=0&amp;labels=1&amp;reference=100&amp;burn=0.1&amp;render=1</dc:source>
        <dc:description>Box with regular polygon as base

For short side walls that don't fit a connecting finger reduce *surroundingspaces* and *finger* in the Finger Joint Settings.

The lids needs to be glued. For the bayonet lid all outside rings attach to the bottom, all inside rings to the top.


Created with Boxes.py (https://festi.info/boxes.py)
Command line: boxes RegularBox --FingerJoint_angle=90.0 --FingerJoint_style=rectangular --FingerJoint_surroundingspaces=1 --FingerJoint_edge_width=1.0 --FingerJoint_extra_length=0.0 --FingerJoint_finger=2.0 --FingerJoint_play=0.2 --FingerJoint_space=2.0 --FingerJoint_width=1.0 --h=80 --outside=0 --outside=1 --radius=185 --n=6 --top=hole --alignment_pins=1.0 --thickness=5 --format=svg --tabs=0.0 --debug=0 --labels=0 --labels=1 --reference=100 --burn=0.1
Url: http://www.festi.info/RegularBox?FingerJoint_angle=90.0&amp;FingerJoint_style=rectangular&amp;FingerJoint_surroundingspaces=1&amp;FingerJoint_edge_width=1.0&amp;FingerJoint_extra_length=0.0&amp;FingerJoint_finger=2.0&amp;FingerJoint_play=0.2&amp;FingerJoint_space=2.0&amp;FingerJoint_width=1.0&amp;h=80&amp;outside=0&amp;outside=1&amp;radius=185&amp;n=6&amp;top=hole&amp;alignment_pins=1.0&amp;thickness=5&amp;format=svg&amp;tabs=0.0&amp;debug=0&amp;labels=0&amp;labels=1&amp;reference=100&amp;burn=0.1&amp;render=1
SettingsUrl: http://www.festi.info/RegularBox?FingerJoint_angle=90.0&amp;FingerJoint_style=rectangular&amp;FingerJoint_surroundingspaces=1&amp;FingerJoint_edge_width=1.0&amp;FingerJoint_extra_length=0.0&amp;FingerJoint_finger=2.0&amp;FingerJoint_play=0.2&amp;FingerJoint_space=2.0&amp;FingerJoint_width=1.0&amp;h=80&amp;outside=0&amp;outside=1&amp;radius=185&amp;n=6&amp;top=hole&amp;alignment_pins=1.0&amp;thickness=5&amp;format=svg&amp;tabs=0.0&amp;debug=0&amp;labels=0&amp;labels=1&amp;reference=100&amp;burn=0.1
</dc:description>
      </cc:Work>
    </rdf:RDF>
  </metadata>
  <g
     id="p-1"
     style="fill:none;stroke-linecap:round;stroke-linejoin:round;stroke:#ff0000"
     transform="translate(-9.9,-9.9)">
    <text
       alignment-baseline="hanging"
       font-size="4px"
       style="font-style:normal;font-weight:normal;font-family:sans-serif;fill:#ff0000;stroke:#ff0000"
       text-anchor="middle"
       transform="translate(195.1,251.115)"
       id="text13" />
    <path
       d="M 105.487,413.329 H 119.6 c 0.055,0 0.1,-0.044 0.1,-0.1 v -4.9 c 0,-0.1 -0.1,0 0,0 h 10.8 c 0.1,0 0,-0.1 0,0 v 4.9 c 0,0.056 0.045,0.1 0.1,0.1 h 9 c 0.055,0 0.1,-0.044 0.1,-0.1 v -4.9 c 0,-0.1 -0.1,0 0,0 h 10.8 c 0.1,0 0,-0.1 0,0 v 4.9 c 0,0.056 0.045,0.1 0.1,0.1 h 9 c 0.055,0 0.1,-0.044 0.1,-0.1 v -4.9 c 0,-0.1 -0.1,0 0,0 h 10.8 c 0.1,0 0,-0.1 0,0 v 4.9 c 0,0.056 0.045,0.1 0.1,0.1 h 9 c 0.055,0 0.1,-0.044 0.1,-0.1 v -4.9 c 0,-0.1 -0.1,0 0,0 h 10.8 c 0.1,0 0,-0.1 0,0 v 4.9 c 0,0.056 0.045,0.1 0.1,0.1 h 9 c 0.055,0 0.1,-0.044 0.1,-0.1 v -4.9 c 0,-0.1 -0.1,0 0,0 h 10.8 c 0.1,0 0,-0.1 0,0 v 4.9 c 0,0.056 0.045,0.1 0.1,0.1 h 9 c 0.055,0 0.1,-0.044 0.1,-0.1 v -4.9 c 0,-0.1 -0.1,0 0,0 h 10.8 c 0.1,0 0,-0.1 0,0 v 4.9 c 0,0.056 0.045,0.1 0.1,0.1 h 9 c 0.055,0 0.1,-0.044 0.1,-0.1 v -4.9 c 0,-0.1 -0.1,0 0,0 h 10.8 c 0.1,0 0,-0.1 0,0 v 4.9 c 0,0.056 0.045,0.1 0.1,0.1 h 9 c 0.055,0 0.1,-0.044 0.1,-0.1 v -4.9 c 0,-0.1 -0.1,0 0,0 h 10.8 c 0.1,0 0,-0.1 0,0 v 4.9 c 0,0.056 0.045,0.1 0.1,0.1 h 14.113 2.887 c 0.036,0 0.069,-0.019 0.087,-0.05 l 1.443,-2.5 7.057,-12.222 c 0.027,-0.048 0.011,-0.109 -0.037,-0.137 l -4.244,-2.45 c -0.086,-0.05 -0.05,0.087 0,0 l 5.4,-9.353 c 0.05,-0.086 -0.086,-0.05 0,0 l 4.244,2.45 c 0.048,0.028 0.109,0.012 0.137,-0.036 l 4.5,-7.795 c 0.027,-0.047 0.011,-0.109 -0.037,-0.136 l -4.244,-2.45 c -0.086,-0.05 -0.05,0.086 0,0 l 5.4,-9.353 c 0.05,-0.087 -0.086,-0.05 0,0 l 4.244,2.45 c 0.048,0.027 0.109,0.011 0.137,-0.037 l 4.5,-7.794 c 0.027,-0.048 0.011,-0.109 -0.037,-0.137 l -4.244,-2.45 c -0.086,-0.05 -0.05,0.087 0,0 l 5.4,-9.353 c 0.05,-0.086 -0.086,-0.05 0,0 l 4.244,2.45 c 0.048,0.028 0.109,0.012 0.137,-0.036 l 4.5,-7.795 c 0.027,-0.047 0.011,-0.109 -0.037,-0.136 l -4.244,-2.45 c -0.086,-0.05 -0.05,0.086 0,0 l 5.4,-9.353 c 0.05,-0.087 -0.086,-0.05 0,0 l 4.244,2.45 c 0.048,0.027 0.109,0.011 0.137,-0.037 l 4.5,-7.794 c 0.027,-0.048 0.011,-0.109 -0.037,-0.137 l -4.244,-2.45 c -0.086,-0.05 -0.05,0.087 0,0 l 5.4,-9.353 c 0.05,-0.086 -0.086,-0.05 0,0 l 4.244,2.45 c 0.048,0.028 0.109,0.011 0.137,-0.036 l 4.5,-7.795 c 0.027,-0.047 0.011,-0.109 -0.037,-0.136 l -4.244,-2.45 c -0.086,-0.05 -0.05,0.086 0,0 l 5.4,-9.353 c 0.05,-0.087 -0.086,-0.05 0,0 l 4.244,2.45 c 0.048,0.027 0.109,0.011 0.137,-0.037 l 4.5,-7.794 c 0.027,-0.048 0.011,-0.109 -0.037,-0.137 l -4.244,-2.45 c -0.086,-0.05 -0.05,0.087 0,0 l 5.4,-9.353 c 0.05,-0.086 -0.086,-0.05 0,0 l 4.244,2.45 c 0.048,0.028 0.109,0.011 0.137,-0.036 l 4.5,-7.795 c 0.027,-0.047 0.011,-0.109 -0.037,-0.136 l -4.244,-2.45 c -0.086,-0.05 -0.05,0.086 0,0 l 5.4,-9.353 c 0.05,-0.087 -0.086,-0.05 0,0 l 4.244,2.45 c 0.048,0.027 0.109,0.011 0.137,-0.037 l 7.056,-12.222 1.444,-2.5 c 0.017,-0.031 0.017,-0.069 0,-0.1 l -1.444,-2.5 -7.056,-12.223 c -0.028,-0.048 -0.089,-0.064 -0.137,-0.036 l -4.244,2.45 c -0.086,0.05 0.05,0.086 0,0 l -5.4,-9.353 c -0.05,-0.087 -0.086,0.05 0,0 l 4.244,-2.45 c 0.048,-0.028 0.064,-0.089 0.037,-0.137 l -4.5,-7.794 c -0.028,-0.048 -0.089,-0.064 -0.137,-0.037 l -4.244,2.45 c -0.086,0.05 0.05,0.087 0,0 l -5.4,-9.353 c -0.05,-0.087 -0.086,0.05 0,0 l 4.244,-2.45 c 0.048,-0.028 0.064,-0.089 0.037,-0.137 l -4.5,-7.794 c -0.028,-0.048 -0.089,-0.064 -0.137,-0.036 l -4.244,2.45 c -0.086,0.05 0.05,0.086 0,0 l -5.4,-9.353 c -0.05,-0.087 -0.086,0.05 0,0 l 4.244,-2.45 c 0.048,-0.028 0.064,-0.089 0.037,-0.137 l -4.5,-7.794 c -0.028,-0.048 -0.089,-0.064 -0.137,-0.037 l -4.244,2.45 c -0.086,0.05 0.05,0.087 0,0 l -5.4,-9.353 c -0.05,-0.087 -0.086,0.05 0,0 l 4.244,-2.45 c 0.048,-0.028 0.064,-0.089 0.037,-0.137 l -4.5,-7.794 c -0.028,-0.048 -0.089,-0.064 -0.137,-0.036 l -4.244,2.45 c -0.086,0.05 0.05,0.086 0,0 l -5.4,-9.353 c -0.05,-0.087 -0.086,0.05 0,0 l 4.244,-2.45 c 0.048,-0.028 0.064,-0.089 0.037,-0.137 l -4.5,-7.794 c -0.028,-0.048 -0.089,-0.064 -0.137,-0.037 l -4.244,2.45 c -0.086,0.05 0.05,0.087 0,0 l -5.4,-9.353 c -0.05,-0.087 -0.086,0.05 0,0 l 4.244,-2.45 c 0.048,-0.028 0.064,-0.089 0.037,-0.137 l -4.5,-7.794 c -0.028,-0.048 -0.089,-0.064 -0.137,-0.036 l -4.244,2.45 c -0.086,0.05 0.05,0.086 0,0 l -5.4,-9.353 c -0.05,-0.087 -0.086,0.05 0,0 l 4.244,-2.45 c 0.048,-0.028 0.064,-0.089 0.037,-0.137 l -4.5,-7.794 c -0.028,-0.048 -0.089,-0.065 -0.137,-0.037 l -4.244,2.45 c -0.086,0.05 0.05,0.087 0,0 l -5.4,-9.353 c -0.05,-0.087 -0.086,0.05 0,0 l 4.244,-2.45 c 0.048,-0.028 0.064,-0.089 0.037,-0.137 L 289.13,95.25 287.687,92.75 C 287.669,92.719 287.636,92.7 287.6,92.7 H 284.713 270.6 c -0.055,0 -0.1,0.045 -0.1,0.1 v 4.9 c 0,0.1 0.1,0 0,0 h -10.8 c -0.1,0 0,0.1 0,0 v -4.9 c 0,-0.055 -0.045,-0.1 -0.1,-0.1 h -9 c -0.055,0 -0.1,0.045 -0.1,0.1 v 4.9 c 0,0.1 0.1,0 0,0 h -10.8 c -0.1,0 0,0.1 0,0 v -4.9 c 0,-0.055 -0.045,-0.1 -0.1,-0.1 h -9 c -0.055,0 -0.1,0.045 -0.1,0.1 v 4.9 c 0,0.1 0.1,0 0,0 h -10.8 c -0.1,0 0,0.1 0,0 v -4.9 c 0,-0.055 -0.045,-0.1 -0.1,-0.1 h -9 c -0.055,0 -0.1,0.045 -0.1,0.1 v 4.9 c 0,0.1 0.1,0 0,0 h -10.8 c -0.1,0 0,0.1 0,0 v -4.9 c 0,-0.055 -0.045,-0.1 -0.1,-0.1 h -9 c -0.055,0 -0.1,0.045 -0.1,0.1 v 4.9 c 0,0.1 0.1,0 0,0 h -10.8 c -0.1,0 0,0.1 0,0 v -4.9 c 0,-0.055 -0.045,-0.1 -0.1,-0.1 h -9 c -0.055,0 -0.1,0.045 -0.1,0.1 v 4.9 c 0,0.1 0.1,0 0,0 h -10.8 c -0.1,0 0,0.1 0,0 v -4.9 c 0,-0.055 -0.045,-0.1 -0.1,-0.1 h -9 c -0.055,0 -0.1,0.045 -0.1,0.1 v 4.9 c 0,0.1 0.1,0 0,0 h -10.8 c -0.1,0 0,0.1 0,0 v -4.9 c 0,-0.055 -0.045,-0.1 -0.1,-0.1 h -9 c -0.055,0 -0.1,0.045 -0.1,0.1 v 4.9 c 0,0.1 0.1,0 0,0 h -10.8 c -0.1,0 0,0.1 0,0 v -4.9 c 0,-0.055 -0.045,-0.1 -0.1,-0.1 H 105.487 102.6 c -0.036,0 -0.069,0.019 -0.087,0.05 l -1.443,2.5 -7.057,12.222 c -0.027,0.048 -0.011,0.109 0.037,0.137 l 4.244,2.45 c 0.086,0.05 0.05,-0.087 0,0 l -5.4,9.353 c -0.05,0.087 0.086,0.05 0,0 l -4.244,-2.45 c -0.048,-0.028 -0.109,-0.011 -0.137,0.037 l -4.5,7.794 c -0.027,0.048 -0.011,0.109 0.037,0.137 l 4.244,2.45 c 0.086,0.05 0.05,-0.087 0,0 l -5.4,9.353 c -0.05,0.086 0.086,0.05 0,0 l -4.244,-2.45 c -0.048,-0.028 -0.109,-0.012 -0.137,0.036 l -4.5,7.794 c -0.027,0.048 -0.011,0.109 0.037,0.137 l 4.244,2.45 c 0.086,0.05 0.05,-0.087 0,0 l -5.4,9.353 c -0.05,0.087 0.086,0.05 0,0 l -4.244,-2.45 c -0.048,-0.027 -0.109,-0.011 -0.137,0.037 l -4.5,7.794 c -0.027,0.048 -0.011,0.109 0.037,0.137 l 4.244,2.45 c 0.086,0.05 0.05,-0.087 0,0 l -5.4,9.353 c -0.05,0.086 0.086,0.05 0,0 l -4.244,-2.45 c -0.048,-0.028 -0.109,-0.012 -0.137,0.036 l -4.5,7.794 c -0.027,0.048 -0.011,0.109 0.037,0.137 l 4.244,2.45 c 0.086,0.05 0.05,-0.087 0,0 l -5.4,9.353 c -0.05,0.087 0.086,0.05 0,0 l -4.244,-2.45 c -0.048,-0.027 -0.109,-0.011 -0.137,0.037 l -4.5,7.794 c -0.027,0.048 -0.011,0.109 0.037,0.137 l 4.244,2.45 c 0.086,0.05 0.05,-0.087 0,0 l -5.4,9.353 c -0.05,0.086 0.086,0.05 0,0 l -4.244,-2.45 c -0.048,-0.028 -0.109,-0.012 -0.137,0.036 l -4.5,7.794 c -0.027,0.048 -0.011,0.109 0.037,0.137 l 4.244,2.45 c 0.086,0.05 0.05,-0.087 0,0 l -5.4,9.353 c -0.05,0.087 0.086,0.05 0,0 l -4.244,-2.45 c -0.048,-0.027 -0.109,-0.011 -0.137,0.037 l -4.5,7.794 c -0.027,0.048 -0.011,0.109 0.037,0.137 l 4.244,2.45 c 0.086,0.05 0.05,-0.087 0,0 l -5.4,9.353 c -0.05,0.086 0.086,0.05 0,0 l -4.244,-2.45 c -0.048,-0.028 -0.109,-0.012 -0.137,0.036 l -7.056,12.223 -1.444,2.5 c -0.017,0.031 -0.017,0.069 0,0.1 l 1.444,2.5 7.056,12.222 c 0.028,0.048 0.089,0.064 0.137,0.037 l 4.244,-2.45 c 0.086,-0.05 -0.05,-0.087 0,0 l 5.4,9.353 c 0.05,0.086 0.086,-0.05 0,0 l -4.244,2.45 c -0.048,0.027 -0.064,0.089 -0.037,0.136 l 4.5,7.795 c 0.028,0.047 0.089,0.064 0.137,0.036 l 4.244,-2.45 c 0.086,-0.05 -0.05,-0.086 0,0 l 5.4,9.353 c 0.05,0.087 0.086,-0.05 0,0 l -4.244,2.45 c -0.048,0.028 -0.064,0.089 -0.037,0.137 l 4.5,7.794 c 0.028,0.048 0.089,0.064 0.137,0.037 l 4.244,-2.45 c 0.086,-0.05 -0.05,-0.087 0,0 l 5.4,9.353 c 0.05,0.086 0.086,-0.05 0,0 l -4.244,2.45 c -0.048,0.027 -0.064,0.089 -0.037,0.136 l 4.5,7.795 c 0.028,0.047 0.089,0.064 0.137,0.036 l 4.244,-2.45 c 0.086,-0.05 -0.05,-0.086 0,0 l 5.4,9.353 c 0.05,0.087 0.086,-0.05 0,0 l -4.244,2.45 c -0.048,0.028 -0.064,0.089 -0.037,0.137 l 4.5,7.794 c 0.028,0.048 0.089,0.064 0.137,0.037 l 4.244,-2.45 c 0.086,-0.05 -0.05,-0.087 0,0 l 5.4,9.353 c 0.05,0.086 0.086,-0.05 0,0 l -4.244,2.45 c -0.048,0.027 -0.064,0.089 -0.037,0.136 l 4.5,7.795 c 0.028,0.048 0.089,0.064 0.137,0.036 l 4.244,-2.45 c 0.086,-0.05 -0.05,-0.086 0,0 l 5.4,9.353 c 0.05,0.087 0.086,-0.05 0,0 l -4.244,2.45 c -0.048,0.028 -0.064,0.089 -0.037,0.137 l 4.5,7.794 c 0.028,0.048 0.089,0.064 0.137,0.037 l 4.244,-2.45 c 0.086,-0.05 -0.05,-0.087 0,0 l 5.4,9.353 c 0.05,0.086 0.086,-0.05 0,0 l -4.244,2.45 c -0.048,0.027 -0.064,0.089 -0.037,0.136 l 4.5,7.795 c 0.028,0.048 0.089,0.064 0.137,0.036 l 4.244,-2.45 c 0.086,-0.05 -0.05,-0.086 0,0 l 5.4,9.353 c 0.05,0.087 0.086,-0.05 0,0 l -4.244,2.45 c -0.048,0.028 -0.064,0.089 -0.037,0.137 l 7.057,12.222 1.443,2.5 c 0.018,0.031 0.051,0.05 0.087,0.05 h 2.887"
       stroke="#000000"
       stroke-width="0.2"
       id="path15"
       style="stroke:#ff0000" />
  </g>
  <g
     id="p-2"
     style="fill:none;stroke-linecap:round;stroke-linejoin:round;stroke:#ff0000"
     transform="translate(-9.9,-9.9)">
    <path
       d="m 717.915,253.015 c 0,28.777 -8.272,56.949 -23.83,81.158 -15.559,24.209 -37.748,43.436 -63.925,55.391 -26.177,11.955 -55.239,16.133 -83.724,12.037 -28.484,-4.095 -55.192,-16.292 -76.94,-35.137 -21.749,-18.846 -37.622,-43.545 -45.73,-71.157 -8.108,-27.612 -8.108,-56.973 0,-84.584 8.108,-27.612 23.981,-52.312 45.73,-71.157 21.748,-18.846 48.456,-31.043 76.94,-35.138 28.485,-4.096 57.547,0.083 83.724,12.038 26.177,11.954 48.366,31.181 63.925,55.391 15.558,24.209 23.83,52.38 23.83,81.158 z"
       stroke="#0000ff"
       stroke-width="0.2"
       id="path18"
       style="stroke:#ff0000" />
    <text
       alignment-baseline="hanging"
       font-size="4px"
       style="font-style:normal;font-weight:normal;font-family:sans-serif;fill:#ff0000;stroke:#ff0000"
       text-anchor="middle"
       transform="translate(567.8,251.115)"
       id="text20" />
    <path
       d="M 478.187,413.329 H 492.3 c 0.055,0 0.1,-0.044 0.1,-0.1 v -4.9 c 0,-0.1 -0.1,0 0,0 h 10.8 c 0.1,0 0,-0.1 0,0 v 4.9 c 0,0.056 0.045,0.1 0.1,0.1 h 9 c 0.055,0 0.1,-0.044 0.1,-0.1 v -4.9 c 0,-0.1 -0.1,0 0,0 h 10.8 c 0.1,0 0,-0.1 0,0 v 4.9 c 0,0.056 0.045,0.1 0.1,0.1 h 9 c 0.055,0 0.1,-0.044 0.1,-0.1 v -4.9 c 0,-0.1 -0.1,0 0,0 h 10.8 c 0.1,0 0,-0.1 0,0 v 4.9 c 0,0.056 0.045,0.1 0.1,0.1 h 9 c 0.055,0 0.1,-0.044 0.1,-0.1 v -4.9 c 0,-0.1 -0.1,0 0,0 h 10.8 c 0.1,0 0,-0.1 0,0 v 4.9 c 0,0.056 0.045,0.1 0.1,0.1 h 9 c 0.055,0 0.1,-0.044 0.1,-0.1 v -4.9 c 0,-0.1 -0.1,0 0,0 h 10.8 c 0.1,0 0,-0.1 0,0 v 4.9 c 0,0.056 0.045,0.1 0.1,0.1 h 9 c 0.055,0 0.1,-0.044 0.1,-0.1 v -4.9 c 0,-0.1 -0.1,0 0,0 h 10.8 c 0.1,0 0,-0.1 0,0 v 4.9 c 0,0.056 0.045,0.1 0.1,0.1 h 9 c 0.055,0 0.1,-0.044 0.1,-0.1 v -4.9 c 0,-0.1 -0.1,0 0,0 h 10.8 c 0.1,0 0,-0.1 0,0 v 4.9 c 0,0.056 0.045,0.1 0.1,0.1 h 9 c 0.055,0 0.1,-0.044 0.1,-0.1 v -4.9 c 0,-0.1 -0.1,0 0,0 h 10.8 c 0.1,0 0,-0.1 0,0 v 4.9 c 0,0.056 0.045,0.1 0.1,0.1 h 14.113 2.887 c 0.036,0 0.069,-0.019 0.087,-0.05 l 1.443,-2.5 7.057,-12.222 c 0.027,-0.048 0.011,-0.109 -0.037,-0.137 l -4.244,-2.45 c -0.086,-0.05 -0.05,0.087 0,0 l 5.4,-9.353 c 0.05,-0.086 -0.086,-0.05 0,0 l 4.244,2.45 c 0.048,0.028 0.109,0.012 0.137,-0.036 l 4.5,-7.795 c 0.027,-0.047 0.011,-0.109 -0.037,-0.136 l -4.244,-2.45 c -0.086,-0.05 -0.05,0.086 0,0 l 5.4,-9.353 c 0.05,-0.087 -0.086,-0.05 0,0 l 4.244,2.45 c 0.048,0.027 0.109,0.011 0.137,-0.037 l 4.5,-7.794 c 0.027,-0.048 0.011,-0.109 -0.037,-0.137 l -4.244,-2.45 c -0.086,-0.05 -0.05,0.087 0,0 l 5.4,-9.353 c 0.05,-0.086 -0.086,-0.05 0,0 l 4.244,2.45 c 0.048,0.028 0.109,0.012 0.137,-0.036 l 4.5,-7.795 c 0.027,-0.047 0.011,-0.109 -0.037,-0.136 l -4.244,-2.45 c -0.086,-0.05 -0.05,0.086 0,0 l 5.4,-9.353 c 0.05,-0.087 -0.086,-0.05 0,0 l 4.244,2.45 c 0.048,0.027 0.109,0.011 0.137,-0.037 l 4.5,-7.794 c 0.027,-0.048 0.011,-0.109 -0.037,-0.137 l -4.244,-2.45 c -0.086,-0.05 -0.05,0.087 0,0 l 5.4,-9.353 c 0.05,-0.086 -0.086,-0.05 0,0 l 4.244,2.45 c 0.048,0.028 0.109,0.011 0.137,-0.036 l 4.5,-7.795 c 0.027,-0.047 0.011,-0.109 -0.037,-0.136 l -4.244,-2.45 c -0.086,-0.05 -0.05,0.086 0,0 l 5.4,-9.353 c 0.05,-0.087 -0.086,-0.05 0,0 l 4.244,2.45 c 0.048,0.027 0.109,0.011 0.137,-0.037 l 4.5,-7.794 c 0.027,-0.048 0.011,-0.109 -0.037,-0.137 l -4.244,-2.45 c -0.086,-0.05 -0.05,0.087 0,0 l 5.4,-9.353 c 0.05,-0.086 -0.086,-0.05 0,0 l 4.244,2.45 c 0.048,0.028 0.109,0.011 0.137,-0.036 l 4.5,-7.795 c 0.027,-0.047 0.011,-0.109 -0.037,-0.136 l -4.244,-2.45 c -0.086,-0.05 -0.05,0.086 0,0 l 5.4,-9.353 c 0.05,-0.087 -0.086,-0.05 0,0 l 4.244,2.45 c 0.048,0.027 0.109,0.011 0.137,-0.037 l 7.056,-12.222 1.444,-2.5 c 0.017,-0.031 0.017,-0.069 0,-0.1 l -1.444,-2.5 -7.056,-12.223 c -0.028,-0.048 -0.089,-0.064 -0.137,-0.036 l -4.244,2.45 c -0.086,0.05 0.05,0.086 0,0 l -5.4,-9.353 c -0.05,-0.087 -0.086,0.05 0,0 l 4.244,-2.45 c 0.048,-0.028 0.064,-0.089 0.037,-0.137 l -4.5,-7.794 c -0.028,-0.048 -0.089,-0.064 -0.137,-0.037 l -4.244,2.45 c -0.086,0.05 0.05,0.087 0,0 l -5.4,-9.353 c -0.05,-0.087 -0.086,0.05 0,0 l 4.244,-2.45 c 0.048,-0.028 0.064,-0.089 0.037,-0.137 l -4.5,-7.794 c -0.028,-0.048 -0.089,-0.064 -0.137,-0.036 l -4.244,2.45 c -0.086,0.05 0.05,0.086 0,0 l -5.4,-9.353 c -0.05,-0.087 -0.086,0.05 0,0 l 4.244,-2.45 c 0.048,-0.028 0.064,-0.089 0.037,-0.137 l -4.5,-7.794 c -0.028,-0.048 -0.089,-0.064 -0.137,-0.037 l -4.244,2.45 c -0.086,0.05 0.05,0.087 0,0 l -5.4,-9.353 c -0.05,-0.087 -0.086,0.05 0,0 l 4.244,-2.45 c 0.048,-0.028 0.064,-0.089 0.037,-0.137 l -4.5,-7.794 c -0.028,-0.048 -0.089,-0.064 -0.137,-0.036 l -4.244,2.45 c -0.086,0.05 0.05,0.086 0,0 l -5.4,-9.353 c -0.05,-0.087 -0.086,0.05 0,0 l 4.244,-2.45 c 0.048,-0.028 0.064,-0.089 0.037,-0.137 l -4.5,-7.794 c -0.028,-0.048 -0.089,-0.064 -0.137,-0.037 l -4.244,2.45 c -0.086,0.05 0.05,0.087 0,0 l -5.4,-9.353 c -0.05,-0.087 -0.086,0.05 0,0 l 4.244,-2.45 c 0.048,-0.028 0.064,-0.089 0.037,-0.137 l -4.5,-7.794 c -0.028,-0.048 -0.089,-0.064 -0.137,-0.036 l -4.244,2.45 c -0.086,0.05 0.05,0.086 0,0 l -5.4,-9.353 c -0.05,-0.087 -0.086,0.05 0,0 l 4.244,-2.45 c 0.048,-0.028 0.064,-0.089 0.037,-0.137 l -4.5,-7.794 c -0.028,-0.048 -0.089,-0.065 -0.137,-0.037 l -4.244,2.45 c -0.086,0.05 0.05,0.087 0,0 l -5.4,-9.353 c -0.05,-0.087 -0.086,0.05 0,0 l 4.244,-2.45 c 0.048,-0.028 0.064,-0.089 0.037,-0.137 L 661.83,95.25 660.387,92.75 C 660.369,92.719 660.336,92.7 660.3,92.7 H 657.413 643.3 c -0.055,0 -0.1,0.045 -0.1,0.1 v 4.9 c 0,0.1 0.1,0 0,0 h -10.8 c -0.1,0 0,0.1 0,0 v -4.9 c 0,-0.055 -0.045,-0.1 -0.1,-0.1 h -9 c -0.055,0 -0.1,0.045 -0.1,0.1 v 4.9 c 0,0.1 0.1,0 0,0 h -10.8 c -0.1,0 0,0.1 0,0 v -4.9 c 0,-0.055 -0.045,-0.1 -0.1,-0.1 h -9 c -0.055,0 -0.1,0.045 -0.1,0.1 v 4.9 c 0,0.1 0.1,0 0,0 h -10.8 c -0.1,0 0,0.1 0,0 v -4.9 c 0,-0.055 -0.045,-0.1 -0.1,-0.1 h -9 c -0.055,0 -0.1,0.045 -0.1,0.1 v 4.9 c 0,0.1 0.1,0 0,0 h -10.8 c -0.1,0 0,0.1 0,0 v -4.9 c 0,-0.055 -0.045,-0.1 -0.1,-0.1 h -9 c -0.055,0 -0.1,0.045 -0.1,0.1 v 4.9 c 0,0.1 0.1,0 0,0 h -10.8 c -0.1,0 0,0.1 0,0 v -4.9 c 0,-0.055 -0.045,-0.1 -0.1,-0.1 h -9 c -0.055,0 -0.1,0.045 -0.1,0.1 v 4.9 c 0,0.1 0.1,0 0,0 h -10.8 c -0.1,0 0,0.1 0,0 v -4.9 c 0,-0.055 -0.045,-0.1 -0.1,-0.1 h -9 c -0.055,0 -0.1,0.045 -0.1,0.1 v 4.9 c 0,0.1 0.1,0 0,0 h -10.8 c -0.1,0 0,0.1 0,0 v -4.9 c 0,-0.055 -0.045,-0.1 -0.1,-0.1 h -9 c -0.055,0 -0.1,0.045 -0.1,0.1 v 4.9 c 0,0.1 0.1,0 0,0 h -10.8 c -0.1,0 0,0.1 0,0 v -4.9 c 0,-0.055 -0.045,-0.1 -0.1,-0.1 H 478.187 475.3 c -0.036,0 -0.069,0.019 -0.087,0.05 l -1.443,2.5 -7.057,12.222 c -0.027,0.048 -0.011,0.109 0.037,0.137 l 4.244,2.45 c 0.086,0.05 0.05,-0.087 0,0 l -5.4,9.353 c -0.05,0.087 0.086,0.05 0,0 l -4.244,-2.45 c -0.048,-0.028 -0.109,-0.011 -0.137,0.037 l -4.5,7.794 c -0.027,0.048 -0.011,0.109 0.037,0.137 l 4.244,2.45 c 0.086,0.05 0.05,-0.087 0,0 l -5.4,9.353 c -0.05,0.086 0.086,0.05 0,0 l -4.244,-2.45 c -0.048,-0.028 -0.109,-0.012 -0.137,0.036 l -4.5,7.794 c -0.027,0.048 -0.011,0.109 0.037,0.137 l 4.244,2.45 c 0.086,0.05 0.05,-0.087 0,0 l -5.4,9.353 c -0.05,0.087 0.086,0.05 0,0 l -4.244,-2.45 c -0.048,-0.027 -0.109,-0.011 -0.137,0.037 l -4.5,7.794 c -0.027,0.048 -0.011,0.109 0.037,0.137 l 4.244,2.45 c 0.086,0.05 0.05,-0.087 0,0 l -5.4,9.353 c -0.05,0.086 0.086,0.05 0,0 l -4.244,-2.45 c -0.048,-0.028 -0.109,-0.012 -0.137,0.036 l -4.5,7.794 c -0.027,0.048 -0.011,0.109 0.037,0.137 l 4.244,2.45 c 0.086,0.05 0.05,-0.087 0,0 l -5.4,9.353 c -0.05,0.087 0.086,0.05 0,0 l -4.244,-2.45 c -0.048,-0.027 -0.109,-0.011 -0.137,0.037 l -4.5,7.794 c -0.027,0.048 -0.011,0.109 0.037,0.137 l 4.244,2.45 c 0.086,0.05 0.05,-0.087 0,0 l -5.4,9.353 c -0.05,0.086 0.086,0.05 0,0 l -4.244,-2.45 c -0.048,-0.028 -0.109,-0.012 -0.137,0.036 l -4.5,7.794 c -0.027,0.048 -0.011,0.109 0.037,0.137 l 4.244,2.45 c 0.086,0.05 0.05,-0.087 0,0 l -5.4,9.353 c -0.05,0.087 0.086,0.05 0,0 l -4.244,-2.45 c -0.048,-0.027 -0.109,-0.011 -0.137,0.037 l -4.5,7.794 c -0.027,0.048 -0.011,0.109 0.037,0.137 l 4.244,2.45 c 0.086,0.05 0.05,-0.087 0,0 l -5.4,9.353 c -0.05,0.086 0.086,0.05 0,0 l -4.244,-2.45 c -0.048,-0.028 -0.109,-0.012 -0.137,0.036 l -7.056,12.223 -1.444,2.5 c -0.017,0.031 -0.017,0.069 0,0.1 l 1.444,2.5 7.056,12.222 c 0.028,0.048 0.089,0.064 0.137,0.037 l 4.244,-2.45 c 0.086,-0.05 -0.05,-0.087 0,0 l 5.4,9.353 c 0.05,0.086 0.086,-0.05 0,0 l -4.244,2.45 c -0.048,0.027 -0.064,0.089 -0.037,0.136 l 4.5,7.795 c 0.028,0.047 0.089,0.064 0.137,0.036 l 4.244,-2.45 c 0.086,-0.05 -0.05,-0.086 0,0 l 5.4,9.353 c 0.05,0.087 0.086,-0.05 0,0 l -4.244,2.45 c -0.048,0.028 -0.064,0.089 -0.037,0.137 l 4.5,7.794 c 0.028,0.048 0.089,0.064 0.137,0.037 l 4.244,-2.45 c 0.086,-0.05 -0.05,-0.087 0,0 l 5.4,9.353 c 0.05,0.086 0.086,-0.05 0,0 l -4.244,2.45 c -0.048,0.027 -0.064,0.089 -0.037,0.136 l 4.5,7.795 c 0.028,0.047 0.089,0.064 0.137,0.036 l 4.244,-2.45 c 0.086,-0.05 -0.05,-0.086 0,0 l 5.4,9.353 c 0.05,0.087 0.086,-0.05 0,0 l -4.244,2.45 c -0.048,0.028 -0.064,0.089 -0.037,0.137 l 4.5,7.794 c 0.028,0.048 0.089,0.064 0.137,0.037 l 4.244,-2.45 c 0.086,-0.05 -0.05,-0.087 0,0 l 5.4,9.353 c 0.05,0.086 0.086,-0.05 0,0 l -4.244,2.45 c -0.048,0.027 -0.064,0.089 -0.037,0.136 l 4.5,7.795 c 0.028,0.048 0.089,0.064 0.137,0.036 l 4.244,-2.45 c 0.086,-0.05 -0.05,-0.086 0,0 l 5.4,9.353 c 0.05,0.087 0.086,-0.05 0,0 l -4.244,2.45 c -0.048,0.028 -0.064,0.089 -0.037,0.137 l 4.5,7.794 c 0.028,0.048 0.089,0.064 0.137,0.037 l 4.244,-2.45 c 0.086,-0.05 -0.05,-0.087 0,0 l 5.4,9.353 c 0.05,0.086 0.086,-0.05 0,0 l -4.244,2.45 c -0.048,0.027 -0.064,0.089 -0.037,0.136 l 4.5,7.795 c 0.028,0.048 0.089,0.064 0.137,0.036 l 4.244,-2.45 c 0.086,-0.05 -0.05,-0.086 0,0 l 5.4,9.353 c 0.05,0.087 0.086,-0.05 0,0 l -4.244,2.45 c -0.048,0.028 -0.064,0.089 -0.037,0.137 l 7.057,12.222 1.443,2.5 c 0.018,0.031 0.051,0.05 0.087,0.05 h 2.887"
       stroke="#000000"
       stroke-width="0.2"
       id="path22"
       style="stroke:#ff0000" />
  </g>
  <g
     id="p-3"
     style="fill:none;stroke-linecap:round;stroke-linejoin:round;stroke:#ff0000"
     transform="translate(-9.9,-9.9)">
    <text
       alignment-baseline="hanging"
       font-size="4px"
       style="font-style:normal;font-weight:normal;font-family:sans-serif;fill:#ff0000;stroke:#ff0000"
       text-anchor="middle"
       transform="translate(102.6,48.2)"
       id="text25" />
    <path
       d="M 12.987,85.2 H 27.5 c 0.1,0 0,-0.1 0,0 v 4.9 c 0,0.055 0.045,0.1 0.1,0.1 h 10 c 0.055,0 0.1,-0.045 0.1,-0.1 v -4.9 c 0,-0.1 -0.1,0 0,0 h 9.8 c 0.1,0 0,-0.1 0,0 v 4.9 c 0,0.055 0.045,0.1 0.1,0.1 h 10 c 0.055,0 0.1,-0.045 0.1,-0.1 v -4.9 c 0,-0.1 -0.1,0 0,0 h 9.8 c 0.1,0 0,-0.1 0,0 v 4.9 c 0,0.055 0.045,0.1 0.1,0.1 h 10 c 0.055,0 0.1,-0.045 0.1,-0.1 v -4.9 c 0,-0.1 -0.1,0 0,0 h 9.8 c 0.1,0 0,-0.1 0,0 v 4.9 c 0,0.055 0.045,0.1 0.1,0.1 h 10 c 0.055,0 0.1,-0.045 0.1,-0.1 v -4.9 c 0,-0.1 -0.1,0 0,0 h 9.8 c 0.1,0 0,-0.1 0,0 v 4.9 c 0,0.055 0.045,0.1 0.1,0.1 h 10 c 0.055,0 0.1,-0.045 0.1,-0.1 v -4.9 c 0,-0.1 -0.1,0 0,0 h 9.8 c 0.1,0 0,-0.1 0,0 v 4.9 c 0,0.055 0.045,0.1 0.1,0.1 h 10 c 0.055,0 0.1,-0.045 0.1,-0.1 v -4.9 c 0,-0.1 -0.1,0 0,0 h 9.8 c 0.1,0 0,-0.1 0,0 v 4.9 c 0,0.055 0.045,0.1 0.1,0.1 h 10 c 0.055,0 0.1,-0.045 0.1,-0.1 v -4.9 c 0,-0.1 -0.1,0 0,0 h 9.8 c 0.1,0 0,-0.1 0,0 v 4.9 c 0,0.055 0.045,0.1 0.1,0.1 h 10 c 0.055,0 0.1,-0.045 0.1,-0.1 v -4.9 c 0,-0.1 -0.1,0 0,0 h 14.513 2.887 c 0.055,0 0.1,-0.045 0.1,-0.1 v -9.5 c 0,-0.055 -0.045,-0.1 -0.1,-0.1 h -4.23 c -0.1,0 0,0.1 0,0 V 64.7 c 0,-0.1 -0.1,0 0,0 h 4.23 c 0.055,0 0.1,-0.045 0.1,-0.1 v -9 c 0,-0.055 -0.045,-0.1 -0.1,-0.1 h -4.23 c -0.1,0 0,0.1 0,0 V 44.7 c 0,-0.1 -0.1,0 0,0 h 4.23 c 0.055,0 0.1,-0.045 0.1,-0.1 v -9 c 0,-0.055 -0.045,-0.1 -0.1,-0.1 h -4.23 c -0.1,0 0,0.1 0,0 V 24.7 c 0,-0.1 -0.1,0 0,0 h 4.23 c 0.055,0 0.1,-0.045 0.1,-0.1 v -9.5 c 0,-0.055 -0.045,-0.1 -0.1,-0.1 H 192.213 177.7 c -0.1,0 0,0.1 0,0 v -4.9 c 0,-0.055 -0.045,-0.1 -0.1,-0.1 h -10 c -0.055,0 -0.1,0.045 -0.1,0.1 V 15 c 0,0.1 0.1,0 0,0 h -9.8 c -0.1,0 0,0.1 0,0 v -4.9 c 0,-0.055 -0.045,-0.1 -0.1,-0.1 h -10 c -0.055,0 -0.1,0.045 -0.1,0.1 V 15 c 0,0.1 0.1,0 0,0 h -9.8 c -0.1,0 0,0.1 0,0 v -4.9 c 0,-0.055 -0.045,-0.1 -0.1,-0.1 h -10 c -0.055,0 -0.1,0.045 -0.1,0.1 V 15 c 0,0.1 0.1,0 0,0 h -9.8 c -0.1,0 0,0.1 0,0 v -4.9 c 0,-0.055 -0.045,-0.1 -0.1,-0.1 h -10 c -0.055,0 -0.1,0.045 -0.1,0.1 V 15 c 0,0.1 0.1,0 0,0 h -9.8 c -0.1,0 0,0.1 0,0 V 10.1 C 97.7,10.045 97.655,10 97.6,10 h -10 c -0.055,0 -0.1,0.045 -0.1,0.1 V 15 c 0,0.1 0.1,0 0,0 h -9.8 c -0.1,0 0,0.1 0,0 V 10.1 C 77.7,10.045 77.655,10 77.6,10 h -10 c -0.055,0 -0.1,0.045 -0.1,0.1 V 15 c 0,0.1 0.1,0 0,0 h -9.8 c -0.1,0 0,0.1 0,0 V 10.1 C 57.7,10.045 57.655,10 57.6,10 h -10 c -0.055,0 -0.1,0.045 -0.1,0.1 V 15 c 0,0.1 0.1,0 0,0 h -9.8 c -0.1,0 0,0.1 0,0 V 10.1 C 37.7,10.045 37.655,10 37.6,10 h -10 c -0.055,0 -0.1,0.045 -0.1,0.1 V 15 c 0,0.1 0.1,0 0,0 H 12.987 10.1 C 10.045,15 10,15.045 10,15.1 v 9.5 c 0,0.055 0.045,0.1 0.1,0.1 h 4.23 c 0.1,0 0,-0.1 0,0 v 10.8 c 0,0.1 0.1,0 0,0 H 10.1 c -0.055,0 -0.1,0.045 -0.1,0.1 v 9 c 0,0.055 0.045,0.1 0.1,0.1 h 4.23 c 0.1,0 0,-0.1 0,0 v 10.8 c 0,0.1 0.1,0 0,0 H 10.1 c -0.055,0 -0.1,0.045 -0.1,0.1 v 9 c 0,0.055 0.045,0.1 0.1,0.1 h 4.23 c 0.1,0 0,-0.1 0,0 v 10.8 c 0,0.1 0.1,0 0,0 H 10.1 c -0.055,0 -0.1,0.045 -0.1,0.1 v 9.5 c 0,0.055 0.045,0.1 0.1,0.1 h 2.887"
       stroke="#000000"
       stroke-width="0.2"
       id="path27"
       style="stroke:#ff0000" />
  </g>
  <g
     id="p-4"
     style="fill:none;stroke-linecap:round;stroke-linejoin:round;stroke:#ff0000"
     transform="translate(-9.9,-9.9)">
    <text
       alignment-baseline="hanging"
       font-size="4px"
       style="font-style:normal;font-weight:normal;font-family:sans-serif;fill:#ff0000;stroke:#ff0000"
       text-anchor="middle"
       transform="translate(290.3,48.2)"
       id="text30" />
    <path
       d="M 200.687,85.2 H 215.2 c 0.1,0 0,-0.1 0,0 v 4.9 c 0,0.055 0.045,0.1 0.1,0.1 h 10 c 0.055,0 0.1,-0.045 0.1,-0.1 v -4.9 c 0,-0.1 -0.1,0 0,0 h 9.8 c 0.1,0 0,-0.1 0,0 v 4.9 c 0,0.055 0.045,0.1 0.1,0.1 h 10 c 0.055,0 0.1,-0.045 0.1,-0.1 v -4.9 c 0,-0.1 -0.1,0 0,0 h 9.8 c 0.1,0 0,-0.1 0,0 v 4.9 c 0,0.055 0.045,0.1 0.1,0.1 h 10 c 0.055,0 0.1,-0.045 0.1,-0.1 v -4.9 c 0,-0.1 -0.1,0 0,0 h 9.8 c 0.1,0 0,-0.1 0,0 v 4.9 c 0,0.055 0.045,0.1 0.1,0.1 h 10 c 0.055,0 0.1,-0.045 0.1,-0.1 v -4.9 c 0,-0.1 -0.1,0 0,0 h 9.8 c 0.1,0 0,-0.1 0,0 v 4.9 c 0,0.055 0.045,0.1 0.1,0.1 h 10 c 0.055,0 0.1,-0.045 0.1,-0.1 v -4.9 c 0,-0.1 -0.1,0 0,0 h 9.8 c 0.1,0 0,-0.1 0,0 v 4.9 c 0,0.055 0.045,0.1 0.1,0.1 h 10 c 0.055,0 0.1,-0.045 0.1,-0.1 v -4.9 c 0,-0.1 -0.1,0 0,0 h 9.8 c 0.1,0 0,-0.1 0,0 v 4.9 c 0,0.055 0.045,0.1 0.1,0.1 h 10 c 0.055,0 0.1,-0.045 0.1,-0.1 v -4.9 c 0,-0.1 -0.1,0 0,0 h 9.8 c 0.1,0 0,-0.1 0,0 v 4.9 c 0,0.055 0.045,0.1 0.1,0.1 h 10 c 0.055,0 0.1,-0.045 0.1,-0.1 v -4.9 c 0,-0.1 -0.1,0 0,0 h 14.513 -1.443 c 0.055,0 0.1,-0.045 0.1,-0.1 v -9.9 c 0,-0.1 -0.1,0 0,0 h 4.23 c 0.055,0 0.1,-0.045 0.1,-0.1 v -10 c 0,-0.055 -0.045,-0.1 -0.1,-0.1 h -4.23 c -0.1,0 0,0.1 0,0 v -9.8 c 0,-0.1 -0.1,0 0,0 h 4.23 c 0.055,0 0.1,-0.045 0.1,-0.1 v -10 c 0,-0.055 -0.045,-0.1 -0.1,-0.1 h -4.23 c -0.1,0 0,0.1 0,0 v -9.8 c 0,-0.1 -0.1,0 0,0 h 4.23 c 0.055,0 0.1,-0.045 0.1,-0.1 v -10 c 0,-0.055 -0.045,-0.1 -0.1,-0.1 h -4.23 c -0.1,0 0,0.1 0,0 v -9.9 c 0,-0.055 -0.045,-0.1 -0.1,-0.1 h 1.443 -14.513 c -0.1,0 0,0.1 0,0 v -4.9 c 0,-0.055 -0.045,-0.1 -0.1,-0.1 h -10 c -0.055,0 -0.1,0.045 -0.1,0.1 V 15 c 0,0.1 0.1,0 0,0 h -9.8 c -0.1,0 0,0.1 0,0 v -4.9 c 0,-0.055 -0.045,-0.1 -0.1,-0.1 h -10 c -0.055,0 -0.1,0.045 -0.1,0.1 V 15 c 0,0.1 0.1,0 0,0 h -9.8 c -0.1,0 0,0.1 0,0 v -4.9 c 0,-0.055 -0.045,-0.1 -0.1,-0.1 h -10 c -0.055,0 -0.1,0.045 -0.1,0.1 V 15 c 0,0.1 0.1,0 0,0 h -9.8 c -0.1,0 0,0.1 0,0 v -4.9 c 0,-0.055 -0.045,-0.1 -0.1,-0.1 h -10 c -0.055,0 -0.1,0.045 -0.1,0.1 V 15 c 0,0.1 0.1,0 0,0 h -9.8 c -0.1,0 0,0.1 0,0 v -4.9 c 0,-0.055 -0.045,-0.1 -0.1,-0.1 h -10 c -0.055,0 -0.1,0.045 -0.1,0.1 V 15 c 0,0.1 0.1,0 0,0 h -9.8 c -0.1,0 0,0.1 0,0 v -4.9 c 0,-0.055 -0.045,-0.1 -0.1,-0.1 h -10 c -0.055,0 -0.1,0.045 -0.1,0.1 V 15 c 0,0.1 0.1,0 0,0 h -9.8 c -0.1,0 0,0.1 0,0 v -4.9 c 0,-0.055 -0.045,-0.1 -0.1,-0.1 h -10 c -0.055,0 -0.1,0.045 -0.1,0.1 V 15 c 0,0.1 0.1,0 0,0 h -9.8 c -0.1,0 0,0.1 0,0 v -4.9 c 0,-0.055 -0.045,-0.1 -0.1,-0.1 h -10 c -0.055,0 -0.1,0.045 -0.1,0.1 V 15 c 0,0.1 0.1,0 0,0 h -14.513 1.443 c -0.055,0 -0.1,0.045 -0.1,0.1 V 25 c 0,0.1 0.1,0 0,0 h -4.23 c -0.055,0 -0.1,0.045 -0.1,0.1 v 10 c 0,0.055 0.045,0.1 0.1,0.1 h 4.23 c 0.1,0 0,-0.1 0,0 V 45 c 0,0.1 0.1,0 0,0 h -4.23 c -0.055,0 -0.1,0.045 -0.1,0.1 v 10 c 0,0.055 0.045,0.1 0.1,0.1 h 4.23 c 0.1,0 0,-0.1 0,0 V 65 c 0,0.1 0.1,0 0,0 h -4.23 c -0.055,0 -0.1,0.045 -0.1,0.1 v 10 c 0,0.055 0.045,0.1 0.1,0.1 h 4.23 c 0.1,0 0,-0.1 0,0 v 9.9 c 0,0.055 0.045,0.1 0.1,0.1 h -1.443"
       stroke="#000000"
       stroke-width="0.2"
       id="path32"
       style="stroke:#ff0000" />
  </g>
  <g
     id="p-5"
     style="fill:none;stroke-linecap:round;stroke-linejoin:round;stroke:#ff0000"
     transform="translate(-9.9,-9.9)">
    <text
       alignment-baseline="hanging"
       font-size="4px"
       style="font-style:normal;font-weight:normal;font-family:sans-serif;fill:#ff0000;stroke:#ff0000"
       text-anchor="middle"
       transform="translate(478,48.2)"
       id="text35" />
    <path
       d="M 388.387,85.2 H 402.9 c 0.1,0 0,-0.1 0,0 v 4.9 c 0,0.055 0.045,0.1 0.1,0.1 h 10 c 0.055,0 0.1,-0.045 0.1,-0.1 v -4.9 c 0,-0.1 -0.1,0 0,0 h 9.8 c 0.1,0 0,-0.1 0,0 v 4.9 c 0,0.055 0.045,0.1 0.1,0.1 h 10 c 0.055,0 0.1,-0.045 0.1,-0.1 v -4.9 c 0,-0.1 -0.1,0 0,0 h 9.8 c 0.1,0 0,-0.1 0,0 v 4.9 c 0,0.055 0.045,0.1 0.1,0.1 h 10 c 0.055,0 0.1,-0.045 0.1,-0.1 v -4.9 c 0,-0.1 -0.1,0 0,0 h 9.8 c 0.1,0 0,-0.1 0,0 v 4.9 c 0,0.055 0.045,0.1 0.1,0.1 h 10 c 0.055,0 0.1,-0.045 0.1,-0.1 v -4.9 c 0,-0.1 -0.1,0 0,0 h 9.8 c 0.1,0 0,-0.1 0,0 v 4.9 c 0,0.055 0.045,0.1 0.1,0.1 h 10 c 0.055,0 0.1,-0.045 0.1,-0.1 v -4.9 c 0,-0.1 -0.1,0 0,0 h 9.8 c 0.1,0 0,-0.1 0,0 v 4.9 c 0,0.055 0.045,0.1 0.1,0.1 h 10 c 0.055,0 0.1,-0.045 0.1,-0.1 v -4.9 c 0,-0.1 -0.1,0 0,0 h 9.8 c 0.1,0 0,-0.1 0,0 v 4.9 c 0,0.055 0.045,0.1 0.1,0.1 h 10 c 0.055,0 0.1,-0.045 0.1,-0.1 v -4.9 c 0,-0.1 -0.1,0 0,0 h 9.8 c 0.1,0 0,-0.1 0,0 v 4.9 c 0,0.055 0.045,0.1 0.1,0.1 h 10 c 0.055,0 0.1,-0.045 0.1,-0.1 v -4.9 c 0,-0.1 -0.1,0 0,0 h 14.513 2.887 c 0.055,0 0.1,-0.045 0.1,-0.1 v -9.5 c 0,-0.055 -0.045,-0.1 -0.1,-0.1 h -4.23 c -0.1,0 0,0.1 0,0 V 64.7 c 0,-0.1 -0.1,0 0,0 h 4.23 c 0.055,0 0.1,-0.045 0.1,-0.1 v -9 c 0,-0.055 -0.045,-0.1 -0.1,-0.1 h -4.23 c -0.1,0 0,0.1 0,0 V 44.7 c 0,-0.1 -0.1,0 0,0 h 4.23 c 0.055,0 0.1,-0.045 0.1,-0.1 v -9 c 0,-0.055 -0.045,-0.1 -0.1,-0.1 h -4.23 c -0.1,0 0,0.1 0,0 V 24.7 c 0,-0.1 -0.1,0 0,0 h 4.23 c 0.055,0 0.1,-0.045 0.1,-0.1 v -9.5 c 0,-0.055 -0.045,-0.1 -0.1,-0.1 H 567.613 553.1 c -0.1,0 0,0.1 0,0 v -4.9 c 0,-0.055 -0.045,-0.1 -0.1,-0.1 h -10 c -0.055,0 -0.1,0.045 -0.1,0.1 V 15 c 0,0.1 0.1,0 0,0 h -9.8 c -0.1,0 0,0.1 0,0 v -4.9 c 0,-0.055 -0.045,-0.1 -0.1,-0.1 h -10 c -0.055,0 -0.1,0.045 -0.1,0.1 V 15 c 0,0.1 0.1,0 0,0 h -9.8 c -0.1,0 0,0.1 0,0 v -4.9 c 0,-0.055 -0.045,-0.1 -0.1,-0.1 h -10 c -0.055,0 -0.1,0.045 -0.1,0.1 V 15 c 0,0.1 0.1,0 0,0 h -9.8 c -0.1,0 0,0.1 0,0 v -4.9 c 0,-0.055 -0.045,-0.1 -0.1,-0.1 h -10 c -0.055,0 -0.1,0.045 -0.1,0.1 V 15 c 0,0.1 0.1,0 0,0 h -9.8 c -0.1,0 0,0.1 0,0 v -4.9 c 0,-0.055 -0.045,-0.1 -0.1,-0.1 h -10 c -0.055,0 -0.1,0.045 -0.1,0.1 V 15 c 0,0.1 0.1,0 0,0 h -9.8 c -0.1,0 0,0.1 0,0 v -4.9 c 0,-0.055 -0.045,-0.1 -0.1,-0.1 h -10 c -0.055,0 -0.1,0.045 -0.1,0.1 V 15 c 0,0.1 0.1,0 0,0 h -9.8 c -0.1,0 0,0.1 0,0 v -4.9 c 0,-0.055 -0.045,-0.1 -0.1,-0.1 h -10 c -0.055,0 -0.1,0.045 -0.1,0.1 V 15 c 0,0.1 0.1,0 0,0 h -9.8 c -0.1,0 0,0.1 0,0 v -4.9 c 0,-0.055 -0.045,-0.1 -0.1,-0.1 h -10 c -0.055,0 -0.1,0.045 -0.1,0.1 V 15 c 0,0.1 0.1,0 0,0 H 388.387 385.5 c -0.055,0 -0.1,0.045 -0.1,0.1 v 9.5 c 0,0.055 0.045,0.1 0.1,0.1 h 4.23 c 0.1,0 0,-0.1 0,0 v 10.8 c 0,0.1 0.1,0 0,0 h -4.23 c -0.055,0 -0.1,0.045 -0.1,0.1 v 9 c 0,0.055 0.045,0.1 0.1,0.1 h 4.23 c 0.1,0 0,-0.1 0,0 v 10.8 c 0,0.1 0.1,0 0,0 h -4.23 c -0.055,0 -0.1,0.045 -0.1,0.1 v 9 c 0,0.055 0.045,0.1 0.1,0.1 h 4.23 c 0.1,0 0,-0.1 0,0 v 10.8 c 0,0.1 0.1,0 0,0 h -4.23 c -0.055,0 -0.1,0.045 -0.1,0.1 v 9.5 c 0,0.055 0.045,0.1 0.1,0.1 h 2.887"
       stroke="#000000"
       stroke-width="0.2"
       id="path37"
       style="stroke:#ff0000" />
  </g>
  <g
     id="p-6"
     style="fill:none;stroke-linecap:round;stroke-linejoin:round;stroke:#ff0000"
     transform="translate(-106.45755,276.80454)">
    <text
       alignment-baseline="hanging"
       font-size="4px"
       style="font-style:normal;font-weight:normal;font-family:sans-serif;fill:#ff0000;stroke:#ff0000"
       text-anchor="middle"
       transform="translate(665.7,48.2)"
       id="text40" />
    <path
       d="M 576.087,85.2 H 590.6 c 0.1,0 0,-0.1 0,0 v 4.9 c 0,0.055 0.045,0.1 0.1,0.1 h 10 c 0.055,0 0.1,-0.045 0.1,-0.1 v -4.9 c 0,-0.1 -0.1,0 0,0 h 9.8 c 0.1,0 0,-0.1 0,0 v 4.9 c 0,0.055 0.045,0.1 0.1,0.1 h 10 c 0.055,0 0.1,-0.045 0.1,-0.1 v -4.9 c 0,-0.1 -0.1,0 0,0 h 9.8 c 0.1,0 0,-0.1 0,0 v 4.9 c 0,0.055 0.045,0.1 0.1,0.1 h 10 c 0.055,0 0.1,-0.045 0.1,-0.1 v -4.9 c 0,-0.1 -0.1,0 0,0 h 9.8 c 0.1,0 0,-0.1 0,0 v 4.9 c 0,0.055 0.045,0.1 0.1,0.1 h 10 c 0.055,0 0.1,-0.045 0.1,-0.1 v -4.9 c 0,-0.1 -0.1,0 0,0 h 9.8 c 0.1,0 0,-0.1 0,0 v 4.9 c 0,0.055 0.045,0.1 0.1,0.1 h 10 c 0.055,0 0.1,-0.045 0.1,-0.1 v -4.9 c 0,-0.1 -0.1,0 0,0 h 9.8 c 0.1,0 0,-0.1 0,0 v 4.9 c 0,0.055 0.045,0.1 0.1,0.1 h 10 c 0.055,0 0.1,-0.045 0.1,-0.1 v -4.9 c 0,-0.1 -0.1,0 0,0 h 9.8 c 0.1,0 0,-0.1 0,0 v 4.9 c 0,0.055 0.045,0.1 0.1,0.1 h 10 c 0.055,0 0.1,-0.045 0.1,-0.1 v -4.9 c 0,-0.1 -0.1,0 0,0 h 9.8 c 0.1,0 0,-0.1 0,0 v 4.9 c 0,0.055 0.045,0.1 0.1,0.1 h 10 c 0.055,0 0.1,-0.045 0.1,-0.1 v -4.9 c 0,-0.1 -0.1,0 0,0 h 14.513 -1.443 c 0.055,0 0.1,-0.045 0.1,-0.1 v -9.9 c 0,-0.1 -0.1,0 0,0 h 4.23 c 0.055,0 0.1,-0.045 0.1,-0.1 v -10 c 0,-0.055 -0.045,-0.1 -0.1,-0.1 h -4.23 c -0.1,0 0,0.1 0,0 v -9.8 c 0,-0.1 -0.1,0 0,0 h 4.23 c 0.055,0 0.1,-0.045 0.1,-0.1 v -10 c 0,-0.055 -0.045,-0.1 -0.1,-0.1 h -4.23 c -0.1,0 0,0.1 0,0 v -9.8 c 0,-0.1 -0.1,0 0,0 h 4.23 c 0.055,0 0.1,-0.045 0.1,-0.1 v -10 c 0,-0.055 -0.045,-0.1 -0.1,-0.1 h -4.23 c -0.1,0 0,0.1 0,0 v -9.9 c 0,-0.055 -0.045,-0.1 -0.1,-0.1 h 1.443 -14.513 c -0.1,0 0,0.1 0,0 v -4.9 c 0,-0.055 -0.045,-0.1 -0.1,-0.1 h -10 c -0.055,0 -0.1,0.045 -0.1,0.1 V 15 c 0,0.1 0.1,0 0,0 h -9.8 c -0.1,0 0,0.1 0,0 v -4.9 c 0,-0.055 -0.045,-0.1 -0.1,-0.1 h -10 c -0.055,0 -0.1,0.045 -0.1,0.1 V 15 c 0,0.1 0.1,0 0,0 h -9.8 c -0.1,0 0,0.1 0,0 v -4.9 c 0,-0.055 -0.045,-0.1 -0.1,-0.1 h -10 c -0.055,0 -0.1,0.045 -0.1,0.1 V 15 c 0,0.1 0.1,0 0,0 h -9.8 c -0.1,0 0,0.1 0,0 v -4.9 c 0,-0.055 -0.045,-0.1 -0.1,-0.1 h -10 c -0.055,0 -0.1,0.045 -0.1,0.1 V 15 c 0,0.1 0.1,0 0,0 h -9.8 c -0.1,0 0,0.1 0,0 v -4.9 c 0,-0.055 -0.045,-0.1 -0.1,-0.1 h -10 c -0.055,0 -0.1,0.045 -0.1,0.1 V 15 c 0,0.1 0.1,0 0,0 h -9.8 c -0.1,0 0,0.1 0,0 v -4.9 c 0,-0.055 -0.045,-0.1 -0.1,-0.1 h -10 c -0.055,0 -0.1,0.045 -0.1,0.1 V 15 c 0,0.1 0.1,0 0,0 h -9.8 c -0.1,0 0,0.1 0,0 v -4.9 c 0,-0.055 -0.045,-0.1 -0.1,-0.1 h -10 c -0.055,0 -0.1,0.045 -0.1,0.1 V 15 c 0,0.1 0.1,0 0,0 h -9.8 c -0.1,0 0,0.1 0,0 v -4.9 c 0,-0.055 -0.045,-0.1 -0.1,-0.1 h -10 c -0.055,0 -0.1,0.045 -0.1,0.1 V 15 c 0,0.1 0.1,0 0,0 h -14.513 1.443 c -0.055,0 -0.1,0.045 -0.1,0.1 V 25 c 0,0.1 0.1,0 0,0 h -4.23 c -0.055,0 -0.1,0.045 -0.1,0.1 v 10 c 0,0.055 0.045,0.1 0.1,0.1 h 4.23 c 0.1,0 0,-0.1 0,0 V 45 c 0,0.1 0.1,0 0,0 h -4.23 c -0.055,0 -0.1,0.045 -0.1,0.1 v 10 c 0,0.055 0.045,0.1 0.1,0.1 h 4.23 c 0.1,0 0,-0.1 0,0 V 65 c 0,0.1 0.1,0 0,0 h -4.23 c -0.055,0 -0.1,0.045 -0.1,0.1 v 10 c 0,0.055 0.045,0.1 0.1,0.1 h 4.23 c 0.1,0 0,-0.1 0,0 v 9.9 c 0,0.055 0.045,0.1 0.1,0.1 h -1.443"
       stroke="#000000"
       stroke-width="0.2"
       id="path42"
       style="stroke:#ff0000" />
  </g>
  <g
     id="p-7"
     style="fill:none;stroke-linecap:round;stroke-linejoin:round;stroke:#ff0000"
     transform="translate(-296.48634,112.5207)">
    <text
       alignment-baseline="hanging"
       font-size="4px"
       style="font-style:normal;font-weight:normal;font-family:sans-serif;fill:#ff0000;stroke:#ff0000"
       text-anchor="middle"
       transform="translate(853.4,48.2)"
       id="text45" />
    <path
       d="M 763.787,85.2 H 778.3 c 0.1,0 0,-0.1 0,0 v 4.9 c 0,0.055 0.045,0.1 0.1,0.1 h 10 c 0.055,0 0.1,-0.045 0.1,-0.1 v -4.9 c 0,-0.1 -0.1,0 0,0 h 9.8 c 0.1,0 0,-0.1 0,0 v 4.9 c 0,0.055 0.045,0.1 0.1,0.1 h 10 c 0.055,0 0.1,-0.045 0.1,-0.1 v -4.9 c 0,-0.1 -0.1,0 0,0 h 9.8 c 0.1,0 0,-0.1 0,0 v 4.9 c 0,0.055 0.045,0.1 0.1,0.1 h 10 c 0.055,0 0.1,-0.045 0.1,-0.1 v -4.9 c 0,-0.1 -0.1,0 0,0 h 9.8 c 0.1,0 0,-0.1 0,0 v 4.9 c 0,0.055 0.045,0.1 0.1,0.1 h 10 c 0.055,0 0.1,-0.045 0.1,-0.1 v -4.9 c 0,-0.1 -0.1,0 0,0 h 9.8 c 0.1,0 0,-0.1 0,0 v 4.9 c 0,0.055 0.045,0.1 0.1,0.1 h 10 c 0.055,0 0.1,-0.045 0.1,-0.1 v -4.9 c 0,-0.1 -0.1,0 0,0 h 9.8 c 0.1,0 0,-0.1 0,0 v 4.9 c 0,0.055 0.045,0.1 0.1,0.1 h 10 c 0.055,0 0.1,-0.045 0.1,-0.1 v -4.9 c 0,-0.1 -0.1,0 0,0 h 9.8 c 0.1,0 0,-0.1 0,0 v 4.9 c 0,0.055 0.045,0.1 0.1,0.1 h 10 c 0.055,0 0.1,-0.045 0.1,-0.1 v -4.9 c 0,-0.1 -0.1,0 0,0 h 9.8 c 0.1,0 0,-0.1 0,0 v 4.9 c 0,0.055 0.045,0.1 0.1,0.1 h 10 c 0.055,0 0.1,-0.045 0.1,-0.1 v -4.9 c 0,-0.1 -0.1,0 0,0 h 14.513 2.887 c 0.055,0 0.1,-0.045 0.1,-0.1 v -9.5 c 0,-0.055 -0.045,-0.1 -0.1,-0.1 h -4.23 c -0.1,0 0,0.1 0,0 V 64.7 c 0,-0.1 -0.1,0 0,0 h 4.23 c 0.055,0 0.1,-0.045 0.1,-0.1 v -9 c 0,-0.055 -0.045,-0.1 -0.1,-0.1 h -4.23 c -0.1,0 0,0.1 0,0 V 44.7 c 0,-0.1 -0.1,0 0,0 h 4.23 c 0.055,0 0.1,-0.045 0.1,-0.1 v -9 c 0,-0.055 -0.045,-0.1 -0.1,-0.1 h -4.23 c -0.1,0 0,0.1 0,0 V 24.7 c 0,-0.1 -0.1,0 0,0 h 4.23 c 0.055,0 0.1,-0.045 0.1,-0.1 V 15.1 C 946,15.045 945.955,15 945.9,15 H 943.013 928.5 c -0.1,0 0,0.1 0,0 v -4.9 c 0,-0.055 -0.045,-0.1 -0.1,-0.1 h -10 c -0.055,0 -0.1,0.045 -0.1,0.1 V 15 c 0,0.1 0.1,0 0,0 h -9.8 c -0.1,0 0,0.1 0,0 v -4.9 c 0,-0.055 -0.045,-0.1 -0.1,-0.1 h -10 c -0.055,0 -0.1,0.045 -0.1,0.1 V 15 c 0,0.1 0.1,0 0,0 h -9.8 c -0.1,0 0,0.1 0,0 v -4.9 c 0,-0.055 -0.045,-0.1 -0.1,-0.1 h -10 c -0.055,0 -0.1,0.045 -0.1,0.1 V 15 c 0,0.1 0.1,0 0,0 h -9.8 c -0.1,0 0,0.1 0,0 v -4.9 c 0,-0.055 -0.045,-0.1 -0.1,-0.1 h -10 c -0.055,0 -0.1,0.045 -0.1,0.1 V 15 c 0,0.1 0.1,0 0,0 h -9.8 c -0.1,0 0,0.1 0,0 v -4.9 c 0,-0.055 -0.045,-0.1 -0.1,-0.1 h -10 c -0.055,0 -0.1,0.045 -0.1,0.1 V 15 c 0,0.1 0.1,0 0,0 h -9.8 c -0.1,0 0,0.1 0,0 v -4.9 c 0,-0.055 -0.045,-0.1 -0.1,-0.1 h -10 c -0.055,0 -0.1,0.045 -0.1,0.1 V 15 c 0,0.1 0.1,0 0,0 h -9.8 c -0.1,0 0,0.1 0,0 v -4.9 c 0,-0.055 -0.045,-0.1 -0.1,-0.1 h -10 c -0.055,0 -0.1,0.045 -0.1,0.1 V 15 c 0,0.1 0.1,0 0,0 h -9.8 c -0.1,0 0,0.1 0,0 v -4.9 c 0,-0.055 -0.045,-0.1 -0.1,-0.1 h -10 c -0.055,0 -0.1,0.045 -0.1,0.1 V 15 c 0,0.1 0.1,0 0,0 H 763.787 760.9 c -0.055,0 -0.1,0.045 -0.1,0.1 v 9.5 c 0,0.055 0.045,0.1 0.1,0.1 h 4.23 c 0.1,0 0,-0.1 0,0 v 10.8 c 0,0.1 0.1,0 0,0 h -4.23 c -0.055,0 -0.1,0.045 -0.1,0.1 v 9 c 0,0.055 0.045,0.1 0.1,0.1 h 4.23 c 0.1,0 0,-0.1 0,0 v 10.8 c 0,0.1 0.1,0 0,0 h -4.23 c -0.055,0 -0.1,0.045 -0.1,0.1 v 9 c 0,0.055 0.045,0.1 0.1,0.1 h 4.23 c 0.1,0 0,-0.1 0,0 v 10.8 c 0,0.1 0.1,0 0,0 h -4.23 c -0.055,0 -0.1,0.045 -0.1,0.1 v 9.5 c 0,0.055 0.045,0.1 0.1,0.1 h 2.887"
       stroke="#000000"
       stroke-width="0.2"
       id="path47"
       style="stroke:#ff0000" />
  </g>
  <g
     id="p-8"
     style="fill:none;stroke-linecap:round;stroke-linejoin:round;stroke:#ff0000"
     transform="translate(-485.63333,193.96938)">
    <text
       alignment-baseline="hanging"
       font-size="4px"
       style="font-style:normal;font-weight:normal;font-family:sans-serif;fill:#ff0000;stroke:#ff0000"
       text-anchor="middle"
       transform="translate(1041.1,48.2)"
       id="text50" />
    <path
       d="M 951.487,85.2 H 966 c 0.1,0 0,-0.1 0,0 v 4.9 c 0,0.055 0.045,0.1 0.1,0.1 h 10 c 0.055,0 0.1,-0.045 0.1,-0.1 v -4.9 c 0,-0.1 -0.1,0 0,0 h 9.8 c 0.1,0 0,-0.1 0,0 v 4.9 c 0,0.055 0.045,0.1 0.1,0.1 h 10 c 0.055,0 0.1,-0.045 0.1,-0.1 v -4.9 c 0,-0.1 -0.1,0 0,0 h 9.8 c 0.1,0 0,-0.1 0,0 v 4.9 c 0,0.055 0.045,0.1 0.1,0.1 h 10 c 0.055,0 0.1,-0.045 0.1,-0.1 v -4.9 c 0,-0.1 -0.1,0 0,0 h 9.8 c 0.1,0 0,-0.1 0,0 v 4.9 c 0,0.055 0.045,0.1 0.1,0.1 h 10 c 0.055,0 0.1,-0.045 0.1,-0.1 v -4.9 c 0,-0.1 -0.1,0 0,0 h 9.8 c 0.1,0 0,-0.1 0,0 v 4.9 c 0,0.055 0.045,0.1 0.1,0.1 h 10 c 0.055,0 0.1,-0.045 0.1,-0.1 v -4.9 c 0,-0.1 -0.1,0 0,0 h 9.8 c 0.1,0 0,-0.1 0,0 v 4.9 c 0,0.055 0.045,0.1 0.1,0.1 h 10 c 0.055,0 0.1,-0.045 0.1,-0.1 v -4.9 c 0,-0.1 -0.1,0 0,0 h 9.8 c 0.1,0 0,-0.1 0,0 v 4.9 c 0,0.055 0.045,0.1 0.1,0.1 h 10 c 0.055,0 0.1,-0.045 0.1,-0.1 v -4.9 c 0,-0.1 -0.1,0 0,0 h 9.8 c 0.1,0 0,-0.1 0,0 v 4.9 c 0,0.055 0.045,0.1 0.1,0.1 h 10 c 0.055,0 0.1,-0.045 0.1,-0.1 v -4.9 c 0,-0.1 -0.1,0 0,0 h 14.513 -1.443 c 0.055,0 0.1,-0.045 0.1,-0.1 v -9.9 c 0,-0.1 -0.1,0 0,0 h 4.23 c 0.055,0 0.1,-0.045 0.1,-0.1 v -10 c 0,-0.055 -0.045,-0.1 -0.1,-0.1 h -4.23 c -0.1,0 0,0.1 0,0 v -9.8 c 0,-0.1 -0.1,0 0,0 h 4.23 c 0.055,0 0.1,-0.045 0.1,-0.1 v -10 c 0,-0.055 -0.045,-0.1 -0.1,-0.1 h -4.23 c -0.1,0 0,0.1 0,0 v -9.8 c 0,-0.1 -0.1,0 0,0 h 4.23 c 0.055,0 0.1,-0.045 0.1,-0.1 v -10 c 0,-0.055 -0.045,-0.1 -0.1,-0.1 h -4.23 c -0.1,0 0,0.1 0,0 v -9.9 c 0,-0.055 -0.045,-0.1 -0.1,-0.1 h 1.443 -14.513 c -0.1,0 0,0.1 0,0 v -4.9 c 0,-0.055 -0.045,-0.1 -0.1,-0.1 h -10 c -0.055,0 -0.1,0.045 -0.1,0.1 V 15 c 0,0.1 0.1,0 0,0 h -9.8 c -0.1,0 0,0.1 0,0 v -4.9 c 0,-0.055 -0.045,-0.1 -0.1,-0.1 h -10 c -0.055,0 -0.1,0.045 -0.1,0.1 V 15 c 0,0.1 0.1,0 0,0 h -9.8 c -0.1,0 0,0.1 0,0 v -4.9 c 0,-0.055 -0.045,-0.1 -0.1,-0.1 h -10 c -0.055,0 -0.1,0.045 -0.1,0.1 V 15 c 0,0.1 0.1,0 0,0 h -9.8 c -0.1,0 0,0.1 0,0 v -4.9 c 0,-0.055 -0.045,-0.1 -0.1,-0.1 h -10 c -0.055,0 -0.1,0.045 -0.1,0.1 V 15 c 0,0.1 0.1,0 0,0 h -9.8 c -0.1,0 0,0.1 0,0 v -4.9 c 0,-0.055 -0.045,-0.1 -0.1,-0.1 h -10 c -0.055,0 -0.1,0.045 -0.1,0.1 V 15 c 0,0.1 0.1,0 0,0 h -9.8 c -0.1,0 0,0.1 0,0 v -4.9 c 0,-0.055 -0.045,-0.1 -0.1,-0.1 h -10 c -0.055,0 -0.1,0.045 -0.1,0.1 V 15 c 0,0.1 0.1,0 0,0 h -9.8 c -0.1,0 0,0.1 0,0 v -4.9 c 0,-0.055 -0.045,-0.1 -0.1,-0.1 h -10 c -0.055,0 -0.1,0.045 -0.1,0.1 V 15 c 0,0.1 0.1,0 0,0 h -9.8 c -0.1,0 0,0.1 0,0 v -4.9 c 0,-0.055 -0.045,-0.1 -0.1,-0.1 h -10 c -0.055,0 -0.1,0.045 -0.1,0.1 V 15 c 0,0.1 0.1,0 0,0 h -14.513 1.443 c -0.055,0 -0.1,0.045 -0.1,0.1 V 25 c 0,0.1 0.1,0 0,0 h -4.23 c -0.055,0 -0.1,0.045 -0.1,0.1 v 10 c 0,0.055 0.045,0.1 0.1,0.1 h 4.23 c 0.1,0 0,-0.1 0,0 V 45 c 0,0.1 0.1,0 0,0 h -4.23 c -0.055,0 -0.1,0.045 -0.1,0.1 v 10 c 0,0.055 0.045,0.1 0.1,0.1 h 4.23 c 0.1,0 0,-0.1 0,0 V 65 c 0,0.1 0.1,0 0,0 h -4.23 c -0.055,0 -0.1,0.045 -0.1,0.1 v 10 c 0,0.055 0.045,0.1 0.1,0.1 h 4.23 c 0.1,0 0,-0.1 0,0 v 9.9 c 0,0.055 0.045,0.1 0.1,0.1 h -1.443"
       stroke="#000000"
       stroke-width="0.2"
       id="path52"
       style="stroke:#ff0000" />
  </g>
  <g
     id="g939"
     transform="translate(-238.36913,-111.37076)"
     style="stroke:#ff0000">
    <circle
       style="fill:#00ff00;fill-rule:evenodd;stroke:#ff0000;stroke-width:0.264583;stroke-linecap:round;stroke-linejoin:round;stroke-miterlimit:4;stroke-dasharray:none"
       id="path277"
       cx="-512.34668"
       cy="-867.62775"
       r="4.8677087"
       transform="rotate(150)" />
    <circle
       style="fill:#00ff00;fill-rule:evenodd;stroke:#ff0000;stroke-width:0.264583;stroke-linecap:round;stroke-linejoin:round;stroke-miterlimit:4;stroke-dasharray:none"
       id="circle806"
       cx="-512.34668"
       cy="-542.62781"
       r="4.8677087"
       transform="rotate(150)" />
    <circle
       style="fill:#00ff00;fill-rule:evenodd;stroke:#ff0000;stroke-width:0.264583;stroke-linecap:round;stroke-linejoin:round;stroke-miterlimit:4;stroke-dasharray:none"
       id="circle468"
       cx="-866.83197"
       cy="-71.35865"
       r="4.8677087"
       transform="rotate(-150)" />
    <circle
       style="fill:#00ff00;fill-rule:evenodd;stroke:#ff0000;stroke-width:0.264583;stroke-linecap:round;stroke-linejoin:round;stroke-miterlimit:4;stroke-dasharray:none"
       id="circle472"
       cx="-866.83197"
       cy="253.64133"
       r="4.8677087"
       transform="rotate(-150)" />
    <circle
       style="fill:#00ff00;fill-rule:evenodd;stroke:#ff0000;stroke-width:0.264583;stroke-linecap:round;stroke-linejoin:round;stroke-miterlimit:4;stroke-dasharray:none"
       id="circle476"
       cx="-354.48523"
       cy="633.76917"
       r="4.8677087"
       transform="rotate(-90)" />
    <circle
       style="fill:#00ff00;fill-rule:evenodd;stroke:#ff0000;stroke-width:0.264583;stroke-linecap:round;stroke-linejoin:round;stroke-miterlimit:4;stroke-dasharray:none"
       id="circle480"
       cx="-354.48523"
       cy="958.7691"
       r="4.8677087"
       transform="rotate(-90)" />
  </g>
</svg>
