<?xml version="1.0" encoding="UTF-8" standalone="no"?>
<svg
   height="403.52899mm"
   viewBox="0 0 743.09989 403.52899"
   width="743.09985mm"
   version="1.1"
   id="svg55"
   sodipodi:docname="Boite_Fond-5mm.svg"
   inkscape:version="1.1.2 (0a00cf5339, 2022-02-04, custom)"
   xmlns:inkscape="http://www.inkscape.org/namespaces/inkscape"
   xmlns:sodipodi="http://sodipodi.sourceforge.net/DTD/sodipodi-0.dtd"
   xmlns="http://www.w3.org/2000/svg"
   xmlns:svg="http://www.w3.org/2000/svg"
   xmlns:rdf="http://www.w3.org/1999/02/22-rdf-syntax-ns#"
   xmlns:cc="http://creativecommons.org/ns#"
   xmlns:dc="http://purl.org/dc/elements/1.1/">
  <defs
     id="defs59" />
  <sodipodi:namedview
     id="namedview57"
     pagecolor="#ffffff"
     bordercolor="#666666"
     borderopacity="1.0"
     inkscape:pageshadow="2"
     inkscape:pageopacity="0.0"
     inkscape:pagecheckerboard="0"
     inkscape:document-units="mm"
     showgrid="false"
     inkscape:zoom="4.8007638"
     inkscape:cx="1905.0094"
     inkscape:cy="1328.5386"
     inkscape:window-width="1920"
     inkscape:window-height="1027"
     inkscape:window-x="2552"
     inkscape:window-y="350"
     inkscape:window-maximized="1"
     inkscape:current-layer="svg55" />
  <!--
RegularBox - Box with regular polygon as base


For short side walls that don't fit a connecting finger reduce *surroundingspaces* and *finger* in the Finger Joint Settings.

The lids needs to be glued. For the bayonet lid all outside rings attach to the bottom, all inside rings to the top.



Created with Boxes.py (https://festi.info/boxes.py)
Creation date: 2022-02-23 13:26:21
Command line (remove spaces between dashes): boxes RegularBox - -FingerJoint_angle=90.0 - -FingerJoint_style=rectangular - -FingerJoint_surroundingspaces=1 - -FingerJoint_edge_width=1.0 - -FingerJoint_extra_length=0.0 - -FingerJoint_finger=2.0 - -FingerJoint_play=0.2 - -FingerJoint_space=2.0 - -FingerJoint_width=1.0 - -h=80 - -outside=0 - -outside=1 - -radius=185 - -n=6 - -top=hole - -alignment_pins=1.0 - -thickness=5 - -format=svg - -tabs=0.0 - -debug=0 - -labels=0 - -labels=1 - -reference=100 - -burn=0.1
Url: http://www.festi.info/RegularBox?FingerJoint_angle=90.0&FingerJoint_style=rectangular&FingerJoint_surroundingspaces=1&FingerJoint_edge_width=1.0&FingerJoint_extra_length=0.0&FingerJoint_finger=2.0&FingerJoint_play=0.2&FingerJoint_space=2.0&FingerJoint_width=1.0&h=80&outside=0&outside=1&radius=185&n=6&top=hole&alignment_pins=1.0&thickness=5&format=svg&tabs=0.0&debug=0&labels=0&labels=1&reference=100&burn=0.1&render=1
SettingsUrl: http://www.festi.info/RegularBox?FingerJoint_angle=90.0&FingerJoint_style=rectangular&FingerJoint_surroundingspaces=1&FingerJoint_edge_width=1.0&FingerJoint_extra_length=0.0&FingerJoint_finger=2.0&FingerJoint_play=0.2&FingerJoint_space=2.0&FingerJoint_width=1.0&h=80&outside=0&outside=1&radius=185&n=6&top=hole&alignment_pins=1.0&thickness=5&format=svg&tabs=0.0&debug=0&labels=0&labels=1&reference=100&burn=0.1
-->
  <title
     id="title2">RegularBox</title>
  <metadata
     id="metadata4">
    <rdf:RDF>
      <cc:Work>
        <dc:title>Box - RegularBox</dc:title>
        <dc:date>2022-02-23 13:26:21</dc:date>
        <dc:source>http://www.festi.info/RegularBox?FingerJoint_angle=90.0&amp;FingerJoint_style=rectangular&amp;FingerJoint_surroundingspaces=1&amp;FingerJoint_edge_width=1.0&amp;FingerJoint_extra_length=0.0&amp;FingerJoint_finger=2.0&amp;FingerJoint_play=0.2&amp;FingerJoint_space=2.0&amp;FingerJoint_width=1.0&amp;h=80&amp;outside=0&amp;outside=1&amp;radius=185&amp;n=6&amp;top=hole&amp;alignment_pins=1.0&amp;thickness=5&amp;format=svg&amp;tabs=0.0&amp;debug=0&amp;labels=0&amp;labels=1&amp;reference=100&amp;burn=0.1&amp;render=1</dc:source>
        <dc:description>Box with regular polygon as base

For short side walls that don't fit a connecting finger reduce *surroundingspaces* and *finger* in the Finger Joint Settings.

The lids needs to be glued. For the bayonet lid all outside rings attach to the bottom, all inside rings to the top.


Created with Boxes.py (https://festi.info/boxes.py)
Command line: boxes RegularBox --FingerJoint_angle=90.0 --FingerJoint_style=rectangular --FingerJoint_surroundingspaces=1 --FingerJoint_edge_width=1.0 --FingerJoint_extra_length=0.0 --FingerJoint_finger=2.0 --FingerJoint_play=0.2 --FingerJoint_space=2.0 --FingerJoint_width=1.0 --h=80 --outside=0 --outside=1 --radius=185 --n=6 --top=hole --alignment_pins=1.0 --thickness=5 --format=svg --tabs=0.0 --debug=0 --labels=0 --labels=1 --reference=100 --burn=0.1
Url: http://www.festi.info/RegularBox?FingerJoint_angle=90.0&amp;FingerJoint_style=rectangular&amp;FingerJoint_surroundingspaces=1&amp;FingerJoint_edge_width=1.0&amp;FingerJoint_extra_length=0.0&amp;FingerJoint_finger=2.0&amp;FingerJoint_play=0.2&amp;FingerJoint_space=2.0&amp;FingerJoint_width=1.0&amp;h=80&amp;outside=0&amp;outside=1&amp;radius=185&amp;n=6&amp;top=hole&amp;alignment_pins=1.0&amp;thickness=5&amp;format=svg&amp;tabs=0.0&amp;debug=0&amp;labels=0&amp;labels=1&amp;reference=100&amp;burn=0.1&amp;render=1
SettingsUrl: http://www.festi.info/RegularBox?FingerJoint_angle=90.0&amp;FingerJoint_style=rectangular&amp;FingerJoint_surroundingspaces=1&amp;FingerJoint_edge_width=1.0&amp;FingerJoint_extra_length=0.0&amp;FingerJoint_finger=2.0&amp;FingerJoint_play=0.2&amp;FingerJoint_space=2.0&amp;FingerJoint_width=1.0&amp;h=80&amp;outside=0&amp;outside=1&amp;radius=185&amp;n=6&amp;top=hole&amp;alignment_pins=1.0&amp;thickness=5&amp;format=svg&amp;tabs=0.0&amp;debug=0&amp;labels=0&amp;labels=1&amp;reference=100&amp;burn=0.1
</dc:description>
      </cc:Work>
    </rdf:RDF>
  </metadata>
  <g
     id="p-1"
     style="fill:none;stroke-linecap:round;stroke-linejoin:round;stroke:#ff0000"
     transform="translate(-9.9,-9.9)">
    <text
       alignment-baseline="hanging"
       font-size="4px"
       style="font-style:normal;font-weight:normal;font-family:sans-serif;fill:#ff0000;stroke:#ff0000"
       text-anchor="middle"
       transform="translate(195.1,251.115)"
       id="text13" />
    <path
       d="M 105.487,413.329 H 119.6 c 0.055,0 0.1,-0.044 0.1,-0.1 v -4.9 c 0,-0.1 -0.1,0 0,0 h 10.8 c 0.1,0 0,-0.1 0,0 v 4.9 c 0,0.056 0.045,0.1 0.1,0.1 h 9 c 0.055,0 0.1,-0.044 0.1,-0.1 v -4.9 c 0,-0.1 -0.1,0 0,0 h 10.8 c 0.1,0 0,-0.1 0,0 v 4.9 c 0,0.056 0.045,0.1 0.1,0.1 h 9 c 0.055,0 0.1,-0.044 0.1,-0.1 v -4.9 c 0,-0.1 -0.1,0 0,0 h 10.8 c 0.1,0 0,-0.1 0,0 v 4.9 c 0,0.056 0.045,0.1 0.1,0.1 h 9 c 0.055,0 0.1,-0.044 0.1,-0.1 v -4.9 c 0,-0.1 -0.1,0 0,0 h 10.8 c 0.1,0 0,-0.1 0,0 v 4.9 c 0,0.056 0.045,0.1 0.1,0.1 h 9 c 0.055,0 0.1,-0.044 0.1,-0.1 v -4.9 c 0,-0.1 -0.1,0 0,0 h 10.8 c 0.1,0 0,-0.1 0,0 v 4.9 c 0,0.056 0.045,0.1 0.1,0.1 h 9 c 0.055,0 0.1,-0.044 0.1,-0.1 v -4.9 c 0,-0.1 -0.1,0 0,0 h 10.8 c 0.1,0 0,-0.1 0,0 v 4.9 c 0,0.056 0.045,0.1 0.1,0.1 h 9 c 0.055,0 0.1,-0.044 0.1,-0.1 v -4.9 c 0,-0.1 -0.1,0 0,0 h 10.8 c 0.1,0 0,-0.1 0,0 v 4.9 c 0,0.056 0.045,0.1 0.1,0.1 h 9 c 0.055,0 0.1,-0.044 0.1,-0.1 v -4.9 c 0,-0.1 -0.1,0 0,0 h 10.8 c 0.1,0 0,-0.1 0,0 v 4.9 c 0,0.056 0.045,0.1 0.1,0.1 h 14.113 2.887 c 0.036,0 0.069,-0.019 0.087,-0.05 l 1.443,-2.5 7.057,-12.222 c 0.027,-0.048 0.011,-0.109 -0.037,-0.137 l -4.244,-2.45 c -0.086,-0.05 -0.05,0.087 0,0 l 5.4,-9.353 c 0.05,-0.086 -0.086,-0.05 0,0 l 4.244,2.45 c 0.048,0.028 0.109,0.012 0.137,-0.036 l 4.5,-7.795 c 0.027,-0.047 0.011,-0.109 -0.037,-0.136 l -4.244,-2.45 c -0.086,-0.05 -0.05,0.086 0,0 l 5.4,-9.353 c 0.05,-0.087 -0.086,-0.05 0,0 l 4.244,2.45 c 0.048,0.027 0.109,0.011 0.137,-0.037 l 4.5,-7.794 c 0.027,-0.048 0.011,-0.109 -0.037,-0.137 l -4.244,-2.45 c -0.086,-0.05 -0.05,0.087 0,0 l 5.4,-9.353 c 0.05,-0.086 -0.086,-0.05 0,0 l 4.244,2.45 c 0.048,0.028 0.109,0.012 0.137,-0.036 l 4.5,-7.795 c 0.027,-0.047 0.011,-0.109 -0.037,-0.136 l -4.244,-2.45 c -0.086,-0.05 -0.05,0.086 0,0 l 5.4,-9.353 c 0.05,-0.087 -0.086,-0.05 0,0 l 4.244,2.45 c 0.048,0.027 0.109,0.011 0.137,-0.037 l 4.5,-7.794 c 0.027,-0.048 0.011,-0.109 -0.037,-0.137 l -4.244,-2.45 c -0.086,-0.05 -0.05,0.087 0,0 l 5.4,-9.353 c 0.05,-0.086 -0.086,-0.05 0,0 l 4.244,2.45 c 0.048,0.028 0.109,0.011 0.137,-0.036 l 4.5,-7.795 c 0.027,-0.047 0.011,-0.109 -0.037,-0.136 l -4.244,-2.45 c -0.086,-0.05 -0.05,0.086 0,0 l 5.4,-9.353 c 0.05,-0.087 -0.086,-0.05 0,0 l 4.244,2.45 c 0.048,0.027 0.109,0.011 0.137,-0.037 l 4.5,-7.794 c 0.027,-0.048 0.011,-0.109 -0.037,-0.137 l -4.244,-2.45 c -0.086,-0.05 -0.05,0.087 0,0 l 5.4,-9.353 c 0.05,-0.086 -0.086,-0.05 0,0 l 4.244,2.45 c 0.048,0.028 0.109,0.011 0.137,-0.036 l 4.5,-7.795 c 0.027,-0.047 0.011,-0.109 -0.037,-0.136 l -4.244,-2.45 c -0.086,-0.05 -0.05,0.086 0,0 l 5.4,-9.353 c 0.05,-0.087 -0.086,-0.05 0,0 l 4.244,2.45 c 0.048,0.027 0.109,0.011 0.137,-0.037 l 7.056,-12.222 1.444,-2.5 c 0.017,-0.031 0.017,-0.069 0,-0.1 l -1.444,-2.5 -7.056,-12.223 c -0.028,-0.048 -0.089,-0.064 -0.137,-0.036 l -4.244,2.45 c -0.086,0.05 0.05,0.086 0,0 l -5.4,-9.353 c -0.05,-0.087 -0.086,0.05 0,0 l 4.244,-2.45 c 0.048,-0.028 0.064,-0.089 0.037,-0.137 l -4.5,-7.794 c -0.028,-0.048 -0.089,-0.064 -0.137,-0.037 l -4.244,2.45 c -0.086,0.05 0.05,0.087 0,0 l -5.4,-9.353 c -0.05,-0.087 -0.086,0.05 0,0 l 4.244,-2.45 c 0.048,-0.028 0.064,-0.089 0.037,-0.137 l -4.5,-7.794 c -0.028,-0.048 -0.089,-0.064 -0.137,-0.036 l -4.244,2.45 c -0.086,0.05 0.05,0.086 0,0 l -5.4,-9.353 c -0.05,-0.087 -0.086,0.05 0,0 l 4.244,-2.45 c 0.048,-0.028 0.064,-0.089 0.037,-0.137 l -4.5,-7.794 c -0.028,-0.048 -0.089,-0.064 -0.137,-0.037 l -4.244,2.45 c -0.086,0.05 0.05,0.087 0,0 l -5.4,-9.353 c -0.05,-0.087 -0.086,0.05 0,0 l 4.244,-2.45 c 0.048,-0.028 0.064,-0.089 0.037,-0.137 l -4.5,-7.794 c -0.028,-0.048 -0.089,-0.064 -0.137,-0.036 l -4.244,2.45 c -0.086,0.05 0.05,0.086 0,0 l -5.4,-9.353 c -0.05,-0.087 -0.086,0.05 0,0 l 4.244,-2.45 c 0.048,-0.028 0.064,-0.089 0.037,-0.137 l -4.5,-7.794 c -0.028,-0.048 -0.089,-0.064 -0.137,-0.037 l -4.244,2.45 c -0.086,0.05 0.05,0.087 0,0 l -5.4,-9.353 c -0.05,-0.087 -0.086,0.05 0,0 l 4.244,-2.45 c 0.048,-0.028 0.064,-0.089 0.037,-0.137 l -4.5,-7.794 c -0.028,-0.048 -0.089,-0.064 -0.137,-0.036 l -4.244,2.45 c -0.086,0.05 0.05,0.086 0,0 l -5.4,-9.353 c -0.05,-0.087 -0.086,0.05 0,0 l 4.244,-2.45 c 0.048,-0.028 0.064,-0.089 0.037,-0.137 l -4.5,-7.794 c -0.028,-0.048 -0.089,-0.065 -0.137,-0.037 l -4.244,2.45 c -0.086,0.05 0.05,0.087 0,0 l -5.4,-9.353 c -0.05,-0.087 -0.086,0.05 0,0 l 4.244,-2.45 c 0.048,-0.028 0.064,-0.089 0.037,-0.137 L 289.13,95.25 287.687,92.75 C 287.669,92.719 287.636,92.7 287.6,92.7 H 284.713 270.6 c -0.055,0 -0.1,0.045 -0.1,0.1 v 4.9 c 0,0.1 0.1,0 0,0 h -10.8 c -0.1,0 0,0.1 0,0 v -4.9 c 0,-0.055 -0.045,-0.1 -0.1,-0.1 h -9 c -0.055,0 -0.1,0.045 -0.1,0.1 v 4.9 c 0,0.1 0.1,0 0,0 h -10.8 c -0.1,0 0,0.1 0,0 v -4.9 c 0,-0.055 -0.045,-0.1 -0.1,-0.1 h -9 c -0.055,0 -0.1,0.045 -0.1,0.1 v 4.9 c 0,0.1 0.1,0 0,0 h -10.8 c -0.1,0 0,0.1 0,0 v -4.9 c 0,-0.055 -0.045,-0.1 -0.1,-0.1 h -9 c -0.055,0 -0.1,0.045 -0.1,0.1 v 4.9 c 0,0.1 0.1,0 0,0 h -10.8 c -0.1,0 0,0.1 0,0 v -4.9 c 0,-0.055 -0.045,-0.1 -0.1,-0.1 h -9 c -0.055,0 -0.1,0.045 -0.1,0.1 v 4.9 c 0,0.1 0.1,0 0,0 h -10.8 c -0.1,0 0,0.1 0,0 v -4.9 c 0,-0.055 -0.045,-0.1 -0.1,-0.1 h -9 c -0.055,0 -0.1,0.045 -0.1,0.1 v 4.9 c 0,0.1 0.1,0 0,0 h -10.8 c -0.1,0 0,0.1 0,0 v -4.9 c 0,-0.055 -0.045,-0.1 -0.1,-0.1 h -9 c -0.055,0 -0.1,0.045 -0.1,0.1 v 4.9 c 0,0.1 0.1,0 0,0 h -10.8 c -0.1,0 0,0.1 0,0 v -4.9 c 0,-0.055 -0.045,-0.1 -0.1,-0.1 h -9 c -0.055,0 -0.1,0.045 -0.1,0.1 v 4.9 c 0,0.1 0.1,0 0,0 h -10.8 c -0.1,0 0,0.1 0,0 v -4.9 c 0,-0.055 -0.045,-0.1 -0.1,-0.1 H 105.487 102.6 c -0.036,0 -0.069,0.019 -0.087,0.05 l -1.443,2.5 -7.057,12.222 c -0.027,0.048 -0.011,0.109 0.037,0.137 l 4.244,2.45 c 0.086,0.05 0.05,-0.087 0,0 l -5.4,9.353 c -0.05,0.087 0.086,0.05 0,0 l -4.244,-2.45 c -0.048,-0.028 -0.109,-0.011 -0.137,0.037 l -4.5,7.794 c -0.027,0.048 -0.011,0.109 0.037,0.137 l 4.244,2.45 c 0.086,0.05 0.05,-0.087 0,0 l -5.4,9.353 c -0.05,0.086 0.086,0.05 0,0 l -4.244,-2.45 c -0.048,-0.028 -0.109,-0.012 -0.137,0.036 l -4.5,7.794 c -0.027,0.048 -0.011,0.109 0.037,0.137 l 4.244,2.45 c 0.086,0.05 0.05,-0.087 0,0 l -5.4,9.353 c -0.05,0.087 0.086,0.05 0,0 l -4.244,-2.45 c -0.048,-0.027 -0.109,-0.011 -0.137,0.037 l -4.5,7.794 c -0.027,0.048 -0.011,0.109 0.037,0.137 l 4.244,2.45 c 0.086,0.05 0.05,-0.087 0,0 l -5.4,9.353 c -0.05,0.086 0.086,0.05 0,0 l -4.244,-2.45 c -0.048,-0.028 -0.109,-0.012 -0.137,0.036 l -4.5,7.794 c -0.027,0.048 -0.011,0.109 0.037,0.137 l 4.244,2.45 c 0.086,0.05 0.05,-0.087 0,0 l -5.4,9.353 c -0.05,0.087 0.086,0.05 0,0 l -4.244,-2.45 c -0.048,-0.027 -0.109,-0.011 -0.137,0.037 l -4.5,7.794 c -0.027,0.048 -0.011,0.109 0.037,0.137 l 4.244,2.45 c 0.086,0.05 0.05,-0.087 0,0 l -5.4,9.353 c -0.05,0.086 0.086,0.05 0,0 l -4.244,-2.45 c -0.048,-0.028 -0.109,-0.012 -0.137,0.036 l -4.5,7.794 c -0.027,0.048 -0.011,0.109 0.037,0.137 l 4.244,2.45 c 0.086,0.05 0.05,-0.087 0,0 l -5.4,9.353 c -0.05,0.087 0.086,0.05 0,0 l -4.244,-2.45 c -0.048,-0.027 -0.109,-0.011 -0.137,0.037 l -4.5,7.794 c -0.027,0.048 -0.011,0.109 0.037,0.137 l 4.244,2.45 c 0.086,0.05 0.05,-0.087 0,0 l -5.4,9.353 c -0.05,0.086 0.086,0.05 0,0 l -4.244,-2.45 c -0.048,-0.028 -0.109,-0.012 -0.137,0.036 l -7.056,12.223 -1.444,2.5 c -0.017,0.031 -0.017,0.069 0,0.1 l 1.444,2.5 7.056,12.222 c 0.028,0.048 0.089,0.064 0.137,0.037 l 4.244,-2.45 c 0.086,-0.05 -0.05,-0.087 0,0 l 5.4,9.353 c 0.05,0.086 0.086,-0.05 0,0 l -4.244,2.45 c -0.048,0.027 -0.064,0.089 -0.037,0.136 l 4.5,7.795 c 0.028,0.047 0.089,0.064 0.137,0.036 l 4.244,-2.45 c 0.086,-0.05 -0.05,-0.086 0,0 l 5.4,9.353 c 0.05,0.087 0.086,-0.05 0,0 l -4.244,2.45 c -0.048,0.028 -0.064,0.089 -0.037,0.137 l 4.5,7.794 c 0.028,0.048 0.089,0.064 0.137,0.037 l 4.244,-2.45 c 0.086,-0.05 -0.05,-0.087 0,0 l 5.4,9.353 c 0.05,0.086 0.086,-0.05 0,0 l -4.244,2.45 c -0.048,0.027 -0.064,0.089 -0.037,0.136 l 4.5,7.795 c 0.028,0.047 0.089,0.064 0.137,0.036 l 4.244,-2.45 c 0.086,-0.05 -0.05,-0.086 0,0 l 5.4,9.353 c 0.05,0.087 0.086,-0.05 0,0 l -4.244,2.45 c -0.048,0.028 -0.064,0.089 -0.037,0.137 l 4.5,7.794 c 0.028,0.048 0.089,0.064 0.137,0.037 l 4.244,-2.45 c 0.086,-0.05 -0.05,-0.087 0,0 l 5.4,9.353 c 0.05,0.086 0.086,-0.05 0,0 l -4.244,2.45 c -0.048,0.027 -0.064,0.089 -0.037,0.136 l 4.5,7.795 c 0.028,0.048 0.089,0.064 0.137,0.036 l 4.244,-2.45 c 0.086,-0.05 -0.05,-0.086 0,0 l 5.4,9.353 c 0.05,0.087 0.086,-0.05 0,0 l -4.244,2.45 c -0.048,0.028 -0.064,0.089 -0.037,0.137 l 4.5,7.794 c 0.028,0.048 0.089,0.064 0.137,0.037 l 4.244,-2.45 c 0.086,-0.05 -0.05,-0.087 0,0 l 5.4,9.353 c 0.05,0.086 0.086,-0.05 0,0 l -4.244,2.45 c -0.048,0.027 -0.064,0.089 -0.037,0.136 l 4.5,7.795 c 0.028,0.048 0.089,0.064 0.137,0.036 l 4.244,-2.45 c 0.086,-0.05 -0.05,-0.086 0,0 l 5.4,9.353 c 0.05,0.087 0.086,-0.05 0,0 l -4.244,2.45 c -0.048,0.028 -0.064,0.089 -0.037,0.137 l 7.057,12.222 1.443,2.5 c 0.018,0.031 0.051,0.05 0.087,0.05 h 2.887"
       stroke="#000000"
       stroke-width="0.2"
       id="path15"
       style="stroke:#ff0000" />
  </g>
  <g
     id="p-2"
     style="fill:none;stroke-linecap:round;stroke-linejoin:round;stroke:#ff0000"
     transform="translate(-9.9,-9.9)">
    <path
       d="m 717.915,253.015 c 0,28.777 -8.272,56.949 -23.83,81.158 -15.559,24.209 -37.748,43.436 -63.925,55.391 -26.177,11.955 -55.239,16.133 -83.724,12.037 -28.484,-4.095 -55.192,-16.292 -76.94,-35.137 -21.749,-18.846 -37.622,-43.545 -45.73,-71.157 -8.108,-27.612 -8.108,-56.973 0,-84.584 8.108,-27.612 23.981,-52.312 45.73,-71.157 21.748,-18.846 48.456,-31.043 76.94,-35.138 28.485,-4.096 57.547,0.083 83.724,12.038 26.177,11.954 48.366,31.181 63.925,55.391 15.558,24.209 23.83,52.38 23.83,81.158 z"
       stroke="#0000ff"
       stroke-width="0.2"
       id="path18"
       style="stroke:#ff0000" />
    <text
       alignment-baseline="hanging"
       font-size="4px"
       style="font-style:normal;font-weight:normal;font-family:sans-serif;fill:#ff0000;stroke:#ff0000"
       text-anchor="middle"
       transform="translate(567.8,251.115)"
       id="text20" />
    <path
       d="M 478.187,413.329 H 492.3 c 0.055,0 0.1,-0.044 0.1,-0.1 v -4.9 c 0,-0.1 -0.1,0 0,0 h 10.8 c 0.1,0 0,-0.1 0,0 v 4.9 c 0,0.056 0.045,0.1 0.1,0.1 h 9 c 0.055,0 0.1,-0.044 0.1,-0.1 v -4.9 c 0,-0.1 -0.1,0 0,0 h 10.8 c 0.1,0 0,-0.1 0,0 v 4.9 c 0,0.056 0.045,0.1 0.1,0.1 h 9 c 0.055,0 0.1,-0.044 0.1,-0.1 v -4.9 c 0,-0.1 -0.1,0 0,0 h 10.8 c 0.1,0 0,-0.1 0,0 v 4.9 c 0,0.056 0.045,0.1 0.1,0.1 h 9 c 0.055,0 0.1,-0.044 0.1,-0.1 v -4.9 c 0,-0.1 -0.1,0 0,0 h 10.8 c 0.1,0 0,-0.1 0,0 v 4.9 c 0,0.056 0.045,0.1 0.1,0.1 h 9 c 0.055,0 0.1,-0.044 0.1,-0.1 v -4.9 c 0,-0.1 -0.1,0 0,0 h 10.8 c 0.1,0 0,-0.1 0,0 v 4.9 c 0,0.056 0.045,0.1 0.1,0.1 h 9 c 0.055,0 0.1,-0.044 0.1,-0.1 v -4.9 c 0,-0.1 -0.1,0 0,0 h 10.8 c 0.1,0 0,-0.1 0,0 v 4.9 c 0,0.056 0.045,0.1 0.1,0.1 h 9 c 0.055,0 0.1,-0.044 0.1,-0.1 v -4.9 c 0,-0.1 -0.1,0 0,0 h 10.8 c 0.1,0 0,-0.1 0,0 v 4.9 c 0,0.056 0.045,0.1 0.1,0.1 h 9 c 0.055,0 0.1,-0.044 0.1,-0.1 v -4.9 c 0,-0.1 -0.1,0 0,0 h 10.8 c 0.1,0 0,-0.1 0,0 v 4.9 c 0,0.056 0.045,0.1 0.1,0.1 h 14.113 2.887 c 0.036,0 0.069,-0.019 0.087,-0.05 l 1.443,-2.5 7.057,-12.222 c 0.027,-0.048 0.011,-0.109 -0.037,-0.137 l -4.244,-2.45 c -0.086,-0.05 -0.05,0.087 0,0 l 5.4,-9.353 c 0.05,-0.086 -0.086,-0.05 0,0 l 4.244,2.45 c 0.048,0.028 0.109,0.012 0.137,-0.036 l 4.5,-7.795 c 0.027,-0.047 0.011,-0.109 -0.037,-0.136 l -4.244,-2.45 c -0.086,-0.05 -0.05,0.086 0,0 l 5.4,-9.353 c 0.05,-0.087 -0.086,-0.05 0,0 l 4.244,2.45 c 0.048,0.027 0.109,0.011 0.137,-0.037 l 4.5,-7.794 c 0.027,-0.048 0.011,-0.109 -0.037,-0.137 l -4.244,-2.45 c -0.086,-0.05 -0.05,0.087 0,0 l 5.4,-9.353 c 0.05,-0.086 -0.086,-0.05 0,0 l 4.244,2.45 c 0.048,0.028 0.109,0.012 0.137,-0.036 l 4.5,-7.795 c 0.027,-0.047 0.011,-0.109 -0.037,-0.136 l -4.244,-2.45 c -0.086,-0.05 -0.05,0.086 0,0 l 5.4,-9.353 c 0.05,-0.087 -0.086,-0.05 0,0 l 4.244,2.45 c 0.048,0.027 0.109,0.011 0.137,-0.037 l 4.5,-7.794 c 0.027,-0.048 0.011,-0.109 -0.037,-0.137 l -4.244,-2.45 c -0.086,-0.05 -0.05,0.087 0,0 l 5.4,-9.353 c 0.05,-0.086 -0.086,-0.05 0,0 l 4.244,2.45 c 0.048,0.028 0.109,0.011 0.137,-0.036 l 4.5,-7.795 c 0.027,-0.047 0.011,-0.109 -0.037,-0.136 l -4.244,-2.45 c -0.086,-0.05 -0.05,0.086 0,0 l 5.4,-9.353 c 0.05,-0.087 -0.086,-0.05 0,0 l 4.244,2.45 c 0.048,0.027 0.109,0.011 0.137,-0.037 l 4.5,-7.794 c 0.027,-0.048 0.011,-0.109 -0.037,-0.137 l -4.244,-2.45 c -0.086,-0.05 -0.05,0.087 0,0 l 5.4,-9.353 c 0.05,-0.086 -0.086,-0.05 0,0 l 4.244,2.45 c 0.048,0.028 0.109,0.011 0.137,-0.036 l 4.5,-7.795 c 0.027,-0.047 0.011,-0.109 -0.037,-0.136 l -4.244,-2.45 c -0.086,-0.05 -0.05,0.086 0,0 l 5.4,-9.353 c 0.05,-0.087 -0.086,-0.05 0,0 l 4.244,2.45 c 0.048,0.027 0.109,0.011 0.137,-0.037 l 7.056,-12.222 1.444,-2.5 c 0.017,-0.031 0.017,-0.069 0,-0.1 l -1.444,-2.5 -7.056,-12.223 c -0.028,-0.048 -0.089,-0.064 -0.137,-0.036 l -4.244,2.45 c -0.086,0.05 0.05,0.086 0,0 l -5.4,-9.353 c -0.05,-0.087 -0.086,0.05 0,0 l 4.244,-2.45 c 0.048,-0.028 0.064,-0.089 0.037,-0.137 l -4.5,-7.794 c -0.028,-0.048 -0.089,-0.064 -0.137,-0.037 l -4.244,2.45 c -0.086,0.05 0.05,0.087 0,0 l -5.4,-9.353 c -0.05,-0.087 -0.086,0.05 0,0 l 4.244,-2.45 c 0.048,-0.028 0.064,-0.089 0.037,-0.137 l -4.5,-7.794 c -0.028,-0.048 -0.089,-0.064 -0.137,-0.036 l -4.244,2.45 c -0.086,0.05 0.05,0.086 0,0 l -5.4,-9.353 c -0.05,-0.087 -0.086,0.05 0,0 l 4.244,-2.45 c 0.048,-0.028 0.064,-0.089 0.037,-0.137 l -4.5,-7.794 c -0.028,-0.048 -0.089,-0.064 -0.137,-0.037 l -4.244,2.45 c -0.086,0.05 0.05,0.087 0,0 l -5.4,-9.353 c -0.05,-0.087 -0.086,0.05 0,0 l 4.244,-2.45 c 0.048,-0.028 0.064,-0.089 0.037,-0.137 l -4.5,-7.794 c -0.028,-0.048 -0.089,-0.064 -0.137,-0.036 l -4.244,2.45 c -0.086,0.05 0.05,0.086 0,0 l -5.4,-9.353 c -0.05,-0.087 -0.086,0.05 0,0 l 4.244,-2.45 c 0.048,-0.028 0.064,-0.089 0.037,-0.137 l -4.5,-7.794 c -0.028,-0.048 -0.089,-0.064 -0.137,-0.037 l -4.244,2.45 c -0.086,0.05 0.05,0.087 0,0 l -5.4,-9.353 c -0.05,-0.087 -0.086,0.05 0,0 l 4.244,-2.45 c 0.048,-0.028 0.064,-0.089 0.037,-0.137 l -4.5,-7.794 c -0.028,-0.048 -0.089,-0.064 -0.137,-0.036 l -4.244,2.45 c -0.086,0.05 0.05,0.086 0,0 l -5.4,-9.353 c -0.05,-0.087 -0.086,0.05 0,0 l 4.244,-2.45 c 0.048,-0.028 0.064,-0.089 0.037,-0.137 l -4.5,-7.794 c -0.028,-0.048 -0.089,-0.065 -0.137,-0.037 l -4.244,2.45 c -0.086,0.05 0.05,0.087 0,0 l -5.4,-9.353 c -0.05,-0.087 -0.086,0.05 0,0 l 4.244,-2.45 c 0.048,-0.028 0.064,-0.089 0.037,-0.137 L 661.83,95.25 660.387,92.75 C 660.369,92.719 660.336,92.7 660.3,92.7 H 657.413 643.3 c -0.055,0 -0.1,0.045 -0.1,0.1 v 4.9 c 0,0.1 0.1,0 0,0 h -10.8 c -0.1,0 0,0.1 0,0 v -4.9 c 0,-0.055 -0.045,-0.1 -0.1,-0.1 h -9 c -0.055,0 -0.1,0.045 -0.1,0.1 v 4.9 c 0,0.1 0.1,0 0,0 h -10.8 c -0.1,0 0,0.1 0,0 v -4.9 c 0,-0.055 -0.045,-0.1 -0.1,-0.1 h -9 c -0.055,0 -0.1,0.045 -0.1,0.1 v 4.9 c 0,0.1 0.1,0 0,0 h -10.8 c -0.1,0 0,0.1 0,0 v -4.9 c 0,-0.055 -0.045,-0.1 -0.1,-0.1 h -9 c -0.055,0 -0.1,0.045 -0.1,0.1 v 4.9 c 0,0.1 0.1,0 0,0 h -10.8 c -0.1,0 0,0.1 0,0 v -4.9 c 0,-0.055 -0.045,-0.1 -0.1,-0.1 h -9 c -0.055,0 -0.1,0.045 -0.1,0.1 v 4.9 c 0,0.1 0.1,0 0,0 h -10.8 c -0.1,0 0,0.1 0,0 v -4.9 c 0,-0.055 -0.045,-0.1 -0.1,-0.1 h -9 c -0.055,0 -0.1,0.045 -0.1,0.1 v 4.9 c 0,0.1 0.1,0 0,0 h -10.8 c -0.1,0 0,0.1 0,0 v -4.9 c 0,-0.055 -0.045,-0.1 -0.1,-0.1 h -9 c -0.055,0 -0.1,0.045 -0.1,0.1 v 4.9 c 0,0.1 0.1,0 0,0 h -10.8 c -0.1,0 0,0.1 0,0 v -4.9 c 0,-0.055 -0.045,-0.1 -0.1,-0.1 h -9 c -0.055,0 -0.1,0.045 -0.1,0.1 v 4.9 c 0,0.1 0.1,0 0,0 h -10.8 c -0.1,0 0,0.1 0,0 v -4.9 c 0,-0.055 -0.045,-0.1 -0.1,-0.1 H 478.187 475.3 c -0.036,0 -0.069,0.019 -0.087,0.05 l -1.443,2.5 -7.057,12.222 c -0.027,0.048 -0.011,0.109 0.037,0.137 l 4.244,2.45 c 0.086,0.05 0.05,-0.087 0,0 l -5.4,9.353 c -0.05,0.087 0.086,0.05 0,0 l -4.244,-2.45 c -0.048,-0.028 -0.109,-0.011 -0.137,0.037 l -4.5,7.794 c -0.027,0.048 -0.011,0.109 0.037,0.137 l 4.244,2.45 c 0.086,0.05 0.05,-0.087 0,0 l -5.4,9.353 c -0.05,0.086 0.086,0.05 0,0 l -4.244,-2.45 c -0.048,-0.028 -0.109,-0.012 -0.137,0.036 l -4.5,7.794 c -0.027,0.048 -0.011,0.109 0.037,0.137 l 4.244,2.45 c 0.086,0.05 0.05,-0.087 0,0 l -5.4,9.353 c -0.05,0.087 0.086,0.05 0,0 l -4.244,-2.45 c -0.048,-0.027 -0.109,-0.011 -0.137,0.037 l -4.5,7.794 c -0.027,0.048 -0.011,0.109 0.037,0.137 l 4.244,2.45 c 0.086,0.05 0.05,-0.087 0,0 l -5.4,9.353 c -0.05,0.086 0.086,0.05 0,0 l -4.244,-2.45 c -0.048,-0.028 -0.109,-0.012 -0.137,0.036 l -4.5,7.794 c -0.027,0.048 -0.011,0.109 0.037,0.137 l 4.244,2.45 c 0.086,0.05 0.05,-0.087 0,0 l -5.4,9.353 c -0.05,0.087 0.086,0.05 0,0 l -4.244,-2.45 c -0.048,-0.027 -0.109,-0.011 -0.137,0.037 l -4.5,7.794 c -0.027,0.048 -0.011,0.109 0.037,0.137 l 4.244,2.45 c 0.086,0.05 0.05,-0.087 0,0 l -5.4,9.353 c -0.05,0.086 0.086,0.05 0,0 l -4.244,-2.45 c -0.048,-0.028 -0.109,-0.012 -0.137,0.036 l -4.5,7.794 c -0.027,0.048 -0.011,0.109 0.037,0.137 l 4.244,2.45 c 0.086,0.05 0.05,-0.087 0,0 l -5.4,9.353 c -0.05,0.087 0.086,0.05 0,0 l -4.244,-2.45 c -0.048,-0.027 -0.109,-0.011 -0.137,0.037 l -4.5,7.794 c -0.027,0.048 -0.011,0.109 0.037,0.137 l 4.244,2.45 c 0.086,0.05 0.05,-0.087 0,0 l -5.4,9.353 c -0.05,0.086 0.086,0.05 0,0 l -4.244,-2.45 c -0.048,-0.028 -0.109,-0.012 -0.137,0.036 l -7.056,12.223 -1.444,2.5 c -0.017,0.031 -0.017,0.069 0,0.1 l 1.444,2.5 7.056,12.222 c 0.028,0.048 0.089,0.064 0.137,0.037 l 4.244,-2.45 c 0.086,-0.05 -0.05,-0.087 0,0 l 5.4,9.353 c 0.05,0.086 0.086,-0.05 0,0 l -4.244,2.45 c -0.048,0.027 -0.064,0.089 -0.037,0.136 l 4.5,7.795 c 0.028,0.047 0.089,0.064 0.137,0.036 l 4.244,-2.45 c 0.086,-0.05 -0.05,-0.086 0,0 l 5.4,9.353 c 0.05,0.087 0.086,-0.05 0,0 l -4.244,2.45 c -0.048,0.028 -0.064,0.089 -0.037,0.137 l 4.5,7.794 c 0.028,0.048 0.089,0.064 0.137,0.037 l 4.244,-2.45 c 0.086,-0.05 -0.05,-0.087 0,0 l 5.4,9.353 c 0.05,0.086 0.086,-0.05 0,0 l -4.244,2.45 c -0.048,0.027 -0.064,0.089 -0.037,0.136 l 4.5,7.795 c 0.028,0.047 0.089,0.064 0.137,0.036 l 4.244,-2.45 c 0.086,-0.05 -0.05,-0.086 0,0 l 5.4,9.353 c 0.05,0.087 0.086,-0.05 0,0 l -4.244,2.45 c -0.048,0.028 -0.064,0.089 -0.037,0.137 l 4.5,7.794 c 0.028,0.048 0.089,0.064 0.137,0.037 l 4.244,-2.45 c 0.086,-0.05 -0.05,-0.087 0,0 l 5.4,9.353 c 0.05,0.086 0.086,-0.05 0,0 l -4.244,2.45 c -0.048,0.027 -0.064,0.089 -0.037,0.136 l 4.5,7.795 c 0.028,0.048 0.089,0.064 0.137,0.036 l 4.244,-2.45 c 0.086,-0.05 -0.05,-0.086 0,0 l 5.4,9.353 c 0.05,0.087 0.086,-0.05 0,0 l -4.244,2.45 c -0.048,0.028 -0.064,0.089 -0.037,0.137 l 4.5,7.794 c 0.028,0.048 0.089,0.064 0.137,0.037 l 4.244,-2.45 c 0.086,-0.05 -0.05,-0.087 0,0 l 5.4,9.353 c 0.05,0.086 0.086,-0.05 0,0 l -4.244,2.45 c -0.048,0.027 -0.064,0.089 -0.037,0.136 l 4.5,7.795 c 0.028,0.048 0.089,0.064 0.137,0.036 l 4.244,-2.45 c 0.086,-0.05 -0.05,-0.086 0,0 l 5.4,9.353 c 0.05,0.087 0.086,-0.05 0,0 l -4.244,2.45 c -0.048,0.028 -0.064,0.089 -0.037,0.137 l 7.057,12.222 1.443,2.5 c 0.018,0.031 0.051,0.05 0.087,0.05 h 2.887"
       stroke="#000000"
       stroke-width="0.2"
       id="path22"
       style="stroke:#ff0000" />
  </g>
  <g
     id="p-3"
     style="fill:none;stroke-linecap:round;stroke-linejoin:round;stroke:#ff0000"
     transform="translate(-9.9,-9.9)">
    <text
       alignment-baseline="hanging"
       font-size="4px"
       style="font-style:normal;font-weight:normal;font-family:sans-serif;fill:#ff0000;stroke:#ff0000"
       text-anchor="middle"
       transform="translate(102.6,48.2)"
       id="text25" />
    <path
       d="M 12.987,85.2 H 27.5 c 0.1,0 0,-0.1 0,0 v 4.9 c 0,0.055 0.045,0.1 0.1,0.1 h 10 c 0.055,0 0.1,-0.045 0.1,-0.1 v -4.9 c 0,-0.1 -0.1,0 0,0 h 9.8 c 0.1,0 0,-0.1 0,0 v 4.9 c 0,0.055 0.045,0.1 0.1,0.1 h 10 c 0.055,0 0.1,-0.045 0.1,-0.1 v -4.9 c 0,-0.1 -0.1,0 0,0 h 9.8 c 0.1,0 0,-0.1 0,0 v 4.9 c 0,0.055 0.045,0.1 0.1,0.1 h 10 c 0.055,0 0.1,-0.045 0.1,-0.1 v -4.9 c 0,-0.1 -0.1,0 0,0 h 9.8 c 0.1,0 0,-0.1 0,0 v 4.9 c 0,0.055 0.045,0.1 0.1,0.1 h 10 c 0.055,0 0.1,-0.045 0.1,-0.1 v -4.9 c 0,-0.1 -0.1,0 0,0 h 9.8 c 0.1,0 0,-0.1 0,0 v 4.9 c 0,0.055 0.045,0.1 0.1,0.1 h 10 c 0.055,0 0.1,-0.045 0.1,-0.1 v -4.9 c 0,-0.1 -0.1,0 0,0 h 9.8 c 0.1,0 0,-0.1 0,0 v 4.9 c 0,0.055 0.045,0.1 0.1,0.1 h 10 c 0.055,0 0.1,-0.045 0.1,-0.1 v -4.9 c 0,-0.1 -0.1,0 0,0 h 9.8 c 0.1,0 0,-0.1 0,0 v 4.9 c 0,0.055 0.045,0.1 0.1,0.1 h 10 c 0.055,0 0.1,-0.045 0.1,-0.1 v -4.9 c 0,-0.1 -0.1,0 0,0 h 9.8 c 0.1,0 0,-0.1 0,0 v 4.9 c 0,0.055 0.045,0.1 0.1,0.1 h 10 c 0.055,0 0.1,-0.045 0.1,-0.1 v -4.9 c 0,-0.1 -0.1,0 0,0 h 14.513 2.887 c 0.055,0 0.1,-0.045 0.1,-0.1 v -9.5 c 0,-0.055 -0.045,-0.1 -0.1,-0.1 h -4.23 c -0.1,0 0,0.1 0,0 V 64.7 c 0,-0.1 -0.1,0 0,0 h 4.23 c 0.055,0 0.1,-0.045 0.1,-0.1 v -9 c 0,-0.055 -0.045,-0.1 -0.1,-0.1 h -4.23 c -0.1,0 0,0.1 0,0 V 44.7 c 0,-0.1 -0.1,0 0,0 h 4.23 c 0.055,0 0.1,-0.045 0.1,-0.1 v -9 c 0,-0.055 -0.045,-0.1 -0.1,-0.1 h -4.23 c -0.1,0 0,0.1 0,0 V 24.7 c 0,-0.1 -0.1,0 0,0 h 4.23 c 0.055,0 0.1,-0.045 0.1,-0.1 v -9.5 c 0,-0.055 -0.045,-0.1 -0.1,-0.1 H 192.213 177.7 c -0.1,0 0,0.1 0,0 v -4.9 c 0,-0.055 -0.045,-0.1 -0.1,-0.1 h -10 c -0.055,0 -0.1,0.045 -0.1,0.1 V 15 c 0,0.1 0.1,0 0,0 h -9.8 c -0.1,0 0,0.1 0,0 v -4.9 c 0,-0.055 -0.045,-0.1 -0.1,-0.1 h -10 c -0.055,0 -0.1,0.045 -0.1,0.1 V 15 c 0,0.1 0.1,0 0,0 h -9.8 c -0.1,0 0,0.1 0,0 v -4.9 c 0,-0.055 -0.045,-0.1 -0.1,-0.1 h -10 c -0.055,0 -0.1,0.045 -0.1,0.1 V 15 c 0,0.1 0.1,0 0,0 h -9.8 c -0.1,0 0,0.1 0,0 v -4.9 c 0,-0.055 -0.045,-0.1 -0.1,-0.1 h -10 c -0.055,0 -0.1,0.045 -0.1,0.1 V 15 c 0,0.1 0.1,0 0,0 h -9.8 c -0.1,0 0,0.1 0,0 V 10.1 C 97.7,10.045 97.655,10 97.6,10 h -10 c -0.055,0 -0.1,0.045 -0.1,0.1 V 15 c 0,0.1 0.1,0 0,0 h -9.8 c -0.1,0 0,0.1 0,0 V 10.1 C 77.7,10.045 77.655,10 77.6,10 h -10 c -0.055,0 -0.1,0.045 -0.1,0.1 V 15 c 0,0.1 0.1,0 0,0 h -9.8 c -0.1,0 0,0.1 0,0 V 10.1 C 57.7,10.045 57.655,10 57.6,10 h -10 c -0.055,0 -0.1,0.045 -0.1,0.1 V 15 c 0,0.1 0.1,0 0,0 h -9.8 c -0.1,0 0,0.1 0,0 V 10.1 C 37.7,10.045 37.655,10 37.6,10 h -10 c -0.055,0 -0.1,0.045 -0.1,0.1 V 15 c 0,0.1 0.1,0 0,0 H 12.987 10.1 C 10.045,15 10,15.045 10,15.1 v 9.5 c 0,0.055 0.045,0.1 0.1,0.1 h 4.23 c 0.1,0 0,-0.1 0,0 v 10.8 c 0,0.1 0.1,0 0,0 H 10.1 c -0.055,0 -0.1,0.045 -0.1,0.1 v 9 c 0,0.055 0.045,0.1 0.1,0.1 h 4.23 c 0.1,0 0,-0.1 0,0 v 10.8 c 0,0.1 0.1,0 0,0 H 10.1 c -0.055,0 -0.1,0.045 -0.1,0.1 v 9 c 0,0.055 0.045,0.1 0.1,0.1 h 4.23 c 0.1,0 0,-0.1 0,0 v 10.8 c 0,0.1 0.1,0 0,0 H 10.1 c -0.055,0 -0.1,0.045 -0.1,0.1 v 9.5 c 0,0.055 0.045,0.1 0.1,0.1 h 2.887"
       stroke="#000000"
       stroke-width="0.2"
       id="path27"
       style="stroke:#ff0000" />
  </g>
  <g
     id="p-4"
     style="fill:none;stroke-linecap:round;stroke-linejoin:round;stroke:#ff0000"
     transform="translate(-9.9,-9.9)">
    <text
       alignment-baseline="hanging"
       font-size="4px"
       style="font-style:normal;font-weight:normal;font-family:sans-serif;fill:#ff0000;stroke:#ff0000"
       text-anchor="middle"
       transform="translate(290.3,48.2)"
       id="text30" />
    <path
       d="M 200.687,85.2 H 215.2 c 0.1,0 0,-0.1 0,0 v 4.9 c 0,0.055 0.045,0.1 0.1,0.1 h 10 c 0.055,0 0.1,-0.045 0.1,-0.1 v -4.9 c 0,-0.1 -0.1,0 0,0 h 9.8 c 0.1,0 0,-0.1 0,0 v 4.9 c 0,0.055 0.045,0.1 0.1,0.1 h 10 c 0.055,0 0.1,-0.045 0.1,-0.1 v -4.9 c 0,-0.1 -0.1,0 0,0 h 9.8 c 0.1,0 0,-0.1 0,0 v 4.9 c 0,0.055 0.045,0.1 0.1,0.1 h 10 c 0.055,0 0.1,-0.045 0.1,-0.1 v -4.9 c 0,-0.1 -0.1,0 0,0 h 9.8 c 0.1,0 0,-0.1 0,0 v 4.9 c 0,0.055 0.045,0.1 0.1,0.1 h 10 c 0.055,0 0.1,-0.045 0.1,-0.1 v -4.9 c 0,-0.1 -0.1,0 0,0 h 9.8 c 0.1,0 0,-0.1 0,0 v 4.9 c 0,0.055 0.045,0.1 0.1,0.1 h 10 c 0.055,0 0.1,-0.045 0.1,-0.1 v -4.9 c 0,-0.1 -0.1,0 0,0 h 9.8 c 0.1,0 0,-0.1 0,0 v 4.9 c 0,0.055 0.045,0.1 0.1,0.1 h 10 c 0.055,0 0.1,-0.045 0.1,-0.1 v -4.9 c 0,-0.1 -0.1,0 0,0 h 9.8 c 0.1,0 0,-0.1 0,0 v 4.9 c 0,0.055 0.045,0.1 0.1,0.1 h 10 c 0.055,0 0.1,-0.045 0.1,-0.1 v -4.9 c 0,-0.1 -0.1,0 0,0 h 9.8 c 0.1,0 0,-0.1 0,0 v 4.9 c 0,0.055 0.045,0.1 0.1,0.1 h 10 c 0.055,0 0.1,-0.045 0.1,-0.1 v -4.9 c 0,-0.1 -0.1,0 0,0 h 14.513 -1.443 c 0.055,0 0.1,-0.045 0.1,-0.1 v -9.9 c 0,-0.1 -0.1,0 0,0 h 4.23 c 0.055,0 0.1,-0.045 0.1,-0.1 v -10 c 0,-0.055 -0.045,-0.1 -0.1,-0.1 h -4.23 c -0.1,0 0,0.1 0,0 v -9.8 c 0,-0.1 -0.1,0 0,0 h 4.23 c 0.055,0 0.1,-0.045 0.1,-0.1 v -10 c 0,-0.055 -0.045,-0.1 -0.1,-0.1 h -4.23 c -0.1,0 0,0.1 0,0 v -9.8 c 0,-0.1 -0.1,0 0,0 h 4.23 c 0.055,0 0.1,-0.045 0.1,-0.1 v -10 c 0,-0.055 -0.045,-0.1 -0.1,-0.1 h -4.23 c -0.1,0 0,0.1 0,0 v -9.9 c 0,-0.055 -0.045,-0.1 -0.1,-0.1 h 1.443 -14.513 c -0.1,0 0,0.1 0,0 v -4.9 c 0,-0.055 -0.045,-0.1 -0.1,-0.1 h -10 c -0.055,0 -0.1,0.045 -0.1,0.1 V 15 c 0,0.1 0.1,0 0,0 h -9.8 c -0.1,0 0,0.1 0,0 v -4.9 c 0,-0.055 -0.045,-0.1 -0.1,-0.1 h -10 c -0.055,0 -0.1,0.045 -0.1,0.1 V 15 c 0,0.1 0.1,0 0,0 h -9.8 c -0.1,0 0,0.1 0,0 v -4.9 c 0,-0.055 -0.045,-0.1 -0.1,-0.1 h -10 c -0.055,0 -0.1,0.045 -0.1,0.1 V 15 c 0,0.1 0.1,0 0,0 h -9.8 c -0.1,0 0,0.1 0,0 v -4.9 c 0,-0.055 -0.045,-0.1 -0.1,-0.1 h -10 c -0.055,0 -0.1,0.045 -0.1,0.1 V 15 c 0,0.1 0.1,0 0,0 h -9.8 c -0.1,0 0,0.1 0,0 v -4.9 c 0,-0.055 -0.045,-0.1 -0.1,-0.1 h -10 c -0.055,0 -0.1,0.045 -0.1,0.1 V 15 c 0,0.1 0.1,0 0,0 h -9.8 c -0.1,0 0,0.1 0,0 v -4.9 c 0,-0.055 -0.045,-0.1 -0.1,-0.1 h -10 c -0.055,0 -0.1,0.045 -0.1,0.1 V 15 c 0,0.1 0.1,0 0,0 h -9.8 c -0.1,0 0,0.1 0,0 v -4.9 c 0,-0.055 -0.045,-0.1 -0.1,-0.1 h -10 c -0.055,0 -0.1,0.045 -0.1,0.1 V 15 c 0,0.1 0.1,0 0,0 h -9.8 c -0.1,0 0,0.1 0,0 v -4.9 c 0,-0.055 -0.045,-0.1 -0.1,-0.1 h -10 c -0.055,0 -0.1,0.045 -0.1,0.1 V 15 c 0,0.1 0.1,0 0,0 h -14.513 1.443 c -0.055,0 -0.1,0.045 -0.1,0.1 V 25 c 0,0.1 0.1,0 0,0 h -4.23 c -0.055,0 -0.1,0.045 -0.1,0.1 v 10 c 0,0.055 0.045,0.1 0.1,0.1 h 4.23 c 0.1,0 0,-0.1 0,0 V 45 c 0,0.1 0.1,0 0,0 h -4.23 c -0.055,0 -0.1,0.045 -0.1,0.1 v 10 c 0,0.055 0.045,0.1 0.1,0.1 h 4.23 c 0.1,0 0,-0.1 0,0 V 65 c 0,0.1 0.1,0 0,0 h -4.23 c -0.055,0 -0.1,0.045 -0.1,0.1 v 10 c 0,0.055 0.045,0.1 0.1,0.1 h 4.23 c 0.1,0 0,-0.1 0,0 v 9.9 c 0,0.055 0.045,0.1 0.1,0.1 h -1.443"
       stroke="#000000"
       stroke-width="0.2"
       id="path32"
       style="stroke:#ff0000" />
  </g>
  <g
     id="p-5"
     style="fill:none;stroke-linecap:round;stroke-linejoin:round;stroke:#ff0000"
     transform="translate(-9.9,-9.9)">
    <text
       alignment-baseline="hanging"
       font-size="4px"
       style="font-style:normal;font-weight:normal;font-family:sans-serif;fill:#ff0000;stroke:#ff0000"
       text-anchor="middle"
       transform="translate(478,48.2)"
       id="text35" />
    <path
       d="M 388.387,85.2 H 402.9 c 0.1,0 0,-0.1 0,0 v 4.9 c 0,0.055 0.045,0.1 0.1,0.1 h 10 c 0.055,0 0.1,-0.045 0.1,-0.1 v -4.9 c 0,-0.1 -0.1,0 0,0 h 9.8 c 0.1,0 0,-0.1 0,0 v 4.9 c 0,0.055 0.045,0.1 0.1,0.1 h 10 c 0.055,0 0.1,-0.045 0.1,-0.1 v -4.9 c 0,-0.1 -0.1,0 0,0 h 9.8 c 0.1,0 0,-0.1 0,0 v 4.9 c 0,0.055 0.045,0.1 0.1,0.1 h 10 c 0.055,0 0.1,-0.045 0.1,-0.1 v -4.9 c 0,-0.1 -0.1,0 0,0 h 9.8 c 0.1,0 0,-0.1 0,0 v 4.9 c 0,0.055 0.045,0.1 0.1,0.1 h 10 c 0.055,0 0.1,-0.045 0.1,-0.1 v -4.9 c 0,-0.1 -0.1,0 0,0 h 9.8 c 0.1,0 0,-0.1 0,0 v 4.9 c 0,0.055 0.045,0.1 0.1,0.1 h 10 c 0.055,0 0.1,-0.045 0.1,-0.1 v -4.9 c 0,-0.1 -0.1,0 0,0 h 9.8 c 0.1,0 0,-0.1 0,0 v 4.9 c 0,0.055 0.045,0.1 0.1,0.1 h 10 c 0.055,0 0.1,-0.045 0.1,-0.1 v -4.9 c 0,-0.1 -0.1,0 0,0 h 9.8 c 0.1,0 0,-0.1 0,0 v 4.9 c 0,0.055 0.045,0.1 0.1,0.1 h 10 c 0.055,0 0.1,-0.045 0.1,-0.1 v -4.9 c 0,-0.1 -0.1,0 0,0 h 9.8 c 0.1,0 0,-0.1 0,0 v 4.9 c 0,0.055 0.045,0.1 0.1,0.1 h 10 c 0.055,0 0.1,-0.045 0.1,-0.1 v -4.9 c 0,-0.1 -0.1,0 0,0 h 14.513 2.887 c 0.055,0 0.1,-0.045 0.1,-0.1 v -9.5 c 0,-0.055 -0.045,-0.1 -0.1,-0.1 h -4.23 c -0.1,0 0,0.1 0,0 V 64.7 c 0,-0.1 -0.1,0 0,0 h 4.23 c 0.055,0 0.1,-0.045 0.1,-0.1 v -9 c 0,-0.055 -0.045,-0.1 -0.1,-0.1 h -4.23 c -0.1,0 0,0.1 0,0 V 44.7 c 0,-0.1 -0.1,0 0,0 h 4.23 c 0.055,0 0.1,-0.045 0.1,-0.1 v -9 c 0,-0.055 -0.045,-0.1 -0.1,-0.1 h -4.23 c -0.1,0 0,0.1 0,0 V 24.7 c 0,-0.1 -0.1,0 0,0 h 4.23 c 0.055,0 0.1,-0.045 0.1,-0.1 v -9.5 c 0,-0.055 -0.045,-0.1 -0.1,-0.1 H 567.613 553.1 c -0.1,0 0,0.1 0,0 v -4.9 c 0,-0.055 -0.045,-0.1 -0.1,-0.1 h -10 c -0.055,0 -0.1,0.045 -0.1,0.1 V 15 c 0,0.1 0.1,0 0,0 h -9.8 c -0.1,0 0,0.1 0,0 v -4.9 c 0,-0.055 -0.045,-0.1 -0.1,-0.1 h -10 c -0.055,0 -0.1,0.045 -0.1,0.1 V 15 c 0,0.1 0.1,0 0,0 h -9.8 c -0.1,0 0,0.1 0,0 v -4.9 c 0,-0.055 -0.045,-0.1 -0.1,-0.1 h -10 c -0.055,0 -0.1,0.045 -0.1,0.1 V 15 c 0,0.1 0.1,0 0,0 h -9.8 c -0.1,0 0,0.1 0,0 v -4.9 c 0,-0.055 -0.045,-0.1 -0.1,-0.1 h -10 c -0.055,0 -0.1,0.045 -0.1,0.1 V 15 c 0,0.1 0.1,0 0,0 h -9.8 c -0.1,0 0,0.1 0,0 v -4.9 c 0,-0.055 -0.045,-0.1 -0.1,-0.1 h -10 c -0.055,0 -0.1,0.045 -0.1,0.1 V 15 c 0,0.1 0.1,0 0,0 h -9.8 c -0.1,0 0,0.1 0,0 v -4.9 c 0,-0.055 -0.045,-0.1 -0.1,-0.1 h -10 c -0.055,0 -0.1,0.045 -0.1,0.1 V 15 c 0,0.1 0.1,0 0,0 h -9.8 c -0.1,0 0,0.1 0,0 v -4.9 c 0,-0.055 -0.045,-0.1 -0.1,-0.1 h -10 c -0.055,0 -0.1,0.045 -0.1,0.1 V 15 c 0,0.1 0.1,0 0,0 h -9.8 c -0.1,0 0,0.1 0,0 v -4.9 c 0,-0.055 -0.045,-0.1 -0.1,-0.1 h -10 c -0.055,0 -0.1,0.045 -0.1,0.1 V 15 c 0,0.1 0.1,0 0,0 H 388.387 385.5 c -0.055,0 -0.1,0.045 -0.1,0.1 v 9.5 c 0,0.055 0.045,0.1 0.1,0.1 h 4.23 c 0.1,0 0,-0.1 0,0 v 10.8 c 0,0.1 0.1,0 0,0 h -4.23 c -0.055,0 -0.1,0.045 -0.1,0.1 v 9 c 0,0.055 0.045,0.1 0.1,0.1 h 4.23 c 0.1,0 0,-0.1 0,0 v 10.8 c 0,0.1 0.1,0 0,0 h -4.23 c -0.055,0 -0.1,0.045 -0.1,0.1 v 9 c 0,0.055 0.045,0.1 0.1,0.1 h 4.23 c 0.1,0 0,-0.1 0,0 v 10.8 c 0,0.1 0.1,0 0,0 h -4.23 c -0.055,0 -0.1,0.045 -0.1,0.1 v 9.5 c 0,0.055 0.045,0.1 0.1,0.1 h 2.887"
       stroke="#000000"
       stroke-width="0.2"
       id="path37"
       style="stroke:#ff0000" />
  </g>
  <g
     id="p-6"
     style="fill:none;stroke-linecap:round;stroke-linejoin:round;stroke:#ff0000"
     transform="translate(-106.45755,276.80454)">
    <text
       alignment-baseline="hanging"
       font-size="4px"
       style="font-style:normal;font-weight:normal;font-family:sans-serif;fill:#ff0000;stroke:#ff0000"
       text-anchor="middle"
       transform="translate(665.7,48.2)"
       id="text40" />
    <path
       d="M 576.087,85.2 H 590.6 c 0.1,0 0,-0.1 0,0 v 4.9 c 0,0.055 0.045,0.1 0.1,0.1 h 10 c 0.055,0 0.1,-0.045 0.1,-0.1 v -4.9 c 0,-0.1 -0.1,0 0,0 h 9.8 c 0.1,0 0,-0.1 0,0 v 4.9 c 0,0.055 0.045,0.1 0.1,0.1 h 10 c 0.055,0 0.1,-0.045 0.1,-0.1 v -4.9 c 0,-0.1 -0.1,0 0,0 h 9.8 c 0.1,0 0,-0.1 0,0 v 4.9 c 0,0.055 0.045,0.1 0.1,0.1 h 10 c 0.055,0 0.1,-0.045 0.1,-0.1 v -4.9 c 0,-0.1 -0.1,0 0,0 h 9.8 c 0.1,0 0,-0.1 0,0 v 4.9 c 0,0.055 0.045,0.1 0.1,0.1 h 10 c 0.055,0 0.1,-0.045 0.1,-0.1 v -4.9 c 0,-0.1 -0.1,0 0,0 h 9.8 c 0.1,0 0,-0.1 0,0 v 4.9 c 0,0.055 0.045,0.1 0.1,0.1 h 10 c 0.055,0 0.1,-0.045 0.1,-0.1 v -4.9 c 0,-0.1 -0.1,0 0,0 h 9.8 c 0.1,0 0,-0.1 0,0 v 4.9 c 0,0.055 0.045,0.1 0.1,0.1 h 10 c 0.055,0 0.1,-0.045 0.1,-0.1 v -4.9 c 0,-0.1 -0.1,0 0,0 h 9.8 c 0.1,0 0,-0.1 0,0 v 4.9 c 0,0.055 0.045,0.1 0.1,0.1 h 10 c 0.055,0 0.1,-0.045 0.1,-0.1 v -4.9 c 0,-0.1 -0.1,0 0,0 h 9.8 c 0.1,0 0,-0.1 0,0 v 4.9 c 0,0.055 0.045,0.1 0.1,0.1 h 10 c 0.055,0 0.1,-0.045 0.1,-0.1 v -4.9 c 0,-0.1 -0.1,0 0,0 h 14.513 -1.443 c 0.055,0 0.1,-0.045 0.1,-0.1 v -9.9 c 0,-0.1 -0.1,0 0,0 h 4.23 c 0.055,0 0.1,-0.045 0.1,-0.1 v -10 c 0,-0.055 -0.045,-0.1 -0.1,-0.1 h -4.23 c -0.1,0 0,0.1 0,0 v -9.8 c 0,-0.1 -0.1,0 0,0 h 4.23 c 0.055,0 0.1,-0.045 0.1,-0.1 v -10 c 0,-0.055 -0.045,-0.1 -0.1,-0.1 h -4.23 c -0.1,0 0,0.1 0,0 v -9.8 c 0,-0.1 -0.1,0 0,0 h 4.23 c 0.055,0 0.1,-0.045 0.1,-0.1 v -10 c 0,-0.055 -0.045,-0.1 -0.1,-0.1 h -4.23 c -0.1,0 0,0.1 0,0 v -9.9 c 0,-0.055 -0.045,-0.1 -0.1,-0.1 h 1.443 -14.513 c -0.1,0 0,0.1 0,0 v -4.9 c 0,-0.055 -0.045,-0.1 -0.1,-0.1 h -10 c -0.055,0 -0.1,0.045 -0.1,0.1 V 15 c 0,0.1 0.1,0 0,0 h -9.8 c -0.1,0 0,0.1 0,0 v -4.9 c 0,-0.055 -0.045,-0.1 -0.1,-0.1 h -10 c -0.055,0 -0.1,0.045 -0.1,0.1 V 15 c 0,0.1 0.1,0 0,0 h -9.8 c -0.1,0 0,0.1 0,0 v -4.9 c 0,-0.055 -0.045,-0.1 -0.1,-0.1 h -10 c -0.055,0 -0.1,0.045 -0.1,0.1 V 15 c 0,0.1 0.1,0 0,0 h -9.8 c -0.1,0 0,0.1 0,0 v -4.9 c 0,-0.055 -0.045,-0.1 -0.1,-0.1 h -10 c -0.055,0 -0.1,0.045 -0.1,0.1 V 15 c 0,0.1 0.1,0 0,0 h -9.8 c -0.1,0 0,0.1 0,0 v -4.9 c 0,-0.055 -0.045,-0.1 -0.1,-0.1 h -10 c -0.055,0 -0.1,0.045 -0.1,0.1 V 15 c 0,0.1 0.1,0 0,0 h -9.8 c -0.1,0 0,0.1 0,0 v -4.9 c 0,-0.055 -0.045,-0.1 -0.1,-0.1 h -10 c -0.055,0 -0.1,0.045 -0.1,0.1 V 15 c 0,0.1 0.1,0 0,0 h -9.8 c -0.1,0 0,0.1 0,0 v -4.9 c 0,-0.055 -0.045,-0.1 -0.1,-0.1 h -10 c -0.055,0 -0.1,0.045 -0.1,0.1 V 15 c 0,0.1 0.1,0 0,0 h -9.8 c -0.1,0 0,0.1 0,0 v -4.9 c 0,-0.055 -0.045,-0.1 -0.1,-0.1 h -10 c -0.055,0 -0.1,0.045 -0.1,0.1 V 15 c 0,0.1 0.1,0 0,0 h -14.513 1.443 c -0.055,0 -0.1,0.045 -0.1,0.1 V 25 c 0,0.1 0.1,0 0,0 h -4.23 c -0.055,0 -0.1,0.045 -0.1,0.1 v 10 c 0,0.055 0.045,0.1 0.1,0.1 h 4.23 c 0.1,0 0,-0.1 0,0 V 45 c 0,0.1 0.1,0 0,0 h -4.23 c -0.055,0 -0.1,0.045 -0.1,0.1 v 10 c 0,0.055 0.045,0.1 0.1,0.1 h 4.23 c 0.1,0 0,-0.1 0,0 V 65 c 0,0.1 0.1,0 0,0 h -4.23 c -0.055,0 -0.1,0.045 -0.1,0.1 v 10 c 0,0.055 0.045,0.1 0.1,0.1 h 4.23 c 0.1,0 0,-0.1 0,0 v 9.9 c 0,0.055 0.045,0.1 0.1,0.1 h -1.443"
       stroke="#000000"
       stroke-width="0.2"
       id="path42"
       style="stroke:#ff0000" />
  </g>
  <g
     id="p-7"
     style="fill:none;stroke-linecap:round;stroke-linejoin:round;stroke:#ff0000"
     transform="translate(-296.48634,112.5207)">
    <text
       alignment-baseline="hanging"
       font-size="4px"
       style="font-style:normal;font-weight:normal;font-family:sans-serif;fill:#ff0000;stroke:#ff0000"
       text-anchor="middle"
       transform="translate(853.4,48.2)"
       id="text45" />
    <path
       d="M 763.787,85.2 H 778.3 c 0.1,0 0,-0.1 0,0 v 4.9 c 0,0.055 0.045,0.1 0.1,0.1 h 10 c 0.055,0 0.1,-0.045 0.1,-0.1 v -4.9 c 0,-0.1 -0.1,0 0,0 h 9.8 c 0.1,0 0,-0.1 0,0 v 4.9 c 0,0.055 0.045,0.1 0.1,0.1 h 10 c 0.055,0 0.1,-0.045 0.1,-0.1 v -4.9 c 0,-0.1 -0.1,0 0,0 h 9.8 c 0.1,0 0,-0.1 0,0 v 4.9 c 0,0.055 0.045,0.1 0.1,0.1 h 10 c 0.055,0 0.1,-0.045 0.1,-0.1 v -4.9 c 0,-0.1 -0.1,0 0,0 h 9.8 c 0.1,0 0,-0.1 0,0 v 4.9 c 0,0.055 0.045,0.1 0.1,0.1 h 10 c 0.055,0 0.1,-0.045 0.1,-0.1 v -4.9 c 0,-0.1 -0.1,0 0,0 h 9.8 c 0.1,0 0,-0.1 0,0 v 4.9 c 0,0.055 0.045,0.1 0.1,0.1 h 10 c 0.055,0 0.1,-0.045 0.1,-0.1 v -4.9 c 0,-0.1 -0.1,0 0,0 h 9.8 c 0.1,0 0,-0.1 0,0 v 4.9 c 0,0.055 0.045,0.1 0.1,0.1 h 10 c 0.055,0 0.1,-0.045 0.1,-0.1 v -4.9 c 0,-0.1 -0.1,0 0,0 h 9.8 c 0.1,0 0,-0.1 0,0 v 4.9 c 0,0.055 0.045,0.1 0.1,0.1 h 10 c 0.055,0 0.1,-0.045 0.1,-0.1 v -4.9 c 0,-0.1 -0.1,0 0,0 h 9.8 c 0.1,0 0,-0.1 0,0 v 4.9 c 0,0.055 0.045,0.1 0.1,0.1 h 10 c 0.055,0 0.1,-0.045 0.1,-0.1 v -4.9 c 0,-0.1 -0.1,0 0,0 h 14.513 2.887 c 0.055,0 0.1,-0.045 0.1,-0.1 v -9.5 c 0,-0.055 -0.045,-0.1 -0.1,-0.1 h -4.23 c -0.1,0 0,0.1 0,0 V 64.7 c 0,-0.1 -0.1,0 0,0 h 4.23 c 0.055,0 0.1,-0.045 0.1,-0.1 v -9 c 0,-0.055 -0.045,-0.1 -0.1,-0.1 h -4.23 c -0.1,0 0,0.1 0,0 V 44.7 c 0,-0.1 -0.1,0 0,0 h 4.23 c 0.055,0 0.1,-0.045 0.1,-0.1 v -9 c 0,-0.055 -0.045,-0.1 -0.1,-0.1 h -4.23 c -0.1,0 0,0.1 0,0 V 24.7 c 0,-0.1 -0.1,0 0,0 h 4.23 c 0.055,0 0.1,-0.045 0.1,-0.1 V 15.1 C 946,15.045 945.955,15 945.9,15 H 943.013 928.5 c -0.1,0 0,0.1 0,0 v -4.9 c 0,-0.055 -0.045,-0.1 -0.1,-0.1 h -10 c -0.055,0 -0.1,0.045 -0.1,0.1 V 15 c 0,0.1 0.1,0 0,0 h -9.8 c -0.1,0 0,0.1 0,0 v -4.9 c 0,-0.055 -0.045,-0.1 -0.1,-0.1 h -10 c -0.055,0 -0.1,0.045 -0.1,0.1 V 15 c 0,0.1 0.1,0 0,0 h -9.8 c -0.1,0 0,0.1 0,0 v -4.9 c 0,-0.055 -0.045,-0.1 -0.1,-0.1 h -10 c -0.055,0 -0.1,0.045 -0.1,0.1 V 15 c 0,0.1 0.1,0 0,0 h -9.8 c -0.1,0 0,0.1 0,0 v -4.9 c 0,-0.055 -0.045,-0.1 -0.1,-0.1 h -10 c -0.055,0 -0.1,0.045 -0.1,0.1 V 15 c 0,0.1 0.1,0 0,0 h -9.8 c -0.1,0 0,0.1 0,0 v -4.9 c 0,-0.055 -0.045,-0.1 -0.1,-0.1 h -10 c -0.055,0 -0.1,0.045 -0.1,0.1 V 15 c 0,0.1 0.1,0 0,0 h -9.8 c -0.1,0 0,0.1 0,0 v -4.9 c 0,-0.055 -0.045,-0.1 -0.1,-0.1 h -10 c -0.055,0 -0.1,0.045 -0.1,0.1 V 15 c 0,0.1 0.1,0 0,0 h -9.8 c -0.1,0 0,0.1 0,0 v -4.9 c 0,-0.055 -0.045,-0.1 -0.1,-0.1 h -10 c -0.055,0 -0.1,0.045 -0.1,0.1 V 15 c 0,0.1 0.1,0 0,0 h -9.8 c -0.1,0 0,0.1 0,0 v -4.9 c 0,-0.055 -0.045,-0.1 -0.1,-0.1 h -10 c -0.055,0 -0.1,0.045 -0.1,0.1 V 15 c 0,0.1 0.1,0 0,0 H 763.787 760.9 c -0.055,0 -0.1,0.045 -0.1,0.1 v 9.5 c 0,0.055 0.045,0.1 0.1,0.1 h 4.23 c 0.1,0 0,-0.1 0,0 v 10.8 c 0,0.1 0.1,0 0,0 h -4.23 c -0.055,0 -0.1,0.045 -0.1,0.1 v 9 c 0,0.055 0.045,0.1 0.1,0.1 h 4.23 c 0.1,0 0,-0.1 0,0 v 10.8 c 0,0.1 0.1,0 0,0 h -4.23 c -0.055,0 -0.1,0.045 -0.1,0.1 v 9 c 0,0.055 0.045,0.1 0.1,0.1 h 4.23 c 0.1,0 0,-0.1 0,0 v 10.8 c 0,0.1 0.1,0 0,0 h -4.23 c -0.055,0 -0.1,0.045 -0.1,0.1 v 9.5 c 0,0.055 0.045,0.1 0.1,0.1 h 2.887"
       stroke="#000000"
       stroke-width="0.2"
       id="path47"
       style="stroke:#ff0000" />
  </g>
  <g
     id="p-8"
     style="fill:none;stroke-linecap:round;stroke-linejoin:round;stroke:#ff0000"
     transform="translate(-485.63333,193.96938)">
    <text
       alignment-baseline="hanging"
       font-size="4px"
       style="font-style:normal;font-weight:normal;font-family:sans-serif;fill:#ff0000;stroke:#ff0000"
       text-anchor="middle"
       transform="translate(1041.1,48.2)"
       id="text50" />
    <path
       d="M 951.487,85.2 H 966 c 0.1,0 0,-0.1 0,0 v 4.9 c 0,0.055 0.045,0.1 0.1,0.1 h 10 c 0.055,0 0.1,-0.045 0.1,-0.1 v -4.9 c 0,-0.1 -0.1,0 0,0 h 9.8 c 0.1,0 0,-0.1 0,0 v 4.9 c 0,0.055 0.045,0.1 0.1,0.1 h 10 c 0.055,0 0.1,-0.045 0.1,-0.1 v -4.9 c 0,-0.1 -0.1,0 0,0 h 9.8 c 0.1,0 0,-0.1 0,0 v 4.9 c 0,0.055 0.045,0.1 0.1,0.1 h 10 c 0.055,0 0.1,-0.045 0.1,-0.1 v -4.9 c 0,-0.1 -0.1,0 0,0 h 9.8 c 0.1,0 0,-0.1 0,0 v 4.9 c 0,0.055 0.045,0.1 0.1,0.1 h 10 c 0.055,0 0.1,-0.045 0.1,-0.1 v -4.9 c 0,-0.1 -0.1,0 0,0 h 9.8 c 0.1,0 0,-0.1 0,0 v 4.9 c 0,0.055 0.045,0.1 0.1,0.1 h 10 c 0.055,0 0.1,-0.045 0.1,-0.1 v -4.9 c 0,-0.1 -0.1,0 0,0 h 9.8 c 0.1,0 0,-0.1 0,0 v 4.9 c 0,0.055 0.045,0.1 0.1,0.1 h 10 c 0.055,0 0.1,-0.045 0.1,-0.1 v -4.9 c 0,-0.1 -0.1,0 0,0 h 9.8 c 0.1,0 0,-0.1 0,0 v 4.9 c 0,0.055 0.045,0.1 0.1,0.1 h 10 c 0.055,0 0.1,-0.045 0.1,-0.1 v -4.9 c 0,-0.1 -0.1,0 0,0 h 9.8 c 0.1,0 0,-0.1 0,0 v 4.9 c 0,0.055 0.045,0.1 0.1,0.1 h 10 c 0.055,0 0.1,-0.045 0.1,-0.1 v -4.9 c 0,-0.1 -0.1,0 0,0 h 14.513 -1.443 c 0.055,0 0.1,-0.045 0.1,-0.1 v -9.9 c 0,-0.1 -0.1,0 0,0 h 4.23 c 0.055,0 0.1,-0.045 0.1,-0.1 v -10 c 0,-0.055 -0.045,-0.1 -0.1,-0.1 h -4.23 c -0.1,0 0,0.1 0,0 v -9.8 c 0,-0.1 -0.1,0 0,0 h 4.23 c 0.055,0 0.1,-0.045 0.1,-0.1 v -10 c 0,-0.055 -0.045,-0.1 -0.1,-0.1 h -4.23 c -0.1,0 0,0.1 0,0 v -9.8 c 0,-0.1 -0.1,0 0,0 h 4.23 c 0.055,0 0.1,-0.045 0.1,-0.1 v -10 c 0,-0.055 -0.045,-0.1 -0.1,-0.1 h -4.23 c -0.1,0 0,0.1 0,0 v -9.9 c 0,-0.055 -0.045,-0.1 -0.1,-0.1 h 1.443 -14.513 c -0.1,0 0,0.1 0,0 v -4.9 c 0,-0.055 -0.045,-0.1 -0.1,-0.1 h -10 c -0.055,0 -0.1,0.045 -0.1,0.1 V 15 c 0,0.1 0.1,0 0,0 h -9.8 c -0.1,0 0,0.1 0,0 v -4.9 c 0,-0.055 -0.045,-0.1 -0.1,-0.1 h -10 c -0.055,0 -0.1,0.045 -0.1,0.1 V 15 c 0,0.1 0.1,0 0,0 h -9.8 c -0.1,0 0,0.1 0,0 v -4.9 c 0,-0.055 -0.045,-0.1 -0.1,-0.1 h -10 c -0.055,0 -0.1,0.045 -0.1,0.1 V 15 c 0,0.1 0.1,0 0,0 h -9.8 c -0.1,0 0,0.1 0,0 v -4.9 c 0,-0.055 -0.045,-0.1 -0.1,-0.1 h -10 c -0.055,0 -0.1,0.045 -0.1,0.1 V 15 c 0,0.1 0.1,0 0,0 h -9.8 c -0.1,0 0,0.1 0,0 v -4.9 c 0,-0.055 -0.045,-0.1 -0.1,-0.1 h -10 c -0.055,0 -0.1,0.045 -0.1,0.1 V 15 c 0,0.1 0.1,0 0,0 h -9.8 c -0.1,0 0,0.1 0,0 v -4.9 c 0,-0.055 -0.045,-0.1 -0.1,-0.1 h -10 c -0.055,0 -0.1,0.045 -0.1,0.1 V 15 c 0,0.1 0.1,0 0,0 h -9.8 c -0.1,0 0,0.1 0,0 v -4.9 c 0,-0.055 -0.045,-0.1 -0.1,-0.1 h -10 c -0.055,0 -0.1,0.045 -0.1,0.1 V 15 c 0,0.1 0.1,0 0,0 h -9.8 c -0.1,0 0,0.1 0,0 v -4.9 c 0,-0.055 -0.045,-0.1 -0.1,-0.1 h -10 c -0.055,0 -0.1,0.045 -0.1,0.1 V 15 c 0,0.1 0.1,0 0,0 h -14.513 1.443 c -0.055,0 -0.1,0.045 -0.1,0.1 V 25 c 0,0.1 0.1,0 0,0 h -4.23 c -0.055,0 -0.1,0.045 -0.1,0.1 v 10 c 0,0.055 0.045,0.1 0.1,0.1 h 4.23 c 0.1,0 0,-0.1 0,0 V 45 c 0,0.1 0.1,0 0,0 h -4.23 c -0.055,0 -0.1,0.045 -0.1,0.1 v 10 c 0,0.055 0.045,0.1 0.1,0.1 h 4.23 c 0.1,0 0,-0.1 0,0 V 65 c 0,0.1 0.1,0 0,0 h -4.23 c -0.055,0 -0.1,0.045 -0.1,0.1 v 10 c 0,0.055 0.045,0.1 0.1,0.1 h 4.23 c 0.1,0 0,-0.1 0,0 v 9.9 c 0,0.055 0.045,0.1 0.1,0.1 h -1.443"
       stroke="#000000"
       stroke-width="0.2"
       id="path52"
       style="stroke:#ff0000" />
  </g>
  <g
     id="g939"
     transform="translate(-238.36913,-111.37076)"
     style="stroke:#ff0000">
    <circle
       style="fill:#00ff00;fill-rule:evenodd;stroke:#ff0000;stroke-width:0.264583;stroke-linecap:round;stroke-linejoin:round;stroke-miterlimit:4;stroke-dasharray:none"
       id="path277"
       cx="-512.34668"
       cy="-867.62775"
       r="4.8677087"
       transform="rotate(150)" />
    <circle
       style="fill:#00ff00;fill-rule:evenodd;stroke:#ff0000;stroke-width:0.264583;stroke-linecap:round;stroke-linejoin:round;stroke-miterlimit:4;stroke-dasharray:none"
       id="circle806"
       cx="-512.34668"
       cy="-542.62781"
       r="4.8677087"
       transform="rotate(150)" />
    <circle
       style="fill:#00ff00;fill-rule:evenodd;stroke:#ff0000;stroke-width:0.264583;stroke-linecap:round;stroke-linejoin:round;stroke-miterlimit:4;stroke-dasharray:none"
       id="circle468"
       cx="-866.83197"
       cy="-71.35865"
       r="4.8677087"
       transform="rotate(-150)" />
    <circle
       style="fill:#00ff00;fill-rule:evenodd;stroke:#ff0000;stroke-width:0.264583;stroke-linecap:round;stroke-linejoin:round;stroke-miterlimit:4;stroke-dasharray:none"
       id="circle472"
       cx="-866.83197"
       cy="253.64133"
       r="4.8677087"
       transform="rotate(-150)" />
    <circle
       style="fill:#00ff00;fill-rule:evenodd;stroke:#ff0000;stroke-width:0.264583;stroke-linecap:round;stroke-linejoin:round;stroke-miterlimit:4;stroke-dasharray:none"
       id="circle476"
       cx="-354.48523"
       cy="633.76917"
       r="4.8677087"
       transform="rotate(-90)" />
    <circle
       style="fill:#00ff00;fill-rule:evenodd;stroke:#ff0000;stroke-width:0.264583;stroke-linecap:round;stroke-linejoin:round;stroke-miterlimit:4;stroke-dasharray:none"
       id="circle480"
       cx="-354.48523"
       cy="958.7691"
       r="4.8677087"
       transform="rotate(-90)" />
  </g>
  <g
     id="g1510"
     transform="translate(462.59243,-82.050442)"
     style="stroke:#000000;fill:none">
    <path
       d="m 24.280683,432.24626 v -8.96333 h 3.799996 a 2.553693,2.553693 0 0 1 1.141825,0.25863 2.9733139,2.9733139 0 0 1 0.902614,0.68224 3.2273701,3.2273701 0 0 1 0.592036,0.95913 2.8945279,2.8945279 0 0 1 0.214663,1.0796 3.149155,3.149155 0 0 1 -0.770161,2.05528 2.8026109,2.8026109 0 0 1 -0.883773,0.66911 2.5548348,2.5548348 0 0 1 -1.136116,0.25235 h -2.119229 v 3.00471 z m 1.741855,-4.53247 h 2.01989 a 0.99738466,0.99738466 0 0 0 0.799278,-0.39108 q 0.321994,-0.39164 0.321994,-1.06018 a 1.7475641,1.7475641 0 0 0 -0.101051,-0.61259 1.4935079,1.4935079 0 0 0 -0.264904,-0.46073 1.053905,1.053905 0 0 0 -0.385366,-0.28545 1.1224146,1.1224146 0 0 0 -0.447595,-0.0948 h -1.942246 z"
       id="path6"
       style="stroke-width:0.264583;stroke:#000000;fill:none" />
    <path
       d="m 38.406779,430.7185 v 1.52776 h -6.22295 v -8.96333 h 6.108767 v 1.52948 h -4.367483 v 2.15862 h 3.774305 v 1.41358 h -3.774305 v 2.3356 z"
       id="path8-2"
       style="stroke-width:0.264583;stroke:#000000;fill:none" />
    <path
       d="m 41.545657,426.50231 v 5.74395 h -1.742426 v -8.96333 h 1.351351 l 4.670638,5.88041 v -5.86785 h 1.741855 v 8.95077 h -1.413581 z"
       id="path10-3"
       style="stroke-width:0.264583;stroke:#000000;fill:none" />
    <path
       d="m 13.950587,439.10407 v -5.49389 h 3.605885 v 0.47956 h -3.06466 v 2.01989 h 2.584523 v 0.44874 h -2.584523 v 2.5457 z"
       id="path12-7"
       style="stroke-width:0.264583;stroke:#000000;fill:none" />
    <path
       d="m 19.60662,433.61018 h 0.45673 l 2.283652,5.49389 h -0.570913 l -0.711928,-1.71788 H 18.59325 l -0.703936,1.71788 h -0.580618 z m 1.331369,3.35011 -1.106429,-2.71583 -1.122415,2.71583 z"
       id="path14-8"
       style="stroke-width:0.264583;stroke:#000000;fill:none" />
    <path
       d="m 22.570799,436.31801 a 2.9276408,2.9276408 0 0 1 0.174129,-0.98653 2.7323887,2.7323887 0 0 1 0.50697,-0.87807 2.599366,2.599366 0 0 1 0.819831,-0.63086 2.4446486,2.4446486 0 0 1 1.107571,-0.24377 q 0.735336,0 1.256008,0.33284 a 2.0307368,2.0307368 0 0 1 0.770162,0.86664 l -0.427614,0.26319 a 1.6385197,1.6385197 0 0 0 -0.320853,-0.45673 1.7983753,1.7983753 0 0 0 -0.40649,-0.30144 1.7127384,1.7127384 0 0 0 -0.448738,-0.1667 2.1808869,2.1808869 0 0 0 -0.45673,-0.0503 1.8354847,1.8354847 0 0 0 -0.874067,0.20154 2.0181767,2.0181767 0 0 0 -0.638852,0.52581 2.3024913,2.3024913 0 0 0 -0.390504,0.73134 2.6570282,2.6570282 0 0 0 -0.131881,0.82439 2.4446486,2.4446486 0 0 0 0.158714,0.87407 2.488038,2.488038 0 0 0 0.433323,0.74219 2.0775517,2.0775517 0 0 0 0.650269,0.5104 1.7801061,1.7801061 0 0 0 0.816406,0.18954 2.0695589,2.0695589 0 0 0 0.47557,-0.0571 1.8354847,1.8354847 0 0 0 0.472145,-0.18612 1.9862056,1.9862056 0 0 0 0.421904,-0.31686 1.6442289,1.6442289 0 0 0 0.32485,-0.46072 l 0.448737,0.23236 a 1.6722036,1.6722036 0 0 1 -0.371093,0.54522 2.4372267,2.4372267 0 0 1 -0.533803,0.39964 2.6558863,2.6558863 0 0 1 -0.623437,0.24777 2.5805259,2.5805259 0 0 1 -0.645703,0.0851 2.1945888,2.1945888 0 0 1 -1.037348,-0.24778 2.723825,2.723825 0 0 1 -0.812409,-0.6457 3.0041432,3.0041432 0 0 1 -0.529807,-0.90547 2.9196481,2.9196481 0 0 1 -0.18726,-1.03792 z"
       id="path16"
       style="stroke-width:0.264583;stroke:#000000;fill:none" />
    <path
       d="m 32.087345,434.08974 h -1.956518 v 5.01433 H 29.58903 v -5.01433 h -1.954805 v -0.47956 h 4.45312 z"
       id="path18-9"
       style="stroke-width:0.264583;stroke:#000000;fill:none" />
    <path
       d="m 34.866548,439.14232 a 2.3253278,2.3253278 0 0 1 -1.048766,-0.23636 2.6033624,2.6033624 0 0 1 -0.816406,-0.628 2.854564,2.854564 0 0 1 -0.52581,-0.89348 2.9470519,2.9470519 0 0 1 -0.186118,-1.02764 2.8602731,2.8602731 0 0 1 0.197536,-1.0522 2.8973825,2.8973825 0 0 1 0.545792,-0.89005 2.6341917,2.6341917 0 0 1 0.819831,-0.61487 2.3121968,2.3121968 0 0 1 1.021363,-0.22837 2.2642402,2.2642402 0 0 1 1.048767,0.24378 2.6261989,2.6261989 0 0 1 0.812409,0.63828 2.959041,2.959041 0 0 1 0.522385,0.89348 2.8979534,2.8979534 0 0 1 0.185547,1.01794 2.8579895,2.8579895 0 0 1 -0.196965,1.05219 2.8928152,2.8928152 0 0 1 -0.541796,0.88606 2.6261989,2.6261989 0 0 1 -0.816406,0.61088 2.3196187,2.3196187 0 0 1 -1.021363,0.22836 z m -2.037016,-2.78548 a 2.553122,2.553122 0 0 0 0.147295,0.86265 2.3293242,2.3293242 0 0 0 0.417908,0.73533 2.0552861,2.0552861 0 0 0 0.642277,0.51097 1.7955208,1.7955208 0 0 0 0.827824,0.18954 1.7698297,1.7698297 0 0 0 0.843238,-0.20153 2.0552861,2.0552861 0 0 0 0.642277,-0.52581 2.4492159,2.4492159 0 0 0 0.40649,-0.73534 2.5222928,2.5222928 0 0 0 -0.008,-1.69846 2.3652917,2.3652917 0 0 0 -0.421334,-0.73134 2.0992464,2.0992464 0 0 0 -0.642277,-0.50697 1.8840122,1.8840122 0 0 0 -1.66364,0.008 1.9981948,1.9981948 0 0 0 -0.642276,0.52239 2.4212412,2.4212412 0 0 0 -0.40649,0.73476 2.5222928,2.5222928 0 0 0 -0.143299,0.83582 z"
       id="path20"
       style="stroke-width:0.264583;stroke:#000000;fill:none" />
    <path
       d="m 38.464441,439.10407 v -5.49389 h 2.321331 a 1.427282,1.427282 0 0 1 0.654266,0.15072 1.7321494,1.7321494 0 0 1 0.513822,0.3945 1.826921,1.826921 0 0 1 0.336838,0.55321 1.7252985,1.7252985 0 0 1 0.119892,0.62801 1.8571793,1.8571793 0 0 1 -0.08906,0.57662 1.7801061,1.7801061 0 0 1 -0.247776,0.49498 1.4912242,1.4912242 0 0 1 -0.383083,0.37166 1.3547761,1.3547761 0 0 1 -0.502974,0.20496 l 1.347354,2.11923 h -0.611447 l -1.292547,-2.02731 h -1.624818 v 2.02731 z m 0.541796,-2.50745 h 1.795521 a 0.91916961,0.91916961 0 0 0 0.436748,-0.10448 1.0402031,1.0402031 0 0 0 0.336839,-0.28203 1.3661943,1.3661943 0 0 0 0.216376,-0.40249 1.427282,1.427282 0 0 0 0.07764,-0.47215 1.3376487,1.3376487 0 0 0 -0.328846,-0.87463 1.1446802,1.1446802 0 0 0 -0.35625,-0.27119 0.96541354,0.96541354 0 0 0 -0.429326,-0.10048 h -1.748706 z"
       id="path22-0"
       style="stroke-width:0.264583;stroke:#000000;fill:none" />
    <path
       d="m 43.370295,433.61018 1.79552,2.95561 1.810936,-2.95561 h 0.58804 l -2.128363,3.45116 v 2.04273 h -0.541225 v -2.05871 l -2.120371,-3.43518 z"
       id="path24"
       style="stroke-width:0.264583;stroke:#000000;fill:none" />
    <polygon
       points="313.82,320.59 313.82,304.06 380.15,270.78 368.35,247.25 306.24,278.42 283.31,289.92 283.31,403.68 283.31,434.2 318.55,434.2 378.5,434.2 378.5,403.68 318.55,403.68 313.82,403.68 "
       id="polygon26"
       style="stroke-width:4.63439;stroke:#000000;fill:none"
       transform="matrix(0.05709128,0,0,0.05709128,-2.2245144,407.45666)" />
    <polygon
       points="409.86,403.68 387.46,403.68 387.46,434.2 411.76,434.2 440.37,434.2 440.37,403.68 440.37,381.54 409.86,381.54 "
       id="polygon28"
       style="stroke-width:4.63439;stroke:#000000;fill:none"
       transform="matrix(0.05709128,0,0,0.05709128,-2.2245144,407.45666)" />
    <polygon
       points="387.46,277.21 387.46,303.97 403.52,303.97 409.86,303.97 409.86,372.58 440.37,372.58 440.37,303.97 440.37,277.41 440.37,277.21 393.38,277.21 "
       id="polygon30"
       style="stroke-width:4.63439;stroke:#000000;fill:none"
       transform="matrix(0.05709128,0,0,0.05709128,-2.2245144,407.45666)" />
    <rect
       x="49.644058"
       y="423.29379"
       width="0.21523413"
       height="15.809718"
       id="rect32"
       style="stroke-width:0.264583;stroke:#000000;fill:none" />
    <path
       class="cls-1"
       d="m 52.500332,424.95742 c 0.149579,0 0.269471,-0.0896 0.269471,-0.23807 v -1.13041 a 0.26947084,0.26947084 0 1 0 -0.538371,0 v 1.13041 c 0,0.14844 0.119892,0.23807 0.2689,0.23807"
       id="path34"
       style="stroke-width:0.264583;stroke:#000000;fill:none" />
    <path
       class="cls-1"
       d="m 53.579928,423.3189 a 0.26947084,0.26947084 0 0 0 -0.2689,0.27004 v 1.264 c 0,0 0.01028,0.2592 -0.171274,0.41392 -0.247205,0.22094 -0.640564,0.21066 -0.640564,0.21066 0,0 -0.392217,0.0103 -0.639993,-0.21066 -0.180408,-0.15472 -0.171274,-0.41392 -0.171274,-0.41392 v -1.264 a 0.27004175,0.27004175 0 0 0 -0.540083,0 v 1.44213 c 0,0.27347 0.194681,0.63257 0.518388,0.79071 a 1.8708812,1.8708812 0 0 0 1.661928,0 c 0.322565,-0.15814 0.513821,-0.51724 0.513821,-0.79071 v -1.44213 a 0.26889993,0.26889993 0 0 0 -0.269471,-0.27004"
       id="path36"
       style="stroke-width:0.264583;stroke:#000000;fill:none" />
    <path
       class="cls-1"
       d="m 53.900781,428.3829 a 0.71706648,0.71706648 0 0 0 -0.387079,-0.64342 0.71421191,0.71421191 0 0 0 0.274609,-0.56007 c -0.03425,-0.70907 -0.706219,-0.7496 -0.706219,-0.7496 h -1.712738 a 0.26832902,0.26832902 0 0 0 0,0.53608 h 1.598556 a 0.27232541,0.27232541 0 1 1 0,0.54408 h -0.603455 a 0.26947084,0.26947084 0 0 0 0,0.53837 h 0.732481 a 0.26719,0.26719 0 0 1 0,0.53438 h -0.735907 a 0.26947084,0.26947084 0 0 0 0,0.53894 h 0.765023 c 0.420192,0 0.774729,-0.29459 0.774729,-0.73876"
       id="path38"
       style="stroke-width:0.264583;stroke:#000000;fill:none" />
    <path
       class="cls-1"
       d="m 51.638825,428.85276 v -1.0756 a 0.26947084,0.26947084 0 1 0 -0.538371,0 v 1.0756 a 0.26947084,0.26947084 0 0 0 0.538371,0"
       id="path40"
       style="stroke-width:0.264583;stroke:#000000;fill:none" />
    <path
       class="cls-1"
       d="m 53.329868,429.73025 a 1.8583212,1.8583212 0 0 0 -1.658501,0 c -0.321995,0.157 -0.513822,0.51382 -0.513822,0.789 v 0.73306 c 0,0.27346 0.194681,0.63143 0.513822,0.78843 a 1.8634594,1.8634594 0 0 0 1.658501,0 c 0.322566,-0.157 0.517247,-0.51383 0.517247,-0.78843 v -0.73077 c 0,-0.2729 -0.194681,-0.632 -0.517247,-0.789 m -0.189543,1.75669 c -0.246063,0.22095 -0.639993,0.21124 -0.639993,0.21124 0,0 -0.391646,0.01 -0.639422,-0.21124 -0.179267,-0.15357 -0.167849,-0.41277 -0.167849,-0.41277 v -0.37623 c 0,0 -0.01142,-0.2609 0.167849,-0.41391 0.247776,-0.22094 0.639422,-0.21067 0.639422,-0.21067 0,0 0.39393,-0.0103 0.639993,0.21067 0.179838,0.15301 0.171274,0.41391 0.171274,0.41391 v 0.37623 c 0,0 0.01142,0.2592 -0.171274,0.41277 m -0.421904,-0.81412 a 0.32941669,0.32941669 0 0 0 -0.420763,0 0.21694686,0.21694686 0 0 0 -0.05709,0.15072 v 0.13474 a 0.21466321,0.21466321 0 0 0 0.05709,0.14958 0.33341308,0.33341308 0 0 0 0.420763,0 0.21808869,0.21808869 0 0 0 0.05709,-0.14958 v -0.13474 a 0.22037234,0.22037234 0 0 0 -0.05709,-0.15072"
       id="path42-2"
       style="stroke-width:0.264583;stroke:#000000;fill:none" />
  </g>
</svg>
