<?xml version="1.0" encoding="UTF-8" standalone="no"?>
<svg
   height="321.0936mm"
   viewBox="0 0 743.56413 321.0936"
   width="743.56415mm"
   version="1.1"
   id="svg60"
   sodipodi:docname="Boite_PartieElectronique-5mm.svg"
   inkscape:version="1.1.2 (0a00cf5339, 2022-02-04, custom)"
   xmlns:inkscape="http://www.inkscape.org/namespaces/inkscape"
   xmlns:sodipodi="http://sodipodi.sourceforge.net/DTD/sodipodi-0.dtd"
   xmlns="http://www.w3.org/2000/svg"
   xmlns:svg="http://www.w3.org/2000/svg"
   xmlns:rdf="http://www.w3.org/1999/02/22-rdf-syntax-ns#"
   xmlns:cc="http://creativecommons.org/ns#"
   xmlns:dc="http://purl.org/dc/elements/1.1/">
  <defs
     id="defs64" />
  <sodipodi:namedview
     id="namedview62"
     pagecolor="#ffffff"
     bordercolor="#cccccc"
     borderopacity="1"
     inkscape:pageshadow="0"
     inkscape:pageopacity="1"
     inkscape:pagecheckerboard="0"
     inkscape:document-units="mm"
     showgrid="false"
     inkscape:zoom="1.478538"
     inkscape:cx="2168.02"
     inkscape:cy="568.80513"
     inkscape:window-width="2560"
     inkscape:window-height="1387"
     inkscape:window-x="-8"
     inkscape:window-y="-8"
     inkscape:window-maximized="1"
     inkscape:current-layer="svg60" />
  <!--
RegularBox - Box with regular polygon as base


For short side walls that don't fit a connecting finger reduce *surroundingspaces* and *finger* in the Finger Joint Settings.

The lids needs to be glued. For the bayonet lid all outside rings attach to the bottom, all inside rings to the top.



Created with Boxes.py (https://festi.info/boxes.py)
Creation date: 2022-02-22 16:12:41
Command line (remove spaces between dashes): boxes RegularBox - -FingerJoint_angle=90.0 - -FingerJoint_style=rectangular - -FingerJoint_surroundingspaces=1 - -FingerJoint_edge_width=1.0 - -FingerJoint_extra_length=0.0 - -FingerJoint_finger=2.0 - -FingerJoint_play=0.0 - -FingerJoint_space=2.0 - -FingerJoint_width=1.0 - -h=40 - -outside=0 - -outside=1 - -radius=185 - -n=6 '- -top=round lid' - -alignment_pins=1.0 - -thickness=5 - -format=svg - -tabs=0.0 - -debug=0 - -labels=0 - -labels=1 - -reference=100 - -burn=0.2
Url: http://www.festi.info/RegularBox?FingerJoint_angle=90.0&FingerJoint_style=rectangular&FingerJoint_surroundingspaces=1&FingerJoint_edge_width=1.0&FingerJoint_extra_length=0.0&FingerJoint_finger=2.0&FingerJoint_play=0.0&FingerJoint_space=2.0&FingerJoint_width=1.0&h=40&outside=0&outside=1&radius=185&n=6&top=round+lid&alignment_pins=1.0&thickness=5&format=svg&tabs=0.0&debug=0&labels=0&labels=1&reference=100&burn=0.2&render=1
SettingsUrl: http://www.festi.info/RegularBox?FingerJoint_angle=90.0&FingerJoint_style=rectangular&FingerJoint_surroundingspaces=1&FingerJoint_edge_width=1.0&FingerJoint_extra_length=0.0&FingerJoint_finger=2.0&FingerJoint_play=0.0&FingerJoint_space=2.0&FingerJoint_width=1.0&h=40&outside=0&outside=1&radius=185&n=6&top=round+lid&alignment_pins=1.0&thickness=5&format=svg&tabs=0.0&debug=0&labels=0&labels=1&reference=100&burn=0.2
-->
  <title
     id="title2">RegularBox</title>
  <metadata
     id="metadata4">
    <rdf:RDF>
      <cc:Work>
        <dc:title>Box - RegularBox</dc:title>
        <dc:date>2022-02-22 16:12:41</dc:date>
        <dc:source>http://www.festi.info/RegularBox?FingerJoint_angle=90.0&amp;FingerJoint_style=rectangular&amp;FingerJoint_surroundingspaces=1&amp;FingerJoint_edge_width=1.0&amp;FingerJoint_extra_length=0.0&amp;FingerJoint_finger=2.0&amp;FingerJoint_play=0.0&amp;FingerJoint_space=2.0&amp;FingerJoint_width=1.0&amp;h=40&amp;outside=0&amp;outside=1&amp;radius=185&amp;n=6&amp;top=round+lid&amp;alignment_pins=1.0&amp;thickness=5&amp;format=svg&amp;tabs=0.0&amp;debug=0&amp;labels=0&amp;labels=1&amp;reference=100&amp;burn=0.2&amp;render=1</dc:source>
        <dc:description>Box with regular polygon as base

For short side walls that don't fit a connecting finger reduce *surroundingspaces* and *finger* in the Finger Joint Settings.

The lids needs to be glued. For the bayonet lid all outside rings attach to the bottom, all inside rings to the top.


Created with Boxes.py (https://festi.info/boxes.py)
Command line: boxes RegularBox --FingerJoint_angle=90.0 --FingerJoint_style=rectangular --FingerJoint_surroundingspaces=1 --FingerJoint_edge_width=1.0 --FingerJoint_extra_length=0.0 --FingerJoint_finger=2.0 --FingerJoint_play=0.0 --FingerJoint_space=2.0 --FingerJoint_width=1.0 --h=40 --outside=0 --outside=1 --radius=185 --n=6 '--top=round lid' --alignment_pins=1.0 --thickness=5 --format=svg --tabs=0.0 --debug=0 --labels=0 --labels=1 --reference=100 --burn=0.2
Url: http://www.festi.info/RegularBox?FingerJoint_angle=90.0&amp;FingerJoint_style=rectangular&amp;FingerJoint_surroundingspaces=1&amp;FingerJoint_edge_width=1.0&amp;FingerJoint_extra_length=0.0&amp;FingerJoint_finger=2.0&amp;FingerJoint_play=0.0&amp;FingerJoint_space=2.0&amp;FingerJoint_width=1.0&amp;h=40&amp;outside=0&amp;outside=1&amp;radius=185&amp;n=6&amp;top=round+lid&amp;alignment_pins=1.0&amp;thickness=5&amp;format=svg&amp;tabs=0.0&amp;debug=0&amp;labels=0&amp;labels=1&amp;reference=100&amp;burn=0.2&amp;render=1
SettingsUrl: http://www.festi.info/RegularBox?FingerJoint_angle=90.0&amp;FingerJoint_style=rectangular&amp;FingerJoint_surroundingspaces=1&amp;FingerJoint_edge_width=1.0&amp;FingerJoint_extra_length=0.0&amp;FingerJoint_finger=2.0&amp;FingerJoint_play=0.0&amp;FingerJoint_space=2.0&amp;FingerJoint_width=1.0&amp;h=40&amp;outside=0&amp;outside=1&amp;radius=185&amp;n=6&amp;top=round+lid&amp;alignment_pins=1.0&amp;thickness=5&amp;format=svg&amp;tabs=0.0&amp;debug=0&amp;labels=0&amp;labels=1&amp;reference=100&amp;burn=0.2
</dc:description>
      </cc:Work>
    </rdf:RDF>
  </metadata>
  <g
     id="p-1"
     style="fill:none;stroke:#ff0000;stroke-width:0.264583;stroke-linecap:round;stroke-linejoin:round;stroke-miterlimit:4;stroke-dasharray:none"
     transform="translate(-9.8679159,-47.767708)">
    <text
       alignment-baseline="hanging"
       font-size="4px"
       style="font-style:normal;font-weight:normal;font-family:sans-serif;fill:#ff0000;stroke:#ff0000;stroke-width:0.264583;stroke-miterlimit:4;stroke-dasharray:none"
       text-anchor="middle"
       transform="translate(195.2,206.515)"
       id="text13" />
    <path
       d="M 105.587,368.729 H 120.2 c 0.11,0 0.2,-0.089 0.2,-0.2 v -4.8 c 0,-0.2 -0.2,0 0,0 h 9.6 c 0.2,0 0,-0.2 0,0 v 4.8 c 0,0.111 0.09,0.2 0.2,0.2 h 10 c 0.11,0 0.2,-0.089 0.2,-0.2 v -4.8 c 0,-0.2 -0.2,0 0,0 h 9.6 c 0.2,0 0,-0.2 0,0 v 4.8 c 0,0.111 0.09,0.2 0.2,0.2 h 10 c 0.11,0 0.2,-0.089 0.2,-0.2 v -4.8 c 0,-0.2 -0.2,0 0,0 h 9.6 c 0.2,0 0,-0.2 0,0 v 4.8 c 0,0.111 0.09,0.2 0.2,0.2 h 10 c 0.11,0 0.2,-0.089 0.2,-0.2 v -4.8 c 0,-0.2 -0.2,0 0,0 h 9.6 c 0.2,0 0,-0.2 0,0 v 4.8 c 0,0.111 0.09,0.2 0.2,0.2 h 10 c 0.11,0 0.2,-0.089 0.2,-0.2 v -4.8 c 0,-0.2 -0.2,0 0,0 h 9.6 c 0.2,0 0,-0.2 0,0 v 4.8 c 0,0.111 0.09,0.2 0.2,0.2 h 10 c 0.11,0 0.2,-0.089 0.2,-0.2 v -4.8 c 0,-0.2 -0.2,0 0,0 h 9.6 c 0.2,0 0,-0.2 0,0 v 4.8 c 0,0.111 0.09,0.2 0.2,0.2 h 10 c 0.11,0 0.2,-0.089 0.2,-0.2 v -4.8 c 0,-0.2 -0.2,0 0,0 h 9.6 c 0.2,0 0,-0.2 0,0 v 4.8 c 0,0.111 0.09,0.2 0.2,0.2 h 10 c 0.11,0 0.2,-0.089 0.2,-0.2 v -4.8 c 0,-0.2 -0.2,0 0,0 h 9.6 c 0.2,0 0,-0.2 0,0 v 4.8 c 0,0.111 0.09,0.2 0.2,0.2 h 14.613 2.887 c 0.071,0 0.137,-0.038 0.173,-0.1 l 1.444,-2.5 7.306,-12.655 c 0.055,-0.096 0.023,-0.218 -0.073,-0.273 l -4.157,-2.4 c -0.173,-0.1 -0.1,0.173 0,0 l 4.8,-8.314 c 0.1,-0.173 -0.173,-0.1 0,0 l 4.157,2.4 c 0.096,0.055 0.218,0.022 0.273,-0.073 l 5,-8.661 c 0.055,-0.095 0.023,-0.218 -0.073,-0.273 l -4.157,-2.4 c -0.173,-0.1 -0.1,0.173 0,0 l 4.8,-8.314 c 0.1,-0.173 -0.173,-0.1 0,0 l 4.157,2.4 c 0.096,0.056 0.218,0.023 0.273,-0.073 l 5,-8.66 c 0.055,-0.096 0.023,-0.218 -0.073,-0.273 l -4.157,-2.4 c -0.173,-0.1 -0.1,0.173 0,0 l 4.8,-8.314 c 0.1,-0.173 -0.173,-0.1 0,0 l 4.157,2.4 c 0.096,0.055 0.218,0.022 0.273,-0.073 l 5,-8.661 c 0.055,-0.095 0.023,-0.218 -0.073,-0.273 l -4.157,-2.4 c -0.173,-0.1 -0.1,0.173 0,0 l 4.8,-8.314 c 0.1,-0.173 -0.173,-0.1 0,0 l 4.157,2.4 c 0.096,0.056 0.218,0.023 0.273,-0.073 l 5,-8.66 c 0.055,-0.096 0.023,-0.218 -0.073,-0.273 l -4.157,-2.4 c -0.173,-0.1 -0.1,0.173 0,0 l 4.8,-8.314 c 0.1,-0.173 -0.173,-0.1 0,0 l 4.157,2.4 c 0.096,0.055 0.218,0.022 0.273,-0.073 l 5,-8.661 c 0.055,-0.095 0.023,-0.218 -0.073,-0.273 l -4.157,-2.4 c -0.173,-0.1 -0.1,0.173 0,0 l 4.8,-8.314 c 0.1,-0.173 -0.173,-0.1 0,0 l 4.157,2.4 c 0.096,0.056 0.218,0.023 0.273,-0.073 l 5,-8.66 c 0.055,-0.096 0.023,-0.218 -0.073,-0.273 l -4.157,-2.4 c -0.173,-0.1 -0.1,0.173 0,0 l 4.8,-8.314 c 0.1,-0.173 -0.173,-0.1 0,0 l 4.157,2.4 c 0.096,0.055 0.218,0.022 0.273,-0.073 l 5,-8.661 c 0.055,-0.095 0.023,-0.218 -0.073,-0.273 l -4.157,-2.4 c -0.173,-0.1 -0.1,0.173 0,0 l 4.8,-8.314 c 0.1,-0.173 -0.173,-0.1 0,0 l 4.157,2.4 c 0.096,0.056 0.218,0.023 0.273,-0.073 l 7.307,-12.655 1.443,-2.5 c 0.036,-0.062 0.036,-0.138 0,-0.2 l -1.443,-2.5 -7.307,-12.656 c -0.055,-0.095 -0.177,-0.128 -0.273,-0.073 l -4.157,2.4 c -0.173,0.1 0.1,0.173 0,0 l -4.8,-8.314 c -0.1,-0.173 -0.173,0.1 0,0 l 4.157,-2.4 c 0.096,-0.055 0.128,-0.177 0.073,-0.273 l -5,-8.66 c -0.055,-0.096 -0.177,-0.129 -0.273,-0.073 l -4.157,2.4 c -0.173,0.1 0.1,0.173 0,0 l -4.8,-8.314 c -0.1,-0.174 -0.173,0.1 0,0 l 4.157,-2.4 c 0.096,-0.056 0.128,-0.178 0.073,-0.274 l -5,-8.66 c -0.055,-0.095 -0.177,-0.128 -0.273,-0.073 l -4.157,2.4 c -0.173,0.1 0.1,0.173 0,0 l -4.8,-8.314 c -0.1,-0.173 -0.173,0.1 0,0 l 4.157,-2.4 c 0.096,-0.055 0.128,-0.177 0.073,-0.273 l -5,-8.66 c -0.055,-0.096 -0.177,-0.129 -0.273,-0.073 l -4.157,2.4 c -0.173,0.1 0.1,0.173 0,0 l -4.8,-8.314 c -0.1,-0.174 -0.173,0.1 0,0 l 4.157,-2.4 c 0.096,-0.056 0.128,-0.178 0.073,-0.274 l -5,-8.66 c -0.055,-0.095 -0.177,-0.128 -0.273,-0.073 l -4.157,2.4 c -0.173,0.1 0.1,0.173 0,0 l -4.8,-8.314 c -0.1,-0.173 -0.173,0.1 0,0 l 4.157,-2.4 c 0.096,-0.055 0.128,-0.177 0.073,-0.273 l -5,-8.66 c -0.055,-0.096 -0.177,-0.129 -0.273,-0.073 l -4.157,2.4 c -0.173,0.1 0.1,0.173 0,0 l -4.8,-8.314 c -0.1,-0.174 -0.173,0.1 0,0 l 4.157,-2.4 c 0.096,-0.056 0.128,-0.178 0.073,-0.274 l -5,-8.66 c -0.055,-0.095 -0.177,-0.128 -0.273,-0.073 l -4.157,2.4 c -0.173,0.1 0.1,0.173 0,0 l -4.8,-8.314 c -0.1,-0.173 -0.173,0.1 0,0 l 4.157,-2.4 c 0.096,-0.055 0.128,-0.177 0.073,-0.273 l -5,-8.66 c -0.055,-0.096 -0.177,-0.129 -0.273,-0.074 l -4.157,2.4 c -0.173,0.1 0.1,0.174 0,0 l -4.8,-8.313 c -0.1,-0.174 -0.173,0.1 0,0 l 4.157,-2.4 c 0.096,-0.056 0.128,-0.178 0.073,-0.274 L 289.317,50.5 287.873,48 c -0.036,-0.062 -0.102,-0.1 -0.173,-0.1 H 284.813 270.2 c -0.11,0 -0.2,0.09 -0.2,0.2 v 4.8 c 0,0.2 0.2,0 0,0 h -9.6 c -0.2,0 0,0.2 0,0 v -4.8 c 0,-0.11 -0.09,-0.2 -0.2,-0.2 h -10 c -0.11,0 -0.2,0.09 -0.2,0.2 v 4.8 c 0,0.2 0.2,0 0,0 h -9.6 c -0.2,0 0,0.2 0,0 v -4.8 c 0,-0.11 -0.09,-0.2 -0.2,-0.2 h -10 c -0.11,0 -0.2,0.09 -0.2,0.2 v 4.8 c 0,0.2 0.2,0 0,0 h -9.6 c -0.2,0 0,0.2 0,0 v -4.8 c 0,-0.11 -0.09,-0.2 -0.2,-0.2 h -10 c -0.11,0 -0.2,0.09 -0.2,0.2 v 4.8 c 0,0.2 0.2,0 0,0 h -9.6 c -0.2,0 0,0.2 0,0 v -4.8 c 0,-0.11 -0.09,-0.2 -0.2,-0.2 h -10 c -0.11,0 -0.2,0.09 -0.2,0.2 v 4.8 c 0,0.2 0.2,0 0,0 h -9.6 c -0.2,0 0,0.2 0,0 v -4.8 c 0,-0.11 -0.09,-0.2 -0.2,-0.2 h -10 c -0.11,0 -0.2,0.09 -0.2,0.2 v 4.8 c 0,0.2 0.2,0 0,0 h -9.6 c -0.2,0 0,0.2 0,0 v -4.8 c 0,-0.11 -0.09,-0.2 -0.2,-0.2 h -10 c -0.11,0 -0.2,0.09 -0.2,0.2 v 4.8 c 0,0.2 0.2,0 0,0 h -9.6 c -0.2,0 0,0.2 0,0 v -4.8 c 0,-0.11 -0.09,-0.2 -0.2,-0.2 h -10 c -0.11,0 -0.2,0.09 -0.2,0.2 v 4.8 c 0,0.2 0.2,0 0,0 h -9.6 c -0.2,0 0,0.2 0,0 v -4.8 c 0,-0.11 -0.09,-0.2 -0.2,-0.2 H 105.587 102.7 c -0.071,0 -0.137,0.038 -0.173,0.1 l -1.444,2.5 -7.306,12.655 c -0.055,0.096 -0.023,0.218 0.073,0.274 l 4.157,2.4 c 0.173,0.1 0.1,-0.174 0,0 l -4.8,8.313 c -0.1,0.174 0.173,0.1 0,0 l -4.157,-2.4 c -0.096,-0.055 -0.218,-0.022 -0.273,0.074 l -5,8.66 c -0.055,0.096 -0.023,0.218 0.073,0.273 l 4.157,2.4 c 0.173,0.1 0.1,-0.173 0,0 l -4.8,8.314 c -0.1,0.173 0.173,0.1 0,0 l -4.157,-2.4 c -0.096,-0.055 -0.218,-0.022 -0.273,0.073 l -5,8.66 c -0.055,0.096 -0.023,0.218 0.073,0.274 l 4.157,2.4 c 0.173,0.1 0.1,-0.174 0,0 l -4.8,8.314 c -0.1,0.173 0.173,0.1 0,0 l -4.157,-2.4 c -0.096,-0.056 -0.218,-0.023 -0.273,0.073 l -5,8.66 c -0.055,0.096 -0.023,0.218 0.073,0.273 l 4.157,2.4 c 0.173,0.1 0.1,-0.173 0,0 l -4.8,8.314 c -0.1,0.173 0.173,0.1 0,0 l -4.157,-2.4 c -0.096,-0.055 -0.218,-0.022 -0.273,0.073 l -5,8.66 c -0.055,0.096 -0.023,0.218 0.073,0.274 l 4.157,2.4 c 0.173,0.1 0.1,-0.174 0,0 l -4.8,8.314 c -0.1,0.173 0.173,0.1 0,0 l -4.157,-2.4 c -0.096,-0.056 -0.218,-0.023 -0.273,0.073 l -5,8.66 c -0.055,0.096 -0.023,0.218 0.073,0.273 l 4.157,2.4 c 0.173,0.1 0.1,-0.173 0,0 l -4.8,8.314 c -0.1,0.173 0.173,0.1 0,0 l -4.157,-2.4 c -0.096,-0.055 -0.218,-0.022 -0.273,0.073 l -5,8.66 c -0.055,0.096 -0.023,0.218 0.073,0.274 l 4.157,2.4 c 0.173,0.1 0.1,-0.174 0,0 l -4.8,8.314 c -0.1,0.173 0.173,0.1 0,0 l -4.157,-2.4 c -0.096,-0.056 -0.218,-0.023 -0.273,0.073 l -5,8.66 c -0.055,0.096 -0.023,0.218 0.073,0.273 l 4.157,2.4 c 0.173,0.1 0.1,-0.173 0,0 l -4.8,8.314 c -0.1,0.173 0.173,0.1 0,0 l -4.157,-2.4 c -0.096,-0.055 -0.218,-0.022 -0.273,0.073 l -7.307,12.656 -1.443,2.5 c -0.036,0.062 -0.036,0.138 0,0.2 l 1.443,2.5 7.307,12.655 c 0.055,0.096 0.177,0.129 0.273,0.073 l 4.157,-2.4 c 0.173,-0.1 -0.1,-0.173 0,0 l 4.8,8.314 c 0.1,0.173 0.173,-0.1 0,0 l -4.157,2.4 c -0.096,0.055 -0.128,0.178 -0.073,0.273 l 5,8.661 c 0.055,0.095 0.177,0.128 0.273,0.073 l 4.157,-2.4 c 0.173,-0.1 -0.1,-0.173 0,0 l 4.8,8.314 c 0.1,0.173 0.173,-0.1 0,0 l -4.157,2.4 c -0.096,0.055 -0.128,0.177 -0.073,0.273 l 5,8.66 c 0.055,0.096 0.177,0.129 0.273,0.073 l 4.157,-2.4 c 0.173,-0.1 -0.1,-0.173 0,0 l 4.8,8.314 c 0.1,0.173 0.173,-0.1 0,0 l -4.157,2.4 c -0.096,0.055 -0.128,0.178 -0.073,0.273 l 5,8.661 c 0.055,0.095 0.177,0.128 0.273,0.073 l 4.157,-2.4 c 0.173,-0.1 -0.1,-0.173 0,0 l 4.8,8.314 c 0.1,0.173 0.173,-0.1 0,0 l -4.157,2.4 c -0.096,0.055 -0.128,0.177 -0.073,0.273 l 5,8.66 c 0.055,0.096 0.177,0.129 0.273,0.073 l 4.157,-2.4 c 0.173,-0.1 -0.1,-0.173 0,0 l 4.8,8.314 c 0.1,0.173 0.173,-0.1 0,0 l -4.157,2.4 c -0.096,0.055 -0.128,0.178 -0.073,0.273 l 5,8.661 c 0.055,0.095 0.177,0.128 0.273,0.073 l 4.157,-2.4 c 0.173,-0.1 -0.1,-0.173 0,0 l 4.8,8.314 c 0.1,0.173 0.173,-0.1 0,0 l -4.157,2.4 c -0.096,0.055 -0.128,0.177 -0.073,0.273 l 5,8.66 c 0.055,0.096 0.177,0.129 0.273,0.073 l 4.157,-2.4 c 0.173,-0.1 -0.1,-0.173 0,0 l 4.8,8.314 c 0.1,0.173 0.173,-0.1 0,0 l -4.157,2.4 c -0.096,0.055 -0.128,0.178 -0.073,0.273 l 5,8.661 c 0.055,0.095 0.177,0.128 0.273,0.073 l 4.157,-2.4 c 0.173,-0.1 -0.1,-0.173 0,0 l 4.8,8.314 c 0.1,0.173 0.173,-0.1 0,0 l -4.157,2.4 c -0.096,0.055 -0.128,0.177 -0.073,0.273 l 7.306,12.655 1.444,2.5 c 0.036,0.062 0.102,0.1 0.173,0.1 h 2.887"
       stroke="rgb(0,0,0)"
       stroke-width="0.4"
       id="path15"
       style="stroke:#ff0000;stroke-width:0.264583;stroke-miterlimit:4;stroke-dasharray:none" />
  </g>
  <path
     d="m 708.24708,160.54729 c 0,28.758 -8.267,56.911 -23.815,81.104 -15.548,24.193 -37.722,43.407 -63.882,55.354 -26.159,11.947 -55.202,16.122 -83.667,12.029 -28.466,-4.092 -55.156,-16.281 -76.89,-35.114 -21.734,-18.833 -37.597,-43.516 -45.699,-71.109 -8.102,-27.594 -8.102,-56.935 0,-84.528 8.102,-27.594 23.965,-52.277 45.699,-71.109998 21.734,-18.833 48.424,-31.021 76.89,-35.114 28.465,-4.0930003 57.508,0.083 83.667,12.03 26.16,11.946 48.334,31.16 63.882,55.353998 15.548,24.193 23.815,52.345 23.815,81.104 z"
     stroke="rgb(0,0,255)"
     stroke-width="0.4"
     id="path18"
     style="fill:none;stroke:#ff0000;stroke-width:0.264583;stroke-linecap:round;stroke-linejoin:round;stroke-miterlimit:4;stroke-dasharray:none" />
  <text
     alignment-baseline="hanging"
     font-size="4px"
     style="font-style:normal;font-weight:normal;font-family:sans-serif;fill:#ff0000;stroke:#ff0000;stroke-width:0.264583;stroke-linecap:round;stroke-linejoin:round;stroke-miterlimit:4;stroke-dasharray:none"
     text-anchor="middle"
     id="text20"
     x="558.23206"
     y="158.74728" />
  <path
     d="m 468.61908,320.96129 h 14.613 c 0.11,0 0.2,-0.089 0.2,-0.2 v -4.8 c 0,-0.2 -0.2,0 0,0 h 9.6 c 0.2,0 0,-0.2 0,0 v 4.8 c 0,0.111 0.09,0.2 0.2,0.2 h 10 c 0.11,0 0.2,-0.089 0.2,-0.2 v -4.8 c 0,-0.2 -0.2,0 0,0 h 9.6 c 0.2,0 0,-0.2 0,0 v 4.8 c 0,0.111 0.09,0.2 0.2,0.2 h 10 c 0.11,0 0.2,-0.089 0.2,-0.2 v -4.8 c 0,-0.2 -0.2,0 0,0 h 9.6 c 0.2,0 0,-0.2 0,0 v 4.8 c 0,0.111 0.09,0.2 0.2,0.2 h 10 c 0.11,0 0.2,-0.089 0.2,-0.2 v -4.8 c 0,-0.2 -0.2,0 0,0 h 9.6 c 0.2,0 0,-0.2 0,0 v 4.8 c 0,0.111 0.09,0.2 0.2,0.2 h 10 c 0.11,0 0.2,-0.089 0.2,-0.2 v -4.8 c 0,-0.2 -0.2,0 0,0 h 9.6 c 0.2,0 0,-0.2 0,0 v 4.8 c 0,0.111 0.09,0.2 0.2,0.2 h 10 c 0.11,0 0.2,-0.089 0.2,-0.2 v -4.8 c 0,-0.2 -0.2,0 0,0 h 9.6 c 0.2,0 0,-0.2 0,0 v 4.8 c 0,0.111 0.09,0.2 0.2,0.2 h 10 c 0.11,0 0.2,-0.089 0.2,-0.2 v -4.8 c 0,-0.2 -0.2,0 0,0 h 9.6 c 0.2,0 0,-0.2 0,0 v 4.8 c 0,0.111 0.09,0.2 0.2,0.2 h 10 c 0.11,0 0.2,-0.089 0.2,-0.2 v -4.8 c 0,-0.2 -0.2,0 0,0 h 9.6 c 0.2,0 0,-0.2 0,0 v 4.8 c 0,0.111 0.09,0.2 0.2,0.2 h 14.613 2.887 c 0.071,0 0.137,-0.038 0.173,-0.1 l 1.444,-2.5 7.306,-12.655 c 0.055,-0.096 0.023,-0.218 -0.073,-0.273 l -4.157,-2.4 c -0.173,-0.1 -0.1,0.173 0,0 l 4.8,-8.314 c 0.1,-0.173 -0.173,-0.1 0,0 l 4.157,2.4 c 0.096,0.055 0.218,0.022 0.273,-0.073 l 5,-8.661 c 0.055,-0.095 0.023,-0.218 -0.073,-0.273 l -4.157,-2.4 c -0.173,-0.1 -0.1,0.173 0,0 l 4.8,-8.314 c 0.1,-0.173 -0.173,-0.1 0,0 l 4.157,2.4 c 0.096,0.056 0.218,0.023 0.273,-0.073 l 5,-8.66 c 0.055,-0.096 0.023,-0.218 -0.073,-0.273 l -4.157,-2.4 c -0.173,-0.1 -0.1,0.173 0,0 l 4.8,-8.314 c 0.1,-0.173 -0.173,-0.1 0,0 l 4.157,2.4 c 0.096,0.055 0.218,0.022 0.273,-0.073 l 5,-8.661 c 0.055,-0.095 0.023,-0.218 -0.073,-0.273 l -4.157,-2.4 c -0.173,-0.1 -0.1,0.173 0,0 l 4.8,-8.314 c 0.1,-0.173 -0.173,-0.1 0,0 l 4.157,2.4 c 0.096,0.056 0.218,0.023 0.273,-0.073 l 5,-8.66 c 0.055,-0.096 0.023,-0.218 -0.073,-0.273 l -4.157,-2.4 c -0.173,-0.1 -0.1,0.173 0,0 l 4.8,-8.314 c 0.1,-0.173 -0.173,-0.1 0,0 l 4.157,2.4 c 0.096,0.055 0.218,0.022 0.273,-0.073 l 5,-8.661 c 0.055,-0.095 0.023,-0.218 -0.073,-0.273 l -4.157,-2.4 c -0.173,-0.1 -0.1,0.173 0,0 l 4.8,-8.314 c 0.1,-0.173 -0.173,-0.1 0,0 l 4.157,2.4 c 0.096,0.056 0.218,0.023 0.273,-0.073 l 5,-8.66 c 0.055,-0.096 0.023,-0.218 -0.073,-0.273 l -4.157,-2.4 c -0.173,-0.1 -0.1,0.173 0,0 l 4.8,-8.314 c 0.1,-0.173 -0.173,-0.1 0,0 l 4.157,2.4 c 0.096,0.055 0.218,0.022 0.273,-0.073 l 5,-8.661 c 0.055,-0.095 0.023,-0.218 -0.073,-0.273 l -4.157,-2.4 c -0.173,-0.1 -0.1,0.173 0,0 l 4.8,-8.314 c 0.1,-0.173 -0.173,-0.1 0,0 l 4.157,2.4 c 0.096,0.056 0.218,0.023 0.273,-0.073 l 7.307,-12.655 1.443,-2.5 c 0.036,-0.062 0.036,-0.138 0,-0.2 l -1.443,-2.5 -7.307,-12.656 c -0.055,-0.095 -0.177,-0.128 -0.273,-0.073 l -4.157,2.4 c -0.173,0.1 0.1,0.173 0,0 l -4.8,-8.314 c -0.1,-0.173 -0.173,0.1 0,0 l 4.157,-2.4 c 0.096,-0.055 0.128,-0.177 0.073,-0.273 l -5,-8.66 c -0.055,-0.096 -0.177,-0.129 -0.273,-0.073 l -4.157,2.4 c -0.173,0.1 0.1,0.173 0,0 l -4.8,-8.314 c -0.1,-0.174 -0.173,0.1 0,0 l 4.157,-2.4 c 0.096,-0.056 0.128,-0.178 0.073,-0.274 l -5,-8.66 c -0.055,-0.095 -0.177,-0.128 -0.273,-0.073 l -4.157,2.4 c -0.173,0.1 0.1,0.173 0,0 l -4.8,-8.314 c -0.1,-0.173 -0.173,0.1 0,0 l 4.157,-2.4 c 0.096,-0.055 0.128,-0.177 0.073,-0.273 l -5,-8.66 c -0.055,-0.096 -0.177,-0.129 -0.273,-0.073 l -4.157,2.4 c -0.173,0.1 0.1,0.173 0,0 l -4.8,-8.314 c -0.1,-0.174 -0.173,0.1 0,0 l 4.157,-2.4 c 0.096,-0.056 0.128,-0.178 0.073,-0.274 l -5,-8.66 c -0.055,-0.095 -0.177,-0.128 -0.273,-0.073 l -4.157,2.4 c -0.173,0.1 0.1,0.173 0,0 l -4.8,-8.314 c -0.1,-0.173 -0.173,0.1 0,0 l 4.157,-2.4 c 0.096,-0.055 0.128,-0.177 0.073,-0.273 l -5,-8.66 c -0.055,-0.096 -0.177,-0.129 -0.273,-0.073 l -4.157,2.4 c -0.173,0.1 0.1,0.173 0,0 l -4.8,-8.313998 c -0.1,-0.174 -0.173,0.1 0,0 l 4.157,-2.4 c 0.096,-0.056 0.128,-0.178 0.073,-0.274 l -5,-8.66 c -0.055,-0.095 -0.177,-0.128 -0.273,-0.073 l -4.157,2.4 c -0.173,0.1 0.1,0.173 0,0 l -4.8,-8.314 c -0.1,-0.173 -0.173,0.1 0,0 l 4.157,-2.4 c 0.096,-0.055 0.128,-0.177 0.073,-0.273 l -5,-8.66 c -0.055,-0.096 -0.177,-0.129 -0.273,-0.074 l -4.157,2.4 c -0.173,0.1 0.1,0.174 0,0 l -4.8,-8.313 c -0.1,-0.174 -0.173,0.1 0,0 l 4.157,-2.4 c 0.096,-0.056 0.128,-0.178 0.073,-0.274 l -7.306,-12.6550003 -1.444,-2.50000004 c -0.036,-0.062 -0.102,-0.1 -0.173,-0.1 h -2.887 -14.613 c -0.11,0 -0.2,0.09 -0.2,0.2 V 5.1322917 c 0,0.2 0.2,0 0,0 h -9.6 c -0.2,0 0,0.2 0,0 V 0.33229166 c 0,-0.11 -0.09,-0.2 -0.2,-0.2 h -10 c -0.11,0 -0.2,0.09 -0.2,0.2 V 5.1322917 c 0,0.2 0.2,0 0,0 h -9.6 c -0.2,0 0,0.2 0,0 V 0.33229166 c 0,-0.11 -0.09,-0.2 -0.2,-0.2 h -10 c -0.11,0 -0.2,0.09 -0.2,0.2 V 5.1322917 c 0,0.2 0.2,0 0,0 h -9.6 c -0.2,0 0,0.2 0,0 V 0.33229166 c 0,-0.11 -0.09,-0.2 -0.2,-0.2 h -10 c -0.11,0 -0.2,0.09 -0.2,0.2 V 5.1322917 c 0,0.2 0.2,0 0,0 h -9.6 c -0.2,0 0,0.2 0,0 V 0.33229166 c 0,-0.11 -0.09,-0.2 -0.2,-0.2 h -10 c -0.11,0 -0.2,0.09 -0.2,0.2 V 5.1322917 c 0,0.2 0.2,0 0,0 h -9.6 c -0.2,0 0,0.2 0,0 V 0.33229166 c 0,-0.11 -0.09,-0.2 -0.2,-0.2 h -10 c -0.11,0 -0.2,0.09 -0.2,0.2 V 5.1322917 c 0,0.2 0.2,0 0,0 h -9.6 c -0.2,0 0,0.2 0,0 V 0.33229166 c 0,-0.11 -0.09,-0.2 -0.2,-0.2 h -10 c -0.11,0 -0.2,0.09 -0.2,0.2 V 5.1322917 c 0,0.2 0.2,0 0,0 h -9.6 c -0.2,0 0,0.2 0,0 V 0.33229166 c 0,-0.11 -0.09,-0.2 -0.2,-0.2 h -10 c -0.11,0 -0.2,0.09 -0.2,0.2 V 5.1322917 c 0,0.2 0.2,0 0,0 h -9.6 c -0.2,0 0,0.2 0,0 V 0.33229166 c 0,-0.11 -0.09,-0.2 -0.2,-0.2 h -14.613 -2.887 c -0.071,0 -0.137,0.038 -0.173,0.1 l -1.444,2.50000004 -7.306,12.6550003 c -0.055,0.096 -0.023,0.218 0.073,0.274 l 4.157,2.4 c 0.173,0.1 0.1,-0.174 0,0 l -4.8,8.313 c -0.1,0.174 0.173,0.1 0,0 l -4.157,-2.4 c -0.096,-0.055 -0.218,-0.022 -0.273,0.074 l -5,8.66 c -0.055,0.096 -0.023,0.218 0.073,0.273 l 4.157,2.4 c 0.173,0.1 0.1,-0.173 0,0 l -4.8,8.314 c -0.1,0.173 0.173,0.1 0,0 l -4.157,-2.4 c -0.096,-0.055 -0.218,-0.022 -0.273,0.073 l -5,8.66 c -0.055,0.096 -0.023,0.218 0.073,0.274 l 4.157,2.4 c 0.173,0.1 0.1,-0.174 0,0 l -4.8,8.313998 c -0.1,0.173 0.173,0.1 0,0 l -4.157,-2.4 c -0.096,-0.056 -0.218,-0.023 -0.273,0.073 l -5,8.66 c -0.055,0.096 -0.023,0.218 0.073,0.273 l 4.157,2.4 c 0.173,0.1 0.1,-0.173 0,0 l -4.8,8.314 c -0.1,0.173 0.173,0.1 0,0 l -4.157,-2.4 c -0.096,-0.055 -0.218,-0.022 -0.273,0.073 l -5,8.66 c -0.055,0.096 -0.023,0.218 0.073,0.274 l 4.157,2.4 c 0.173,0.1 0.1,-0.174 0,0 l -4.8,8.314 c -0.1,0.173 0.173,0.1 0,0 l -4.157,-2.4 c -0.096,-0.056 -0.218,-0.023 -0.273,0.073 l -5,8.66 c -0.055,0.096 -0.023,0.218 0.073,0.273 l 4.157,2.4 c 0.173,0.1 0.1,-0.173 0,0 l -4.8,8.314 c -0.1,0.173 0.173,0.1 0,0 l -4.157,-2.4 c -0.096,-0.055 -0.218,-0.022 -0.273,0.073 l -5,8.66 c -0.055,0.096 -0.023,0.218 0.073,0.274 l 4.157,2.4 c 0.173,0.1 0.1,-0.174 0,0 l -4.8,8.314 c -0.1,0.173 0.173,0.1 0,0 l -4.157,-2.4 c -0.096,-0.056 -0.218,-0.023 -0.273,0.073 l -5,8.66 c -0.055,0.096 -0.023,0.218 0.073,0.273 l 4.157,2.4 c 0.173,0.1 0.1,-0.173 0,0 l -4.8,8.314 c -0.1,0.173 0.173,0.1 0,0 l -4.157,-2.4 c -0.096,-0.055 -0.218,-0.022 -0.273,0.073 l -7.307,12.656 -1.443,2.5 c -0.036,0.062 -0.036,0.138 0,0.2 l 1.443,2.5 7.307,12.655 c 0.055,0.096 0.177,0.129 0.273,0.073 l 4.157,-2.4 c 0.173,-0.1 -0.1,-0.173 0,0 l 4.8,8.314 c 0.1,0.173 0.173,-0.1 0,0 l -4.157,2.4 c -0.096,0.055 -0.128,0.178 -0.073,0.273 l 5,8.661 c 0.055,0.095 0.177,0.128 0.273,0.073 l 4.157,-2.4 c 0.173,-0.1 -0.1,-0.173 0,0 l 4.8,8.314 c 0.1,0.173 0.173,-0.1 0,0 l -4.157,2.4 c -0.096,0.055 -0.128,0.177 -0.073,0.273 l 5,8.66 c 0.055,0.096 0.177,0.129 0.273,0.073 l 4.157,-2.4 c 0.173,-0.1 -0.1,-0.173 0,0 l 4.8,8.314 c 0.1,0.173 0.173,-0.1 0,0 l -4.157,2.4 c -0.096,0.055 -0.128,0.178 -0.073,0.273 l 5,8.661 c 0.055,0.095 0.177,0.128 0.273,0.073 l 4.157,-2.4 c 0.173,-0.1 -0.1,-0.173 0,0 l 4.8,8.314 c 0.1,0.173 0.173,-0.1 0,0 l -4.157,2.4 c -0.096,0.055 -0.128,0.177 -0.073,0.273 l 5,8.66 c 0.055,0.096 0.177,0.129 0.273,0.073 l 4.157,-2.4 c 0.173,-0.1 -0.1,-0.173 0,0 l 4.8,8.314 c 0.1,0.173 0.173,-0.1 0,0 l -4.157,2.4 c -0.096,0.055 -0.128,0.178 -0.073,0.273 l 5,8.661 c 0.055,0.095 0.177,0.128 0.273,0.073 l 4.157,-2.4 c 0.173,-0.1 -0.1,-0.173 0,0 l 4.8,8.314 c 0.1,0.173 0.173,-0.1 0,0 l -4.157,2.4 c -0.096,0.055 -0.128,0.177 -0.073,0.273 l 5,8.66 c 0.055,0.096 0.177,0.129 0.273,0.073 l 4.157,-2.4 c 0.173,-0.1 -0.1,-0.173 0,0 l 4.8,8.314 c 0.1,0.173 0.173,-0.1 0,0 l -4.157,2.4 c -0.096,0.055 -0.128,0.178 -0.073,0.273 l 5,8.661 c 0.055,0.095 0.177,0.128 0.273,0.073 l 4.157,-2.4 c 0.173,-0.1 -0.1,-0.173 0,0 l 4.8,8.314 c 0.1,0.173 0.173,-0.1 0,0 l -4.157,2.4 c -0.096,0.055 -0.128,0.177 -0.073,0.273 l 7.306,12.655 1.444,2.5 c 0.036,0.062 0.102,0.1 0.173,0.1 h 2.887"
     stroke="rgb(0,0,0)"
     stroke-width="0.4"
     id="path22"
     style="fill:none;stroke:#ff0000;stroke-width:0.264583;stroke-linecap:round;stroke-linejoin:round;stroke-miterlimit:4;stroke-dasharray:none" />
  <circle
     style="fill:#00ff00;fill-rule:evenodd;stroke:#ff0000;stroke-width:0.264583;stroke-linecap:round;stroke-linejoin:round;stroke-miterlimit:4;stroke-dasharray:none"
     id="path277"
     cx="-403.16977"
     cy="-580.65363"
     r="4.8677087"
     transform="rotate(150)" />
  <circle
     style="fill:#00ff00;fill-rule:evenodd;stroke:#ff0000;stroke-width:0.264583;stroke-linecap:round;stroke-linejoin:round;stroke-miterlimit:4;stroke-dasharray:none"
     id="circle806"
     cx="-403.16977"
     cy="-255.65366"
     r="4.8677087"
     transform="rotate(150)" />
  <circle
     style="fill:#00ff00;fill-rule:evenodd;stroke:#ff0000;stroke-width:0.264583;stroke-linecap:round;stroke-linejoin:round;stroke-miterlimit:4;stroke-dasharray:none"
     id="circle468"
     cx="-563.71661"
     cy="-22.421551"
     r="4.8677087"
     transform="rotate(-150)" />
  <circle
     style="fill:#00ff00;fill-rule:evenodd;stroke:#ff0000;stroke-width:0.264583;stroke-linecap:round;stroke-linejoin:round;stroke-miterlimit:4;stroke-dasharray:none"
     id="circle472"
     cx="-563.71661"
     cy="302.57843"
     r="4.8677087"
     transform="rotate(-150)" />
  <circle
     style="fill:#00ff00;fill-rule:evenodd;stroke:#ff0000;stroke-width:0.264583;stroke-linecap:round;stroke-linejoin:round;stroke-miterlimit:4;stroke-dasharray:none"
     id="circle476"
     cx="-160.5468"
     cy="395.73212"
     r="4.8677087"
     transform="rotate(-90)" />
  <circle
     style="fill:#00ff00;fill-rule:evenodd;stroke:#ff0000;stroke-width:0.264583;stroke-linecap:round;stroke-linejoin:round;stroke-miterlimit:4;stroke-dasharray:none"
     id="circle480"
     cx="-160.5468"
     cy="720.73206"
     r="4.8677087"
     transform="rotate(-90)" />
  <g
     id="p-8"
     style="fill:none;stroke:#ff0000;stroke-width:0.264583;stroke-linecap:round;stroke-linejoin:round;stroke-miterlimit:4;stroke-dasharray:none"
     transform="rotate(180,704.05805,64.92765)">
    <text
       alignment-baseline="hanging"
       font-size="4px"
       style="font-style:normal;font-weight:normal;font-family:sans-serif;fill:#ff0000;stroke:#ff0000;stroke-width:0.264583;stroke-miterlimit:4;stroke-dasharray:none"
       text-anchor="middle"
       transform="translate(854.3,25.9)"
       id="text50" />
    <path
       d="M 764.687,40.4 H 779.1 c 0.2,0 0,-0.2 0,0 v 4.8 c 0,0.11 0.09,0.2 0.2,0.2 h 10 c 0.11,0 0.2,-0.09 0.2,-0.2 v -4.8 c 0,-0.2 -0.2,0 0,0 h 9.6 c 0.2,0 0,-0.2 0,0 v 4.8 c 0,0.11 0.09,0.2 0.2,0.2 h 10 c 0.11,0 0.2,-0.09 0.2,-0.2 v -4.8 c 0,-0.2 -0.2,0 0,0 h 9.6 c 0.2,0 0,-0.2 0,0 v 4.8 c 0,0.11 0.09,0.2 0.2,0.2 h 10 c 0.11,0 0.2,-0.09 0.2,-0.2 v -4.8 c 0,-0.2 -0.2,0 0,0 h 9.6 c 0.2,0 0,-0.2 0,0 v 4.8 c 0,0.11 0.09,0.2 0.2,0.2 h 10 c 0.11,0 0.2,-0.09 0.2,-0.2 v -4.8 c 0,-0.2 -0.2,0 0,0 h 9.6 c 0.2,0 0,-0.2 0,0 v 4.8 c 0,0.11 0.09,0.2 0.2,0.2 h 10 c 0.11,0 0.2,-0.09 0.2,-0.2 v -4.8 c 0,-0.2 -0.2,0 0,0 h 9.6 c 0.2,0 0,-0.2 0,0 v 4.8 c 0,0.11 0.09,0.2 0.2,0.2 h 10 c 0.11,0 0.2,-0.09 0.2,-0.2 v -4.8 c 0,-0.2 -0.2,0 0,0 h 9.6 c 0.2,0 0,-0.2 0,0 v 4.8 c 0,0.11 0.09,0.2 0.2,0.2 h 10 c 0.11,0 0.2,-0.09 0.2,-0.2 v -4.8 c 0,-0.2 -0.2,0 0,0 h 9.6 c 0.2,0 0,-0.2 0,0 v 4.8 c 0,0.11 0.09,0.2 0.2,0.2 h 10 c 0.11,0 0.2,-0.09 0.2,-0.2 v -4.8 c 0,-0.2 -0.2,0 0,0 h 14.413 2.887 c 0.11,0 0.2,-0.09 0.2,-0.2 v -7.5 c 0,-0.11 -0.09,-0.2 -0.2,-0.2 h -4.13 c -0.2,0 0,0.2 0,0 v -9.6 c 0,-0.2 -0.2,0 0,0 h 4.13 c 0.11,0 0.2,-0.09 0.2,-0.2 V 15.2 C 947,15.09 946.91,15 946.8,15 H 943.913 929.5 c -0.2,0 0,0.2 0,0 v -4.8 c 0,-0.11 -0.09,-0.2 -0.2,-0.2 h -10 c -0.11,0 -0.2,0.09 -0.2,0.2 V 15 c 0,0.2 0.2,0 0,0 h -9.6 c -0.2,0 0,0.2 0,0 v -4.8 c 0,-0.11 -0.09,-0.2 -0.2,-0.2 h -10 c -0.11,0 -0.2,0.09 -0.2,0.2 V 15 c 0,0.2 0.2,0 0,0 h -9.6 c -0.2,0 0,0.2 0,0 v -4.8 c 0,-0.11 -0.09,-0.2 -0.2,-0.2 h -10 c -0.11,0 -0.2,0.09 -0.2,0.2 V 15 c 0,0.2 0.2,0 0,0 h -9.6 c -0.2,0 0,0.2 0,0 v -4.8 c 0,-0.11 -0.09,-0.2 -0.2,-0.2 h -10 c -0.11,0 -0.2,0.09 -0.2,0.2 V 15 c 0,0.2 0.2,0 0,0 h -9.6 c -0.2,0 0,0.2 0,0 v -4.8 c 0,-0.11 -0.09,-0.2 -0.2,-0.2 h -10 c -0.11,0 -0.2,0.09 -0.2,0.2 V 15 c 0,0.2 0.2,0 0,0 h -9.6 c -0.2,0 0,0.2 0,0 v -4.8 c 0,-0.11 -0.09,-0.2 -0.2,-0.2 h -10 c -0.11,0 -0.2,0.09 -0.2,0.2 V 15 c 0,0.2 0.2,0 0,0 h -9.6 c -0.2,0 0,0.2 0,0 v -4.8 c 0,-0.11 -0.09,-0.2 -0.2,-0.2 h -10 c -0.11,0 -0.2,0.09 -0.2,0.2 V 15 c 0,0.2 0.2,0 0,0 h -9.6 c -0.2,0 0,0.2 0,0 v -4.8 c 0,-0.11 -0.09,-0.2 -0.2,-0.2 h -10 c -0.11,0 -0.2,0.09 -0.2,0.2 V 15 c 0,0.2 0.2,0 0,0 H 764.687 761.8 c -0.11,0 -0.2,0.09 -0.2,0.2 v 7.5 c 0,0.11 0.09,0.2 0.2,0.2 h 4.13 c 0.2,0 0,-0.2 0,0 v 9.6 c 0,0.2 0.2,0 0,0 h -4.13 c -0.11,0 -0.2,0.09 -0.2,0.2 v 7.5 c 0,0.11 0.09,0.2 0.2,0.2 h 2.887"
       stroke="rgb(0,0,0)"
       stroke-width="0.4"
       id="path52"
       style="stroke:#ff0000;stroke-width:0.264583;stroke-miterlimit:4;stroke-dasharray:none" />
  </g>
  <g
     id="p-4"
     style="fill:none;stroke:#ff0000;stroke-width:0.264583;stroke-linecap:round;stroke-linejoin:round;stroke-miterlimit:4;stroke-dasharray:none"
     transform="rotate(180,331.11943,142.70174)">
    <text
       alignment-baseline="hanging"
       font-size="4px"
       style="font-style:normal;font-weight:normal;font-family:sans-serif;fill:#ff0000;stroke:#ff0000;stroke-width:0.264583;stroke-miterlimit:4;stroke-dasharray:none"
       text-anchor="middle"
       transform="translate(102.7,25.9)"
       id="text30" />
    <path
       d="M 13.087,40.4 H 27.5 c 0.2,0 0,-0.2 0,0 v 4.8 c 0,0.11 0.09,0.2 0.2,0.2 h 10 c 0.11,0 0.2,-0.09 0.2,-0.2 v -4.8 c 0,-0.2 -0.2,0 0,0 h 9.6 c 0.2,0 0,-0.2 0,0 v 4.8 c 0,0.11 0.09,0.2 0.2,0.2 h 10 c 0.11,0 0.2,-0.09 0.2,-0.2 v -4.8 c 0,-0.2 -0.2,0 0,0 h 9.6 c 0.2,0 0,-0.2 0,0 v 4.8 c 0,0.11 0.09,0.2 0.2,0.2 h 10 c 0.11,0 0.2,-0.09 0.2,-0.2 v -4.8 c 0,-0.2 -0.2,0 0,0 h 9.6 c 0.2,0 0,-0.2 0,0 v 4.8 c 0,0.11 0.09,0.2 0.2,0.2 h 10 c 0.11,0 0.2,-0.09 0.2,-0.2 v -4.8 c 0,-0.2 -0.2,0 0,0 h 9.6 c 0.2,0 0,-0.2 0,0 v 4.8 c 0,0.11 0.09,0.2 0.2,0.2 h 10 c 0.11,0 0.2,-0.09 0.2,-0.2 v -4.8 c 0,-0.2 -0.2,0 0,0 h 9.6 c 0.2,0 0,-0.2 0,0 v 4.8 c 0,0.11 0.09,0.2 0.2,0.2 h 10 c 0.11,0 0.2,-0.09 0.2,-0.2 v -4.8 c 0,-0.2 -0.2,0 0,0 h 9.6 c 0.2,0 0,-0.2 0,0 v 4.8 c 0,0.11 0.09,0.2 0.2,0.2 h 10 c 0.11,0 0.2,-0.09 0.2,-0.2 v -4.8 c 0,-0.2 -0.2,0 0,0 h 9.6 c 0.2,0 0,-0.2 0,0 v 4.8 c 0,0.11 0.09,0.2 0.2,0.2 h 10 c 0.11,0 0.2,-0.09 0.2,-0.2 v -4.8 c 0,-0.2 -0.2,0 0,0 h 14.413 2.887 c 0.11,0 0.2,-0.09 0.2,-0.2 v -7.5 c 0,-0.11 -0.09,-0.2 -0.2,-0.2 h -4.13 c -0.2,0 0,0.2 0,0 v -9.6 c 0,-0.2 -0.2,0 0,0 h 4.13 c 0.11,0 0.2,-0.09 0.2,-0.2 v -7.5 c 0,-0.11 -0.09,-0.2 -0.2,-0.2 H 192.313 177.9 c -0.2,0 0,0.2 0,0 v -4.8 c 0,-0.11 -0.09,-0.2 -0.2,-0.2 h -10 c -0.11,0 -0.2,0.09 -0.2,0.2 V 15 c 0,0.2 0.2,0 0,0 h -9.6 c -0.2,0 0,0.2 0,0 v -4.8 c 0,-0.11 -0.09,-0.2 -0.2,-0.2 h -10 c -0.11,0 -0.2,0.09 -0.2,0.2 V 15 c 0,0.2 0.2,0 0,0 h -9.6 c -0.2,0 0,0.2 0,0 v -4.8 c 0,-0.11 -0.09,-0.2 -0.2,-0.2 h -10 c -0.11,0 -0.2,0.09 -0.2,0.2 V 15 c 0,0.2 0.2,0 0,0 h -9.6 c -0.2,0 0,0.2 0,0 v -4.8 c 0,-0.11 -0.09,-0.2 -0.2,-0.2 h -10 c -0.11,0 -0.2,0.09 -0.2,0.2 V 15 c 0,0.2 0.2,0 0,0 h -9.6 c -0.2,0 0,0.2 0,0 V 10.2 C 97.9,10.09 97.81,10 97.7,10 h -10 c -0.11,0 -0.2,0.09 -0.2,0.2 V 15 c 0,0.2 0.2,0 0,0 h -9.6 c -0.2,0 0,0.2 0,0 V 10.2 C 77.9,10.09 77.81,10 77.7,10 h -10 c -0.11,0 -0.2,0.09 -0.2,0.2 V 15 c 0,0.2 0.2,0 0,0 h -9.6 c -0.2,0 0,0.2 0,0 V 10.2 C 57.9,10.09 57.81,10 57.7,10 h -10 c -0.11,0 -0.2,0.09 -0.2,0.2 V 15 c 0,0.2 0.2,0 0,0 h -9.6 c -0.2,0 0,0.2 0,0 V 10.2 C 37.9,10.09 37.81,10 37.7,10 h -10 c -0.11,0 -0.2,0.09 -0.2,0.2 V 15 c 0,0.2 0.2,0 0,0 H 13.087 10.2 C 10.09,15 10,15.09 10,15.2 v 7.5 c 0,0.11 0.09,0.2 0.2,0.2 h 4.13 c 0.2,0 0,-0.2 0,0 v 9.6 c 0,0.2 0.2,0 0,0 H 10.2 c -0.11,0 -0.2,0.09 -0.2,0.2 v 7.5 c 0,0.11 0.09,0.2 0.2,0.2 h 2.887"
       stroke="rgb(0,0,0)"
       stroke-width="0.4"
       id="path32"
       style="stroke:#ff0000;stroke-width:0.264583;stroke-miterlimit:4;stroke-dasharray:none" />
  </g>
  <g
     id="p-5"
     style="fill:none;stroke:#ff0000;stroke-width:0.264583;stroke-linecap:round;stroke-linejoin:round;stroke-miterlimit:4;stroke-dasharray:none"
     transform="rotate(180,424.17469,123.55579)">
    <text
       alignment-baseline="hanging"
       font-size="4px"
       style="font-style:normal;font-weight:normal;font-family:sans-serif;fill:#ff0000;stroke:#ff0000;stroke-width:0.264583;stroke-miterlimit:4;stroke-dasharray:none"
       text-anchor="middle"
       transform="translate(290.6,25.9)"
       id="text35" />
    <path
       d="M 200.987,40.4 H 215.4 c 0.2,0 0,-0.2 0,0 v 4.8 c 0,0.11 0.09,0.2 0.2,0.2 h 10 c 0.11,0 0.2,-0.09 0.2,-0.2 v -4.8 c 0,-0.2 -0.2,0 0,0 h 9.6 c 0.2,0 0,-0.2 0,0 v 4.8 c 0,0.11 0.09,0.2 0.2,0.2 h 10 c 0.11,0 0.2,-0.09 0.2,-0.2 v -4.8 c 0,-0.2 -0.2,0 0,0 h 9.6 c 0.2,0 0,-0.2 0,0 v 4.8 c 0,0.11 0.09,0.2 0.2,0.2 h 10 c 0.11,0 0.2,-0.09 0.2,-0.2 v -4.8 c 0,-0.2 -0.2,0 0,0 h 9.6 c 0.2,0 0,-0.2 0,0 v 4.8 c 0,0.11 0.09,0.2 0.2,0.2 h 10 c 0.11,0 0.2,-0.09 0.2,-0.2 v -4.8 c 0,-0.2 -0.2,0 0,0 h 9.6 c 0.2,0 0,-0.2 0,0 v 4.8 c 0,0.11 0.09,0.2 0.2,0.2 h 10 c 0.11,0 0.2,-0.09 0.2,-0.2 v -4.8 c 0,-0.2 -0.2,0 0,0 h 9.6 c 0.2,0 0,-0.2 0,0 v 4.8 c 0,0.11 0.09,0.2 0.2,0.2 h 10 c 0.11,0 0.2,-0.09 0.2,-0.2 v -4.8 c 0,-0.2 -0.2,0 0,0 h 9.6 c 0.2,0 0,-0.2 0,0 v 4.8 c 0,0.11 0.09,0.2 0.2,0.2 h 10 c 0.11,0 0.2,-0.09 0.2,-0.2 v -4.8 c 0,-0.2 -0.2,0 0,0 h 9.6 c 0.2,0 0,-0.2 0,0 v 4.8 c 0,0.11 0.09,0.2 0.2,0.2 h 10 c 0.11,0 0.2,-0.09 0.2,-0.2 v -4.8 c 0,-0.2 -0.2,0 0,0 h 14.413 -1.443 c 0.11,0 0.2,-0.09 0.2,-0.2 v -7.3 c 0,-0.2 -0.2,0 0,0 h 4.13 c 0.11,0 0.2,-0.09 0.2,-0.2 v -10 c 0,-0.11 -0.09,-0.2 -0.2,-0.2 h -4.13 c -0.2,0 0,0.2 0,0 v -7.3 c 0,-0.11 -0.09,-0.2 -0.2,-0.2 h 1.443 -14.413 c -0.2,0 0,0.2 0,0 v -4.8 c 0,-0.11 -0.09,-0.2 -0.2,-0.2 h -10 c -0.11,0 -0.2,0.09 -0.2,0.2 V 15 c 0,0.2 0.2,0 0,0 h -9.6 c -0.2,0 0,0.2 0,0 v -4.8 c 0,-0.11 -0.09,-0.2 -0.2,-0.2 h -10 c -0.11,0 -0.2,0.09 -0.2,0.2 V 15 c 0,0.2 0.2,0 0,0 h -9.6 c -0.2,0 0,0.2 0,0 v -4.8 c 0,-0.11 -0.09,-0.2 -0.2,-0.2 h -10 c -0.11,0 -0.2,0.09 -0.2,0.2 V 15 c 0,0.2 0.2,0 0,0 h -9.6 c -0.2,0 0,0.2 0,0 v -4.8 c 0,-0.11 -0.09,-0.2 -0.2,-0.2 h -10 c -0.11,0 -0.2,0.09 -0.2,0.2 V 15 c 0,0.2 0.2,0 0,0 h -9.6 c -0.2,0 0,0.2 0,0 v -4.8 c 0,-0.11 -0.09,-0.2 -0.2,-0.2 h -10 c -0.11,0 -0.2,0.09 -0.2,0.2 V 15 c 0,0.2 0.2,0 0,0 h -9.6 c -0.2,0 0,0.2 0,0 v -4.8 c 0,-0.11 -0.09,-0.2 -0.2,-0.2 h -10 c -0.11,0 -0.2,0.09 -0.2,0.2 V 15 c 0,0.2 0.2,0 0,0 h -9.6 c -0.2,0 0,0.2 0,0 v -4.8 c 0,-0.11 -0.09,-0.2 -0.2,-0.2 h -10 c -0.11,0 -0.2,0.09 -0.2,0.2 V 15 c 0,0.2 0.2,0 0,0 h -9.6 c -0.2,0 0,0.2 0,0 v -4.8 c 0,-0.11 -0.09,-0.2 -0.2,-0.2 h -10 c -0.11,0 -0.2,0.09 -0.2,0.2 V 15 c 0,0.2 0.2,0 0,0 h -14.413 1.443 c -0.11,0 -0.2,0.09 -0.2,0.2 v 7.3 c 0,0.2 0.2,0 0,0 h -4.13 c -0.11,0 -0.2,0.09 -0.2,0.2 v 10 c 0,0.11 0.09,0.2 0.2,0.2 h 4.13 c 0.2,0 0,-0.2 0,0 v 7.3 c 0,0.11 0.09,0.2 0.2,0.2 h -1.443"
       stroke="rgb(0,0,0)"
       stroke-width="0.4"
       id="path37"
       style="stroke:#ff0000;stroke-width:0.264583;stroke-miterlimit:4;stroke-dasharray:none" />
  </g>
  <g
     id="p-6"
     style="fill:none;stroke:#ff0000;stroke-width:0.264583;stroke-linecap:round;stroke-linejoin:round;stroke-miterlimit:4;stroke-dasharray:none"
     transform="rotate(180,517.22994,104.52038)">
    <text
       alignment-baseline="hanging"
       font-size="4px"
       style="font-style:normal;font-weight:normal;font-family:sans-serif;fill:#ff0000;stroke:#ff0000;stroke-width:0.264583;stroke-miterlimit:4;stroke-dasharray:none"
       text-anchor="middle"
       transform="translate(478.5,25.9)"
       id="text40" />
    <path
       d="M 388.887,40.4 H 403.3 c 0.2,0 0,-0.2 0,0 v 4.8 c 0,0.11 0.09,0.2 0.2,0.2 h 10 c 0.11,0 0.2,-0.09 0.2,-0.2 v -4.8 c 0,-0.2 -0.2,0 0,0 h 9.6 c 0.2,0 0,-0.2 0,0 v 4.8 c 0,0.11 0.09,0.2 0.2,0.2 h 10 c 0.11,0 0.2,-0.09 0.2,-0.2 v -4.8 c 0,-0.2 -0.2,0 0,0 h 9.6 c 0.2,0 0,-0.2 0,0 v 4.8 c 0,0.11 0.09,0.2 0.2,0.2 h 10 c 0.11,0 0.2,-0.09 0.2,-0.2 v -4.8 c 0,-0.2 -0.2,0 0,0 h 9.6 c 0.2,0 0,-0.2 0,0 v 4.8 c 0,0.11 0.09,0.2 0.2,0.2 h 10 c 0.11,0 0.2,-0.09 0.2,-0.2 v -4.8 c 0,-0.2 -0.2,0 0,0 h 9.6 c 0.2,0 0,-0.2 0,0 v 4.8 c 0,0.11 0.09,0.2 0.2,0.2 h 10 c 0.11,0 0.2,-0.09 0.2,-0.2 v -4.8 c 0,-0.2 -0.2,0 0,0 h 9.6 c 0.2,0 0,-0.2 0,0 v 4.8 c 0,0.11 0.09,0.2 0.2,0.2 h 10 c 0.11,0 0.2,-0.09 0.2,-0.2 v -4.8 c 0,-0.2 -0.2,0 0,0 h 9.6 c 0.2,0 0,-0.2 0,0 v 4.8 c 0,0.11 0.09,0.2 0.2,0.2 h 10 c 0.11,0 0.2,-0.09 0.2,-0.2 v -4.8 c 0,-0.2 -0.2,0 0,0 h 9.6 c 0.2,0 0,-0.2 0,0 v 4.8 c 0,0.11 0.09,0.2 0.2,0.2 h 10 c 0.11,0 0.2,-0.09 0.2,-0.2 v -4.8 c 0,-0.2 -0.2,0 0,0 H 568.113 571 c 0.11,0 0.2,-0.09 0.2,-0.2 v -7.5 c 0,-0.11 -0.09,-0.2 -0.2,-0.2 h -4.13 c -0.2,0 0,0.2 0,0 v -9.6 c 0,-0.2 -0.2,0 0,0 H 571 c 0.11,0 0.2,-0.09 0.2,-0.2 V 15.2 C 571.2,15.09 571.11,15 571,15 H 568.113 553.7 c -0.2,0 0,0.2 0,0 v -4.8 c 0,-0.11 -0.09,-0.2 -0.2,-0.2 h -10 c -0.11,0 -0.2,0.09 -0.2,0.2 V 15 c 0,0.2 0.2,0 0,0 h -9.6 c -0.2,0 0,0.2 0,0 v -4.8 c 0,-0.11 -0.09,-0.2 -0.2,-0.2 h -10 c -0.11,0 -0.2,0.09 -0.2,0.2 V 15 c 0,0.2 0.2,0 0,0 h -9.6 c -0.2,0 0,0.2 0,0 v -4.8 c 0,-0.11 -0.09,-0.2 -0.2,-0.2 h -10 c -0.11,0 -0.2,0.09 -0.2,0.2 V 15 c 0,0.2 0.2,0 0,0 h -9.6 c -0.2,0 0,0.2 0,0 v -4.8 c 0,-0.11 -0.09,-0.2 -0.2,-0.2 h -10 c -0.11,0 -0.2,0.09 -0.2,0.2 V 15 c 0,0.2 0.2,0 0,0 h -9.6 c -0.2,0 0,0.2 0,0 v -4.8 c 0,-0.11 -0.09,-0.2 -0.2,-0.2 h -10 c -0.11,0 -0.2,0.09 -0.2,0.2 V 15 c 0,0.2 0.2,0 0,0 h -9.6 c -0.2,0 0,0.2 0,0 v -4.8 c 0,-0.11 -0.09,-0.2 -0.2,-0.2 h -10 c -0.11,0 -0.2,0.09 -0.2,0.2 V 15 c 0,0.2 0.2,0 0,0 h -9.6 c -0.2,0 0,0.2 0,0 v -4.8 c 0,-0.11 -0.09,-0.2 -0.2,-0.2 h -10 c -0.11,0 -0.2,0.09 -0.2,0.2 V 15 c 0,0.2 0.2,0 0,0 h -9.6 c -0.2,0 0,0.2 0,0 v -4.8 c 0,-0.11 -0.09,-0.2 -0.2,-0.2 h -10 c -0.11,0 -0.2,0.09 -0.2,0.2 V 15 c 0,0.2 0.2,0 0,0 H 388.887 386 c -0.11,0 -0.2,0.09 -0.2,0.2 v 7.5 c 0,0.11 0.09,0.2 0.2,0.2 h 4.13 c 0.2,0 0,-0.2 0,0 v 9.6 c 0,0.2 0.2,0 0,0 H 386 c -0.11,0 -0.2,0.09 -0.2,0.2 v 7.5 c 0,0.11 0.09,0.2 0.2,0.2 h 2.887"
       stroke="rgb(0,0,0)"
       stroke-width="0.4"
       id="path42"
       style="stroke:#ff0000;stroke-width:0.264583;stroke-miterlimit:4;stroke-dasharray:none" />
  </g>
  <g
     id="p-7"
     style="fill:none;stroke:#ff0000;stroke-width:0.264583;stroke-linecap:round;stroke-linejoin:round;stroke-miterlimit:4;stroke-dasharray:none"
     transform="rotate(180,610.46415,84.658639)">
    <text
       alignment-baseline="hanging"
       font-size="4px"
       style="font-style:normal;font-weight:normal;font-family:sans-serif;fill:#ff0000;stroke:#ff0000;stroke-width:0.264583;stroke-miterlimit:4;stroke-dasharray:none"
       text-anchor="middle"
       transform="translate(666.4,25.9)"
       id="text45" />
    <path
       d="M 576.787,40.4 H 591.2 c 0.2,0 0,-0.2 0,0 v 4.8 c 0,0.11 0.09,0.2 0.2,0.2 h 10 c 0.11,0 0.2,-0.09 0.2,-0.2 v -4.8 c 0,-0.2 -0.2,0 0,0 h 9.6 c 0.2,0 0,-0.2 0,0 v 4.8 c 0,0.11 0.09,0.2 0.2,0.2 h 10 c 0.11,0 0.2,-0.09 0.2,-0.2 v -4.8 c 0,-0.2 -0.2,0 0,0 h 9.6 c 0.2,0 0,-0.2 0,0 v 4.8 c 0,0.11 0.09,0.2 0.2,0.2 h 10 c 0.11,0 0.2,-0.09 0.2,-0.2 v -4.8 c 0,-0.2 -0.2,0 0,0 h 9.6 c 0.2,0 0,-0.2 0,0 v 4.8 c 0,0.11 0.09,0.2 0.2,0.2 h 10 c 0.11,0 0.2,-0.09 0.2,-0.2 v -4.8 c 0,-0.2 -0.2,0 0,0 h 9.6 c 0.2,0 0,-0.2 0,0 v 4.8 c 0,0.11 0.09,0.2 0.2,0.2 h 10 c 0.11,0 0.2,-0.09 0.2,-0.2 v -4.8 c 0,-0.2 -0.2,0 0,0 h 9.6 c 0.2,0 0,-0.2 0,0 v 4.8 c 0,0.11 0.09,0.2 0.2,0.2 h 10 c 0.11,0 0.2,-0.09 0.2,-0.2 v -4.8 c 0,-0.2 -0.2,0 0,0 h 9.6 c 0.2,0 0,-0.2 0,0 v 4.8 c 0,0.11 0.09,0.2 0.2,0.2 h 10 c 0.11,0 0.2,-0.09 0.2,-0.2 v -4.8 c 0,-0.2 -0.2,0 0,0 h 9.6 c 0.2,0 0,-0.2 0,0 v 4.8 c 0,0.11 0.09,0.2 0.2,0.2 h 10 c 0.11,0 0.2,-0.09 0.2,-0.2 v -4.8 c 0,-0.2 -0.2,0 0,0 h 14.413 -1.443 c 0.11,0 0.2,-0.09 0.2,-0.2 v -7.3 c 0,-0.2 -0.2,0 0,0 h 4.13 c 0.11,0 0.2,-0.09 0.2,-0.2 v -10 c 0,-0.11 -0.09,-0.2 -0.2,-0.2 h -4.13 c -0.2,0 0,0.2 0,0 v -7.3 c 0,-0.11 -0.09,-0.2 -0.2,-0.2 h 1.443 -14.413 c -0.2,0 0,0.2 0,0 v -4.8 c 0,-0.11 -0.09,-0.2 -0.2,-0.2 h -10 c -0.11,0 -0.2,0.09 -0.2,0.2 V 15 c 0,0.2 0.2,0 0,0 h -9.6 c -0.2,0 0,0.2 0,0 v -4.8 c 0,-0.11 -0.09,-0.2 -0.2,-0.2 h -10 c -0.11,0 -0.2,0.09 -0.2,0.2 V 15 c 0,0.2 0.2,0 0,0 h -9.6 c -0.2,0 0,0.2 0,0 v -4.8 c 0,-0.11 -0.09,-0.2 -0.2,-0.2 h -10 c -0.11,0 -0.2,0.09 -0.2,0.2 V 15 c 0,0.2 0.2,0 0,0 h -9.6 c -0.2,0 0,0.2 0,0 v -4.8 c 0,-0.11 -0.09,-0.2 -0.2,-0.2 h -10 c -0.11,0 -0.2,0.09 -0.2,0.2 V 15 c 0,0.2 0.2,0 0,0 h -9.6 c -0.2,0 0,0.2 0,0 v -4.8 c 0,-0.11 -0.09,-0.2 -0.2,-0.2 h -10 c -0.11,0 -0.2,0.09 -0.2,0.2 V 15 c 0,0.2 0.2,0 0,0 h -9.6 c -0.2,0 0,0.2 0,0 v -4.8 c 0,-0.11 -0.09,-0.2 -0.2,-0.2 h -10 c -0.11,0 -0.2,0.09 -0.2,0.2 V 15 c 0,0.2 0.2,0 0,0 h -9.6 c -0.2,0 0,0.2 0,0 v -4.8 c 0,-0.11 -0.09,-0.2 -0.2,-0.2 h -10 c -0.11,0 -0.2,0.09 -0.2,0.2 V 15 c 0,0.2 0.2,0 0,0 h -9.6 c -0.2,0 0,0.2 0,0 v -4.8 c 0,-0.11 -0.09,-0.2 -0.2,-0.2 h -10 c -0.11,0 -0.2,0.09 -0.2,0.2 V 15 c 0,0.2 0.2,0 0,0 h -14.413 1.443 c -0.11,0 -0.2,0.09 -0.2,0.2 v 7.3 c 0,0.2 0.2,0 0,0 h -4.13 c -0.11,0 -0.2,0.09 -0.2,0.2 v 10 c 0,0.11 0.09,0.2 0.2,0.2 h 4.13 c 0.2,0 0,-0.2 0,0 v 7.3 c 0,0.11 0.09,0.2 0.2,0.2 h -1.443"
       stroke="rgb(0,0,0)"
       stroke-width="0.4"
       id="path47"
       style="stroke:#ff0000;stroke-width:0.264583;stroke-miterlimit:4;stroke-dasharray:none" />
  </g>
  <g
     id="use1433"
     inkscape:tile-x0="76.649998"
     inkscape:tile-y0="14.539691"
     style="stroke-width:0.264583;stroke-miterlimit:4;stroke-dasharray:none"
     transform="rotate(180,323.71415,82.328485)">
    <circle
       style="fill:none;fill-rule:evenodd;stroke:#ff0000;stroke-width:0.264583;stroke-linecap:round;stroke-linejoin:round;stroke-miterlimit:4;stroke-dasharray:none"
       id="circle889"
       cx="93.532295"
       cy="22.233725"
       r="8" />
    <circle
       style="fill:none;fill-rule:evenodd;stroke:#ff0000;stroke-width:0.264583;stroke-linecap:round;stroke-linejoin:round;stroke-miterlimit:4;stroke-dasharray:none"
       id="circle891"
       cx="105.65"
       cy="22.233725"
       r="1.1177084" />
    <circle
       style="fill:none;fill-rule:evenodd;stroke:#ff0000;stroke-width:0.264583;stroke-linecap:round;stroke-linejoin:round;stroke-miterlimit:4;stroke-dasharray:none"
       id="circle893"
       cx="81.414589"
       cy="22.233725"
       r="1.1177084" />
  </g>
  <g
     id="p-9"
     style="fill:none;stroke:#ff0000;stroke-width:0.264583;stroke-linecap:round;stroke-linejoin:round;stroke-miterlimit:4;stroke-dasharray:none"
     transform="rotate(180,798.27215,46.088545)">
    <text
       alignment-baseline="hanging"
       font-size="4px"
       style="font-style:normal;font-weight:normal;font-family:sans-serif;fill:#ff0000;stroke:#ff0000;stroke-width:0.264583;stroke-miterlimit:4;stroke-dasharray:none"
       text-anchor="middle"
       transform="translate(1042.2,25.9)"
       id="text55" />
    <path
       d="M 952.587,40.4 H 967 c 0.2,0 0,-0.2 0,0 v 4.8 c 0,0.11 0.09,0.2 0.2,0.2 h 10 c 0.11,0 0.2,-0.09 0.2,-0.2 v -4.8 c 0,-0.2 -0.2,0 0,0 h 9.6 c 0.2,0 0,-0.2 0,0 v 4.8 c 0,0.11 0.09,0.2 0.2,0.2 h 10 c 0.11,0 0.2,-0.09 0.2,-0.2 v -4.8 c 0,-0.2 -0.2,0 0,0 h 9.6 c 0.2,0 0,-0.2 0,0 v 4.8 c 0,0.11 0.09,0.2 0.2,0.2 h 10 c 0.11,0 0.2,-0.09 0.2,-0.2 v -4.8 c 0,-0.2 -0.2,0 0,0 h 9.6 c 0.2,0 0,-0.2 0,0 v 4.8 c 0,0.11 0.09,0.2 0.2,0.2 h 10 c 0.11,0 0.2,-0.09 0.2,-0.2 v -4.8 c 0,-0.2 -0.2,0 0,0 h 9.6 c 0.2,0 0,-0.2 0,0 v 4.8 c 0,0.11 0.09,0.2 0.2,0.2 h 10 c 0.11,0 0.2,-0.09 0.2,-0.2 v -4.8 c 0,-0.2 -0.2,0 0,0 h 9.6 c 0.2,0 0,-0.2 0,0 v 4.8 c 0,0.11 0.09,0.2 0.2,0.2 h 10 c 0.11,0 0.2,-0.09 0.2,-0.2 v -4.8 c 0,-0.2 -0.2,0 0,0 h 9.6 c 0.2,0 0,-0.2 0,0 v 4.8 c 0,0.11 0.09,0.2 0.2,0.2 h 10 c 0.11,0 0.2,-0.09 0.2,-0.2 v -4.8 c 0,-0.2 -0.2,0 0,0 h 9.6 c 0.2,0 0,-0.2 0,0 v 4.8 c 0,0.11 0.09,0.2 0.2,0.2 h 10 c 0.11,0 0.2,-0.09 0.2,-0.2 v -4.8 c 0,-0.2 -0.2,0 0,0 h 14.413 -1.443 c 0.11,0 0.2,-0.09 0.2,-0.2 v -7.3 c 0,-0.2 -0.2,0 0,0 h 4.13 c 0.11,0 0.2,-0.09 0.2,-0.2 v -10 c 0,-0.11 -0.09,-0.2 -0.2,-0.2 h -4.13 c -0.2,0 0,0.2 0,0 v -7.3 c 0,-0.11 -0.09,-0.2 -0.2,-0.2 h 1.443 -14.413 c -0.2,0 0,0.2 0,0 v -4.8 c 0,-0.11 -0.09,-0.2 -0.2,-0.2 h -10 c -0.11,0 -0.2,0.09 -0.2,0.2 V 15 c 0,0.2 0.2,0 0,0 h -9.6 c -0.2,0 0,0.2 0,0 v -4.8 c 0,-0.11 -0.09,-0.2 -0.2,-0.2 h -10 c -0.11,0 -0.2,0.09 -0.2,0.2 V 15 c 0,0.2 0.2,0 0,0 h -9.6 c -0.2,0 0,0.2 0,0 v -4.8 c 0,-0.11 -0.09,-0.2 -0.2,-0.2 h -10 c -0.11,0 -0.2,0.09 -0.2,0.2 V 15 c 0,0.2 0.2,0 0,0 h -9.6 c -0.2,0 0,0.2 0,0 v -4.8 c 0,-0.11 -0.09,-0.2 -0.2,-0.2 h -10 c -0.11,0 -0.2,0.09 -0.2,0.2 V 15 c 0,0.2 0.2,0 0,0 h -9.6 c -0.2,0 0,0.2 0,0 v -4.8 c 0,-0.11 -0.09,-0.2 -0.2,-0.2 h -10 c -0.11,0 -0.2,0.09 -0.2,0.2 V 15 c 0,0.2 0.2,0 0,0 h -9.6 c -0.2,0 0,0.2 0,0 v -4.8 c 0,-0.11 -0.09,-0.2 -0.2,-0.2 h -10 c -0.11,0 -0.2,0.09 -0.2,0.2 V 15 c 0,0.2 0.2,0 0,0 h -9.6 c -0.2,0 0,0.2 0,0 v -4.8 c 0,-0.11 -0.09,-0.2 -0.2,-0.2 h -10 c -0.11,0 -0.2,0.09 -0.2,0.2 V 15 c 0,0.2 0.2,0 0,0 h -9.6 c -0.2,0 0,0.2 0,0 v -4.8 c 0,-0.11 -0.09,-0.2 -0.2,-0.2 h -10 c -0.11,0 -0.2,0.09 -0.2,0.2 V 15 c 0,0.2 0.2,0 0,0 h -14.413 1.443 c -0.11,0 -0.2,0.09 -0.2,0.2 v 7.3 c 0,0.2 0.2,0 0,0 h -4.13 c -0.11,0 -0.2,0.09 -0.2,0.2 v 10 c 0,0.11 0.09,0.2 0.2,0.2 h 4.13 c 0.2,0 0,-0.2 0,0 v 7.3 c 0,0.11 0.09,0.2 0.2,0.2 h -1.443"
       stroke="rgb(0,0,0)"
       stroke-width="0.4"
       id="path57"
       style="stroke:#ff0000;stroke-width:0.264583;stroke-miterlimit:4;stroke-dasharray:none" />
  </g>
  <g
     id="use860"
     inkscape:tile-x0="76.649998"
     inkscape:tile-y0="14.539691"
     style="stroke-width:0.264583;stroke-miterlimit:4;stroke-dasharray:none"
     transform="rotate(180,323.62215,43.75839)">
    <circle
       style="fill:none;fill-rule:evenodd;stroke:#ff0000;stroke-width:0.264583;stroke-linecap:round;stroke-linejoin:round;stroke-miterlimit:4;stroke-dasharray:none"
       id="circle897"
       cx="93.532295"
       cy="22.233725"
       r="8" />
    <circle
       style="fill:none;fill-rule:evenodd;stroke:#ff0000;stroke-width:0.264583;stroke-linecap:round;stroke-linejoin:round;stroke-miterlimit:4;stroke-dasharray:none"
       id="circle899"
       cx="105.65"
       cy="22.233725"
       r="1.1177084" />
    <circle
       style="fill:none;fill-rule:evenodd;stroke:#ff0000;stroke-width:0.264583;stroke-linecap:round;stroke-linejoin:round;stroke-miterlimit:4;stroke-dasharray:none"
       id="circle901"
       cx="81.414589"
       cy="22.233725"
       r="1.1177084" />
  </g>
  <g
     inkscape:label="Hershey Text"
     style="fill:none;stroke:#000000;stroke-linecap:round;stroke-linejoin:round"
     id="g24650"
     transform="translate(0.75650477,-0.22673409)">
    <g
       transform="translate(542.037,133.317)"
       id="g24648">
      <path
         d="M 378,662 126,0 M 378,662 630,0 M 220,220 h 316"
         style="stroke-width:0.8362in"
         transform="scale(0.005,-0.005)"
         id="path24632" />
      <path
         d="m 630,567 -63,63 -95,32 H 346 l -94,-32 -63,-63 v -63 l 31,-63 32,-31 63,-32 189,-63 63,-31 31,-32 32,-63 V 94.5 L 567,31.5 472,0 H 346 l -94,31.5 -63,63"
         style="stroke-width:0.8362in"
         transform="matrix(0.005,0,0,-0.005,2.835,0)"
         id="path24634" />
      <path
         d="m 630,567 -63,63 -95,32 H 346 l -94,-32 -63,-63 v -63 l 31,-63 32,-31 63,-32 189,-63 63,-31 31,-32 32,-63 V 94.5 L 567,31.5 472,0 H 346 l -94,31.5 -63,63"
         style="stroke-width:0.8362in"
         transform="matrix(0.005,0,0,-0.005,5.985,0)"
         id="path24636" />
      <path
         d="M 220,662 V 0"
         style="stroke-width:0.8362in"
         transform="matrix(0.005,0,0,-0.005,9.135,0)"
         id="path24638" />
      <path
         d="M 220,662 V 0 m 0,662 H 630 M 220,346 H 472 M 220,0 h 410"
         style="stroke-width:0.8362in"
         transform="matrix(0.005,0,0,-0.005,10.395,0)"
         id="path24640" />
      <path
         d="M 346,662 V 0 M 126,662 h 441"
         style="stroke-width:0.8362in"
         transform="matrix(0.005,0,0,-0.005,13.385,0)"
         id="path24642" />
      <path
         d="M 346,662 V 0 M 126,662 h 441"
         style="stroke-width:0.8362in"
         transform="matrix(0.005,0,0,-0.005,15.905,0)"
         id="path24644" />
      <path
         d="M 220,662 V 0 m 0,662 H 630 M 220,346 H 472 M 220,0 h 410"
         style="stroke-width:0.8362in"
         transform="matrix(0.005,0,0,-0.005,18.425,0)"
         id="path24646" />
    </g>
  </g>
  <g
     id="g25054"
     transform="translate(28.173017,-80.25752)">
    <rect
       style="fill:none;fill-rule:evenodd;stroke:#ff0000;stroke-width:0.1;stroke-linecap:round;stroke-linejoin:round"
       id="rect9589"
       width="9.8999996"
       height="4.9000001"
       x="550.57166"
       y="181.57744" />
    <circle
       style="fill:none;fill-rule:evenodd;stroke:#ff0000;stroke-width:0.1;stroke-linecap:round;stroke-linejoin:round"
       id="path9693"
       cx="546.77167"
       cy="184.02744"
       r="1.6999999" />
    <circle
       style="fill:none;fill-rule:evenodd;stroke:#ff0000;stroke-width:0.1;stroke-linecap:round;stroke-linejoin:round"
       id="circle9775"
       cx="564.27167"
       cy="184.02744"
       r="1.6999999" />
    <g
       inkscape:label="Hershey Text"
       style="fill:none;stroke:#000000;stroke-linecap:round;stroke-linejoin:round"
       id="g24484"
       transform="translate(0.45815508,7.8197504)">
      <g
         transform="translate(544.901,172.507)"
         id="g24482">
        <path
           d="m 662,504 -32,63 -63,63 -63,32 H 378 L 315,630 252,567 220,504 189,410 V 252 l 31,-94 32,-63.5 63,-63 L 378,0 h 126 l 63,31.5 63,63 32,63.5"
           style="stroke-width:0.8362in"
           transform="scale(0.005,-0.005)"
           id="path24470" />
        <path
           d="M 220,662 V 0 M 662,662 V 0 M 220,346 h 442"
           style="stroke-width:0.8362in"
           transform="matrix(0.005,0,0,-0.005,3.31,0)"
           id="path24472" />
        <path
           d="M 378,662 126,0 M 378,662 630,0 M 220,220 h 316"
           style="stroke-width:0.8362in"
           transform="matrix(0.005,0,0,-0.005,6.775,0)"
           id="path24474" />
        <path
           d="M 220,662 V 0 m 0,662 h 284 l 94,-32 32,-32 32,-62 V 472 L 630,410 598,378 504,346 H 220 M 441,346 662,0"
           style="stroke-width:0.8362in"
           transform="matrix(0.005,0,0,-0.005,9.61,0)"
           id="path24476" />
        <path
           d="m 662,504 -32,63 -63,63 -63,32 H 378 L 315,630 252,567 220,504 189,410 V 252 l 31,-94 32,-63.5 63,-63 L 378,0 h 126 l 63,31.5 63,63 32,63.5 v 94 m -158,0 h 158"
           style="stroke-width:0.8362in"
           transform="matrix(0.005,0,0,-0.005,12.92,0)"
           id="path24478" />
        <path
           d="M 220,662 V 0 m 0,662 H 630 M 220,346 H 472 M 220,0 h 410"
           style="stroke-width:0.8362in"
           transform="matrix(0.005,0,0,-0.005,16.23,0)"
           id="path24480" />
      </g>
    </g>
  </g>
  <g
     id="g906"
     transform="translate(-24.837929)">
    <rect
       style="fill:none;fill-rule:evenodd;stroke:#ff0000;stroke-width:0.264583;stroke-linecap:round;stroke-linejoin:round;stroke-miterlimit:4;stroke-dasharray:none"
       id="rect728"
       width="13"
       height="20.235416"
       x="-110.13763"
       y="543.69843"
       transform="rotate(-90)" />
    <g
       inkscape:label="Hershey Text"
       style="fill:none;stroke:#000000;stroke-linecap:round;stroke-linejoin:round"
       id="g24830"
       transform="translate(-4.4428665,-1.5700528)">
      <g
         transform="translate(545.974,96.2747)"
         id="g24828">
        <path
           d="M 378,662 315,630 252,567 220,504 189,410 V 252 l 31,-94 32,-63.5 63,-63 L 378,0 h 126 l 63,31.5 63,63 32,63.5 31,94 v 158 l -31,94 -32,63 -63,63 -63,32 H 378"
           style="stroke-width:0.8362in"
           transform="scale(0.005,-0.005)"
           id="path24816" />
        <path
           d="M 220,662 V 0 M 220,662 662,0 m 0,662 V 0"
           style="stroke-width:0.8362in"
           transform="matrix(0.005,0,0,-0.005,3.465,0)"
           id="path24818" />
        <path
           d="M 724,788 158,-220"
           style="stroke-width:0.8362in"
           transform="matrix(0.005,0,0,-0.005,8.82,0)"
           id="path24820" />
        <path
           d="M 378,662 315,630 252,567 220,504 189,410 V 252 l 31,-94 32,-63.5 63,-63 L 378,0 h 126 l 63,31.5 63,63 32,63.5 31,94 v 158 l -31,94 -32,63 -63,63 -63,32 H 378"
           style="stroke-width:0.8362in"
           transform="matrix(0.005,0,0,-0.005,14.175,0)"
           id="path24822" />
        <path
           d="M 220,662 V 0 m 0,662 H 630 M 220,346 h 252"
           style="stroke-width:0.8362in"
           transform="matrix(0.005,0,0,-0.005,17.64,0)"
           id="path24824" />
        <path
           d="M 220,662 V 0 m 0,662 H 630 M 220,346 h 252"
           style="stroke-width:0.8362in"
           transform="matrix(0.005,0,0,-0.005,20.475,0)"
           id="path24826" />
      </g>
    </g>
  </g>
  <g
     inkscape:label="Hershey Text"
     style="fill:none;stroke:#000000;stroke-linecap:round;stroke-linejoin:round"
     id="g25016"
     transform="translate(-5.1409952,0.1178759)">
    <g
       transform="translate(552.238,55.8322)"
       id="g25014">
      <path
         d="M 220,662 V 0 m 0,0 h 378"
         style="stroke-width:0.8362in"
         transform="scale(0.005,-0.005)"
         id="path25006" />
      <path
         d="M 220,662 V 0 m 0,662 H 630 M 220,346 H 472 M 220,0 h 410"
         style="stroke-width:0.8362in"
         transform="matrix(0.005,0,0,-0.005,2.68,0)"
         id="path25008" />
      <path
         d="M 220,662 V 0 m 0,662 h 221 l 95,-32 62,-63 32,-63 32,-94 V 252 L 630,158 598,94.5 536,31.5 441,0 H 220"
         style="stroke-width:0.8362in"
         transform="matrix(0.005,0,0,-0.005,5.67,0)"
         id="path25010" />
      <path
         d="m 630,567 -63,63 -95,32 H 346 l -94,-32 -63,-63 v -63 l 31,-63 32,-31 63,-32 189,-63 63,-31 31,-32 32,-63 V 94.5 L 567,31.5 472,0 H 346 l -94,31.5 -63,63"
         style="stroke-width:0.8362in"
         transform="matrix(0.005,0,0,-0.005,8.98,0)"
         id="path25012" />
    </g>
  </g>
</svg>
