<?xml version="1.0" encoding="UTF-8" standalone="no"?>
<!-- Created with Inkscape (http://www.inkscape.org/) -->

<svg
   width="714.09503mm"
   height="307.4921mm"
   viewBox="0 0 714.09504 307.49211"
   version="1.1"
   id="svg2256"
   inkscape:version="1.1.2 (0a00cf5339, 2022-02-04, custom)"
   sodipodi:docname="Assiette.svg"
   xmlns:inkscape="http://www.inkscape.org/namespaces/inkscape"
   xmlns:sodipodi="http://sodipodi.sourceforge.net/DTD/sodipodi-0.dtd"
   xmlns="http://www.w3.org/2000/svg"
   xmlns:svg="http://www.w3.org/2000/svg">
  <sodipodi:namedview
     id="namedview2258"
     pagecolor="#ffffff"
     bordercolor="#666666"
     borderopacity="1.0"
     inkscape:pageshadow="2"
     inkscape:pageopacity="0.0"
     inkscape:pagecheckerboard="0"
     inkscape:document-units="mm"
     showgrid="false"
     inkscape:zoom="0.56630543"
     inkscape:cx="1200.7655"
     inkscape:cy="977.38777"
     inkscape:window-width="3840"
     inkscape:window-height="2081"
     inkscape:window-x="-9"
     inkscape:window-y="-9"
     inkscape:window-maximized="1"
     inkscape:current-layer="layer1" />
  <defs
     id="defs2253" />
  <g
     inkscape:label="Calque 1"
     inkscape:groupmode="layer"
     id="layer1"
     transform="translate(-334.16441,287.29324)">
    <g
       id="g1501"
       transform="matrix(1.5322127,0,0,1.5322127,-353.66166,-221.8621)"
       style="stroke-width:0.652651">
      <ellipse
         style="fill:none;stroke:#ff0000;stroke-width:0.17268"
         id="circle830"
         cx="563.99664"
         cy="57.382645"
         rx="115"
         ry="100" />
      <path
         id="ellipse914"
         style="fill:none;stroke:#ff0000;stroke-width:0.17268"
         d="m 560.21289,-20.390625 c -21.23721,0.848996 -42.31177,7.978631 -59.29608,20.83628268 C 487.6741,10.574486 477.53912,24.977168 473.31947,41.172498 c -4.68537,18.178906 -0.95901,38.194684 9.46278,53.744698 6.58169,9.846534 15.378,18.166674 25.36116,24.502964 13.36334,8.43201 28.7793,13.41952 44.45947,15.09267 23.18654,2.44647 47.29068,-2.58389 67.09625,-15.01659 12.7998,-8.05199 23.75105,-19.38074 30.36169,-33.05802 5.88589,-12.132698 8.08542,-26.067869 5.93432,-39.406127 -2.12065,-13.599833 -8.71917,-26.288006 -17.90016,-36.455455 -9.82129,-10.89220608 -22.51583,-18.9954192 -36.19469,-24.154121 -12.96154,-4.869974 -26.87266,-7.116566 -40.70646,-6.843131 -0.32698,0.01 -0.65396,0.01999 -0.98094,0.02999 z" />
    </g>
    <ellipse
       style="fill:none;stroke:#ff0000;stroke-width:0.264582"
       id="circle830-8"
       cx="871.92267"
       cy="-133.15471"
       rx="176.20447"
       ry="153.22127" />
    <ellipse
       style="fill:none;stroke:#ff0000;stroke-width:0.264583"
       id="ellipse1174"
       cx="871.92267"
       cy="-133.15471"
       rx="15"
       ry="14.999999" />
  </g>
</svg>
