<?xml version="1.0" encoding="UTF-8" standalone="no"?>
<svg
   height="232.20mm"
   viewBox="0.0 0.0 412.06 232.20"
   width="412.06mm"
   version="1.1"
   id="svg93"
   sodipodi:docname="RegularBox.svg"
   inkscape:version="1.1.2 (0a00cf5339, 2022-02-04, custom)"
   xmlns:inkscape="http://www.inkscape.org/namespaces/inkscape"
   xmlns:sodipodi="http://sodipodi.sourceforge.net/DTD/sodipodi-0.dtd"
   xmlns="http://www.w3.org/2000/svg"
   xmlns:svg="http://www.w3.org/2000/svg"
   xmlns:rdf="http://www.w3.org/1999/02/22-rdf-syntax-ns#"
   xmlns:cc="http://creativecommons.org/ns#"
   xmlns:dc="http://purl.org/dc/elements/1.1/">
  <defs
     id="defs97" />
  <sodipodi:namedview
     id="namedview95"
     pagecolor="#ffffff"
     bordercolor="#666666"
     borderopacity="1.0"
     inkscape:pageshadow="2"
     inkscape:pageopacity="0.0"
     inkscape:pagecheckerboard="0"
     inkscape:document-units="mm"
     showgrid="false"
     inkscape:zoom="1.6656049"
     inkscape:cx="1429.5107"
     inkscape:cy="492.01343"
     inkscape:window-width="3840"
     inkscape:window-height="2081"
     inkscape:window-x="-9"
     inkscape:window-y="-9"
     inkscape:window-maximized="1"
     inkscape:current-layer="svg93" />
  <!--
RegularBox - Box with regular polygon as base


For short side walls that don't fit a connecting finger reduce *surroundingspaces* and *finger* in the Finger Joint Settings.

The lids needs to be glued. For the bayonet lid all outside rings attach to the bottom, all inside rings to the top.



Created with Boxes.py (https://festi.info/boxes.py)
Creation date: 2022-02-10 15:17:46
Command line (remove spaces between dashes): boxes RegularBox - -FingerJoint_angle=90.0 - -FingerJoint_style=rectangular - -FingerJoint_surroundingspaces=1 - -FingerJoint_edge_width=1.0 - -FingerJoint_extra_length=0.0 - -FingerJoint_finger=2.0 - -FingerJoint_play=0.0 - -FingerJoint_space=2.0 - -FingerJoint_width=1.0 - -h=100.0 - -outside=0 - -radius=50.0 - -n=6 '- -top=bayonet mount' - -alignment_pins=1.0 - -thickness=3.0 - -format=svg - -tabs=0.0 - -debug=0 - -labels=0 - -labels=1 - -reference=100 - -burn=0.1
Url: http://www.festi.info/RegularBox?FingerJoint_angle=90.0&FingerJoint_style=rectangular&FingerJoint_surroundingspaces=1&FingerJoint_edge_width=1.0&FingerJoint_extra_length=0.0&FingerJoint_finger=2.0&FingerJoint_play=0.0&FingerJoint_space=2.0&FingerJoint_width=1.0&h=100.0&outside=0&radius=50.0&n=6&top=bayonet+mount&alignment_pins=1.0&thickness=3.0&format=svg&tabs=0.0&debug=0&labels=0&labels=1&reference=100&burn=0.1&render=1
SettingsUrl: http://www.festi.info/RegularBox?FingerJoint_angle=90.0&FingerJoint_style=rectangular&FingerJoint_surroundingspaces=1&FingerJoint_edge_width=1.0&FingerJoint_extra_length=0.0&FingerJoint_finger=2.0&FingerJoint_play=0.0&FingerJoint_space=2.0&FingerJoint_width=1.0&h=100.0&outside=0&radius=50.0&n=6&top=bayonet+mount&alignment_pins=1.0&thickness=3.0&format=svg&tabs=0.0&debug=0&labels=0&labels=1&reference=100&burn=0.1
-->
  <title
     id="title2">RegularBox</title>
  <metadata
     id="metadata4">
    <rdf:RDF>
      <cc:Work>
        <dc:title>Box - RegularBox</dc:title>
        <dc:date>2022-02-10 15:17:46</dc:date>
        <dc:source>http://www.festi.info/RegularBox?FingerJoint_angle=90.0&amp;FingerJoint_style=rectangular&amp;FingerJoint_surroundingspaces=1&amp;FingerJoint_edge_width=1.0&amp;FingerJoint_extra_length=0.0&amp;FingerJoint_finger=2.0&amp;FingerJoint_play=0.0&amp;FingerJoint_space=2.0&amp;FingerJoint_width=1.0&amp;h=100.0&amp;outside=0&amp;radius=50.0&amp;n=6&amp;top=bayonet+mount&amp;alignment_pins=1.0&amp;thickness=3.0&amp;format=svg&amp;tabs=0.0&amp;debug=0&amp;labels=0&amp;labels=1&amp;reference=100&amp;burn=0.1&amp;render=1</dc:source>
        <dc:description>Box with regular polygon as base

For short side walls that don't fit a connecting finger reduce *surroundingspaces* and *finger* in the Finger Joint Settings.

The lids needs to be glued. For the bayonet lid all outside rings attach to the bottom, all inside rings to the top.


Created with Boxes.py (https://festi.info/boxes.py)
Command line: boxes RegularBox --FingerJoint_angle=90.0 --FingerJoint_style=rectangular --FingerJoint_surroundingspaces=1 --FingerJoint_edge_width=1.0 --FingerJoint_extra_length=0.0 --FingerJoint_finger=2.0 --FingerJoint_play=0.0 --FingerJoint_space=2.0 --FingerJoint_width=1.0 --h=100.0 --outside=0 --radius=50.0 --n=6 '--top=bayonet mount' --alignment_pins=1.0 --thickness=3.0 --format=svg --tabs=0.0 --debug=0 --labels=0 --labels=1 --reference=100 --burn=0.1
Url: http://www.festi.info/RegularBox?FingerJoint_angle=90.0&amp;FingerJoint_style=rectangular&amp;FingerJoint_surroundingspaces=1&amp;FingerJoint_edge_width=1.0&amp;FingerJoint_extra_length=0.0&amp;FingerJoint_finger=2.0&amp;FingerJoint_play=0.0&amp;FingerJoint_space=2.0&amp;FingerJoint_width=1.0&amp;h=100.0&amp;outside=0&amp;radius=50.0&amp;n=6&amp;top=bayonet+mount&amp;alignment_pins=1.0&amp;thickness=3.0&amp;format=svg&amp;tabs=0.0&amp;debug=0&amp;labels=0&amp;labels=1&amp;reference=100&amp;burn=0.1&amp;render=1
SettingsUrl: http://www.festi.info/RegularBox?FingerJoint_angle=90.0&amp;FingerJoint_style=rectangular&amp;FingerJoint_surroundingspaces=1&amp;FingerJoint_edge_width=1.0&amp;FingerJoint_extra_length=0.0&amp;FingerJoint_finger=2.0&amp;FingerJoint_play=0.0&amp;FingerJoint_space=2.0&amp;FingerJoint_width=1.0&amp;h=100.0&amp;outside=0&amp;radius=50.0&amp;n=6&amp;top=bayonet+mount&amp;alignment_pins=1.0&amp;thickness=3.0&amp;format=svg&amp;tabs=0.0&amp;debug=0&amp;labels=0&amp;labels=1&amp;reference=100&amp;burn=0.1
</dc:description>
      </cc:Work>
    </rdf:RDF>
  </metadata>
  <g
     id="p-1"
     style="fill:none;stroke-linecap:round;stroke-linejoin:round;stroke:#ff0000">
    <text
       alignment-baseline="hanging"
       font-size="4px"
       style="font-family:sans-serif;font-weight:normal;font-style:normal;fill:none;stroke:#ff0000"
       text-anchor="middle"
       transform="matrix( 1.000 0.000 0.000 1.000 63.564 162.201 )"
       id="text13" />
    <path
       d="M 38.564 210.503 H 42.564 C 42.619 210.503 42.664 210.458 42.664 210.403 V 207.503 C 42.664 207.403 42.564 207.503 42.664 207.503 H 48.464 C 48.564 207.503 48.464 207.403 48.464 207.503 V 210.403 C 48.464 210.458 48.509 210.503 48.564 210.503 H 54.564 C 54.619 210.503 54.664 210.458 54.664 210.403 V 207.503 C 54.664 207.403 54.564 207.503 54.664 207.503 H 60.464 C 60.564 207.503 60.464 207.403 60.464 207.503 V 210.403 C 60.464 210.458 60.509 210.503 60.564 210.503 H 66.564 C 66.619 210.503 66.664 210.458 66.664 210.403 V 207.503 C 66.664 207.403 66.564 207.503 66.664 207.503 H 72.464 C 72.564 207.503 72.464 207.403 72.464 207.503 V 210.403 C 72.464 210.458 72.509 210.503 72.564 210.503 H 78.564 C 78.619 210.503 78.664 210.458 78.664 210.403 V 207.503 C 78.664 207.403 78.564 207.503 78.664 207.503 H 84.464 C 84.564 207.503 84.464 207.403 84.464 207.503 V 210.403 C 84.464 210.458 84.509 210.503 84.564 210.503 H 88.564 H 90.296 C 90.332 210.503 90.365 210.483 90.383 210.453 L 91.249 208.953 L 93.249 205.488 C 93.276 205.441 93.260 205.379 93.212 205.352 L 90.701 203.902 C 90.614 203.852 90.651 203.988 90.701 203.902 L 93.601 198.879 C 93.651 198.792 93.514 198.829 93.601 198.879 L 96.112 200.329 C 96.160 200.357 96.221 200.340 96.249 200.292 L 99.249 195.096 C 99.276 195.048 99.260 194.987 99.212 194.960 L 96.701 193.510 C 96.614 193.460 96.651 193.596 96.701 193.510 L 99.601 188.487 C 99.651 188.400 99.514 188.437 99.601 188.487 L 102.112 189.937 C 102.160 189.964 102.221 189.948 102.249 189.900 L 105.249 184.704 C 105.276 184.656 105.260 184.595 105.212 184.567 L 102.701 183.117 C 102.614 183.067 102.651 183.204 102.701 183.117 L 105.601 178.094 C 105.651 178.008 105.514 178.044 105.601 178.094 L 108.112 179.544 C 108.160 179.572 108.221 179.556 108.249 179.508 L 111.249 174.312 C 111.276 174.264 111.260 174.203 111.212 174.175 L 108.701 172.725 C 108.614 172.675 108.651 172.812 108.701 172.725 L 111.601 167.702 C 111.651 167.615 111.514 167.652 111.601 167.702 L 114.112 169.152 C 114.160 169.180 114.221 169.163 114.249 169.115 L 116.249 165.651 L 117.115 164.151 C 117.133 164.120 117.133 164.082 117.115 164.051 L 116.249 162.551 L 114.249 159.087 C 114.221 159.039 114.160 159.023 114.112 159.051 L 111.601 160.501 C 111.514 160.551 111.651 160.587 111.601 160.501 L 108.701 155.478 C 108.651 155.391 108.614 155.528 108.701 155.478 L 111.212 154.028 C 111.260 154.000 111.276 153.939 111.249 153.891 L 108.249 148.695 C 108.221 148.647 108.160 148.631 108.112 148.658 L 105.601 150.108 C 105.514 150.158 105.651 150.195 105.601 150.108 L 102.701 145.085 C 102.651 144.999 102.614 145.135 102.701 145.085 L 105.212 143.635 C 105.260 143.608 105.276 143.547 105.249 143.499 L 102.249 138.303 C 102.221 138.255 102.160 138.238 102.112 138.266 L 99.601 139.716 C 99.514 139.766 99.651 139.803 99.601 139.716 L 96.701 134.693 C 96.651 134.606 96.614 134.743 96.701 134.693 L 99.212 133.243 C 99.260 133.215 99.276 133.154 99.249 133.106 L 96.249 127.910 C 96.221 127.862 96.160 127.846 96.112 127.874 L 93.601 129.324 C 93.514 129.374 93.651 129.410 93.601 129.324 L 90.701 124.301 C 90.651 124.214 90.614 124.351 90.701 124.301 L 93.212 122.851 C 93.260 122.823 93.276 122.762 93.249 122.714 L 91.249 119.250 L 90.383 117.750 C 90.365 117.719 90.332 117.700 90.296 117.700 H 88.564 H 84.564 C 84.509 117.700 84.464 117.745 84.464 117.800 V 120.700 C 84.464 120.800 84.564 120.700 84.464 120.700 H 78.664 C 78.564 120.700 78.664 120.800 78.664 120.700 V 117.800 C 78.664 117.745 78.619 117.700 78.564 117.700 H 72.564 C 72.509 117.700 72.464 117.745 72.464 117.800 V 120.700 C 72.464 120.800 72.564 120.700 72.464 120.700 H 66.664 C 66.564 120.700 66.664 120.800 66.664 120.700 V 117.800 C 66.664 117.745 66.619 117.700 66.564 117.700 H 60.564 C 60.509 117.700 60.464 117.745 60.464 117.800 V 120.700 C 60.464 120.800 60.564 120.700 60.464 120.700 H 54.664 C 54.564 120.700 54.664 120.800 54.664 120.700 V 117.800 C 54.664 117.745 54.619 117.700 54.564 117.700 H 48.564 C 48.509 117.700 48.464 117.745 48.464 117.800 V 120.700 C 48.464 120.800 48.564 120.700 48.464 120.700 H 42.664 C 42.564 120.700 42.664 120.800 42.664 120.700 V 117.800 C 42.664 117.745 42.619 117.700 42.564 117.700 H 38.564 H 36.832 C 36.796 117.700 36.763 117.719 36.745 117.750 L 35.879 119.250 L 33.879 122.714 C 33.852 122.762 33.868 122.823 33.916 122.851 L 36.427 124.301 C 36.514 124.351 36.477 124.214 36.427 124.301 L 33.527 129.324 C 33.477 129.410 33.614 129.374 33.527 129.324 L 31.016 127.874 C 30.968 127.846 30.907 127.862 30.879 127.910 L 27.879 133.106 C 27.852 133.154 27.868 133.215 27.916 133.243 L 30.427 134.693 C 30.514 134.743 30.477 134.606 30.427 134.693 L 27.527 139.716 C 27.477 139.803 27.614 139.766 27.527 139.716 L 25.016 138.266 C 24.968 138.238 24.907 138.255 24.879 138.303 L 21.879 143.499 C 21.852 143.547 21.868 143.608 21.916 143.635 L 24.427 145.085 C 24.514 145.135 24.477 144.999 24.427 145.085 L 21.527 150.108 C 21.477 150.195 21.614 150.158 21.527 150.108 L 19.016 148.658 C 18.968 148.631 18.907 148.647 18.879 148.695 L 15.879 153.891 C 15.852 153.939 15.868 154.000 15.916 154.028 L 18.427 155.478 C 18.514 155.528 18.477 155.391 18.427 155.478 L 15.527 160.501 C 15.477 160.587 15.614 160.551 15.527 160.501 L 13.016 159.051 C 12.968 159.023 12.907 159.039 12.879 159.087 L 10.879 162.551 L 10.013 164.051 C 9.996 164.082 9.996 164.120 10.013 164.151 L 10.879 165.651 L 12.879 169.115 C 12.907 169.163 12.968 169.180 13.016 169.152 L 15.527 167.702 C 15.614 167.652 15.477 167.615 15.527 167.702 L 18.427 172.725 C 18.477 172.812 18.514 172.675 18.427 172.725 L 15.916 174.175 C 15.868 174.203 15.852 174.264 15.879 174.312 L 18.879 179.508 C 18.907 179.556 18.968 179.572 19.016 179.544 L 21.527 178.094 C 21.614 178.044 21.477 178.008 21.527 178.094 L 24.427 183.117 C 24.477 183.204 24.514 183.067 24.427 183.117 L 21.916 184.567 C 21.868 184.595 21.852 184.656 21.879 184.704 L 24.879 189.900 C 24.907 189.948 24.968 189.964 25.016 189.937 L 27.527 188.487 C 27.614 188.437 27.477 188.400 27.527 188.487 L 30.427 193.510 C 30.477 193.596 30.514 193.460 30.427 193.510 L 27.916 194.960 C 27.868 194.987 27.852 195.048 27.879 195.096 L 30.879 200.292 C 30.907 200.340 30.968 200.357 31.016 200.329 L 33.527 198.879 C 33.614 198.829 33.477 198.792 33.527 198.879 L 36.427 203.902 C 36.477 203.988 36.514 203.852 36.427 203.902 L 33.916 205.352 C 33.868 205.379 33.852 205.441 33.879 205.488 L 35.879 208.953 L 36.745 210.453 C 36.763 210.483 36.796 210.503 36.832 210.503 H 38.564"
       stroke="rgb(0,0,0)"
       stroke-width="0.20"
       id="path15"
       style="stroke:#ff0000;fill:none" />
  </g>
  <g
     id="p-2"
     style="fill:none;stroke-linecap:round;stroke-linejoin:round;stroke:#ff0000">
    <path
       d="M 204.081 167.351 C 204.081 167.428 204.059 167.503 204.017 167.568 C 203.976 167.632 203.917 167.683 203.847 167.715 C 203.777 167.747 203.700 167.758 203.624 167.747 C 203.548 167.736 203.477 167.704 203.419 167.654 C 203.361 167.603 203.319 167.538 203.297 167.464 C 203.275 167.390 203.275 167.312 203.297 167.239 C 203.319 167.165 203.361 167.099 203.419 167.049 C 203.477 166.999 203.548 166.966 203.624 166.955 C 203.700 166.944 203.777 166.956 203.847 166.987 C 203.917 167.019 203.976 167.071 204.017 167.135 C 204.059 167.200 204.081 167.275 204.081 167.351 Z"
       stroke="rgb(0,0,255)"
       stroke-width="0.20"
       id="path18"
       style="stroke:#ff0000;fill:none" />
    <path
       d="M 140.779 130.804 C 140.845 130.766 140.921 130.747 140.998 130.751 C 141.074 130.754 141.148 130.780 141.211 130.824 C 141.273 130.869 141.322 130.930 141.350 131.002 C 141.379 131.073 141.386 131.151 141.372 131.226 C 141.357 131.301 141.321 131.371 141.268 131.426 C 141.215 131.482 141.148 131.521 141.073 131.539 C 140.999 131.557 140.920 131.553 140.848 131.528 C 140.776 131.503 140.712 131.458 140.664 131.398 C 140.617 131.337 140.588 131.265 140.581 131.188 C 140.573 131.112 140.588 131.035 140.623 130.967 C 140.658 130.899 140.712 130.842 140.779 130.804 Z"
       stroke="rgb(0,0,255)"
       stroke-width="0.20"
       id="path20"
       style="stroke:#ff0000;fill:none" />
    <path
       d="M 140.779 203.899 C 140.712 203.860 140.658 203.804 140.623 203.736 C 140.588 203.667 140.573 203.591 140.581 203.514 C 140.588 203.438 140.617 203.365 140.664 203.305 C 140.712 203.245 140.776 203.199 140.848 203.174 C 140.920 203.149 140.999 203.145 141.073 203.164 C 141.148 203.182 141.215 203.221 141.268 203.276 C 141.321 203.332 141.357 203.401 141.372 203.477 C 141.386 203.552 141.379 203.630 141.350 203.701 C 141.322 203.772 141.273 203.834 141.211 203.878 C 141.148 203.923 141.074 203.948 140.998 203.952 C 140.921 203.955 140.845 203.937 140.779 203.899 Z"
       stroke="rgb(0,0,255)"
       stroke-width="0.20"
       id="path22"
       style="stroke:#ff0000;fill:none" />
    <path
       d="M 199.431 167.351 C 199.431 167.428 199.409 167.503 199.367 167.568 C 199.326 167.632 199.267 167.683 199.197 167.715 C 199.127 167.747 199.050 167.758 198.974 167.747 C 198.898 167.736 198.827 167.704 198.769 167.654 C 198.711 167.603 198.669 167.538 198.647 167.464 C 198.625 167.390 198.625 167.312 198.647 167.239 C 198.669 167.165 198.711 167.099 198.769 167.049 C 198.827 166.999 198.898 166.966 198.974 166.955 C 199.050 166.944 199.127 166.956 199.197 166.987 C 199.267 167.019 199.326 167.071 199.367 167.135 C 199.409 167.200 199.431 167.275 199.431 167.351 Z"
       stroke="rgb(0,0,255)"
       stroke-width="0.20"
       id="path24"
       style="stroke:#ff0000;fill:none" />
    <path
       d="M 143.104 134.831 C 143.170 134.793 143.246 134.774 143.323 134.778 C 143.399 134.781 143.473 134.807 143.536 134.851 C 143.598 134.896 143.647 134.957 143.675 135.029 C 143.704 135.100 143.711 135.178 143.697 135.253 C 143.682 135.328 143.646 135.398 143.593 135.453 C 143.540 135.509 143.473 135.548 143.398 135.566 C 143.324 135.584 143.245 135.580 143.173 135.555 C 143.101 135.530 143.037 135.485 142.989 135.425 C 142.942 135.364 142.913 135.292 142.906 135.215 C 142.898 135.139 142.913 135.062 142.948 134.994 C 142.983 134.926 143.037 134.869 143.104 134.831 Z"
       stroke="rgb(0,0,255)"
       stroke-width="0.20"
       id="path26"
       style="stroke:#ff0000;fill:none" />
    <path
       d="M 143.104 199.872 C 143.037 199.833 142.983 199.777 142.948 199.709 C 142.913 199.640 142.898 199.564 142.906 199.487 C 142.913 199.411 142.942 199.338 142.989 199.278 C 143.037 199.218 143.101 199.172 143.173 199.147 C 143.245 199.122 143.324 199.118 143.398 199.136 C 143.473 199.155 143.540 199.194 143.593 199.249 C 143.646 199.305 143.682 199.374 143.697 199.450 C 143.711 199.525 143.704 199.603 143.675 199.674 C 143.647 199.745 143.598 199.807 143.536 199.851 C 143.473 199.896 143.399 199.921 143.323 199.925 C 143.246 199.928 143.170 199.910 143.104 199.872 Z"
       stroke="rgb(0,0,255)"
       stroke-width="0.20"
       id="path28"
       style="stroke:#ff0000;fill:none" />
    <path
       d="M 197.581 167.351 C 197.581 174.195 195.613 180.895 191.913 186.653 C 188.213 192.410 182.936 196.983 176.710 199.826 C 170.485 202.669 163.573 203.663 156.799 202.689 C 150.024 201.715 143.673 198.814 138.500 194.332 C 133.328 189.851 129.553 183.976 127.624 177.409 C 125.696 170.843 125.696 163.860 127.624 157.293 C 129.553 150.726 133.328 144.852 138.500 140.370 C 143.673 135.888 150.024 132.987 156.799 132.013 C 163.573 131.039 170.485 132.033 176.710 134.876 C 182.936 137.719 188.213 142.292 191.913 148.050 C 195.613 153.807 197.581 160.507 197.581 167.351 Z"
       stroke="rgb(0,0,255)"
       stroke-width="0.20"
       id="path30"
       style="stroke:#ff0000;fill:none" />
    <text
       alignment-baseline="hanging"
       font-size="4px"
       style="font-family:sans-serif;font-weight:normal;font-style:normal;fill:none;stroke:#ff0000"
       text-anchor="middle"
       transform="matrix( 1.000 0.000 0.000 1.000 161.879 165.351 )"
       id="text32" />
    <path
       d="M 200.681 167.351 C 200.681 171.866 199.891 176.346 198.347 180.588 C 196.803 184.830 194.528 188.770 191.626 192.228 C 191.591 192.270 191.596 192.333 191.639 192.369 L 192.788 193.333 C 192.745 193.298 192.740 193.234 192.775 193.192 C 189.761 196.785 186.141 199.822 182.080 202.167 C 182.128 202.139 182.189 202.155 182.217 202.203 L 181.467 200.904 C 181.439 200.856 181.378 200.840 181.330 200.868 C 177.420 203.125 173.146 204.681 168.700 205.465 C 164.254 206.249 159.705 206.249 155.259 205.465 C 155.205 205.455 155.153 205.491 155.143 205.546 L 154.883 207.023 C 154.892 206.969 154.944 206.932 154.999 206.942 C 150.380 206.127 145.940 204.511 141.879 202.167 C 141.927 202.194 141.943 202.255 141.915 202.303 L 142.665 201.004 C 142.693 200.956 142.677 200.895 142.629 200.868 C 138.719 198.610 135.234 195.686 132.333 192.228 C 129.431 188.770 127.156 184.830 125.612 180.588 C 125.593 180.536 125.536 180.509 125.484 180.528 L 124.074 181.041 C 124.126 181.022 124.184 181.049 124.203 181.101 C 122.599 176.694 121.778 172.041 121.778 167.351 C 121.778 167.406 121.733 167.451 121.678 167.451 H 123.178 C 123.233 167.451 123.278 167.406 123.278 167.351 C 123.278 162.837 124.068 158.357 125.612 154.115 C 127.156 149.872 129.431 145.933 132.333 142.475 C 132.368 142.432 132.363 142.369 132.320 142.334 L 131.171 141.370 C 131.213 141.405 131.219 141.468 131.184 141.510 C 134.198 137.918 137.818 134.881 141.879 132.536 C 141.831 132.564 141.770 132.547 141.742 132.499 L 142.492 133.798 C 142.520 133.846 142.581 133.863 142.629 133.835 C 146.539 131.578 150.813 130.022 155.259 129.238 C 159.705 128.454 164.254 128.454 168.700 129.238 C 168.754 129.248 168.806 129.211 168.816 129.157 L 169.076 127.680 C 169.067 127.734 169.015 127.770 168.960 127.761 C 173.579 128.575 178.019 130.191 182.080 132.536 C 182.032 132.508 182.016 132.447 182.044 132.399 L 181.294 133.698 C 181.266 133.746 181.282 133.807 181.330 133.835 C 185.240 136.092 188.724 139.016 191.626 142.475 C 194.528 145.933 196.803 149.872 198.347 154.115 C 198.366 154.167 198.423 154.193 198.475 154.174 L 199.884 153.661 C 199.833 153.680 199.775 153.654 199.756 153.602 C 201.360 158.008 202.181 162.662 202.181 167.351 C 202.181 167.296 202.226 167.251 202.281 167.251 H 200.781 C 200.726 167.251 200.681 167.296 200.681 167.351 Z M 200.831 167.351 C 200.831 171.883 200.038 176.380 198.488 180.639 C 198.469 180.691 198.496 180.748 198.547 180.767 L 199.957 181.280 C 199.905 181.261 199.878 181.204 199.897 181.152 C 198.287 185.575 195.916 189.683 192.890 193.289 C 189.865 196.894 186.232 199.943 182.155 202.296 C 182.203 202.269 182.264 202.285 182.292 202.333 L 181.542 201.034 C 181.514 200.986 181.453 200.970 181.405 200.997 C 177.480 203.263 173.189 204.825 168.726 205.612 C 168.672 205.622 168.635 205.674 168.645 205.728 L 168.905 207.205 C 168.896 207.151 168.932 207.099 168.986 207.090 C 164.351 207.907 159.608 207.907 154.973 207.090 C 150.337 206.272 145.880 204.650 141.804 202.296 C 141.852 202.324 141.868 202.385 141.840 202.433 L 142.590 201.134 C 142.618 201.086 142.602 201.025 142.554 200.997 C 138.629 198.731 135.131 195.796 132.218 192.324 C 132.182 192.282 132.119 192.277 132.077 192.312 L 130.928 193.276 C 130.970 193.241 131.033 193.246 131.069 193.289 C 128.043 189.683 125.672 185.575 124.062 181.152 C 122.452 176.729 121.628 172.058 121.628 167.351 C 121.628 167.406 121.583 167.451 121.528 167.451 H 123.028 C 123.083 167.451 123.128 167.406 123.128 167.351 C 123.128 162.819 123.921 158.322 125.471 154.063 C 125.490 154.011 125.463 153.954 125.411 153.935 L 124.002 153.422 C 124.054 153.441 124.081 153.498 124.062 153.550 C 125.672 149.127 128.043 145.020 131.069 141.414 C 134.094 137.808 137.727 134.760 141.804 132.406 C 141.756 132.434 141.695 132.417 141.667 132.369 L 142.417 133.668 C 142.445 133.716 142.506 133.733 142.554 133.705 C 146.479 131.439 150.770 129.877 155.233 129.090 C 155.287 129.081 155.324 129.029 155.314 128.974 L 155.054 127.497 C 155.063 127.552 155.027 127.603 154.973 127.613 C 159.608 126.796 164.351 126.796 168.986 127.613 C 173.622 128.430 178.079 130.053 182.155 132.406 C 182.107 132.378 182.091 132.317 182.119 132.269 L 181.369 133.568 C 181.341 133.616 181.357 133.677 181.405 133.705 C 185.330 135.971 188.828 138.906 191.741 142.378 C 191.777 142.420 191.840 142.426 191.882 142.390 L 193.031 141.426 C 192.989 141.462 192.926 141.456 192.890 141.414 C 195.916 145.020 198.287 149.127 199.897 153.550 C 201.507 157.973 202.331 162.644 202.331 167.351 C 202.331 167.296 202.376 167.251 202.431 167.251 H 200.931 C 200.876 167.251 200.831 167.296 200.831 167.351 Z M 205.131 167.351 C 205.131 159.060 202.747 150.943 198.265 143.968 C 193.782 136.993 187.389 131.453 179.847 128.009 C 172.305 124.564 163.931 123.360 155.724 124.540 C 147.517 125.720 139.822 129.234 133.556 134.664 C 127.290 140.094 122.716 147.210 120.380 155.166 C 118.044 163.122 118.044 171.581 120.380 179.537 C 122.716 187.492 127.290 194.609 133.556 200.038 C 139.822 205.468 147.517 208.982 155.724 210.162 C 163.931 211.342 172.305 210.138 179.847 206.694 C 187.389 203.250 193.782 197.710 198.265 190.735 C 202.747 183.759 205.131 175.643 205.131 167.351"
       stroke="rgb(0,0,0)"
       stroke-width="0.20"
       id="path34"
       style="stroke:#ff0000;fill:none" />
  </g>
  <g
     id="p-3"
     style="fill:none;stroke-linecap:round;stroke-linejoin:round;stroke:#ff0000">
    <path
       d="M 295.896 164.101 C 295.896 170.945 293.929 177.645 290.229 183.403 C 286.528 189.160 281.251 193.733 275.026 196.576 C 268.800 199.419 261.888 200.413 255.114 199.439 C 248.340 198.465 241.988 195.564 236.815 191.082 C 231.643 186.601 227.868 180.726 225.940 174.159 C 224.012 167.593 224.012 160.610 225.940 154.043 C 227.868 147.476 231.643 141.602 236.815 137.120 C 241.988 132.638 248.340 129.737 255.114 128.763 C 261.888 127.789 268.800 128.783 275.026 131.626 C 281.251 134.469 286.528 139.042 290.229 144.800 C 293.929 150.557 295.896 157.257 295.896 164.101 Z"
       stroke="rgb(0,0,255)"
       stroke-width="0.20"
       id="path37"
       style="stroke:#ff0000;fill:none" />
    <path
       d="M 298.896 164.101 C 298.896 171.520 296.764 178.783 292.752 185.025 C 288.741 191.266 283.021 196.223 276.272 199.305 C 269.523 202.387 262.031 203.464 254.687 202.409 C 247.343 201.353 240.458 198.208 234.851 193.350 C 229.244 188.491 225.151 182.123 223.061 175.005 C 220.971 167.886 220.971 160.317 223.061 153.198 C 225.151 146.079 229.244 139.711 234.851 134.853 C 240.458 129.994 247.343 126.850 254.687 125.794 C 262.031 124.738 269.523 125.815 276.272 128.897 C 283.021 131.979 288.741 136.936 292.752 143.178 C 296.764 149.419 298.896 156.682 298.896 164.101 Z"
       stroke="rgb(0,0,255)"
       stroke-width="0.20"
       id="path39"
       style="stroke:#ff0000;fill:none" />
    <path
       d="M 302.396 164.101 C 302.396 164.178 302.374 164.253 302.333 164.318 C 302.291 164.382 302.232 164.433 302.162 164.465 C 302.093 164.497 302.015 164.508 301.939 164.497 C 301.863 164.486 301.792 164.454 301.734 164.404 C 301.676 164.353 301.634 164.288 301.612 164.214 C 301.591 164.140 301.591 164.062 301.612 163.989 C 301.634 163.915 301.676 163.849 301.734 163.799 C 301.792 163.749 301.863 163.716 301.939 163.705 C 302.015 163.694 302.093 163.706 302.162 163.737 C 302.232 163.769 302.291 163.821 302.333 163.885 C 302.374 163.950 302.396 164.025 302.396 164.101 Z"
       stroke="rgb(0,0,255)"
       stroke-width="0.20"
       id="path41"
       style="stroke:#ff0000;fill:none" />
    <path
       d="M 297.746 164.101 C 297.746 164.178 297.724 164.253 297.683 164.318 C 297.641 164.382 297.582 164.433 297.512 164.465 C 297.443 164.497 297.365 164.508 297.289 164.497 C 297.213 164.486 297.142 164.454 297.084 164.404 C 297.026 164.353 296.984 164.288 296.962 164.214 C 296.941 164.140 296.941 164.062 296.962 163.989 C 296.984 163.915 297.026 163.849 297.084 163.799 C 297.142 163.749 297.213 163.716 297.289 163.705 C 297.365 163.694 297.443 163.706 297.512 163.737 C 297.582 163.769 297.641 163.821 297.683 163.885 C 297.724 163.950 297.746 164.025 297.746 164.101 Z"
       stroke="rgb(0,0,255)"
       stroke-width="0.20"
       id="path43"
       style="stroke:#ff0000;fill:none" />
    <path
       d="M 239.094 127.554 C 239.161 127.516 239.237 127.497 239.313 127.501 C 239.390 127.504 239.464 127.530 239.526 127.574 C 239.589 127.619 239.637 127.680 239.666 127.752 C 239.694 127.823 239.701 127.901 239.687 127.976 C 239.672 128.051 239.637 128.121 239.584 128.176 C 239.531 128.232 239.463 128.271 239.389 128.289 C 239.314 128.307 239.236 128.303 239.163 128.278 C 239.091 128.253 239.027 128.208 238.980 128.148 C 238.932 128.087 238.903 128.015 238.896 127.938 C 238.889 127.862 238.904 127.785 238.939 127.717 C 238.974 127.649 239.028 127.592 239.094 127.554 Z"
       stroke="rgb(0,0,255)"
       stroke-width="0.20"
       id="path45"
       style="stroke:#ff0000;fill:none" />
    <path
       d="M 241.419 131.581 C 241.486 131.543 241.562 131.524 241.638 131.528 C 241.715 131.531 241.789 131.557 241.851 131.601 C 241.914 131.646 241.962 131.707 241.991 131.779 C 242.019 131.850 242.026 131.928 242.012 132.003 C 241.997 132.078 241.962 132.148 241.909 132.203 C 241.856 132.259 241.788 132.298 241.714 132.316 C 241.639 132.334 241.561 132.330 241.488 132.305 C 241.416 132.280 241.352 132.235 241.305 132.175 C 241.257 132.114 241.228 132.042 241.221 131.965 C 241.214 131.889 241.229 131.812 241.264 131.744 C 241.299 131.676 241.353 131.619 241.419 131.581 Z"
       stroke="rgb(0,0,255)"
       stroke-width="0.20"
       id="path47"
       style="stroke:#ff0000;fill:none" />
    <path
       d="M 239.094 200.649 C 239.028 200.610 238.974 200.554 238.939 200.486 C 238.904 200.417 238.889 200.341 238.896 200.264 C 238.903 200.188 238.932 200.115 238.980 200.055 C 239.027 199.995 239.091 199.949 239.163 199.924 C 239.236 199.899 239.314 199.895 239.389 199.914 C 239.463 199.932 239.531 199.971 239.584 200.026 C 239.637 200.082 239.672 200.151 239.687 200.227 C 239.701 200.302 239.694 200.380 239.666 200.451 C 239.637 200.522 239.589 200.584 239.526 200.628 C 239.464 200.673 239.390 200.698 239.313 200.702 C 239.237 200.705 239.161 200.687 239.094 200.649 Z"
       stroke="rgb(0,0,255)"
       stroke-width="0.20"
       id="path49"
       style="stroke:#ff0000;fill:none" />
    <path
       d="M 241.419 196.622 C 241.353 196.583 241.299 196.527 241.264 196.459 C 241.229 196.390 241.214 196.314 241.221 196.237 C 241.228 196.161 241.257 196.088 241.305 196.028 C 241.352 195.968 241.416 195.922 241.488 195.897 C 241.561 195.872 241.639 195.868 241.714 195.886 C 241.788 195.905 241.856 195.944 241.909 195.999 C 241.962 196.055 241.997 196.124 242.012 196.200 C 242.026 196.275 242.019 196.353 241.991 196.424 C 241.962 196.495 241.914 196.557 241.851 196.601 C 241.789 196.646 241.715 196.671 241.638 196.675 C 241.562 196.678 241.486 196.660 241.419 196.622 Z"
       stroke="rgb(0,0,255)"
       stroke-width="0.20"
       id="path51"
       style="stroke:#ff0000;fill:none" />
    <text
       alignment-baseline="hanging"
       font-size="4px"
       style="font-family:sans-serif;font-weight:normal;font-style:normal;fill:none;stroke:#ff0000"
       text-anchor="middle"
       transform="matrix( 1.000 0.000 0.000 1.000 260.195 162.201 )"
       id="text53" />
    <path
       d="M 298.996 164.101 C 298.996 168.519 298.242 172.905 296.768 177.070 C 295.293 181.235 293.118 185.118 290.338 188.551 C 290.303 188.594 290.310 188.657 290.353 188.692 L 291.518 189.636 C 291.476 189.601 291.469 189.538 291.504 189.495 C 288.393 193.337 284.602 196.575 280.320 199.046 C 280.368 199.019 280.429 199.035 280.457 199.083 L 279.707 197.784 C 279.679 197.736 279.618 197.720 279.570 197.747 C 275.744 199.957 271.569 201.497 267.225 202.302 C 262.881 203.107 258.431 203.165 254.067 202.474 C 254.013 202.466 253.961 202.503 253.953 202.557 L 253.718 204.039 C 253.727 203.984 253.778 203.947 253.833 203.956 C 248.950 203.182 244.251 201.518 239.969 199.046 C 240.017 199.074 240.033 199.135 240.006 199.183 L 240.756 197.884 C 240.783 197.836 240.767 197.775 240.719 197.747 C 236.893 195.538 233.472 192.693 230.602 189.333 C 227.733 185.974 225.457 182.149 223.874 178.024 C 223.854 177.973 223.796 177.947 223.745 177.967 L 222.344 178.504 C 222.396 178.485 222.454 178.510 222.474 178.562 C 220.702 173.947 219.794 169.045 219.794 164.101 C 219.794 164.156 219.749 164.201 219.694 164.201 H 221.194 C 221.249 164.201 221.294 164.156 221.294 164.101 C 221.294 159.683 222.047 155.297 223.522 151.132 C 224.997 146.968 227.171 143.085 229.952 139.651 C 229.986 139.608 229.980 139.545 229.937 139.511 L 228.771 138.567 C 228.814 138.602 228.821 138.664 228.786 138.707 C 231.897 134.865 235.688 131.628 239.969 129.156 C 239.921 129.184 239.860 129.167 239.833 129.119 L 240.583 130.418 C 240.610 130.466 240.671 130.483 240.719 130.455 C 244.545 128.246 248.721 126.706 253.065 125.901 C 257.409 125.095 261.859 125.037 266.223 125.728 C 266.277 125.737 266.328 125.700 266.337 125.645 L 266.572 124.164 C 266.563 124.218 266.512 124.255 266.457 124.247 C 271.340 125.020 276.039 126.684 280.320 129.156 C 280.273 129.128 280.256 129.067 280.284 129.019 L 279.534 130.318 C 279.506 130.366 279.523 130.427 279.570 130.455 C 283.397 132.664 286.818 135.510 289.688 138.869 C 292.557 142.229 294.832 146.053 296.416 150.178 C 296.435 150.230 296.493 150.256 296.545 150.236 L 297.945 149.698 C 297.894 149.718 297.836 149.692 297.816 149.641 C 299.588 154.256 300.496 159.158 300.496 164.101 C 300.496 164.046 300.541 164.001 300.596 164.001 H 299.096 C 299.041 164.001 298.996 164.046 298.996 164.101 Z M 235.195 210.503 H 239.195 C 239.250 210.503 239.295 210.458 239.295 210.403 V 207.503 C 239.295 207.403 239.195 207.503 239.295 207.503 H 245.095 C 245.195 207.503 245.095 207.403 245.095 207.503 V 210.403 C 245.095 210.458 245.140 210.503 245.195 210.503 H 251.195 C 251.250 210.503 251.295 210.458 251.295 210.403 V 207.503 C 251.295 207.403 251.195 207.503 251.295 207.503 H 257.095 C 257.195 207.503 257.095 207.403 257.095 207.503 V 210.403 C 257.095 210.458 257.140 210.503 257.195 210.503 H 263.195 C 263.250 210.503 263.295 210.458 263.295 210.403 V 207.503 C 263.295 207.403 263.195 207.503 263.295 207.503 H 269.095 C 269.195 207.503 269.095 207.403 269.095 207.503 V 210.403 C 269.095 210.458 269.140 210.503 269.195 210.503 H 275.195 C 275.250 210.503 275.295 210.458 275.295 210.403 V 207.503 C 275.295 207.403 275.195 207.503 275.295 207.503 H 281.095 C 281.195 207.503 281.095 207.403 281.095 207.503 V 210.403 C 281.095 210.458 281.140 210.503 281.195 210.503 H 285.195 H 286.927 C 286.963 210.503 286.996 210.483 287.013 210.453 L 287.880 208.953 L 289.880 205.488 C 289.907 205.441 289.891 205.379 289.843 205.352 L 287.331 203.902 C 287.245 203.852 287.281 203.988 287.331 203.902 L 290.231 198.879 C 290.281 198.792 290.145 198.829 290.231 198.879 L 292.743 200.329 C 292.791 200.357 292.852 200.340 292.880 200.292 L 295.880 195.096 C 295.907 195.048 295.891 194.987 295.843 194.960 L 293.331 193.510 C 293.245 193.460 293.281 193.596 293.331 193.510 L 296.231 188.487 C 296.281 188.400 296.145 188.437 296.231 188.487 L 298.743 189.937 C 298.791 189.964 298.852 189.948 298.880 189.900 L 301.880 184.704 C 301.907 184.656 301.891 184.595 301.843 184.567 L 299.331 183.117 C 299.245 183.067 299.281 183.204 299.331 183.117 L 302.231 178.094 C 302.281 178.008 302.145 178.044 302.231 178.094 L 304.743 179.544 C 304.791 179.572 304.852 179.556 304.880 179.508 L 307.880 174.312 C 307.907 174.264 307.891 174.203 307.843 174.175 L 305.331 172.725 C 305.245 172.675 305.281 172.812 305.331 172.725 L 308.231 167.702 C 308.281 167.615 308.145 167.652 308.231 167.702 L 310.743 169.152 C 310.791 169.180 310.852 169.163 310.880 169.115 L 312.880 165.651 L 313.746 164.151 C 313.763 164.120 313.763 164.082 313.746 164.051 L 312.880 162.551 L 310.880 159.087 C 310.852 159.039 310.791 159.023 310.743 159.051 L 308.231 160.501 C 308.145 160.551 308.281 160.587 308.231 160.501 L 305.331 155.478 C 305.281 155.391 305.245 155.528 305.331 155.478 L 307.843 154.028 C 307.891 154.000 307.907 153.939 307.880 153.891 L 304.880 148.695 C 304.852 148.647 304.791 148.631 304.743 148.658 L 302.231 150.108 C 302.145 150.158 302.281 150.195 302.231 150.108 L 299.331 145.085 C 299.281 144.999 299.245 145.135 299.331 145.085 L 301.843 143.635 C 301.891 143.608 301.907 143.547 301.880 143.499 L 298.880 138.303 C 298.852 138.255 298.791 138.238 298.743 138.266 L 296.231 139.716 C 296.145 139.766 296.281 139.803 296.231 139.716 L 293.331 134.693 C 293.281 134.606 293.245 134.743 293.331 134.693 L 295.843 133.243 C 295.891 133.215 295.907 133.154 295.880 133.106 L 292.880 127.910 C 292.852 127.862 292.791 127.846 292.743 127.874 L 290.231 129.324 C 290.145 129.374 290.281 129.410 290.231 129.324 L 287.331 124.301 C 287.281 124.214 287.245 124.351 287.331 124.301 L 289.843 122.851 C 289.891 122.823 289.907 122.762 289.880 122.714 L 287.880 119.250 L 287.013 117.750 C 286.996 117.719 286.963 117.700 286.927 117.700 H 285.195 H 281.195 C 281.140 117.700 281.095 117.745 281.095 117.800 V 120.700 C 281.095 120.800 281.195 120.700 281.095 120.700 H 275.295 C 275.195 120.700 275.295 120.800 275.295 120.700 V 117.800 C 275.295 117.745 275.250 117.700 275.195 117.700 H 269.195 C 269.140 117.700 269.095 117.745 269.095 117.800 V 120.700 C 269.095 120.800 269.195 120.700 269.095 120.700 H 263.295 C 263.195 120.700 263.295 120.800 263.295 120.700 V 117.800 C 263.295 117.745 263.250 117.700 263.195 117.700 H 257.195 C 257.140 117.700 257.095 117.745 257.095 117.800 V 120.700 C 257.095 120.800 257.195 120.700 257.095 120.700 H 251.295 C 251.195 120.700 251.295 120.800 251.295 120.700 V 117.800 C 251.295 117.745 251.250 117.700 251.195 117.700 H 245.195 C 245.140 117.700 245.095 117.745 245.095 117.800 V 120.700 C 245.095 120.800 245.195 120.700 245.095 120.700 H 239.295 C 239.195 120.700 239.295 120.800 239.295 120.700 V 117.800 C 239.295 117.745 239.250 117.700 239.195 117.700 H 235.195 H 233.463 C 233.427 117.700 233.394 117.719 233.376 117.750 L 232.510 119.250 L 230.510 122.714 C 230.483 122.762 230.499 122.823 230.547 122.851 L 233.058 124.301 C 233.145 124.351 233.108 124.214 233.058 124.301 L 230.158 129.324 C 230.108 129.410 230.245 129.374 230.158 129.324 L 227.647 127.874 C 227.599 127.846 227.538 127.862 227.510 127.910 L 224.510 133.106 C 224.483 133.154 224.499 133.215 224.547 133.243 L 227.058 134.693 C 227.145 134.743 227.108 134.606 227.058 134.693 L 224.158 139.716 C 224.108 139.803 224.245 139.766 224.158 139.716 L 221.647 138.266 C 221.599 138.238 221.538 138.255 221.510 138.303 L 218.510 143.499 C 218.483 143.547 218.499 143.608 218.547 143.635 L 221.058 145.085 C 221.145 145.135 221.108 144.999 221.058 145.085 L 218.158 150.108 C 218.108 150.195 218.245 150.158 218.158 150.108 L 215.647 148.658 C 215.599 148.631 215.538 148.647 215.510 148.695 L 212.510 153.891 C 212.483 153.939 212.499 154.000 212.547 154.028 L 215.058 155.478 C 215.145 155.528 215.108 155.391 215.058 155.478 L 212.158 160.501 C 212.108 160.587 212.245 160.551 212.158 160.501 L 209.647 159.051 C 209.599 159.023 209.538 159.039 209.510 159.087 L 207.510 162.551 L 206.644 164.051 C 206.626 164.082 206.626 164.120 206.644 164.151 L 207.510 165.651 L 209.510 169.115 C 209.538 169.163 209.599 169.180 209.647 169.152 L 212.158 167.702 C 212.245 167.652 212.108 167.615 212.158 167.702 L 215.058 172.725 C 215.108 172.812 215.145 172.675 215.058 172.725 L 212.547 174.175 C 212.499 174.203 212.483 174.264 212.510 174.312 L 215.510 179.508 C 215.538 179.556 215.599 179.572 215.647 179.544 L 218.158 178.094 C 218.245 178.044 218.108 178.008 218.158 178.094 L 221.058 183.117 C 221.108 183.204 221.145 183.067 221.058 183.117 L 218.547 184.567 C 218.499 184.595 218.483 184.656 218.510 184.704 L 221.510 189.900 C 221.538 189.948 221.599 189.964 221.647 189.937 L 224.158 188.487 C 224.245 188.437 224.108 188.400 224.158 188.487 L 227.058 193.510 C 227.108 193.596 227.145 193.460 227.058 193.510 L 224.547 194.960 C 224.499 194.987 224.483 195.048 224.510 195.096 L 227.510 200.292 C 227.538 200.340 227.599 200.357 227.647 200.329 L 230.158 198.879 C 230.245 198.829 230.108 198.792 230.158 198.879 L 233.058 203.902 C 233.108 203.988 233.145 203.852 233.058 203.902 L 230.547 205.352 C 230.499 205.379 230.483 205.441 230.510 205.488 L 232.510 208.953 L 233.376 210.453 C 233.394 210.483 233.427 210.503 233.463 210.503 H 235.195"
       stroke="rgb(0,0,0)"
       stroke-width="0.20"
       id="path55"
       style="stroke:#ff0000;fill:none" />
  </g>
  <g
     id="p-4"
     style="fill:none;stroke-linecap:round;stroke-linejoin:round;stroke:#ff0000"
     transform="translate(1.534625,-3.0999922)">
    <text
       alignment-baseline="hanging"
       font-size="4px"
       style="font-style:normal;font-weight:normal;font-family:sans-serif;fill:none;stroke:#ff0000"
       text-anchor="middle"
       transform="translate(358.66,165.201)"
       id="text58" />
    <path
       d="m 402.061,167.201 c 0,-8.32 -2.391,-16.465 -6.889,-23.464 -4.499,-7 -10.914,-12.559 -18.482,-16.015 -7.569,-3.456 -15.971,-4.664 -24.206,-3.48 -8.236,1.184 -15.958,4.71 -22.246,10.159 -6.288,5.448 -10.877,12.59 -13.221,20.573 -2.344,7.983 -2.344,16.472 0,24.455 2.344,7.983 6.933,15.124 13.221,20.573 6.288,5.448 14.01,8.975 22.246,10.159 8.235,1.184 16.637,-0.024 24.206,-3.481 7.568,-3.456 13.983,-9.015 18.482,-16.014 4.498,-7 6.889,-15.145 6.889,-23.465"
       stroke="#000000"
       stroke-width="0.2"
       id="path60"
       style="stroke:#ff0000;fill:none" />
  </g>
  <g
     id="p-5"
     style="fill:none;stroke-linecap:round;stroke-linejoin:round;stroke:#ff0000">
    <text
       alignment-baseline="hanging"
       font-size="4px"
       style="font-family:sans-serif;font-weight:normal;font-style:normal;fill:none;stroke:#ff0000"
       text-anchor="middle"
       transform="matrix( 1.000 0.000 0.000 1.000 36.832 61.200 )"
       id="text63" />
    <path
       d="M 11.832 113.200 H 15.732 C 15.832 113.200 15.732 113.100 15.732 113.200 V 116.100 C 15.732 116.155 15.777 116.200 15.832 116.200 H 21.832 C 21.887 116.200 21.932 116.155 21.932 116.100 V 113.200 C 21.932 113.100 21.832 113.200 21.932 113.200 H 27.732 C 27.832 113.200 27.732 113.100 27.732 113.200 V 116.100 C 27.732 116.155 27.777 116.200 27.832 116.200 H 33.832 C 33.887 116.200 33.932 116.155 33.932 116.100 V 113.200 C 33.932 113.100 33.832 113.200 33.932 113.200 H 39.732 C 39.832 113.200 39.732 113.100 39.732 113.200 V 116.100 C 39.732 116.155 39.777 116.200 39.832 116.200 H 45.832 C 45.887 116.200 45.932 116.155 45.932 116.100 V 113.200 C 45.932 113.100 45.832 113.200 45.932 113.200 H 51.732 C 51.832 113.200 51.732 113.100 51.732 113.200 V 116.100 C 51.732 116.155 51.777 116.200 51.832 116.200 H 57.832 C 57.887 116.200 57.932 116.155 57.932 116.100 V 113.200 C 57.932 113.100 57.832 113.200 57.932 113.200 H 61.832 H 63.564 C 63.619 113.200 63.664 113.155 63.664 113.100 V 108.100 C 63.664 108.045 63.619 108.000 63.564 108.000 H 61.066 C 60.966 108.000 61.066 108.100 61.066 108.000 V 102.200 C 61.066 102.100 60.966 102.200 61.066 102.200 H 63.564 C 63.619 102.200 63.664 102.155 63.664 102.100 V 96.100 C 63.664 96.045 63.619 96.000 63.564 96.000 H 61.066 C 60.966 96.000 61.066 96.100 61.066 96.000 V 90.200 C 61.066 90.100 60.966 90.200 61.066 90.200 H 63.564 C 63.619 90.200 63.664 90.155 63.664 90.100 V 84.100 C 63.664 84.045 63.619 84.000 63.564 84.000 H 61.066 C 60.966 84.000 61.066 84.100 61.066 84.000 V 78.200 C 61.066 78.100 60.966 78.200 61.066 78.200 H 63.564 C 63.619 78.200 63.664 78.155 63.664 78.100 V 72.100 C 63.664 72.045 63.619 72.000 63.564 72.000 H 61.066 C 60.966 72.000 61.066 72.100 61.066 72.000 V 66.200 C 61.066 66.100 60.966 66.200 61.066 66.200 H 63.564 C 63.619 66.200 63.664 66.155 63.664 66.100 V 60.100 C 63.664 60.045 63.619 60.000 63.564 60.000 H 61.066 C 60.966 60.000 61.066 60.100 61.066 60.000 V 54.200 C 61.066 54.100 60.966 54.200 61.066 54.200 H 63.564 C 63.619 54.200 63.664 54.155 63.664 54.100 V 48.100 C 63.664 48.045 63.619 48.000 63.564 48.000 H 61.066 C 60.966 48.000 61.066 48.100 61.066 48.000 V 42.200 C 61.066 42.100 60.966 42.200 61.066 42.200 H 63.564 C 63.619 42.200 63.664 42.155 63.664 42.100 V 36.100 C 63.664 36.045 63.619 36.000 63.564 36.000 H 61.066 C 60.966 36.000 61.066 36.100 61.066 36.000 V 30.200 C 61.066 30.100 60.966 30.200 61.066 30.200 H 63.564 C 63.619 30.200 63.664 30.155 63.664 30.100 V 24.100 C 63.664 24.045 63.619 24.000 63.564 24.000 H 61.066 C 60.966 24.000 61.066 24.100 61.066 24.000 V 18.200 C 61.066 18.100 60.966 18.200 61.066 18.200 H 63.564 C 63.619 18.200 63.664 18.155 63.664 18.100 V 13.100 C 63.664 13.045 63.619 13.000 63.564 13.000 H 61.832 H 57.932 C 57.832 13.000 57.932 13.100 57.932 13.000 V 10.100 C 57.932 10.045 57.887 10.000 57.832 10.000 H 51.832 C 51.777 10.000 51.732 10.045 51.732 10.100 V 13.000 C 51.732 13.100 51.832 13.000 51.732 13.000 H 45.932 C 45.832 13.000 45.932 13.100 45.932 13.000 V 10.100 C 45.932 10.045 45.887 10.000 45.832 10.000 H 39.832 C 39.777 10.000 39.732 10.045 39.732 10.100 V 13.000 C 39.732 13.100 39.832 13.000 39.732 13.000 H 33.932 C 33.832 13.000 33.932 13.100 33.932 13.000 V 10.100 C 33.932 10.045 33.887 10.000 33.832 10.000 H 27.832 C 27.777 10.000 27.732 10.045 27.732 10.100 V 13.000 C 27.732 13.100 27.832 13.000 27.732 13.000 H 21.932 C 21.832 13.000 21.932 13.100 21.932 13.000 V 10.100 C 21.932 10.045 21.887 10.000 21.832 10.000 H 15.832 C 15.777 10.000 15.732 10.045 15.732 10.100 V 13.000 C 15.732 13.100 15.832 13.000 15.732 13.000 H 11.832 H 10.100 C 10.045 13.000 10.000 13.045 10.000 13.100 V 18.100 C 10.000 18.155 10.045 18.200 10.100 18.200 H 12.598 C 12.698 18.200 12.598 18.100 12.598 18.200 V 24.000 C 12.598 24.100 12.698 24.000 12.598 24.000 H 10.100 C 10.045 24.000 10.000 24.045 10.000 24.100 V 30.100 C 10.000 30.155 10.045 30.200 10.100 30.200 H 12.598 C 12.698 30.200 12.598 30.100 12.598 30.200 V 36.000 C 12.598 36.100 12.698 36.000 12.598 36.000 H 10.100 C 10.045 36.000 10.000 36.045 10.000 36.100 V 42.100 C 10.000 42.155 10.045 42.200 10.100 42.200 H 12.598 C 12.698 42.200 12.598 42.100 12.598 42.200 V 48.000 C 12.598 48.100 12.698 48.000 12.598 48.000 H 10.100 C 10.045 48.000 10.000 48.045 10.000 48.100 V 54.100 C 10.000 54.155 10.045 54.200 10.100 54.200 H 12.598 C 12.698 54.200 12.598 54.100 12.598 54.200 V 60.000 C 12.598 60.100 12.698 60.000 12.598 60.000 H 10.100 C 10.045 60.000 10.000 60.045 10.000 60.100 V 66.100 C 10.000 66.155 10.045 66.200 10.100 66.200 H 12.598 C 12.698 66.200 12.598 66.100 12.598 66.200 V 72.000 C 12.598 72.100 12.698 72.000 12.598 72.000 H 10.100 C 10.045 72.000 10.000 72.045 10.000 72.100 V 78.100 C 10.000 78.155 10.045 78.200 10.100 78.200 H 12.598 C 12.698 78.200 12.598 78.100 12.598 78.200 V 84.000 C 12.598 84.100 12.698 84.000 12.598 84.000 H 10.100 C 10.045 84.000 10.000 84.045 10.000 84.100 V 90.100 C 10.000 90.155 10.045 90.200 10.100 90.200 H 12.598 C 12.698 90.200 12.598 90.100 12.598 90.200 V 96.000 C 12.598 96.100 12.698 96.000 12.598 96.000 H 10.100 C 10.045 96.000 10.000 96.045 10.000 96.100 V 102.100 C 10.000 102.155 10.045 102.200 10.100 102.200 H 12.598 C 12.698 102.200 12.598 102.100 12.598 102.200 V 108.000 C 12.598 108.100 12.698 108.000 12.598 108.000 H 10.100 C 10.045 108.000 10.000 108.045 10.000 108.100 V 113.100 C 10.000 113.155 10.045 113.200 10.100 113.200 H 11.832"
       stroke="rgb(0,0,0)"
       stroke-width="0.20"
       id="path65"
       style="stroke:#ff0000;fill:none" />
  </g>
  <g
     id="p-6"
     style="fill:none;stroke-linecap:round;stroke-linejoin:round;stroke:#ff0000">
    <text
       alignment-baseline="hanging"
       font-size="4px"
       style="font-family:sans-serif;font-weight:normal;font-style:normal;fill:none;stroke:#ff0000"
       text-anchor="middle"
       transform="matrix( 1.000 0.000 0.000 1.000 91.996 61.200 )"
       id="text68" />
    <path
       d="m 62.996,113.2 h 3.9 c 0.1,0 0,-0.1 0,0 v 2.9 c 0,0.055 0.045,0.1 0.1,0.1 h 6 c 0.055,0 0.1,-0.045 0.1,-0.1 v -2.9 c 0,-0.1 -0.1,0 0,0 h 5.8 c 0.1,0 0,-0.1 0,0 v 2.9 c 0,0.055 0.045,0.1 0.1,0.1 h 6 c 0.055,0 0.1,-0.045 0.1,-0.1 v -2.9 c 0,-0.1 -0.1,0 0,0 h 5.8 c 0.1,0 0,-0.1 0,0 v 2.9 c 0,0.055 0.045,0.1 0.1,0.1 h 6 c 0.055,0 0.1,-0.045 0.1,-0.1 v -2.9 c 0,-0.1 -0.1,0 0,0 h 5.8 c 0.1,0 0,-0.1 0,0 v 2.9 c 0,0.055 0.045,0.1 0.1,0.1 h 6 c 0.055,0 0.1,-0.045 0.1,-0.1 v -2.9 c 0,-0.1 -0.1,0 0,0 h 3.9 -0.866 c 0.055,0 0.1,-0.045 0.1,-0.1 v -4.9 c 0,-0.1 -0.1,0 0,0 h 2.498 c 0.055,0 0.1,-0.045 0.1,-0.1 v -6 c 0,-0.055 -0.045,-0.1 -0.1,-0.1 h -2.498 c -0.1,0 0,0.1 0,0 v -5.8 c 0,-0.1 -0.1,0 0,0 h 2.498 c 0.055,0 0.1,-0.045 0.1,-0.1 v -6 c 0,-0.055 -0.045,-0.1 -0.1,-0.1 h -2.498 c -0.1,0 0,0.1 0,0 v -5.8 c 0,-0.1 -0.1,0 0,0 h 2.498 c 0.055,0 0.1,-0.045 0.1,-0.1 v -6 c 0,-0.055 -0.045,-0.1 -0.1,-0.1 h -2.498 c -0.1,0 0,0.1 0,0 v -5.8 c 0,-0.1 -0.1,0 0,0 h 2.498 c 0.055,0 0.1,-0.045 0.1,-0.1 v -6 c 0,-0.055 -0.045,-0.1 -0.1,-0.1 h -2.498 c -0.1,0 0,0.1 0,0 v -5.8 c 0,-0.1 -0.1,0 0,0 h 2.498 c 0.055,0 0.1,-0.045 0.1,-0.1 v -6 c 0,-0.055 -0.045,-0.1 -0.1,-0.1 h -2.498 c -0.1,0 0,0.1 0,0 v -5.8 c 0,-0.1 -0.1,0 0,0 h 2.498 c 0.055,0 0.1,-0.045 0.1,-0.1 v -6 c 0,-0.055 -0.045,-0.1 -0.1,-0.1 h -2.498 c -0.1,0 0,0.1 0,0 v -5.8 c 0,-0.1 -0.1,0 0,0 h 2.498 c 0.055,0 0.1,-0.045 0.1,-0.1 v -6 c 0,-0.055 -0.045,-0.1 -0.1,-0.1 h -2.498 c -0.1,0 0,0.1 0,0 v -5.8 c 0,-0.1 -0.1,0 0,0 h 2.498 c 0.055,0 0.1,-0.045 0.1,-0.1 v -6 c 0,-0.055 -0.045,-0.1 -0.1,-0.1 h -2.498 c -0.1,0 0,0.1 0,0 v -4.9 c 0,-0.055 -0.045,-0.1 -0.1,-0.1 h 0.866 -3.9 c -0.1,0 0,0.1 0,0 v -2.9 c 0,-0.055 -0.045,-0.1 -0.1,-0.1 h -6 c -0.055,0 -0.1,0.045 -0.1,0.1 V 13 c 0,0.1 0.1,0 0,0 h -5.8 c -0.1,0 0,0.1 0,0 v -2.9 c 0,-0.055 -0.045,-0.1 -0.1,-0.1 h -6 c -0.055,0 -0.1,0.045 -0.1,0.1 V 13 c 0,0.1 0.1,0 0,0 h -5.8 c -0.1,0 0,0.1 0,0 v -2.9 c 0,-0.055 -0.045,-0.1 -0.1,-0.1 h -6 c -0.055,0 -0.1,0.045 -0.1,0.1 V 13 c 0,0.1 0.1,0 0,0 h -5.8 c -0.1,0 0,0.1 0,0 v -2.9 c 0,-0.055 -0.045,-0.1 -0.1,-0.1 h -6 c -0.055,0 -0.1,0.045 -0.1,0.1 V 13 c 0,0.1 0.1,0 0,0 h -3.9 0.866 c -0.055,0 -0.1,0.045 -0.1,0.1 m 0,100 c 0,0.055 0.045,0.1 0.1,0.1 h -0.866"
       stroke="rgb(0,0,0)"
       stroke-width="0.2"
       id="path70"
       style="fill:none;stroke:#ff0000"
       sodipodi:nodetypes="cssssssssssssssssssssssssssssssssccssssssssssssssssssssssssssssssssssssssssssssssssssssssssssssssssssccsssssssssssssssssssssssssssssssscccccc" />
  </g>
  <g
     id="p-7"
     style="fill:none;stroke:#ff0000;stroke-linecap:round;stroke-linejoin:round"
     transform="translate(-8)">
    <text
       alignment-baseline="hanging"
       font-size="4px"
       style="font-style:normal;font-weight:normal;font-family:sans-serif;fill:none;stroke:#ff0000"
       text-anchor="middle"
       transform="translate(147.16,61.2)"
       id="text73" />
    <path
       d="m 122.16,113.2 h 3.9 c 0.1,0 0,-0.1 0,0 v 2.9 c 0,0.055 0.045,0.1 0.1,0.1 h 6 c 0.055,0 0.1,-0.045 0.1,-0.1 v -2.9 c 0,-0.1 -0.1,0 0,0 h 5.8 c 0.1,0 0,-0.1 0,0 v 2.9 c 0,0.055 0.045,0.1 0.1,0.1 h 6 c 0.055,0 0.1,-0.045 0.1,-0.1 v -2.9 c 0,-0.1 -0.1,0 0,0 h 5.8 c 0.1,0 0,-0.1 0,0 v 2.9 c 0,0.055 0.045,0.1 0.1,0.1 h 6 c 0.055,0 0.1,-0.045 0.1,-0.1 v -2.9 c 0,-0.1 -0.1,0 0,0 h 5.8 c 0.1,0 0,-0.1 0,0 v 2.9 c 0,0.055 0.045,0.1 0.1,0.1 h 6 c 0.055,0 0.1,-0.045 0.1,-0.1 v -2.9 c 0,-0.1 -0.1,0 0,0 h 3.9 1.732 c 0.056,0 0.1,-0.045 0.1,-0.1 v -5 c 0,-0.055 -0.044,-0.1 -0.1,-0.1 h -2.498 c -0.1,0 0,0.1 0,0 v -5.8 c 0,-0.1 -0.1,0 0,0 h 2.498 c 0.056,0 0.1,-0.045 0.1,-0.1 v -6 c 0,-0.055 -0.044,-0.1 -0.1,-0.1 h -2.498 c -0.1,0 0,0.1 0,0 v -5.8 c 0,-0.1 -0.1,0 0,0 h 2.498 c 0.056,0 0.1,-0.045 0.1,-0.1 v -6 c 0,-0.055 -0.044,-0.1 -0.1,-0.1 h -2.498 c -0.1,0 0,0.1 0,0 v -5.8 c 0,-0.1 -0.1,0 0,0 h 2.498 c 0.056,0 0.1,-0.045 0.1,-0.1 v -6 c 0,-0.055 -0.044,-0.1 -0.1,-0.1 h -2.498 c -0.1,0 0,0.1 0,0 v -5.8 c 0,-0.1 -0.1,0 0,0 h 2.498 c 0.056,0 0.1,-0.045 0.1,-0.1 v -6 c 0,-0.055 -0.044,-0.1 -0.1,-0.1 h -2.498 c -0.1,0 0,0.1 0,0 v -5.8 c 0,-0.1 -0.1,0 0,0 h 2.498 c 0.056,0 0.1,-0.045 0.1,-0.1 v -6 c 0,-0.055 -0.044,-0.1 -0.1,-0.1 h -2.498 c -0.1,0 0,0.1 0,0 v -5.8 c 0,-0.1 -0.1,0 0,0 h 2.498 c 0.056,0 0.1,-0.045 0.1,-0.1 v -6 c 0,-0.055 -0.044,-0.1 -0.1,-0.1 h -2.498 c -0.1,0 0,0.1 0,0 v -5.8 c 0,-0.1 -0.1,0 0,0 h 2.498 c 0.056,0 0.1,-0.045 0.1,-0.1 v -6 c 0,-0.055 -0.044,-0.1 -0.1,-0.1 h -2.498 c -0.1,0 0,0.1 0,0 v -5.8 c 0,-0.1 -0.1,0 0,0 h 2.498 c 0.056,0 0.1,-0.045 0.1,-0.1 v -5 c 0,-0.055 -0.044,-0.1 -0.1,-0.1 h -1.732 -3.9 c -0.1,0 0,0.1 0,0 v -2.9 c 0,-0.055 -0.045,-0.1 -0.1,-0.1 h -6 c -0.055,0 -0.1,0.045 -0.1,0.1 V 13 c 0,0.1 0.1,0 0,0 h -5.8 c -0.1,0 0,0.1 0,0 v -2.9 c 0,-0.055 -0.045,-0.1 -0.1,-0.1 h -6 c -0.055,0 -0.1,0.045 -0.1,0.1 V 13 c 0,0.1 0.1,0 0,0 h -5.8 c -0.1,0 0,0.1 0,0 v -2.9 c 0,-0.055 -0.045,-0.1 -0.1,-0.1 h -6 c -0.055,0 -0.1,0.045 -0.1,0.1 V 13 c 0,0.1 0.1,0 0,0 h -5.8 c -0.1,0 0,0.1 0,0 v -2.9 c 0,-0.055 -0.045,-0.1 -0.1,-0.1 h -6 c -0.055,0 -0.1,0.045 -0.1,0.1 V 13 c 0,0.1 0.1,0 0,0 h -3.9 -1.732 c -0.055,0 -0.1,0.045 -0.1,0.1 m 0,100 c 0,0.055 0.045,0.1 0.1,0.1 h 1.732"
       stroke="rgb(0,0,0)"
       stroke-width="0.2"
       id="path75"
       style="fill:none;stroke:#ff0000"
       sodipodi:nodetypes="csssssssssssssssssssssssssssssssscsssssssssssssssssssssssssssssssssssssssssssssssssssssssssssssssssssscsssssssssssssssssssssssssssssssscsccsc" />
  </g>
  <g
     id="p-8"
     style="fill:none;stroke:#ff0000;stroke-linecap:round;stroke-linejoin:round"
     transform="translate(-12)">
    <text
       alignment-baseline="hanging"
       font-size="4px"
       style="font-style:normal;font-weight:normal;font-family:sans-serif;fill:none;stroke:#ff0000"
       text-anchor="middle"
       transform="translate(202.324,61.2)"
       id="text78" />
    <path
       d="m 177.324,113.2 h 3.9 c 0.1,0 0,-0.1 0,0 v 2.9 c 0,0.055 0.045,0.1 0.1,0.1 h 6 c 0.056,0 0.1,-0.045 0.1,-0.1 v -2.9 c 0,-0.1 -0.1,0 0,0 h 5.8 c 0.1,0 0,-0.1 0,0 v 2.9 c 0,0.055 0.045,0.1 0.1,0.1 h 6 c 0.056,0 0.1,-0.045 0.1,-0.1 v -2.9 c 0,-0.1 -0.1,0 0,0 h 5.8 c 0.1,0 0,-0.1 0,0 v 2.9 c 0,0.055 0.045,0.1 0.1,0.1 h 6 c 0.056,0 0.1,-0.045 0.1,-0.1 v -2.9 c 0,-0.1 -0.1,0 0,0 h 5.8 c 0.1,0 0,-0.1 0,0 v 2.9 c 0,0.055 0.045,0.1 0.1,0.1 h 6 c 0.056,0 0.1,-0.045 0.1,-0.1 v -2.9 c 0,-0.1 -0.1,0 0,0 h 3.9 -0.866 c 0.056,0 0.1,-0.045 0.1,-0.1 v -4.9 c 0,-0.1 -0.1,0 0,0 h 2.498 c 0.056,0 0.1,-0.045 0.1,-0.1 v -6 c 0,-0.055 -0.044,-0.1 -0.1,-0.1 h -2.498 c -0.1,0 0,0.1 0,0 v -5.8 c 0,-0.1 -0.1,0 0,0 h 2.498 c 0.056,0 0.1,-0.045 0.1,-0.1 v -6 c 0,-0.055 -0.044,-0.1 -0.1,-0.1 h -2.498 c -0.1,0 0,0.1 0,0 v -5.8 c 0,-0.1 -0.1,0 0,0 h 2.498 c 0.056,0 0.1,-0.045 0.1,-0.1 v -6 c 0,-0.055 -0.044,-0.1 -0.1,-0.1 h -2.498 c -0.1,0 0,0.1 0,0 v -5.8 c 0,-0.1 -0.1,0 0,0 h 2.498 c 0.056,0 0.1,-0.045 0.1,-0.1 v -6 c 0,-0.055 -0.044,-0.1 -0.1,-0.1 h -2.498 c -0.1,0 0,0.1 0,0 v -5.8 c 0,-0.1 -0.1,0 0,0 h 2.498 c 0.056,0 0.1,-0.045 0.1,-0.1 v -6 c 0,-0.055 -0.044,-0.1 -0.1,-0.1 h -2.498 c -0.1,0 0,0.1 0,0 v -5.8 c 0,-0.1 -0.1,0 0,0 h 2.498 c 0.056,0 0.1,-0.045 0.1,-0.1 v -6 c 0,-0.055 -0.044,-0.1 -0.1,-0.1 h -2.498 c -0.1,0 0,0.1 0,0 v -5.8 c 0,-0.1 -0.1,0 0,0 h 2.498 c 0.056,0 0.1,-0.045 0.1,-0.1 v -6 c 0,-0.055 -0.044,-0.1 -0.1,-0.1 h -2.498 c -0.1,0 0,0.1 0,0 v -5.8 c 0,-0.1 -0.1,0 0,0 h 2.498 c 0.056,0 0.1,-0.045 0.1,-0.1 v -6 c 0,-0.055 -0.044,-0.1 -0.1,-0.1 h -2.498 c -0.1,0 0,0.1 0,0 v -4.9 c 0,-0.055 -0.044,-0.1 -0.1,-0.1 h 0.866 -3.9 c -0.1,0 0,0.1 0,0 v -2.9 c 0,-0.055 -0.044,-0.1 -0.1,-0.1 h -6 c -0.055,0 -0.1,0.045 -0.1,0.1 V 13 c 0,0.1 0.1,0 0,0 h -5.8 c -0.1,0 0,0.1 0,0 v -2.9 c 0,-0.055 -0.044,-0.1 -0.1,-0.1 h -6 c -0.055,0 -0.1,0.045 -0.1,0.1 V 13 c 0,0.1 0.1,0 0,0 h -5.8 c -0.1,0 0,0.1 0,0 v -2.9 c 0,-0.055 -0.044,-0.1 -0.1,-0.1 h -6 c -0.055,0 -0.1,0.045 -0.1,0.1 V 13 c 0,0.1 0.1,0 0,0 h -5.8 c -0.1,0 0,0.1 0,0 v -2.9 c 0,-0.055 -0.044,-0.1 -0.1,-0.1 h -6 c -0.055,0 -0.1,0.045 -0.1,0.1 V 13 c 0,0.1 0.1,0 0,0 h -3.9 0.866 c -0.055,0 -0.1,0.045 -0.1,0.1 m 0,100 c 0,0.055 0.045,0.1 0.1,0.1 h -0.866"
       stroke="rgb(0,0,0)"
       stroke-width="0.2"
       id="path80"
       style="fill:none;stroke:#ff0000"
       sodipodi:nodetypes="cssssssssssssssssssssssssssssssssccssssssssssssssssssssssssssssssssssssssssssssssssssssssssssssssssssccsssssssssssssssssssssssssssssssscccccc" />
  </g>
  <g
     id="p-9"
     style="fill:none;stroke:#ff0000;stroke-linecap:round;stroke-linejoin:round"
     transform="translate(-16)">
    <text
       alignment-baseline="hanging"
       font-size="4px"
       style="font-style:normal;font-weight:normal;font-family:sans-serif;fill:none;stroke:#ff0000"
       text-anchor="middle"
       transform="translate(257.488,61.2)"
       id="text83" />
    <path
       d="m 232.488,113.2 h 3.9 c 0.1,0 0,-0.1 0,0 v 2.9 c 0,0.055 0.045,0.1 0.1,0.1 h 6 c 0.056,0 0.1,-0.045 0.1,-0.1 v -2.9 c 0,-0.1 -0.1,0 0,0 h 5.8 c 0.1,0 0,-0.1 0,0 v 2.9 c 0,0.055 0.045,0.1 0.1,0.1 h 6 c 0.056,0 0.1,-0.045 0.1,-0.1 v -2.9 c 0,-0.1 -0.1,0 0,0 h 5.8 c 0.1,0 0,-0.1 0,0 v 2.9 c 0,0.055 0.045,0.1 0.1,0.1 h 6 c 0.056,0 0.1,-0.045 0.1,-0.1 v -2.9 c 0,-0.1 -0.1,0 0,0 h 5.8 c 0.1,0 0,-0.1 0,0 v 2.9 c 0,0.055 0.045,0.1 0.1,0.1 h 6 c 0.056,0 0.1,-0.045 0.1,-0.1 v -2.9 c 0,-0.1 -0.1,0 0,0 h 3.9 1.733 c 0.055,0 0.1,-0.045 0.1,-0.1 v -5 c 0,-0.055 -0.045,-0.1 -0.1,-0.1 h -2.499 c -0.1,0 0,0.1 0,0 v -5.8 c 0,-0.1 -0.1,0 0,0 h 2.499 c 0.055,0 0.1,-0.045 0.1,-0.1 v -6 c 0,-0.055 -0.045,-0.1 -0.1,-0.1 h -2.499 c -0.1,0 0,0.1 0,0 v -5.8 c 0,-0.1 -0.1,0 0,0 h 2.499 c 0.055,0 0.1,-0.045 0.1,-0.1 v -6 c 0,-0.055 -0.045,-0.1 -0.1,-0.1 h -2.499 c -0.1,0 0,0.1 0,0 v -5.8 c 0,-0.1 -0.1,0 0,0 h 2.499 c 0.055,0 0.1,-0.045 0.1,-0.1 v -6 c 0,-0.055 -0.045,-0.1 -0.1,-0.1 h -2.499 c -0.1,0 0,0.1 0,0 v -5.8 c 0,-0.1 -0.1,0 0,0 h 2.499 c 0.055,0 0.1,-0.045 0.1,-0.1 v -6 c 0,-0.055 -0.045,-0.1 -0.1,-0.1 h -2.499 c -0.1,0 0,0.1 0,0 v -5.8 c 0,-0.1 -0.1,0 0,0 h 2.499 c 0.055,0 0.1,-0.045 0.1,-0.1 v -6 c 0,-0.055 -0.045,-0.1 -0.1,-0.1 h -2.499 c -0.1,0 0,0.1 0,0 v -5.8 c 0,-0.1 -0.1,0 0,0 h 2.499 c 0.055,0 0.1,-0.045 0.1,-0.1 v -6 c 0,-0.055 -0.045,-0.1 -0.1,-0.1 h -2.499 c -0.1,0 0,0.1 0,0 v -5.8 c 0,-0.1 -0.1,0 0,0 h 2.499 c 0.055,0 0.1,-0.045 0.1,-0.1 v -6 c 0,-0.055 -0.045,-0.1 -0.1,-0.1 h -2.499 c -0.1,0 0,0.1 0,0 v -5.8 c 0,-0.1 -0.1,0 0,0 h 2.499 c 0.055,0 0.1,-0.045 0.1,-0.1 v -5 c 0,-0.055 -0.045,-0.1 -0.1,-0.1 h -1.733 -3.9 c -0.1,0 0,0.1 0,0 v -2.9 c 0,-0.055 -0.044,-0.1 -0.1,-0.1 h -6 c -0.055,0 -0.1,0.045 -0.1,0.1 V 13 c 0,0.1 0.1,0 0,0 h -5.8 c -0.1,0 0,0.1 0,0 v -2.9 c 0,-0.055 -0.044,-0.1 -0.1,-0.1 h -6 c -0.055,0 -0.1,0.045 -0.1,0.1 V 13 c 0,0.1 0.1,0 0,0 h -5.8 c -0.1,0 0,0.1 0,0 v -2.9 c 0,-0.055 -0.044,-0.1 -0.1,-0.1 h -6 c -0.055,0 -0.1,0.045 -0.1,0.1 V 13 c 0,0.1 0.1,0 0,0 h -5.8 c -0.1,0 0,0.1 0,0 v -2.9 c 0,-0.055 -0.044,-0.1 -0.1,-0.1 h -6 c -0.055,0 -0.1,0.045 -0.1,0.1 V 13 c 0,0.1 0.1,0 0,0 h -3.9 -1.732 c -0.055,0 -0.1,0.045 -0.1,0.1 m 0,100 c 0,0.055 0.045,0.1 0.1,0.1 h 1.732"
       stroke="rgb(0,0,0)"
       stroke-width="0.2"
       id="path85"
       style="fill:none;stroke:#ff0000"
       sodipodi:nodetypes="csssssssssssssssssssssssssssssssscsssssssssssssssssssssssssssssssssssssssssssssssssssssssssssssssssssscsssssssssssssssssssssssssssssssscsccsc" />
  </g>
  <g
     id="p-10"
     style="fill:none;stroke:#ff0000;stroke-linecap:round;stroke-linejoin:round"
     transform="translate(-20)">
    <text
       alignment-baseline="hanging"
       font-size="4px"
       style="font-style:normal;font-weight:normal;font-family:sans-serif;fill:none;stroke:#ff0000"
       text-anchor="middle"
       transform="translate(312.653,61.2)"
       id="text88" />
    <path
       d="m 287.653,113.2 h 3.9 c 0.1,0 0,-0.1 0,0 v 2.9 c 0,0.055 0.044,0.1 0.1,0.1 h 6 c 0.055,0 0.1,-0.045 0.1,-0.1 v -2.9 c 0,-0.1 -0.1,0 0,0 h 5.8 c 0.1,0 0,-0.1 0,0 v 2.9 c 0,0.055 0.044,0.1 0.1,0.1 h 6 c 0.055,0 0.1,-0.045 0.1,-0.1 v -2.9 c 0,-0.1 -0.1,0 0,0 h 5.8 c 0.1,0 0,-0.1 0,0 v 2.9 c 0,0.055 0.044,0.1 0.1,0.1 h 6 c 0.055,0 0.1,-0.045 0.1,-0.1 v -2.9 c 0,-0.1 -0.1,0 0,0 h 5.8 c 0.1,0 0,-0.1 0,0 v 2.9 c 0,0.055 0.044,0.1 0.1,0.1 h 6 c 0.055,0 0.1,-0.045 0.1,-0.1 v -2.9 c 0,-0.1 -0.1,0 0,0 h 3.9 -0.866 c 0.055,0 0.1,-0.045 0.1,-0.1 v -4.9 c 0,-0.1 -0.1,0 0,0 h 2.498 c 0.055,0 0.1,-0.045 0.1,-0.1 v -6 c 0,-0.055 -0.045,-0.1 -0.1,-0.1 h -2.498 c -0.1,0 0,0.1 0,0 v -5.8 c 0,-0.1 -0.1,0 0,0 h 2.498 c 0.055,0 0.1,-0.045 0.1,-0.1 v -6 c 0,-0.055 -0.045,-0.1 -0.1,-0.1 h -2.498 c -0.1,0 0,0.1 0,0 v -5.8 c 0,-0.1 -0.1,0 0,0 h 2.498 c 0.055,0 0.1,-0.045 0.1,-0.1 v -6 c 0,-0.055 -0.045,-0.1 -0.1,-0.1 h -2.498 c -0.1,0 0,0.1 0,0 v -5.8 c 0,-0.1 -0.1,0 0,0 h 2.498 c 0.055,0 0.1,-0.045 0.1,-0.1 v -6 c 0,-0.055 -0.045,-0.1 -0.1,-0.1 h -2.498 c -0.1,0 0,0.1 0,0 v -5.8 c 0,-0.1 -0.1,0 0,0 h 2.498 c 0.055,0 0.1,-0.045 0.1,-0.1 v -6 c 0,-0.055 -0.045,-0.1 -0.1,-0.1 h -2.498 c -0.1,0 0,0.1 0,0 v -5.8 c 0,-0.1 -0.1,0 0,0 h 2.498 c 0.055,0 0.1,-0.045 0.1,-0.1 v -6 c 0,-0.055 -0.045,-0.1 -0.1,-0.1 h -2.498 c -0.1,0 0,0.1 0,0 v -5.8 c 0,-0.1 -0.1,0 0,0 h 2.498 c 0.055,0 0.1,-0.045 0.1,-0.1 v -6 c 0,-0.055 -0.045,-0.1 -0.1,-0.1 h -2.498 c -0.1,0 0,0.1 0,0 v -5.8 c 0,-0.1 -0.1,0 0,0 h 2.498 c 0.055,0 0.1,-0.045 0.1,-0.1 v -6 c 0,-0.055 -0.045,-0.1 -0.1,-0.1 h -2.498 c -0.1,0 0,0.1 0,0 v -4.9 c 0,-0.055 -0.045,-0.1 -0.1,-0.1 h 0.866 -3.9 c -0.1,0 0,0.1 0,0 v -2.9 c 0,-0.055 -0.045,-0.1 -0.1,-0.1 h -6 c -0.056,0 -0.1,0.045 -0.1,0.1 V 13 c 0,0.1 0.1,0 0,0 h -5.8 c -0.1,0 0,0.1 0,0 v -2.9 c 0,-0.055 -0.045,-0.1 -0.1,-0.1 h -6 c -0.056,0 -0.1,0.045 -0.1,0.1 V 13 c 0,0.1 0.1,0 0,0 h -5.8 c -0.1,0 0,0.1 0,0 v -2.9 c 0,-0.055 -0.045,-0.1 -0.1,-0.1 h -6 c -0.056,0 -0.1,0.045 -0.1,0.1 V 13 c 0,0.1 0.1,0 0,0 h -5.8 c -0.1,0 0,0.1 0,0 v -2.9 c 0,-0.055 -0.045,-0.1 -0.1,-0.1 h -6 c -0.056,0 -0.1,0.045 -0.1,0.1 V 13 c 0,0.1 0.1,0 0,0 h -3.9 0.866 c -0.056,0 -0.1,0.045 -0.1,0.1 m 0,100 c 0,0.055 0.044,0.1 0.1,0.1 h -0.866"
       stroke="rgb(0,0,0)"
       stroke-width="0.2"
       id="path90"
       style="fill:none;stroke:#ff0000"
       sodipodi:nodetypes="cssssssssssssssssssssssssssssssssccssssssssssssssssssssssssssssssssssssssssssssssssssssssssssssssssssccsssssssssssssssssssssssssssssssscccccc" />
  </g>
  <path
     id="path1779"
     style="fill:none;stroke:#ff0000;stroke-width:0.264583"
     d="m 365.14772,32.869655 a 43.401001,43.401001 0 0 0 -40.81716,40.728264 h 40.81716 z m 4.9997,5.17e-4 v 40.727747 h 40.81714 A 43.401001,43.401001 0 0 0 370.14742,32.870172 Z m -45.81686,45.727957 a 43.401001,43.401001 0 0 0 40.81716,40.728261 V 78.598129 Z m 45.81686,0 v 40.726711 a 43.401001,43.401001 0 0 0 40.79801,-40.726711 z" />
</svg>
